<svg xmlns="http://www.w3.org/2000/svg" xmlns:xlink="http://www.w3.org/1999/xlink" xmlns:lucid="lucid" width="882" height="1263.25"><g transform="translate(-738.9999999999998 -50.41192057291674)" lucid:page-tab-id="0_0"><path d="M500 0h1500v1500H500z" fill="#fff"/><path d="M740 104.67a6 6 0 0 1 6-6h868a6 6 0 0 1 6 6v1202a6 6 0 0 1-6 6H746a6 6 0 0 1-6-6z" stroke="#3a414a" stroke-width="2" fill="#fff"/><path d="M740 56.4a6 6 0 0 1 6-6h218.46a6 6 0 0 1 6 6v24.27a6 6 0 0 1-6 6H746a6 6 0 0 1-6-6z" fill="#3a414a"/><use xlink:href="#a" transform="matrix(1,0,0,1,747.9999999999998,58.41192057291674) translate(0 16.589501953125)"/><use xlink:href="#b" transform="matrix(1,0,0,1,747.9999999999998,58.41192057291674) translate(79.555869140625 16.589501953125)"/><use xlink:href="#c" transform="matrix(1,0,0,1,747.9999999999998,58.41192057291674) translate(148.28958984375 16.589501953125)"/><path d="M913.33 448.67a12 12 0 0 1 12-12h496a12 12 0 0 1 12 12v403a12 12 0 0 1-12 12h-496a12 12 0 0 1-12-12z" fill="#fff0fb"/><path d="M913.33 476.67h520v38h-520z" fill="#fff0fb"/><path d="M913.33 513.67h520v70h-520z" fill="#fff0fb"/><path d="M913.33 582.67h520v70h-520z" fill="#fff0fb"/><path d="M913.33 651.67h520v38h-520z" fill="#fff0fb"/><path d="M913.33 688.67h520v70h-520z" fill="#fff0fb"/><path d="M913.33 757.67h520v38h-520z" fill="#fff0fb"/><path d="M913.33 794.67h520v57a12 12 0 0 1-12 12h-496a12 12 0 0 1-12-12z" fill="#fff0fb"/><path d="M914.33 476.67h518-518zM913.33 448.67a12 12 0 0 1 12-12h496a12 12 0 0 1 12 12v403a12 12 0 0 1-12 12h-496a12 12 0 0 1-12-12zM1173.33 477.67v385z" stroke="#ff80df" stroke-width="2" fill="none"/><use xlink:href="#d" transform="matrix(1,0,0,1,923.3333333333333,436.66666666666674) translate(219.34136284722223 28.08376736111111)"/><use xlink:href="#e" transform="matrix(1,0,0,1,918.3333333333333,479.16666666666674) translate(0 24.08376736111111)"/><use xlink:href="#f" transform="matrix(1,0,0,1,918.3333333333333,479.16666666666674) translate(25.23871527777778 24.08376736111111)"/><use xlink:href="#g" transform="matrix(1,0,0,1,1178.3333333333333,479.16666666666674) translate(0 24.08376736111111)"/><use xlink:href="#h" transform="matrix(1,0,0,1,918.3333333333333,516.1666666666667) translate(0 23.95095486111111)"/><use xlink:href="#i" transform="matrix(1,0,0,1,918.3333333333333,516.1666666666667) translate(110.8181423611111 23.95095486111111)"/><use xlink:href="#j" transform="matrix(1,0,0,1,918.3333333333333,516.1666666666667) translate(0 56.21657986111111)"/><use xlink:href="#k" transform="matrix(1,0,0,1,918.3333333333333,516.1666666666667) translate(53.66753472222223 56.21657986111111)"/><use xlink:href="#l" transform="matrix(1,0,0,1,1178.3333333333333,516.1666666666667) translate(0 40.083767361111114)"/><use xlink:href="#m" transform="matrix(1,0,0,1,918.3333333333333,585.1666666666667) translate(0 23.95095486111111)"/><use xlink:href="#n" transform="matrix(1,0,0,1,918.3333333333333,585.1666666666667) translate(61.9140625 23.95095486111111)"/><use xlink:href="#o" transform="matrix(1,0,0,1,918.3333333333333,585.1666666666667) translate(164.6484375 23.95095486111111)"/><use xlink:href="#k" transform="matrix(1,0,0,1,918.3333333333333,585.1666666666667) translate(0 56.21657986111111)"/><use xlink:href="#l" transform="matrix(1,0,0,1,1178.3333333333333,585.1666666666667) translate(0 40.083767361111114)"/><use xlink:href="#p" transform="matrix(1,0,0,1,918.3333333333333,654.1666666666667) translate(0 24.08376736111111)"/><use xlink:href="#q" transform="matrix(1,0,0,1,918.3333333333333,654.1666666666667) translate(108.72395833333333 24.08376736111111)"/><use xlink:href="#k" transform="matrix(1,0,0,1,918.3333333333333,654.1666666666667) translate(172.74305555555554 24.08376736111111)"/><use xlink:href="#l" transform="matrix(1,0,0,1,1178.3333333333333,654.1666666666667) translate(0 24.08376736111111)"/><use xlink:href="#r" transform="matrix(1,0,0,1,918.3333333333333,691.1666666666667) translate(0 23.95095486111111)"/><use xlink:href="#s" transform="matrix(1,0,0,1,918.3333333333333,691.1666666666667) translate(75.78124999999999 23.95095486111111)"/><use xlink:href="#t" transform="matrix(1,0,0,1,918.3333333333333,691.1666666666667) translate(120.43185763888887 23.95095486111111)"/><use xlink:href="#u" transform="matrix(1,0,0,1,918.3333333333333,691.1666666666667) translate(151.60590277777777 23.95095486111111)"/><use xlink:href="#j" transform="matrix(1,0,0,1,918.3333333333333,691.1666666666667) translate(0 56.21657986111111)"/><use xlink:href="#k" transform="matrix(1,0,0,1,918.3333333333333,691.1666666666667) translate(53.66753472222223 56.21657986111111)"/><use xlink:href="#g" transform="matrix(1,0,0,1,1178.3333333333333,691.1666666666667) translate(0 40.083767361111114)"/><use xlink:href="#v" transform="matrix(1,0,0,1,918.3333333333333,760.1666666666667) translate(0 24.08376736111111)"/><use xlink:href="#l" transform="matrix(1,0,0,1,1178.3333333333333,760.1666666666667) translate(0 24.08376736111111)"/><use xlink:href="#w" transform="matrix(1,0,0,1,918.3333333333333,797.1666666666667) translate(0 23.95095486111111)"/><use xlink:href="#x" transform="matrix(1,0,0,1,918.3333333333333,797.1666666666667) translate(116.09157986111111 23.95095486111111)"/><use xlink:href="#y" transform="matrix(1,0,0,1,918.3333333333333,797.1666666666667) translate(0 56.21657986111111)"/><use xlink:href="#z" transform="matrix(1,0,0,1,1178.3333333333333,797.1666666666667) translate(0 40.083767361111114)"/><path d="M991.33 190.67a12 12 0 0 1 12-12h340a12 12 0 0 1 12 12v154a12 12 0 0 1-12 12h-340a12 12 0 0 1-12-12z" fill="#fff0fb"/><path d="M991.33 218.67h364v38h-364z" fill="#fff0fb"/><path d="M991.33 255.67h364v89a12 12 0 0 1-12 12h-340a12 12 0 0 1-12-12z" fill="#fff0fb"/><path d="M992.33 218.67h362-362zM991.33 190.67a12 12 0 0 1 12-12h340a12 12 0 0 1 12 12v154a12 12 0 0 1-12 12h-340a12 12 0 0 1-12-12zM1173.33 219.67v136z" stroke="#ff80df" stroke-width="2" fill="none"/><use xlink:href="#A" transform="matrix(1,0,0,1,1001.3333333333333,178.66666666666674) translate(143.31618923611111 28.08376736111111)"/><use xlink:href="#e" transform="matrix(1,0,0,1,996.3333333333333,221.16666666666674) translate(0 24.08376736111111)"/><use xlink:href="#f" transform="matrix(1,0,0,1,996.3333333333333,221.16666666666674) translate(25.23871527777778 24.08376736111111)"/><use xlink:href="#g" transform="matrix(1,0,0,1,1178.3333333333333,221.16666666666674) translate(0 24.08376736111111)"/><use xlink:href="#B" transform="matrix(1,0,0,1,996.3333333333333,258.16666666666674) translate(0 23.818142361111114)"/><use xlink:href="#n" transform="matrix(1,0,0,1,996.3333333333333,258.16666666666674) translate(0 56.083767361111114)"/><use xlink:href="#o" transform="matrix(1,0,0,1,996.3333333333333,258.16666666666674) translate(102.734375 56.083767361111114)"/><use xlink:href="#k" transform="matrix(1,0,0,1,996.3333333333333,258.16666666666674) translate(0 88.34939236111111)"/><use xlink:href="#l" transform="matrix(1,0,0,1,1178.3333333333333,258.16666666666674) translate(0 56.08376736111111)"/><path d="M913.33 955.67a12 12 0 0 1 12-12h496a12 12 0 0 1 12 12v265a12 12 0 0 1-12 12h-496a12 12 0 0 1-12-12z" fill="#fff0fb"/><path d="M913.33 983.67h520v38h-520z" fill="#fff0fb"/><path d="M913.33 1020.67h520v38h-520z" fill="#fff0fb"/><path d="M913.33 1057.67h520v38h-520z" fill="#fff0fb"/><path d="M913.33 1094.67h520v70h-520z" fill="#fff0fb"/><path d="M913.33 1163.67h520v57a12 12 0 0 1-12 12h-496a12 12 0 0 1-12-12z" fill="#fff0fb"/><path d="M914.33 983.67h518-518zM913.33 955.67a12 12 0 0 1 12-12h496a12 12 0 0 1 12 12v265a12 12 0 0 1-12 12h-496a12 12 0 0 1-12-12zM1173.33 984.67v247z" stroke="#ff80df" stroke-width="2" fill="none"/><use xlink:href="#C" transform="matrix(1,0,0,1,923.3333333333333,943.6666666666667) translate(190.234375 28.08376736111111)"/><use xlink:href="#e" transform="matrix(1,0,0,1,918.3333333333333,986.1666666666667) translate(0 24.08376736111111)"/><use xlink:href="#f" transform="matrix(1,0,0,1,918.3333333333333,986.1666666666667) translate(25.23871527777778 24.08376736111111)"/><use xlink:href="#g" transform="matrix(1,0,0,1,1178.3333333333333,986.1666666666667) translate(0 24.08376736111111)"/><use xlink:href="#D" transform="matrix(1,0,0,1,918.3333333333333,1023.1666666666667) translate(0 24.08376736111111)"/><use xlink:href="#q" transform="matrix(1,0,0,1,918.3333333333333,1023.1666666666667) translate(44.50954861111111 24.08376736111111)"/><use xlink:href="#k" transform="matrix(1,0,0,1,918.3333333333333,1023.1666666666667) translate(108.52864583333334 24.08376736111111)"/><use xlink:href="#l" transform="matrix(1,0,0,1,1178.3333333333333,1023.1666666666667) translate(0 24.08376736111111)"/><use xlink:href="#E" transform="matrix(1,0,0,1,918.3333333333333,1060.1666666666667) translate(0 24.08376736111111)"/><use xlink:href="#q" transform="matrix(1,0,0,1,918.3333333333333,1060.1666666666667) translate(96.22395833333333 24.08376736111111)"/><use xlink:href="#k" transform="matrix(1,0,0,1,918.3333333333333,1060.1666666666667) translate(160.24305555555554 24.08376736111111)"/><use xlink:href="#l" transform="matrix(1,0,0,1,1178.3333333333333,1060.1666666666667) translate(0 24.08376736111111)"/><use xlink:href="#F" transform="matrix(1,0,0,1,918.3333333333333,1097.1666666666667) translate(0 23.95095486111111)"/><use xlink:href="#s" transform="matrix(1,0,0,1,918.3333333333333,1097.1666666666667) translate(101.68185763888889 23.95095486111111)"/><use xlink:href="#G" transform="matrix(1,0,0,1,918.3333333333333,1097.1666666666667) translate(146.33246527777777 23.95095486111111)"/><use xlink:href="#H" transform="matrix(1,0,0,1,918.3333333333333,1097.1666666666667) translate(0 56.21657986111111)"/><use xlink:href="#j" transform="matrix(1,0,0,1,918.3333333333333,1097.1666666666667) translate(92.95789930555554 56.21657986111111)"/><use xlink:href="#k" transform="matrix(1,0,0,1,918.3333333333333,1097.1666666666667) translate(146.62543402777777 56.21657986111111)"/><use xlink:href="#g" transform="matrix(1,0,0,1,1178.3333333333333,1097.1666666666667) translate(0 40.083767361111114)"/><use xlink:href="#I" transform="matrix(1,0,0,1,918.3333333333333,1166.1666666666667) translate(0 23.95095486111111)"/><use xlink:href="#x" transform="matrix(1,0,0,1,918.3333333333333,1166.1666666666667) translate(134.45095486111111 23.95095486111111)"/><use xlink:href="#y" transform="matrix(1,0,0,1,918.3333333333333,1166.1666666666667) translate(0 56.21657986111111)"/><use xlink:href="#z" transform="matrix(1,0,0,1,1178.3333333333333,1166.1666666666667) translate(0 40.083767361111114)"/><path d="M1473.8 812.3h-.94V521.02h.95zm-5.45-527.43l1 .23.92.4.87.52.77.66.67.78.53.86.4.94.23 1 .08.98v208.28h-.94V291.28l-.07-.88-.2-.84-.34-.8-.46-.74-.56-.66-.66-.57-.74-.46-.8-.33-.84-.2-.88-.06h-91v-.95h91.03z" stroke="#3a414a" stroke-width=".05" fill="#3a414a"/><path d="M1366.8 284.8h9.06v-9.54h.95v20h-.94v-9.52h-9.05v9.52h-.94v-9.52h-9.53v-.95h9.53v-9.54h.95z" stroke="#3a414a" stroke-width=".05" fill="#3a414a"/><path d="M1467.7 803.03l2.75 1.42 2.17 2.16 1.42 2.76.5 3.16-.5 3.16-1.42 2.74-2.17 2.17-2.74 1.4-3.15.52-3.16-.5-2.76-1.43-2.16-2.18-1.42-2.74-.5-3.16.5-3.16 1.42-2.75 2.16-2.15 2.75-1.42 3.15-.5zm-32.9 20.25l19.75-10.5m-20 .5l20-.5m-20.25-9.5l20.25 9.5" fill="#fff"/><path d="M1467.86 802.57l2.88 1.5 2.27 2.26 1.5 2.88.53 3.32-.54 3.3-1.5 2.9-2.26 2.26-2.88 1.48-3.3.54-3.32-.54-2.88-1.48-2.27-2.27-1.5-2.87-.38-2.34-19.18 10.2-.45-.84 17.95-9.56-17.98.46-.02-.95 17.98-.45-18.43-8.63.4-.86 19.64 9.2.46-2.85 1.5-2.87 2.26-2.27 2.88-1.5 3.3-.52zm-6.32.9l-2.62 1.36-2.06 2.06-1.35 2.6-.47 3.02.48 3 1.36 2.62 2.07 2.06 2.6 1.35 3.02.5 3-.5 2.62-1.35 2.06-2.06 1.35-2.6.5-3.02-.5-3-1.35-2.63-2.06-2.07-2.6-1.35-3.02-.48z" stroke="#3a414a" stroke-width=".05" fill="#3a414a"/><use xlink:href="#J" transform="matrix(1,0,0,1,1434.5833333333333,499.5220352564104) translate(0 17.22222222222222)"/><path d="M873.8 1217.16h-.94V943.48h.95zm18.53-403.4h-12.98l-.88.08-.84.2-.8.33-.74.45-.67.57-.56.64-.46.74-.32.8-.2.85-.07.88v102.67h-.94v-102.7l.08-1 .23-.98.4-.95.52-.87.65-.77.78-.65.86-.53.93-.4 1-.23 1-.08h13z" stroke="#3a414a" stroke-width=".05" fill="#3a414a"/><path d="M892.8 812.82h9.06v-9.53h.95v9.52h9.53v.95h-9.52v9.52h-.94v-9.53h-9.05v9.52h-.94v-20h.95z" stroke="#3a414a" stroke-width=".05" fill="#3a414a"/><path d="M885.28 1207.9l2.75 1.42 2.16 2.16 1.4 2.75.52 3.16-.5 3.15-1.43 2.75-2.17 2.16-2.75 1.42-3.16.5-3.16-.5-2.75-1.42-2.15-2.16-1.42-2.75-.5-3.16.5-3.17 1.42-2.75 2.16-2.16 2.76-1.42 3.16-.5zm26.57 20.26l-19.73-10.5m20 .5l-20-.5m20.25-9.5l-20.25 9.5" fill="#fff"/><path d="M885.43 1207.44l2.88 1.5 2.28 2.26 1.5 2.88.45 2.85 19.63-9.2.4.86-18.42 8.62 17.98.46-.02.95-17.98-.46 17.96 9.57-.45.84-19.2-10.22-.36 2.34-1.5 2.88-2.26 2.27-2.87 1.5-3.3.52-3.32-.53-2.87-1.5-2.27-2.26-1.5-2.88-.52-3.3.53-3.32 1.5-2.88 2.26-2.27 2.88-1.5 3.32-.52zm-6.32.92l-2.6 1.35-2.06 2.07-1.35 2.6-.5 3.02.5 3 1.34 2.6 2.06 2.07 2.6 1.35 3.02.5 3-.5 2.62-1.35 2.06-2.06 1.35-2.6.5-3-.5-3.02-1.35-2.6-2.06-2.07-2.6-1.34-3.02-.5z" stroke="#3a414a" stroke-width=".05" fill="#3a414a"/><use xlink:href="#K" transform="matrix(1,0,0,1,823.9843749999999,921.9729967948729) translate(0 17.22222222222222)"/><path d="M740 104.67a6 6 0 0 1 6-6h868a6 6 0 0 1 6 6v1202a6 6 0 0 1-6 6H746a6 6 0 0 1-6-6z" stroke="#3a414a" stroke-width="2" fill="#fff"/><path d="M740 56.4a6 6 0 0 1 6-6h218.46a6 6 0 0 1 6 6v24.27a6 6 0 0 1-6 6H746a6 6 0 0 1-6-6z" fill="#3a414a"/><use xlink:href="#a" transform="matrix(1,0,0,1,747.9999999999998,58.41192057291674) translate(0 16.589501953125)"/><use xlink:href="#b" transform="matrix(1,0,0,1,747.9999999999998,58.41192057291674) translate(79.555869140625 16.589501953125)"/><use xlink:href="#c" transform="matrix(1,0,0,1,747.9999999999998,58.41192057291674) translate(148.28958984375 16.589501953125)"/><path d="M913.33 448.67a12 12 0 0 1 12-12h496a12 12 0 0 1 12 12v403a12 12 0 0 1-12 12h-496a12 12 0 0 1-12-12z" fill="#fff0fb"/><path d="M913.33 476.67h520v38h-520z" fill="#fff0fb"/><path d="M913.33 513.67h520v70h-520z" fill="#fff0fb"/><path d="M913.33 582.67h520v70h-520z" fill="#fff0fb"/><path d="M913.33 651.67h520v38h-520z" fill="#fff0fb"/><path d="M913.33 688.67h520v70h-520z" fill="#fff0fb"/><path d="M913.33 757.67h520v38h-520z" fill="#fff0fb"/><path d="M913.33 794.67h520v57a12 12 0 0 1-12 12h-496a12 12 0 0 1-12-12z" fill="#fff0fb"/><path d="M914.33 476.67h518-518zM913.33 448.67a12 12 0 0 1 12-12h496a12 12 0 0 1 12 12v403a12 12 0 0 1-12 12h-496a12 12 0 0 1-12-12zM1173.33 477.67v385z" stroke="#ff80df" stroke-width="2" fill="none"/><use xlink:href="#d" transform="matrix(1,0,0,1,923.3333333333333,436.66666666666674) translate(219.34136284722223 28.08376736111111)"/><use xlink:href="#e" transform="matrix(1,0,0,1,918.3333333333333,479.16666666666674) translate(0 24.08376736111111)"/><use xlink:href="#f" transform="matrix(1,0,0,1,918.3333333333333,479.16666666666674) translate(25.23871527777778 24.08376736111111)"/><use xlink:href="#g" transform="matrix(1,0,0,1,1178.3333333333333,479.16666666666674) translate(0 24.08376736111111)"/><use xlink:href="#h" transform="matrix(1,0,0,1,918.3333333333333,516.1666666666667) translate(0 23.95095486111111)"/><use xlink:href="#i" transform="matrix(1,0,0,1,918.3333333333333,516.1666666666667) translate(110.8181423611111 23.95095486111111)"/><use xlink:href="#j" transform="matrix(1,0,0,1,918.3333333333333,516.1666666666667) translate(0 56.21657986111111)"/><use xlink:href="#k" transform="matrix(1,0,0,1,918.3333333333333,516.1666666666667) translate(53.66753472222223 56.21657986111111)"/><use xlink:href="#l" transform="matrix(1,0,0,1,1178.3333333333333,516.1666666666667) translate(0 40.083767361111114)"/><use xlink:href="#m" transform="matrix(1,0,0,1,918.3333333333333,585.1666666666667) translate(0 23.95095486111111)"/><use xlink:href="#n" transform="matrix(1,0,0,1,918.3333333333333,585.1666666666667) translate(61.9140625 23.95095486111111)"/><use xlink:href="#o" transform="matrix(1,0,0,1,918.3333333333333,585.1666666666667) translate(164.6484375 23.95095486111111)"/><use xlink:href="#k" transform="matrix(1,0,0,1,918.3333333333333,585.1666666666667) translate(0 56.21657986111111)"/><use xlink:href="#l" transform="matrix(1,0,0,1,1178.3333333333333,585.1666666666667) translate(0 40.083767361111114)"/><use xlink:href="#p" transform="matrix(1,0,0,1,918.3333333333333,654.1666666666667) translate(0 24.08376736111111)"/><use xlink:href="#q" transform="matrix(1,0,0,1,918.3333333333333,654.1666666666667) translate(108.72395833333333 24.08376736111111)"/><use xlink:href="#k" transform="matrix(1,0,0,1,918.3333333333333,654.1666666666667) translate(172.74305555555554 24.08376736111111)"/><use xlink:href="#l" transform="matrix(1,0,0,1,1178.3333333333333,654.1666666666667) translate(0 24.08376736111111)"/><use xlink:href="#r" transform="matrix(1,0,0,1,918.3333333333333,691.1666666666667) translate(0 23.95095486111111)"/><use xlink:href="#s" transform="matrix(1,0,0,1,918.3333333333333,691.1666666666667) translate(75.78124999999999 23.95095486111111)"/><use xlink:href="#t" transform="matrix(1,0,0,1,918.3333333333333,691.1666666666667) translate(120.43185763888887 23.95095486111111)"/><use xlink:href="#u" transform="matrix(1,0,0,1,918.3333333333333,691.1666666666667) translate(151.60590277777777 23.95095486111111)"/><use xlink:href="#j" transform="matrix(1,0,0,1,918.3333333333333,691.1666666666667) translate(0 56.21657986111111)"/><use xlink:href="#k" transform="matrix(1,0,0,1,918.3333333333333,691.1666666666667) translate(53.66753472222223 56.21657986111111)"/><g><use xlink:href="#g" transform="matrix(1,0,0,1,1178.3333333333333,691.1666666666667) translate(0 40.083767361111114)"/></g><g><use xlink:href="#v" transform="matrix(1,0,0,1,918.3333333333333,760.1666666666667) translate(0 24.08376736111111)"/></g><g><use xlink:href="#l" transform="matrix(1,0,0,1,1178.3333333333333,760.1666666666667) translate(0 24.08376736111111)"/></g><g><use xlink:href="#w" transform="matrix(1,0,0,1,918.3333333333333,797.1666666666667) translate(0 23.95095486111111)"/><use xlink:href="#x" transform="matrix(1,0,0,1,918.3333333333333,797.1666666666667) translate(116.09157986111111 23.95095486111111)"/><use xlink:href="#y" transform="matrix(1,0,0,1,918.3333333333333,797.1666666666667) translate(0 56.21657986111111)"/></g><g><use xlink:href="#z" transform="matrix(1,0,0,1,1178.3333333333333,797.1666666666667) translate(0 40.083767361111114)"/></g><path d="M991.33 190.67a12 12 0 0 1 12-12h340a12 12 0 0 1 12 12v154a12 12 0 0 1-12 12h-340a12 12 0 0 1-12-12z" fill="#fff0fb"/><path d="M991.33 218.67h364v38h-364z" fill="#fff0fb"/><path d="M991.33 255.67h364v89a12 12 0 0 1-12 12h-340a12 12 0 0 1-12-12z" fill="#fff0fb"/><path d="M992.33 218.67h362-362zM991.33 190.67a12 12 0 0 1 12-12h340a12 12 0 0 1 12 12v154a12 12 0 0 1-12 12h-340a12 12 0 0 1-12-12zM1173.33 219.67v136z" stroke="#ff80df" stroke-width="2" fill="none"/><g><use xlink:href="#A" transform="matrix(1,0,0,1,1001.3333333333333,178.66666666666674) translate(143.31618923611111 28.08376736111111)"/></g><g><use xlink:href="#e" transform="matrix(1,0,0,1,996.3333333333333,221.16666666666674) translate(0 24.08376736111111)"/><use xlink:href="#f" transform="matrix(1,0,0,1,996.3333333333333,221.16666666666674) translate(25.23871527777778 24.08376736111111)"/></g><g><use xlink:href="#g" transform="matrix(1,0,0,1,1178.3333333333333,221.16666666666674) translate(0 24.08376736111111)"/></g><g><use xlink:href="#B" transform="matrix(1,0,0,1,996.3333333333333,258.16666666666674) translate(0 23.818142361111114)"/><use xlink:href="#n" transform="matrix(1,0,0,1,996.3333333333333,258.16666666666674) translate(0 56.083767361111114)"/><use xlink:href="#o" transform="matrix(1,0,0,1,996.3333333333333,258.16666666666674) translate(102.734375 56.083767361111114)"/><use xlink:href="#k" transform="matrix(1,0,0,1,996.3333333333333,258.16666666666674) translate(0 88.34939236111111)"/></g><g><use xlink:href="#l" transform="matrix(1,0,0,1,1178.3333333333333,258.16666666666674) translate(0 56.08376736111111)"/></g><path d="M913.33 955.67a12 12 0 0 1 12-12h496a12 12 0 0 1 12 12v265a12 12 0 0 1-12 12h-496a12 12 0 0 1-12-12z" fill="#fff0fb"/><path d="M913.33 983.67h520v38h-520z" fill="#fff0fb"/><path d="M913.33 1020.67h520v38h-520z" fill="#fff0fb"/><path d="M913.33 1057.67h520v38h-520z" fill="#fff0fb"/><path d="M913.33 1094.67h520v70h-520z" fill="#fff0fb"/><path d="M913.33 1163.67h520v57a12 12 0 0 1-12 12h-496a12 12 0 0 1-12-12z" fill="#fff0fb"/><path d="M914.33 983.67h518-518zM913.33 955.67a12 12 0 0 1 12-12h496a12 12 0 0 1 12 12v265a12 12 0 0 1-12 12h-496a12 12 0 0 1-12-12zM1173.33 984.67v247z" stroke="#ff80df" stroke-width="2" fill="none"/><g><use xlink:href="#C" transform="matrix(1,0,0,1,923.3333333333333,943.6666666666667) translate(190.234375 28.08376736111111)"/></g><g><use xlink:href="#e" transform="matrix(1,0,0,1,918.3333333333333,986.1666666666667) translate(0 24.08376736111111)"/><use xlink:href="#f" transform="matrix(1,0,0,1,918.3333333333333,986.1666666666667) translate(25.23871527777778 24.08376736111111)"/></g><g><use xlink:href="#g" transform="matrix(1,0,0,1,1178.3333333333333,986.1666666666667) translate(0 24.08376736111111)"/></g><g><use xlink:href="#D" transform="matrix(1,0,0,1,918.3333333333333,1023.1666666666667) translate(0 24.08376736111111)"/><use xlink:href="#q" transform="matrix(1,0,0,1,918.3333333333333,1023.1666666666667) translate(44.50954861111111 24.08376736111111)"/><use xlink:href="#k" transform="matrix(1,0,0,1,918.3333333333333,1023.1666666666667) translate(108.52864583333334 24.08376736111111)"/></g><g><use xlink:href="#l" transform="matrix(1,0,0,1,1178.3333333333333,1023.1666666666667) translate(0 24.08376736111111)"/></g><g><use xlink:href="#E" transform="matrix(1,0,0,1,918.3333333333333,1060.1666666666667) translate(0 24.08376736111111)"/><use xlink:href="#q" transform="matrix(1,0,0,1,918.3333333333333,1060.1666666666667) translate(96.22395833333333 24.08376736111111)"/><use xlink:href="#k" transform="matrix(1,0,0,1,918.3333333333333,1060.1666666666667) translate(160.24305555555554 24.08376736111111)"/></g><g><use xlink:href="#l" transform="matrix(1,0,0,1,1178.3333333333333,1060.1666666666667) translate(0 24.08376736111111)"/></g><g><use xlink:href="#F" transform="matrix(1,0,0,1,918.3333333333333,1097.1666666666667) translate(0 23.95095486111111)"/><use xlink:href="#s" transform="matrix(1,0,0,1,918.3333333333333,1097.1666666666667) translate(101.68185763888889 23.95095486111111)"/><use xlink:href="#G" transform="matrix(1,0,0,1,918.3333333333333,1097.1666666666667) translate(146.33246527777777 23.95095486111111)"/><use xlink:href="#H" transform="matrix(1,0,0,1,918.3333333333333,1097.1666666666667) translate(0 56.21657986111111)"/><use xlink:href="#j" transform="matrix(1,0,0,1,918.3333333333333,1097.1666666666667) translate(92.95789930555554 56.21657986111111)"/><use xlink:href="#k" transform="matrix(1,0,0,1,918.3333333333333,1097.1666666666667) translate(146.62543402777777 56.21657986111111)"/></g><g><use xlink:href="#g" transform="matrix(1,0,0,1,1178.3333333333333,1097.1666666666667) translate(0 40.083767361111114)"/></g><g><use xlink:href="#I" transform="matrix(1,0,0,1,918.3333333333333,1166.1666666666667) translate(0 23.95095486111111)"/><use xlink:href="#x" transform="matrix(1,0,0,1,918.3333333333333,1166.1666666666667) translate(134.45095486111111 23.95095486111111)"/><use xlink:href="#y" transform="matrix(1,0,0,1,918.3333333333333,1166.1666666666667) translate(0 56.21657986111111)"/></g><g><use xlink:href="#z" transform="matrix(1,0,0,1,1178.3333333333333,1166.1666666666667) translate(0 40.083767361111114)"/></g><path d="M1473.8 812.3h-.94V521.02h.95zm-5.45-527.43l1 .23.92.4.87.52.77.66.67.78.53.86.4.94.23 1 .08.98v208.28h-.94V291.28l-.07-.88-.2-.84-.34-.8-.46-.74-.56-.66-.66-.57-.74-.46-.8-.33-.84-.2-.88-.06h-91v-.95h91.03z" stroke="#3a414a" stroke-width=".05" fill="#3a414a"/><path d="M1366.8 284.8h9.06v-9.54h.95v20h-.94v-9.52h-9.05v9.52h-.94v-9.52h-9.53v-.95h9.53v-9.54h.95z" stroke="#3a414a" stroke-width=".05" fill="#3a414a"/><path d="M1467.7 803.03l2.75 1.42 2.17 2.16 1.42 2.76.5 3.16-.5 3.16-1.42 2.74-2.17 2.17-2.74 1.4-3.15.52-3.16-.5-2.76-1.43-2.16-2.18-1.42-2.74-.5-3.16.5-3.16 1.42-2.75 2.16-2.15 2.75-1.42 3.15-.5zm-32.9 20.25l19.75-10.5m-20 .5l20-.5m-20.25-9.5l20.25 9.5" fill="#fff"/><path d="M1467.86 802.57l2.88 1.5 2.27 2.26 1.5 2.88.53 3.32-.54 3.3-1.5 2.9-2.26 2.26-2.88 1.48-3.3.54-3.32-.54-2.88-1.48-2.27-2.27-1.5-2.87-.38-2.34-19.18 10.2-.45-.84 17.95-9.56-17.98.46-.02-.95 17.98-.45-18.43-8.63.4-.86 19.64 9.2.46-2.85 1.5-2.87 2.26-2.27 2.88-1.5 3.3-.52zm-6.32.9l-2.62 1.36-2.06 2.06-1.35 2.6-.47 3.02.48 3 1.36 2.62 2.07 2.06 2.6 1.35 3.02.5 3-.5 2.62-1.35 2.06-2.06 1.35-2.6.5-3.02-.5-3-1.35-2.63-2.06-2.07-2.6-1.35-3.02-.48z" stroke="#3a414a" stroke-width=".05" fill="#3a414a"/><g><use xlink:href="#J" transform="matrix(1,0,0,1,1434.5833333333333,499.5220352564104) translate(0 17.22222222222222)"/></g><path d="M873.8 1217.16h-.94V943.48h.95zm18.53-403.4h-12.98l-.88.08-.84.2-.8.33-.74.45-.67.57-.56.64-.46.74-.32.8-.2.85-.07.88v102.67h-.94v-102.7l.08-1 .23-.98.4-.95.52-.87.65-.77.78-.65.86-.53.93-.4 1-.23 1-.08h13z" stroke="#3a414a" stroke-width=".05" fill="#3a414a"/><path d="M892.8 812.82h9.06v-9.53h.95v9.52h9.53v.95h-9.52v9.52h-.94v-9.53h-9.05v9.52h-.94v-20h.95z" stroke="#3a414a" stroke-width=".05" fill="#3a414a"/><path d="M885.28 1207.9l2.75 1.42 2.16 2.16 1.4 2.75.52 3.16-.5 3.15-1.43 2.75-2.17 2.16-2.75 1.42-3.16.5-3.16-.5-2.75-1.42-2.15-2.16-1.42-2.75-.5-3.16.5-3.17 1.42-2.75 2.16-2.16 2.76-1.42 3.16-.5zm26.57 20.26l-19.73-10.5m20 .5l-20-.5m20.25-9.5l-20.25 9.5" fill="#fff"/><path d="M885.43 1207.44l2.88 1.5 2.28 2.26 1.5 2.88.45 2.85 19.63-9.2.4.86-18.42 8.62 17.98.46-.02.95-17.98-.46 17.96 9.57-.45.84-19.2-10.22-.36 2.34-1.5 2.88-2.26 2.27-2.87 1.5-3.3.52-3.32-.53-2.87-1.5-2.27-2.26-1.5-2.88-.52-3.3.53-3.32 1.5-2.88 2.26-2.27 2.88-1.5 3.32-.52zm-6.32.92l-2.6 1.35-2.06 2.07-1.35 2.6-.5 3.02.5 3 1.34 2.6 2.06 2.07 2.6 1.35 3.02.5 3-.5 2.62-1.35 2.06-2.06 1.35-2.6.5-3-.5-3.02-1.35-2.6-2.06-2.07-2.6-1.34-3.02-.5z" stroke="#3a414a" stroke-width=".05" fill="#3a414a"/><g><use xlink:href="#K" transform="matrix(1,0,0,1,823.9843749999999,921.9729967948729) translate(0 17.22222222222222)"/></g><defs><path fill="#fff" d="M645 0H180v-1490h484c435 0 692 280 692 742 0 466-257 748-711 748zM370-168h263c363 0 539-218 539-580 0-358-176-574-521-574H370v1154" id="L"/><path fill="#fff" d="M471 26C259 26 90-98 90-318c0-256 228-303 435-329 202-27 287-16 287-108 0-139-79-219-234-219-161 0-248 86-283 164l-173-57c86-203 278-265 451-265 150 0 419 46 419 395V0H815v-152h-12C765-73 660 26 471 26zm31-159c199 0 310-134 310-271v-155c-30 35-226 55-295 64-131 17-246 59-246 186 0 116 97 176 231 176" id="M"/><path fill="#fff" d="M598-1118v154H368v674c0 100 37 144 132 144 23 0 62-6 92-12L629-6c-37 13-88 20-134 20-193 0-307-107-307-290v-688H20v-154h168v-266h180v266h230" id="N"/><path fill="#fff" d="M677 24c-213 0-288-135-325-197h-20V0H158v-1490h180v551h14c37-59 106-193 324-193 279 0 474 222 474 576 0 356-194 580-473 580zm-27-161c209 0 317-186 317-421 0-232-105-413-317-413-206 0-314 166-314 413 0 249 111 421 314 421" id="O"/><path fill="#fff" d="M538 24C308 24 148-78 108-271l171-41c32 123 123 178 257 178 156 0 256-77 256-169 0-77-54-128-164-154l-186-44c-203-48-300-148-300-305 0-192 176-326 414-326 230 0 351 112 402 269l-163 42c-31-80-94-158-238-158-133 0-233 69-233 162 0 83 57 129 188 160l169 40c203 48 298 149 298 302 0 196-179 339-441 339" id="P"/><path fill="#fff" d="M628 24c-324 0-524-230-524-574 0-343 198-582 503-582 237 0 487 146 487 559v75H286c9 234 145 362 343 362 132 0 231-58 273-172l174 48C1024-91 857 24 628 24zM287-650h624c-17-190-120-322-304-322-192 0-309 151-320 322" id="Q"/><g id="a"><use transform="matrix(0.008173828125000001,0,0,0.008173828125000001,0,0)" xlink:href="#L"/><use transform="matrix(0.008173828125000001,0,0,0.008173828125000001,12.08091796875,0)" xlink:href="#M"/><use transform="matrix(0.008173828125000001,0,0,0.008173828125000001,21.4808203125,0)" xlink:href="#N"/><use transform="matrix(0.008173828125000001,0,0,0.008173828125000001,27.039023437500003,0)" xlink:href="#M"/><use transform="matrix(0.008173828125000001,0,0,0.008173828125000001,36.438925781250006,0)" xlink:href="#O"/><use transform="matrix(0.008173828125000001,0,0,0.008173828125000001,46.85238281250001,0)" xlink:href="#M"/><use transform="matrix(0.008173828125000001,0,0,0.008173828125000001,56.25228515625001,0)" xlink:href="#P"/><use transform="matrix(0.008173828125000001,0,0,0.008173828125000001,65.08819335937501,0)" xlink:href="#Q"/></g><path fill="#fff" d="M657 26c-323 0-524-166-541-416h195c15 169 171 246 346 246 202 0 356-106 356-265 5-203-294-238-475-293-239-73-380-191-380-389 0-252 224-419 512-419 294 0 499 171 508 396H992c-17-145-151-228-328-228-193 0-321 102-321 242 0 156 175 211 284 241l149 41c160 44 422 134 422 412 0 244-197 432-541 432" id="R"/><path fill="#fff" d="M613 24c-304 0-509-231-509-576 0-350 205-580 509-580 216 0 392 114 453 309l-173 49c-33-115-133-197-280-197-223 0-326 196-326 419 0 220 103 415 326 415 150 0 252-85 285-206l172 49C1010-95 832 24 613 24" id="S"/><path fill="#fff" d="M338-670V0H158v-1490h180v566c73-149 190-208 336-208 226 0 379 139 379 422V0H872v-695c0-172-96-275-252-275-161 0-282 109-282 300" id="T"/><path fill="#fff" d="M158 0v-1118h175l1 205c55-151 181-225 313-225 147 0 245 90 285 228 53-141 190-228 352-228 194 0 352 125 352 384V0h-181v-749c0-161-105-225-225-225-151 0-243 103-243 244V0H807v-767c0-124-93-207-219-207-131 0-250 92-250 270V0H158" id="U"/><g id="b"><use transform="matrix(0.008173828125000001,0,0,0.008173828125000001,0,0)" xlink:href="#R"/><use transform="matrix(0.008173828125000001,0,0,0.008173828125000001,10.740410156250002,0)" xlink:href="#S"/><use transform="matrix(0.008173828125000001,0,0,0.008173828125000001,20.3037890625,0)" xlink:href="#T"/><use transform="matrix(0.008173828125000001,0,0,0.008173828125000001,30.202294921875,0)" xlink:href="#Q"/><use transform="matrix(0.008173828125000001,0,0,0.008173828125000001,39.961845703125,0)" xlink:href="#U"/><use transform="matrix(0.008173828125000001,0,0,0.008173828125000001,54.625693359375006,0)" xlink:href="#M"/></g><path fill="#fff" d="M158 0v-1118h180V0H158zm91-1301c-68 0-125-53-125-119s57-119 125-119c69 0 126 53 126 119s-57 119-126 119" id="V"/><path fill="#fff" d="M611 442c-248 0-391-105-460-228l146-94c47 65 117 165 314 165 178 0 307-82 307-266v-224h-17C863-141 792-18 576-18c-268 0-472-195-472-546 0-346 197-568 476-568 216 0 288 133 326 193h17v-179h175V29c0 289-215 413-487 413zm-5-620c203 0 314-146 314-390 0-237-108-403-314-403-213 0-319 180-319 403 0 230 109 390 319 390" id="W"/><path fill="#fff" d="M158 0v-1118h174v172h12c41-113 157-188 290-188 26 0 70 2 91 3v181c-11-2-60-10-108-10-161 0-279 109-279 260V0H158" id="X"/><g id="c"><use transform="matrix(0.008173828125000001,0,0,0.008173828125000001,0,0)" xlink:href="#L"/><use transform="matrix(0.008173828125000001,0,0,0.008173828125000001,12.08091796875,0)" xlink:href="#V"/><use transform="matrix(0.008173828125000001,0,0,0.008173828125000001,16.13513671875,0)" xlink:href="#M"/><use transform="matrix(0.008173828125000001,0,0,0.008173828125000001,25.535039062500005,0)" xlink:href="#W"/><use transform="matrix(0.008173828125000001,0,0,0.008173828125000001,35.801367187500006,0)" xlink:href="#X"/><use transform="matrix(0.008173828125000001,0,0,0.008173828125000001,42.10338867187501,0)" xlink:href="#M"/><use transform="matrix(0.008173828125000001,0,0,0.008173828125000001,51.50329101562501,0)" xlink:href="#U"/></g><path d="M763 24c-353 0-583-224-583-531v-983h190v968c0 214 149 370 393 370 243 0 391-156 391-370v-968h190v983c0 307-230 531-581 531" id="Y"/><path d="M538 24C308 24 148-78 108-271l171-41c32 123 123 178 257 178 156 0 256-77 256-169 0-77-54-128-164-154l-186-44c-203-48-300-148-300-305 0-192 176-326 414-326 230 0 351 112 402 269l-163 42c-31-80-94-158-238-158-133 0-233 69-233 162 0 83 57 129 188 160l169 40c203 48 298 149 298 302 0 196-179 339-441 339" id="Z"/><path d="M628 24c-324 0-524-230-524-574 0-343 198-582 503-582 237 0 487 146 487 559v75H286c9 234 145 362 343 362 132 0 231-58 273-172l174 48C1024-91 857 24 628 24zM287-650h624c-17-190-120-322-304-322-192 0-309 151-320 322" id="aa"/><path d="M158 0v-1118h174v172h12c41-113 157-188 290-188 26 0 70 2 91 3v181c-11-2-60-10-108-10-161 0-279 109-279 260V0H158" id="ab"/><g id="d"><use transform="matrix(0.010850694444444444,0,0,0.010850694444444444,0,0)" xlink:href="#Y"/><use transform="matrix(0.010850694444444444,0,0,0.010850694444444444,16.536458333333332,0)" xlink:href="#Z"/><use transform="matrix(0.010850694444444444,0,0,0.010850694444444444,28.266059027777775,0)" xlink:href="#aa"/><use transform="matrix(0.010850694444444444,0,0,0.010850694444444444,41.22178819444444,0)" xlink:href="#ab"/><use transform="matrix(0.010850694444444444,0,0,0.010850694444444444,49.58767361111111,0)" xlink:href="#Z"/></g><path d="M158 0v-1118h180V0H158zm91-1301c-68 0-125-53-125-119s57-119 125-119c69 0 126 53 126 119s-57 119-126 119" id="ac"/><path d="M577 24c-279 0-473-224-473-580 0-354 195-576 474-576 218 0 287 134 324 193h14v-551h180V0H922v-173h-20C865-111 790 24 577 24zm27-161c203 0 314-172 314-421 0-247-108-413-314-413-212 0-317 181-317 413 0 235 108 421 317 421" id="ad"/><g id="e"><use transform="matrix(0.010850694444444444,0,0,0.010850694444444444,0,0)" xlink:href="#ac"/><use transform="matrix(0.010850694444444444,0,0,0.010850694444444444,5.381944444444445,0)" xlink:href="#ad"/></g><path d="M180 0v-1490h510c348 0 508 209 508 474 0 266-160 477-507 477H370V0H180zm190-706h312c236 0 327-133 327-310 0-176-91-307-329-307H370v617" id="ae"/><path d="M180 0v-1490h190c0 262 1 526-3 784 217-279 467-523 702-784h249L716-845 1319 0h-225L585-716 370-489V0H180" id="af"/><g id="f"><use transform="matrix(0.010850694444444444,0,0,0.010850694444444444,0,0)" xlink:href="#ae"/><use transform="matrix(0.010850694444444444,0,0,0.010850694444444444,14.192708333333332,0)" xlink:href="#af"/></g><path d="M370-1490V0H180v-1490h190" id="ag"/><path d="M180 0v-1490h224l606 953c40 63 108 177 176 312-27-437-7-821-13-1265h190V0h-226C860-448 622-778 356-1262c27 476 11 792 15 1262H180" id="ah"/><path d="M98-1322v-168h1126v168H757V0H567v-1322H98" id="ai"/><path d="M180 0v-1490h908v168H370v486h669v168H370v500h727V0H180" id="aj"/><path d="M789 20c-398 0-667-293-667-764 0-473 273-766 655-766 315 0 558 198 612 487h-196c-61-191-204-311-415-311-262 0-471 207-471 590 0 380 208 588 482 588 249 0 420-165 425-427H828v-166h572v163c0 370-256 606-611 606" id="ak"/><path d="M180 0v-1490h510c348 0 508 194 508 460 0 198-88 351-276 417L1256 0h-220L726-579c-117 2-238 0-356 1V0H180zm190-747h312c235 0 327-108 327-283 0-177-92-293-329-293H370v576" id="al"/><g id="g"><use transform="matrix(0.010850694444444444,0,0,0.010850694444444444,0,0)" xlink:href="#ag"/><use transform="matrix(0.010850694444444444,0,0,0.010850694444444444,5.967881944444445,0)" xlink:href="#ah"/><use transform="matrix(0.010850694444444444,0,0,0.010850694444444444,22.71050347222222,0)" xlink:href="#ai"/><use transform="matrix(0.010850694444444444,0,0,0.010850694444444444,37.05512152777778,0)" xlink:href="#aj"/><use transform="matrix(0.010850694444444444,0,0,0.010850694444444444,50.412326388888886,0)" xlink:href="#ak"/><use transform="matrix(0.010850694444444444,0,0,0.010850694444444444,66.9921875,0)" xlink:href="#aj"/><use transform="matrix(0.010850694444444444,0,0,0.010850694444444444,80.34939236111111,0)" xlink:href="#al"/></g><path d="M537 14c-226 0-379-139-379-422v-710h180v695c0 172 97 275 253 275 160 0 281-109 281-300v-670h181V0H879v-209C806-46 684 14 537 14" id="am"/><path d="M338-670V0H158v-1118h173l1 207c72-158 192-221 342-221 226 0 378 139 378 422V0H872v-695c0-172-96-275-252-275-161 0-282 109-282 300" id="an"/><path d="M471 26C259 26 90-98 90-318c0-256 228-303 435-329 202-27 287-16 287-108 0-139-79-219-234-219-161 0-248 86-283 164l-173-57c86-203 278-265 451-265 150 0 419 46 419 395V0H815v-152h-12C765-73 660 26 471 26zm31-159c199 0 310-134 310-271v-155c-30 35-226 55-295 64-131 17-246 59-246 186 0 116 97 176 231 176" id="ao"/><path d="M158 0v-1118h175l1 205c55-151 181-225 313-225 147 0 245 90 285 228 53-141 190-228 352-228 194 0 352 125 352 384V0h-181v-749c0-161-105-225-225-225-151 0-243 103-243 244V0H807v-767c0-124-93-207-219-207-131 0-250 92-250 270V0H158" id="ap"/><g id="h"><use transform="matrix(0.010850694444444444,0,0,0.010850694444444444,0,0)" xlink:href="#am"/><use transform="matrix(0.010850694444444444,0,0,0.010850694444444444,13.140190972222221,0)" xlink:href="#Z"/><use transform="matrix(0.010850694444444444,0,0,0.010850694444444444,24.869791666666664,0)" xlink:href="#aa"/><use transform="matrix(0.010850694444444444,0,0,0.010850694444444444,37.82552083333333,0)" xlink:href="#ab"/><use transform="matrix(0.010850694444444444,0,0,0.010850694444444444,46.53862847222221,0)" xlink:href="#an"/><use transform="matrix(0.010850694444444444,0,0,0.010850694444444444,59.667968749999986,0)" xlink:href="#ao"/><use transform="matrix(0.010850694444444444,0,0,0.010850694444444444,72.1462673611111,0)" xlink:href="#ap"/><use transform="matrix(0.010850694444444444,0,0,0.010850694444444444,91.61241319444441,0)" xlink:href="#aa"/></g><path d="M232-923l-22-567h194l-22 567H232zm340 0l-22-567h194l-22 567H572" id="aq"/><path d="M784 20c-382 0-662-292-662-764 0-473 280-766 662-766s660 293 660 766c0 282-99 499-260 629l192 255h-198L1049-33C969 2 880 20 784 20zm-62-486h198l156 205c112-98 183-261 183-483 0-383-209-590-475-590-268 0-477 208-477 590 0 380 209 588 477 588 54 0 106-9 154-25" id="ar"/><g id="i"><use transform="matrix(0.010850694444444444,0,0,0.010850694444444444,0,0)" xlink:href="#aq"/><use transform="matrix(0.010850694444444444,0,0,0.010850694444444444,10.3515625,0)" xlink:href="#Y"/><use transform="matrix(0.010850694444444444,0,0,0.010850694444444444,26.888020833333332,0)" xlink:href="#ah"/><use transform="matrix(0.010850694444444444,0,0,0.010850694444444444,43.630642361111114,0)" xlink:href="#ag"/><use transform="matrix(0.010850694444444444,0,0,0.010850694444444444,49.59852430555556,0)" xlink:href="#ar"/><use transform="matrix(0.010850694444444444,0,0,0.010850694444444444,66.59071180555556,0)" xlink:href="#Y"/><use transform="matrix(0.010850694444444444,0,0,0.010850694444444444,83.12717013888889,0)" xlink:href="#aj"/></g><path d="M784 20c-382 0-662-292-662-764 0-473 280-766 662-766s660 293 660 766c0 472-278 764-660 764zm0-176c266 0 475-207 475-588 0-383-209-590-475-590-268 0-477 208-477 590 0 380 209 588 477 588" id="as"/><g id="j"><use transform="matrix(0.010850694444444444,0,0,0.010850694444444444,0,0)" xlink:href="#ah"/><use transform="matrix(0.010850694444444444,0,0,0.010850694444444444,16.74262152777778,0)" xlink:href="#as"/><use transform="matrix(0.010850694444444444,0,0,0.010850694444444444,33.07291666666667,0)" xlink:href="#ai"/></g><path d="M180 0v-1490h190v1322h690V0H180" id="at"/><g id="k"><use transform="matrix(0.010850694444444444,0,0,0.010850694444444444,0,0)" xlink:href="#ah"/><use transform="matrix(0.010850694444444444,0,0,0.010850694444444444,16.74262152777778,0)" xlink:href="#Y"/><use transform="matrix(0.010850694444444444,0,0,0.010850694444444444,33.279079861111114,0)" xlink:href="#at"/><use transform="matrix(0.010850694444444444,0,0,0.010850694444444444,45.84418402777778,0)" xlink:href="#at"/><use transform="matrix(0.010850694444444444,0,0,0.010850694444444444,56.39105902777778,0)" xlink:href="#aq"/></g><path d="M57 0l534-763-501-727h220c122 187 296 416 391 605 94-191 272-419 396-605h215L811-770 1340 0h-219C986-204 811-426 699-640 588-430 407-202 273 0H57" id="au"/><g id="l"><use transform="matrix(0.010850694444444444,0,0,0.010850694444444444,0,0)" xlink:href="#ai"/><use transform="matrix(0.010850694444444444,0,0,0.010850694444444444,14.344618055555555,0)" xlink:href="#aj"/><use transform="matrix(0.010850694444444444,0,0,0.010850694444444444,27.701822916666664,0)" xlink:href="#au"/><use transform="matrix(0.010850694444444444,0,0,0.010850694444444444,41.98133680555555,0)" xlink:href="#ai"/></g><path d="M338-1490V0H158v-1490h180" id="av"/><g id="m"><use transform="matrix(0.010850694444444444,0,0,0.010850694444444444,0,0)" xlink:href="#aa"/><use transform="matrix(0.010850694444444444,0,0,0.010850694444444444,12.955729166666666,0)" xlink:href="#ap"/><use transform="matrix(0.010850694444444444,0,0,0.010850694444444444,32.421875,0)" xlink:href="#ao"/><use transform="matrix(0.010850694444444444,0,0,0.010850694444444444,44.90017361111111,0)" xlink:href="#ac"/><use transform="matrix(0.010850694444444444,0,0,0.010850694444444444,50.28211805555556,0)" xlink:href="#av"/></g><g id="n"><use transform="matrix(0.010850694444444444,0,0,0.010850694444444444,0,0)" xlink:href="#aq"/><use transform="matrix(0.010850694444444444,0,0,0.010850694444444444,10.3515625,0)" xlink:href="#Y"/><use transform="matrix(0.010850694444444444,0,0,0.010850694444444444,26.888020833333332,0)" xlink:href="#ah"/><use transform="matrix(0.010850694444444444,0,0,0.010850694444444444,43.630642361111114,0)" xlink:href="#ag"/><use transform="matrix(0.010850694444444444,0,0,0.010850694444444444,49.59852430555556,0)" xlink:href="#ar"/><use transform="matrix(0.010850694444444444,0,0,0.010850694444444444,66.59071180555556,0)" xlink:href="#Y"/><use transform="matrix(0.010850694444444444,0,0,0.010850694444444444,83.12717013888889,0)" xlink:href="#aj"/></g><g id="o"><use transform="matrix(0.010850694444444444,0,0,0.010850694444444444,0,0)" xlink:href="#ah"/><use transform="matrix(0.010850694444444444,0,0,0.010850694444444444,16.74262152777778,0)" xlink:href="#as"/><use transform="matrix(0.010850694444444444,0,0,0.010850694444444444,33.07291666666667,0)" xlink:href="#ai"/></g><path d="M158 418v-1536h174v179h20c37-59 106-193 324-193 279 0 474 222 474 576 0 356-194 580-473 580-213 0-288-135-325-197h-14v591H158zm492-555c209 0 317-186 317-421 0-232-105-413-317-413-206 0-314 166-314 413 0 249 111 421 314 421" id="aw"/><path d="M409 0L70-1118h191c89 329 165 560 243 925 75-353 154-601 240-925h192c85 325 161 564 235 922 77-354 157-598 244-922h191L1267 0h-179c-86-307-176-590-250-913C763-588 675-308 588 0H409" id="ax"/><path d="M613 24c-304 0-509-231-509-576 0-350 205-580 509-580 305 0 511 230 511 580 0 345-206 576-511 576zm0-161c226 0 329-195 329-415 0-222-103-419-329-419-223 0-326 196-326 419 0 220 103 415 326 415" id="ay"/><g id="p"><use transform="matrix(0.010850694444444444,0,0,0.010850694444444444,0,0)" xlink:href="#aw"/><use transform="matrix(0.010850694444444444,0,0,0.010850694444444444,13.823784722222221,0)" xlink:href="#ao"/><use transform="matrix(0.010850694444444444,0,0,0.010850694444444444,26.302083333333332,0)" xlink:href="#Z"/><use transform="matrix(0.010850694444444444,0,0,0.010850694444444444,38.03168402777778,0)" xlink:href="#Z"/><use transform="matrix(0.010850694444444444,0,0,0.010850694444444444,49.76128472222222,0)" xlink:href="#ax"/><use transform="matrix(0.010850694444444444,0,0,0.010850694444444444,67.54557291666667,0)" xlink:href="#ay"/><use transform="matrix(0.010850694444444444,0,0,0.010850694444444444,80.87022569444444,0)" xlink:href="#ab"/><use transform="matrix(0.010850694444444444,0,0,0.010850694444444444,88.8671875,0)" xlink:href="#ad"/></g><g id="q"><use transform="matrix(0.010850694444444444,0,0,0.010850694444444444,0,0)" xlink:href="#aq"/><use transform="matrix(0.010850694444444444,0,0,0.010850694444444444,10.3515625,0)" xlink:href="#ah"/><use transform="matrix(0.010850694444444444,0,0,0.010850694444444444,27.09418402777778,0)" xlink:href="#as"/><use transform="matrix(0.010850694444444444,0,0,0.010850694444444444,43.42447916666667,0)" xlink:href="#ai"/></g><path d="M934 0v166H0V0h934" id="az"/><g id="r"><use transform="matrix(0.010850694444444444,0,0,0.010850694444444444,0,0)" xlink:href="#ab"/><use transform="matrix(0.010850694444444444,0,0,0.010850694444444444,7.996961805555555,0)" xlink:href="#ay"/><use transform="matrix(0.010850694444444444,0,0,0.010850694444444444,21.321614583333332,0)" xlink:href="#av"/><use transform="matrix(0.010850694444444444,0,0,0.010850694444444444,26.70355902777778,0)" xlink:href="#aa"/><use transform="matrix(0.010850694444444444,0,0,0.010850694444444444,39.65928819444444,0)" xlink:href="#az"/><use transform="matrix(0.010850694444444444,0,0,0.010850694444444444,50.54253472222221,0)" xlink:href="#ac"/><use transform="matrix(0.010850694444444444,0,0,0.010850694444444444,55.92447916666666,0)" xlink:href="#ad"/></g><path d="M180 0v-1490h901v168H370v510h643v168H370V0H180" id="aA"/><g id="s"><use transform="matrix(0.010850694444444444,0,0,0.010850694444444444,0,0)" xlink:href="#aq"/><use transform="matrix(0.010850694444444444,0,0,0.010850694444444444,10.3515625,0)" xlink:href="#aA"/><use transform="matrix(0.010850694444444444,0,0,0.010850694444444444,23.470052083333332,0)" xlink:href="#af"/></g><path d="M798-719v166H144v-166h654" id="aB"/><path d="M1181-520L237-44v-194l712-338v-12L237-926v-196l944 476v126" id="aC"/><g id="t"><use transform="matrix(0.010850694444444444,0,0,0.010850694444444444,0,0)" xlink:href="#aB"/><use transform="matrix(0.010850694444444444,0,0,0.010850694444444444,10.221354166666666,0)" xlink:href="#aC"/></g><path d="M295 13c-75 0-135-60-135-135s60-135 135-135 135 60 135 135S370 13 295 13" id="aD"/><g id="u"><use transform="matrix(0.010850694444444444,0,0,0.010850694444444444,0,0)" xlink:href="#al"/><use transform="matrix(0.010850694444444444,0,0,0.010850694444444444,13.975694444444445,0)" xlink:href="#ay"/><use transform="matrix(0.010850694444444444,0,0,0.010850694444444444,27.30034722222222,0)" xlink:href="#av"/><use transform="matrix(0.010850694444444444,0,0,0.010850694444444444,32.682291666666664,0)" xlink:href="#aa"/><use transform="matrix(0.010850694444444444,0,0,0.010850694444444444,45.63802083333333,0)" xlink:href="#Z"/><use transform="matrix(0.010850694444444444,0,0,0.010850694444444444,57.36762152777778,0)" xlink:href="#aD"/><use transform="matrix(0.010850694444444444,0,0,0.010850694444444444,63.76953125,0)" xlink:href="#ac"/><use transform="matrix(0.010850694444444444,0,0,0.010850694444444444,69.15147569444444,0)" xlink:href="#ad"/></g><path d="M678-1118v154H420V0H240v-964H20v-154h220v-149c0-194 155-293 318-293 85 0 141 18 168 30l-50 154c-19-6-47-17-97-17-111 0-159 58-159 166v109h258" id="aE"/><path d="M338-670V0H158v-1490h180v566c73-149 190-208 336-208 226 0 379 139 379 422V0H872v-695c0-172-96-275-252-275-161 0-282 109-282 300" id="aF"/><path d="M598-1118v154H368v674c0 100 37 144 132 144 23 0 62-6 92-12L629-6c-37 13-88 20-134 20-193 0-307-107-307-290v-688H20v-154h168v-266h180v266h230" id="aG"/><path d="M158 0v-1490h180v865h22l478-493h223L593-638 1096 0H865L456-523 338-412V0H158" id="aH"/><g id="v"><use transform="matrix(0.010850694444444444,0,0,0.010850694444444444,0,0)" xlink:href="#ab"/><use transform="matrix(0.010850694444444444,0,0,0.010850694444444444,7.996961805555555,0)" xlink:href="#aa"/><use transform="matrix(0.010850694444444444,0,0,0.010850694444444444,20.95269097222222,0)" xlink:href="#aE"/><use transform="matrix(0.010850694444444444,0,0,0.010850694444444444,29.17751736111111,0)" xlink:href="#ab"/><use transform="matrix(0.010850694444444444,0,0,0.010850694444444444,37.174479166666664,0)" xlink:href="#aa"/><use transform="matrix(0.010850694444444444,0,0,0.010850694444444444,50.13020833333333,0)" xlink:href="#Z"/><use transform="matrix(0.010850694444444444,0,0,0.010850694444444444,61.85980902777778,0)" xlink:href="#aF"/><use transform="matrix(0.010850694444444444,0,0,0.010850694444444444,75,0)" xlink:href="#az"/><use transform="matrix(0.010850694444444444,0,0,0.010850694444444444,85.13454861111111,0)" xlink:href="#aG"/><use transform="matrix(0.010850694444444444,0,0,0.010850694444444444,92.1875,0)" xlink:href="#ay"/><use transform="matrix(0.010850694444444444,0,0,0.010850694444444444,105.51215277777777,0)" xlink:href="#aH"/><use transform="matrix(0.010850694444444444,0,0,0.010850694444444444,117.20920138888889,0)" xlink:href="#aa"/><use transform="matrix(0.010850694444444444,0,0,0.010850694444444444,130.16493055555554,0)" xlink:href="#an"/></g><path d="M613 24c-304 0-509-231-509-576 0-350 205-580 509-580 216 0 392 114 453 309l-173 49c-33-115-133-197-280-197-223 0-326 196-326 419 0 220 103 415 326 415 150 0 252-85 285-206l172 49C1010-95 832 24 613 24" id="aI"/><g id="w"><use transform="matrix(0.010850694444444444,0,0,0.010850694444444444,0,0)" xlink:href="#aI"/><use transform="matrix(0.010850694444444444,0,0,0.010850694444444444,12.6953125,0)" xlink:href="#ab"/><use transform="matrix(0.010850694444444444,0,0,0.010850694444444444,20.692274305555557,0)" xlink:href="#aa"/><use transform="matrix(0.010850694444444444,0,0,0.010850694444444444,33.865017361111114,0)" xlink:href="#ao"/><use transform="matrix(0.010850694444444444,0,0,0.010850694444444444,46.34331597222223,0)" xlink:href="#aG"/><use transform="matrix(0.010850694444444444,0,0,0.010850694444444444,53.39626736111112,0)" xlink:href="#aa"/><use transform="matrix(0.010850694444444444,0,0,0.010850694444444444,66.35199652777779,0)" xlink:href="#ad"/><use transform="matrix(0.010850694444444444,0,0,0.010850694444444444,79.95876736111111,0)" xlink:href="#az"/><use transform="matrix(0.010850694444444444,0,0,0.010850694444444444,90.09331597222221,0)" xlink:href="#ao"/><use transform="matrix(0.010850694444444444,0,0,0.010850694444444444,102.57161458333334,0)" xlink:href="#aG"/></g><path d="M645 0H180v-1490h484c435 0 692 280 692 742 0 466-257 748-711 748zM370-168h263c363 0 539-218 539-580 0-358-176-574-521-574H370v1154" id="aJ"/><path d="M52 0l541-1490h220L1361 0h-200l-149-416H398L254 0H52zm404-582h497c-103-290-145-390-251-756-108 377-145 460-246 756" id="aK"/><g id="x"><use transform="matrix(0.010850694444444444,0,0,0.010850694444444444,0,0)" xlink:href="#aq"/><use transform="matrix(0.010850694444444444,0,0,0.010850694444444444,10.3515625,0)" xlink:href="#aJ"/><use transform="matrix(0.010850694444444444,0,0,0.010850694444444444,26.38888888888889,0)" xlink:href="#aj"/><use transform="matrix(0.010850694444444444,0,0,0.010850694444444444,39.74609375,0)" xlink:href="#aA"/><use transform="matrix(0.010850694444444444,0,0,0.010850694444444444,50.84635416666667,0)" xlink:href="#aK"/><use transform="matrix(0.010850694444444444,0,0,0.010850694444444444,65.74435763888889,0)" xlink:href="#Y"/><use transform="matrix(0.010850694444444444,0,0,0.010850694444444444,82.28081597222221,0)" xlink:href="#at"/><use transform="matrix(0.010850694444444444,0,0,0.010850694444444444,92.70833333333333,0)" xlink:href="#ai"/></g><path d="M783 20c-382 0-661-292-661-764 0-473 279-766 661-766 302 0 548 182 601 489h-190c-42-204-217-313-411-313-268 0-476 208-476 590 0 381 209 588 476 588 195 0 369-110 411-313h190c-52 303-296 489-601 489" id="aL"/><path d="M180 0v-1490h270l367 940c28 72 75 218 110 339 35-117 81-264 110-339l362-940h271V0h-187c2-448-5-837 7-1287-157 497-311 829-483 1287H842C666-458 514-784 354-1284c12 438 5 843 7 1284H180" id="aM"/><path d="M657 26c-323 0-524-166-541-416h195c15 169 171 246 346 246 202 0 356-106 356-265 5-203-294-238-475-293-239-73-380-191-380-389 0-252 224-419 512-419 294 0 499 171 508 396H992c-17-145-151-228-328-228-193 0-321 102-321 242 0 156 175 211 284 241l149 41c160 44 422 134 422 412 0 244-197 432-541 432" id="aN"/><g id="y"><use transform="matrix(0.010850694444444444,0,0,0.010850694444444444,0,0)" xlink:href="#aL"/><use transform="matrix(0.010850694444444444,0,0,0.010850694444444444,16.23263888888889,0)" xlink:href="#Y"/><use transform="matrix(0.010850694444444444,0,0,0.010850694444444444,32.76909722222222,0)" xlink:href="#al"/><use transform="matrix(0.010850694444444444,0,0,0.010850694444444444,47.0703125,0)" xlink:href="#al"/><use transform="matrix(0.010850694444444444,0,0,0.010850694444444444,61.37152777777778,0)" xlink:href="#aj"/><use transform="matrix(0.010850694444444444,0,0,0.010850694444444444,74.72873263888889,0)" xlink:href="#ah"/><use transform="matrix(0.010850694444444444,0,0,0.010850694444444444,91.47135416666666,0)" xlink:href="#ai"/><use transform="matrix(0.010850694444444444,0,0,0.010850694444444444,104.55729166666666,0)" xlink:href="#az"/><use transform="matrix(0.010850694444444444,0,0,0.010850694444444444,113.43315972222221,0)" xlink:href="#ai"/><use transform="matrix(0.010850694444444444,0,0,0.010850694444444444,127.77777777777777,0)" xlink:href="#ag"/><use transform="matrix(0.010850694444444444,0,0,0.010850694444444444,133.74565972222223,0)" xlink:href="#aM"/><use transform="matrix(0.010850694444444444,0,0,0.010850694444444444,153.81944444444446,0)" xlink:href="#aj"/><use transform="matrix(0.010850694444444444,0,0,0.010850694444444444,167.17664930555557,0)" xlink:href="#aN"/><use transform="matrix(0.010850694444444444,0,0,0.010850694444444444,181.4344618055556,0)" xlink:href="#ai"/><use transform="matrix(0.010850694444444444,0,0,0.010850694444444444,193.89105902777777,0)" xlink:href="#aK"/><use transform="matrix(0.010850694444444444,0,0,0.010850694444444444,209.22309027777777,0)" xlink:href="#aM"/><use transform="matrix(0.010850694444444444,0,0,0.010850694444444444,229.296875,0)" xlink:href="#ae"/><use transform="matrix(0.010850694444444444,0,0,0.010850694444444444,243.48958333333331,0)" xlink:href="#aq"/></g><g id="z"><use transform="matrix(0.010850694444444444,0,0,0.010850694444444444,0,0)" xlink:href="#aJ"/><use transform="matrix(0.010850694444444444,0,0,0.010850694444444444,15.27777777777778,0)" xlink:href="#aK"/><use transform="matrix(0.010850694444444444,0,0,0.010850694444444444,28.721788194444443,0)" xlink:href="#ai"/><use transform="matrix(0.010850694444444444,0,0,0.010850694444444444,43.06640625,0)" xlink:href="#aj"/><use transform="matrix(0.010850694444444444,0,0,0.010850694444444444,56.42361111111112,0)" xlink:href="#ai"/><use transform="matrix(0.010850694444444444,0,0,0.010850694444444444,70.76822916666667,0)" xlink:href="#ag"/><use transform="matrix(0.010850694444444444,0,0,0.010850694444444444,76.73611111111111,0)" xlink:href="#aM"/><use transform="matrix(0.010850694444444444,0,0,0.010850694444444444,96.80989583333334,0)" xlink:href="#aj"/></g><g id="A"><use transform="matrix(0.010850694444444444,0,0,0.010850694444444444,0,0)" xlink:href="#al"/><use transform="matrix(0.010850694444444444,0,0,0.010850694444444444,13.975694444444445,0)" xlink:href="#ay"/><use transform="matrix(0.010850694444444444,0,0,0.010850694444444444,27.30034722222222,0)" xlink:href="#av"/><use transform="matrix(0.010850694444444444,0,0,0.010850694444444444,32.682291666666664,0)" xlink:href="#aa"/><use transform="matrix(0.010850694444444444,0,0,0.010850694444444444,45.63802083333333,0)" xlink:href="#Z"/></g><g id="B"><use transform="matrix(0.010850694444444444,0,0,0.010850694444444444,0,0)" xlink:href="#ab"/><use transform="matrix(0.010850694444444444,0,0,0.010850694444444444,7.996961805555555,0)" xlink:href="#ay"/><use transform="matrix(0.010850694444444444,0,0,0.010850694444444444,21.321614583333332,0)" xlink:href="#av"/><use transform="matrix(0.010850694444444444,0,0,0.010850694444444444,26.70355902777778,0)" xlink:href="#aa"/><use transform="matrix(0.010850694444444444,0,0,0.010850694444444444,39.65928819444444,0)" xlink:href="#az"/><use transform="matrix(0.010850694444444444,0,0,0.010850694444444444,50.54253472222221,0)" xlink:href="#an"/><use transform="matrix(0.010850694444444444,0,0,0.010850694444444444,63.671875,0)" xlink:href="#ao"/><use transform="matrix(0.010850694444444444,0,0,0.010850694444444444,76.1501736111111,0)" xlink:href="#ap"/><use transform="matrix(0.010850694444444444,0,0,0.010850694444444444,95.61631944444441,0)" xlink:href="#aa"/></g><g id="C"><use transform="matrix(0.010850694444444444,0,0,0.010850694444444444,0,0)" xlink:href="#aJ"/><use transform="matrix(0.010850694444444444,0,0,0.010850694444444444,16.03732638888889,0)" xlink:href="#ay"/><use transform="matrix(0.010850694444444444,0,0,0.010850694444444444,29.361979166666664,0)" xlink:href="#aI"/><use transform="matrix(0.010850694444444444,0,0,0.010850694444444444,42.057291666666664,0)" xlink:href="#am"/><use transform="matrix(0.010850694444444444,0,0,0.010850694444444444,55.197482638888886,0)" xlink:href="#ap"/><use transform="matrix(0.010850694444444444,0,0,0.010850694444444444,74.66362847222221,0)" xlink:href="#aa"/><use transform="matrix(0.010850694444444444,0,0,0.010850694444444444,87.61935763888889,0)" xlink:href="#an"/><use transform="matrix(0.010850694444444444,0,0,0.010850694444444444,100.74869791666666,0)" xlink:href="#aG"/><use transform="matrix(0.010850694444444444,0,0,0.010850694444444444,107.80164930555556,0)" xlink:href="#Z"/></g><g id="D"><use transform="matrix(0.010850694444444444,0,0,0.010850694444444444,0,0)" xlink:href="#aG"/><use transform="matrix(0.010850694444444444,0,0,0.010850694444444444,7.269965277777778,0)" xlink:href="#ac"/><use transform="matrix(0.010850694444444444,0,0,0.010850694444444444,12.651909722222221,0)" xlink:href="#aG"/><use transform="matrix(0.010850694444444444,0,0,0.010850694444444444,19.921875,0)" xlink:href="#av"/><use transform="matrix(0.010850694444444444,0,0,0.010850694444444444,25.303819444444443,0)" xlink:href="#aa"/></g><g id="E"><use transform="matrix(0.010850694444444444,0,0,0.010850694444444444,0,0)" xlink:href="#aE"/><use transform="matrix(0.010850694444444444,0,0,0.010850694444444444,8.22482638888889,0)" xlink:href="#ac"/><use transform="matrix(0.010850694444444444,0,0,0.010850694444444444,13.606770833333332,0)" xlink:href="#av"/><use transform="matrix(0.010850694444444444,0,0,0.010850694444444444,18.98871527777778,0)" xlink:href="#aa"/><use transform="matrix(0.010850694444444444,0,0,0.010850694444444444,31.944444444444443,0)" xlink:href="#an"/><use transform="matrix(0.010850694444444444,0,0,0.010850694444444444,45.07378472222222,0)" xlink:href="#ao"/><use transform="matrix(0.010850694444444444,0,0,0.010850694444444444,57.55208333333333,0)" xlink:href="#ap"/><use transform="matrix(0.010850694444444444,0,0,0.010850694444444444,77.01822916666666,0)" xlink:href="#aa"/></g><g id="F"><use transform="matrix(0.010850694444444444,0,0,0.010850694444444444,0,0)" xlink:href="#ay"/><use transform="matrix(0.010850694444444444,0,0,0.010850694444444444,12.923177083333332,0)" xlink:href="#ax"/><use transform="matrix(0.010850694444444444,0,0,0.010850694444444444,31.10894097222222,0)" xlink:href="#an"/><use transform="matrix(0.010850694444444444,0,0,0.010850694444444444,44.23828125,0)" xlink:href="#aa"/><use transform="matrix(0.010850694444444444,0,0,0.010850694444444444,57.194010416666664,0)" xlink:href="#ab"/><use transform="matrix(0.010850694444444444,0,0,0.010850694444444444,65.55989583333333,0)" xlink:href="#az"/><use transform="matrix(0.010850694444444444,0,0,0.010850694444444444,76.44314236111111,0)" xlink:href="#ac"/><use transform="matrix(0.010850694444444444,0,0,0.010850694444444444,81.82508680555556,0)" xlink:href="#ad"/></g><g id="G"><use transform="matrix(0.010850694444444444,0,0,0.010850694444444444,0,0)" xlink:href="#aB"/><use transform="matrix(0.010850694444444444,0,0,0.010850694444444444,10.221354166666666,0)" xlink:href="#aC"/></g><g id="H"><use transform="matrix(0.010850694444444444,0,0,0.010850694444444444,0,0)" xlink:href="#Y"/><use transform="matrix(0.010850694444444444,0,0,0.010850694444444444,16.536458333333332,0)" xlink:href="#Z"/><use transform="matrix(0.010850694444444444,0,0,0.010850694444444444,28.266059027777775,0)" xlink:href="#aa"/><use transform="matrix(0.010850694444444444,0,0,0.010850694444444444,41.22178819444444,0)" xlink:href="#ab"/><use transform="matrix(0.010850694444444444,0,0,0.010850694444444444,49.58767361111111,0)" xlink:href="#Z"/><use transform="matrix(0.010850694444444444,0,0,0.010850694444444444,61.31727430555555,0)" xlink:href="#aD"/><use transform="matrix(0.010850694444444444,0,0,0.010850694444444444,67.71918402777777,0)" xlink:href="#ac"/><use transform="matrix(0.010850694444444444,0,0,0.010850694444444444,73.10112847222221,0)" xlink:href="#ad"/></g><g id="I"><use transform="matrix(0.010850694444444444,0,0,0.010850694444444444,0,0)" xlink:href="#am"/><use transform="matrix(0.010850694444444444,0,0,0.010850694444444444,13.140190972222221,0)" xlink:href="#aw"/><use transform="matrix(0.010850694444444444,0,0,0.010850694444444444,26.746961805555554,0)" xlink:href="#av"/><use transform="matrix(0.010850694444444444,0,0,0.010850694444444444,32.12890625,0)" xlink:href="#ay"/><use transform="matrix(0.010850694444444444,0,0,0.010850694444444444,45.670572916666664,0)" xlink:href="#ao"/><use transform="matrix(0.010850694444444444,0,0,0.010850694444444444,58.14887152777778,0)" xlink:href="#ad"/><use transform="matrix(0.010850694444444444,0,0,0.010850694444444444,71.7556423611111,0)" xlink:href="#aa"/><use transform="matrix(0.010850694444444444,0,0,0.010850694444444444,84.71137152777777,0)" xlink:href="#ad"/><use transform="matrix(0.010850694444444444,0,0,0.010850694444444444,98.31814236111111,0)" xlink:href="#az"/><use transform="matrix(0.010850694444444444,0,0,0.010850694444444444,108.45269097222221,0)" xlink:href="#ao"/><use transform="matrix(0.010850694444444444,0,0,0.010850694444444444,120.93098958333333,0)" xlink:href="#aG"/></g><path fill="#3a414a" d="M233-870l-31-620h289l-30 620H233zm435 0l-30-620h289l-30 620H668" id="aO"/><path fill="#3a414a" d="M128 0v-1118h290v195h12c54-169 184-238 367-200v268c-27-8-86-15-130-15-138 0-239 95-239 234V0H128" id="aP"/><path fill="#3a414a" d="M628 22C291 22 81-210 81-554c0-346 210-578 547-578 336 0 547 232 547 578 0 344-211 576-547 576zm0-236c160 0 242-146 242-341 0-197-82-341-242-341S387-753 387-555c0 195 81 341 241 341" id="aQ"/><path fill="#3a414a" d="M428-1490V0H128v-1490h300" id="aR"/><path fill="#3a414a" d="M633 22C291 22 81-200 81-553c0-345 210-579 537-579 292 0 525 185 525 567v84H378c7 183 109 277 260 277 105 0 184-46 216-132l272 51C1071-99 893 22 633 22zM380-669h474c-15-146-94-237-233-237-143 0-229 99-241 237" id="aS"/><path fill="#3a414a" d="M975 0v231H0V0h975" id="aT"/><path fill="#3a414a" d="M128 0v-1118h300V0H128zm150-1264c-91 0-165-68-165-154 0-85 74-154 165-154 90 0 165 69 165 154 0 86-75 154-165 154" id="aU"/><path fill="#3a414a" d="M537 19C279 19 81-185 81-557c0-382 206-575 454-575 190 0 278 113 318 202h10v-560h300V0H868v-179h-15C812-89 719 19 537 19zm92-241c153 0 240-134 240-336 0-203-86-334-240-334-158 0-240 138-240 334 0 197 84 336 240 336" id="aV"/><g id="J"><use transform="matrix(0.008680555555555556,0,0,0.008680555555555556,0,0)" xlink:href="#aO"/><use transform="matrix(0.008680555555555556,0,0,0.008680555555555556,9.809027777777779,0)" xlink:href="#aP"/><use transform="matrix(0.008680555555555556,0,0,0.008680555555555556,16.614583333333336,0)" xlink:href="#aQ"/><use transform="matrix(0.008680555555555556,0,0,0.008680555555555556,27.51736111111111,0)" xlink:href="#aR"/><use transform="matrix(0.008680555555555556,0,0,0.008680555555555556,32.33506944444445,0)" xlink:href="#aS"/><use transform="matrix(0.008680555555555556,0,0,0.008680555555555556,42.92534722222223,0)" xlink:href="#aT"/><use transform="matrix(0.008680555555555556,0,0,0.008680555555555556,51.66666666666667,0)" xlink:href="#aU"/><use transform="matrix(0.008680555555555556,0,0,0.008680555555555556,56.48437500000001,0)" xlink:href="#aV"/><use transform="matrix(0.008680555555555556,0,0,0.008680555555555556,67.69097222222223,0)" xlink:href="#aO"/></g><path fill="#3a414a" d="M361 0L31-1118h315c68 295 127 523 188 845 63-317 128-551 199-845h276c71 296 131 525 196 846 57-321 119-552 186-846h319L1378 0h-305c-73-261-148-486-204-771C813-484 740-261 666 0H361" id="aW"/><path fill="#3a414a" d="M428-647V0H128v-1118h283l4 231c63-156 176-245 348-245 232 0 384 159 384 421V0H847v-659c0-139-76-222-202-222-128 0-217 86-217 234" id="aX"/><g id="K"><use transform="matrix(0.008680555555555556,0,0,0.008680555555555556,0,0)" xlink:href="#aO"/><use transform="matrix(0.008680555555555556,0,0,0.008680555555555556,9.453125,0)" xlink:href="#aQ"/><use transform="matrix(0.008680555555555556,0,0,0.008680555555555556,20.11284722222222,0)" xlink:href="#aW"/><use transform="matrix(0.008680555555555556,0,0,0.008680555555555556,35.22569444444444,0)" xlink:href="#aX"/><use transform="matrix(0.008680555555555556,0,0,0.008680555555555556,46.29340277777778,0)" xlink:href="#aS"/><use transform="matrix(0.008680555555555556,0,0,0.008680555555555556,56.88368055555556,0)" xlink:href="#aP"/><use transform="matrix(0.008680555555555556,0,0,0.008680555555555556,64.12326388888889,0)" xlink:href="#aT"/><use transform="matrix(0.008680555555555556,0,0,0.008680555555555556,72.86458333333331,0)" xlink:href="#aU"/><use transform="matrix(0.008680555555555556,0,0,0.008680555555555556,77.68229166666666,0)" xlink:href="#aV"/><use transform="matrix(0.008680555555555556,0,0,0.008680555555555556,88.88888888888889,0)" xlink:href="#aO"/></g></defs></g></svg>