<svg xmlns="http://www.w3.org/2000/svg" xmlns:xlink="http://www.w3.org/1999/xlink" xmlns:lucid="lucid" width="2252.71" height="869.24"><g transform="translate(-172.36371440431867 -1257.7706827767909)" lucid:page-tab-id="8V5~3srkzvD4"><path d="M0 1000h2500v1500H0z" fill="#fff"/><path d="M173.36 1312.03a6 6 0 0 1 6-6h2238.7a6 6 0 0 1 6 6V2120a6 6 0 0 1-6 6H179.37a6 6 0 0 1-6-6z" stroke="#3a414a" stroke-width="2" fill="#fff"/><path d="M173.36 1263.77a6 6 0 0 1 6-6H428.7a6 6 0 0 1 6 6v24.26a6 6 0 0 1-6 6H179.37a6 6 0 0 1-6-6z" fill="#3a414a"/><use xlink:href="#a" transform="matrix(1,0,0,1,181.36371440431867,1265.7706827767909) translate(0 16.589501953125)"/><use xlink:href="#b" transform="matrix(1,0,0,1,181.36371440431867,1265.7706827767909) translate(118.07094726562501 16.589501953125)"/><use xlink:href="#c" transform="matrix(1,0,0,1,181.36371440431867,1265.7706827767909) translate(207.97488281250003 16.589501953125)"/><path d="M292.1 1886.5a6 6 0 0 1 6-6h153a6 6 0 0 1 6 6v113a6 6 0 0 1-6 6h-153a6 6 0 0 1-6-6z" stroke="#ff80df" stroke-width="2" fill="#fff0fb"/><use xlink:href="#d" transform="matrix(1,0,0,1,304.09794350013885,1892.506357217635) translate(-4.744140625 26.318142361111114)"/><use xlink:href="#e" transform="matrix(1,0,0,1,304.09794350013885,1892.506357217635) translate(13.951605902777793 58.583767361111114)"/><use xlink:href="#f" transform="matrix(1,0,0,1,304.09794350013885,1892.506357217635) translate(45.6953125 90.84939236111111)"/><path d="M253.36 1422.32a6 6 0 0 1 6-6h230.47a6 6 0 0 1 6 6v181.38a6 6 0 0 1-6 6H259.36a6 6 0 0 1-6-6z" stroke="#ff80df" stroke-width="2" fill="#fff0fb"/><use xlink:href="#g" transform="matrix(1,0,0,1,265.36371440431867,1428.3201166354067) translate(40.532986111111114 58.71527777777778)"/><use xlink:href="#h" transform="matrix(1,0,0,1,265.36371440431867,1428.3201166354067) translate(96.88064236111111 58.71527777777778)"/><use xlink:href="#i" transform="matrix(1,0,0,1,265.36371440431867,1428.3201166354067) translate(125.35286458333333 58.71527777777778)"/><use xlink:href="#j" transform="matrix(1,0,0,1,265.36371440431867,1428.3201166354067) translate(8.919487847222229 90.98090277777777)"/><use xlink:href="#k" transform="matrix(1,0,0,1,265.36371440431867,1428.3201166354067) translate(104.49240451388889 90.98090277777777)"/><use xlink:href="#l" transform="matrix(1,0,0,1,265.36371440431867,1428.3201166354067) translate(35.395182291666686 123.24652777777777)"/><use xlink:href="#m" transform="matrix(1,0,0,1,265.36371440431867,1428.3201166354067) translate(70.90950520833334 123.24652777777777)"/><path d="M843.3 1389.87a7.2 7.2 0 0 1 9.22 0l142.87 119.3a5 5 0 0 1 0 7.7L852.5 1636.14a7.2 7.2 0 0 1-9.2 0l-142.88-119.3a5 5 0 0 1 0-7.68z" stroke="#6db1ff" stroke-width="2" fill="#edf5ff"/><use xlink:href="#n" transform="matrix(1,0,0,1,700.832172595959,1391.025428870541) translate(89.89908854166666 81.68532986111111)"/><use xlink:href="#o" transform="matrix(1,0,0,1,700.832172595959,1391.025428870541) translate(192.62261284722223 81.68532986111111)"/><use xlink:href="#p" transform="matrix(1,0,0,1,700.832172595959,1391.025428870541) translate(17.020399305555543 113.95095486111111)"/><use xlink:href="#q" transform="matrix(1,0,0,1,700.832172595959,1391.025428870541) translate(206.5060763888889 113.95095486111111)"/><use xlink:href="#r" transform="matrix(1,0,0,1,700.832172595959,1391.025428870541) translate(24.24696180555557 146.21657986111111)"/><use xlink:href="#s" transform="matrix(1,0,0,1,700.832172595959,1391.025428870541) translate(110.86805555555557 146.21657986111111)"/><use xlink:href="#t" transform="matrix(1,0,0,1,700.832172595959,1391.025428870541) translate(138.41796875 146.21657986111111)"/><use xlink:href="#u" transform="matrix(1,0,0,1,700.832172595959,1391.025428870541) translate(109.14822048611111 178.48220486111111)"/><path d="M1200 1422.32a6 6 0 0 1 6-6h230.47a6 6 0 0 1 6 6v181.38a6 6 0 0 1-6 6H1206a6 6 0 0 1-6-6z" stroke="#ff80df" stroke-width="2" fill="#fff0fb"/><use xlink:href="#v" transform="matrix(1,0,0,1,1212,1428.3201166354067) translate(66.86219618055556 26.84027777777778)"/><use xlink:href="#w" transform="matrix(1,0,0,1,1212,1428.3201166354067) translate(34.255859375 59.10590277777778)"/><use xlink:href="#x" transform="matrix(1,0,0,1,1212,1428.3201166354067) translate(8.870659722222229 91.37152777777777)"/><use xlink:href="#y" transform="matrix(1,0,0,1,1212,1428.3201166354067) translate(81.26649305555556 91.37152777777777)"/><use xlink:href="#z" transform="matrix(1,0,0,1,1212,1428.3201166354067) translate(144.52604166666666 91.37152777777777)"/><use xlink:href="#A" transform="matrix(1,0,0,1,1212,1428.3201166354067) translate(11.724392361111114 123.63715277777777)"/><use xlink:href="#B" transform="matrix(1,0,0,1,1212,1428.3201166354067) translate(54.68229166666667 123.63715277777777)"/><use xlink:href="#C" transform="matrix(1,0,0,1,1212,1428.3201166354067) translate(100.14670138888889 123.63715277777777)"/><use xlink:href="#D" transform="matrix(1,0,0,1,1212,1428.3201166354067) translate(98.85004340277777 155.90277777777777)"/><path d="M1642.47 1416a6 6 0 0 1 6-6h247.13a6 6 0 0 1 6 6v194.02a6 6 0 0 1-6 6h-247.13a6 6 0 0 1-6-6z" stroke="#ff80df" stroke-width="2" fill="#fff0fb"/><use xlink:href="#E" transform="matrix(1,0,0,1,1654.4684581916404,1422.0063572176352) translate(29.583116319444457 50.12152777777778)"/><use xlink:href="#F" transform="matrix(1,0,0,1,1654.4684581916404,1422.0063572176352) translate(117.09396701388889 50.12152777777778)"/><use xlink:href="#y" transform="matrix(1,0,0,1,1654.4684581916404,1422.0063572176352) translate(11.126085069444443 82.38715277777777)"/><use xlink:href="#w" transform="matrix(1,0,0,1,1654.4684581916404,1422.0063572176352) translate(74.38563368055554 82.38715277777777)"/><use xlink:href="#x" transform="matrix(1,0,0,1,1654.4684581916404,1422.0063572176352) translate(24.825086805555543 114.65277777777777)"/><use xlink:href="#G" transform="matrix(1,0,0,1,1654.4684581916404,1422.0063572176352) translate(97.22092013888887 114.65277777777777)"/><use xlink:href="#H" transform="matrix(1,0,0,1,1654.4684581916404,1422.0063572176352) translate(123.84852430555554 114.65277777777777)"/><use xlink:href="#I" transform="matrix(1,0,0,1,1654.4684581916404,1422.0063572176352) translate(65.08116319444446 146.91840277777777)"/><path d="M2101.6 1422.32a6 6 0 0 1 6-6h230.47a6 6 0 0 1 6 6v181.38a6 6 0 0 1-6 6H2107.6a6 6 0 0 1-6-6z" stroke="#ff80df" stroke-width="2" fill="#fff0fb"/><use xlink:href="#J" transform="matrix(1,0,0,1,2113.6052412461977,1428.3201166354067) translate(12.109592013888914 42.77777777777778)"/><use xlink:href="#K" transform="matrix(1,0,0,1,2113.6052412461977,1428.3201166354067) translate(173.52452256944443 42.77777777777778)"/><use xlink:href="#s" transform="matrix(1,0,0,1,2113.6052412461977,1428.3201166354067) translate(44.91666666666666 75.04340277777777)"/><use xlink:href="#L" transform="matrix(1,0,0,1,2113.6052412461977,1428.3201166354067) translate(72.4665798611111 75.04340277777777)"/><use xlink:href="#M" transform="matrix(1,0,0,1,2113.6052412461977,1428.3201166354067) translate(38.824001736111114 107.30902777777777)"/><use xlink:href="#N" transform="matrix(1,0,0,1,2113.6052412461977,1428.3201166354067) translate(150.91167534722223 107.30902777777777)"/><use xlink:href="#O" transform="matrix(1,0,0,1,2113.6052412461977,1428.3201166354067) translate(52.913628472222236 139.57465277777777)"/><path d="M1642.47 1846a6 6 0 0 1 6-6h247.13a6 6 0 0 1 6 6v194a6 6 0 0 1-6 6h-247.13a6 6 0 0 1-6-6z" stroke="#ff80df" stroke-width="2" fill="#fff0fb"/><use xlink:href="#P" transform="matrix(1,0,0,1,1654.4684581916404,1852) translate(10.078993055555571 50.12152777777778)"/><use xlink:href="#s" transform="matrix(1,0,0,1,1654.4684581916404,1852) translate(71.58072916666669 50.12152777777778)"/><use xlink:href="#Q" transform="matrix(1,0,0,1,1654.4684581916404,1852) translate(99.13064236111111 50.12152777777778)"/><use xlink:href="#R" transform="matrix(1,0,0,1,1654.4684581916404,1852) translate(120.08333333333334 50.12152777777778)"/><use xlink:href="#G" transform="matrix(1,0,0,1,1654.4684581916404,1852) translate(26.056640625 82.38715277777777)"/><use xlink:href="#S" transform="matrix(1,0,0,1,1654.4684581916404,1852) translate(52.684244791666664 82.38715277777777)"/><use xlink:href="#T" transform="matrix(1,0,0,1,1654.4684581916404,1852) translate(130.40776909722223 82.38715277777777)"/><use xlink:href="#U" transform="matrix(1,0,0,1,1654.4684581916404,1852) translate(28.042317708333343 114.65277777777777)"/><use xlink:href="#V" transform="matrix(1,0,0,1,1654.4684581916404,1852) translate(87.93815104166667 114.65277777777777)"/><use xlink:href="#W" transform="matrix(1,0,0,1,1654.4684581916404,1852) translate(126.13259548611111 114.65277777777777)"/><use xlink:href="#X" transform="matrix(1,0,0,1,1654.4684581916404,1852) translate(65.607421875 146.91840277777777)"/><path d="M1361.23 1903c22.1 0 40 17.9 40 40s-17.9 40-40 40h-80c-22.1 0-40-17.9-40-40s17.9-40 40-40z" stroke="#e08fff" stroke-width="2" fill="#f4d9ff"/><use xlink:href="#Y" transform="matrix(1,0,0,1,1246.2342290958202,1908.006357217635) translate(54.95334201388889 43.40277777777778)"/><path d="M718.35 1846a6 6 0 0 1 6-6h247.13a6 6 0 0 1 6 6v194a6 6 0 0 1-6 6H724.35a6 6 0 0 1-6-6z" stroke="#ff80df" stroke-width="2" fill="#fff0fb"/><use xlink:href="#Z" transform="matrix(1,0,0,1,730.347694770701,1852) translate(14.657986111111114 50.12152777777778)"/><use xlink:href="#aa" transform="matrix(1,0,0,1,730.347694770701,1852) translate(77.38585069444444 50.12152777777778)"/><use xlink:href="#ab" transform="matrix(1,0,0,1,730.347694770701,1852) translate(124.85763888888889 50.12152777777778)"/><use xlink:href="#ac" transform="matrix(1,0,0,1,730.347694770701,1852) translate(143.5859375 50.12152777777778)"/><use xlink:href="#r" transform="matrix(1,0,0,1,730.347694770701,1852) translate(17.4140625 82.38715277777777)"/><use xlink:href="#s" transform="matrix(1,0,0,1,730.347694770701,1852) translate(104.03515625 82.38715277777777)"/><use xlink:href="#l" transform="matrix(1,0,0,1,730.347694770701,1852) translate(131.58506944444446 82.38715277777777)"/><use xlink:href="#ad" transform="matrix(1,0,0,1,730.347694770701,1852) translate(167.09939236111111 82.38715277777777)"/><use xlink:href="#ae" transform="matrix(1,0,0,1,730.347694770701,1852) translate(9.259765625000028 114.65277777777777)"/><use xlink:href="#G" transform="matrix(1,0,0,1,730.347694770701,1852) translate(128.205078125 114.65277777777777)"/><use xlink:href="#af" transform="matrix(1,0,0,1,730.347694770701,1852) translate(154.83268229166666 114.65277777777777)"/><use xlink:href="#ag" transform="matrix(1,0,0,1,730.347694770701,1852) translate(75.59548611111111 146.91840277777777)"/><path d="M374.6 1877v-241.44" stroke="#3a414a" stroke-width="5" fill="none"/><path d="M377.07 1879.5h-4.95v-2.56h4.95z" stroke="#3a414a" stroke-width=".05" fill="#3a414a"/><path d="M374.6 1618.8l4.63 14.26h-9.27z" stroke="#3a414a" stroke-width="5" fill="#3a414a"/><path d="M499.33 1513h173.45" stroke="#3a414a" stroke-width="5" fill="none"/><path d="M499.4 1515.5h-2.57v-4.96h2.57z" stroke="#3a414a" stroke-width=".05" fill="#3a414a"/><path d="M689.54 1513l-14.26 4.65v-9.27z" stroke="#3a414a" stroke-width="5" fill="#3a414a"/><path d="M1000.7 1513h173.44" stroke="#3a414a" stroke-width="5" fill="none"/><path d="M1000.76 1515.5h-3.12l.2-.42.26-1.02.1-1.05-.1-1.03-.27-1.02-.2-.4h3.13z" stroke="#3a414a" stroke-width=".05" fill="#3a414a"/><path d="M1190.9 1513l-14.26 4.65v-9.27z" stroke="#3a414a" stroke-width="5" fill="#3a414a"/><path d="M1445.97 1513h170.64" stroke="#3a414a" stroke-width="5" fill="none"/><path d="M1446.03 1515.5h-2.56v-4.96h2.56z" stroke="#3a414a" stroke-width=".05" fill="#3a414a"/><path d="M1633.38 1513l-14.27 4.65v-9.27z" stroke="#3a414a" stroke-width="5" fill="#3a414a"/><path d="M1905.1 1513h170.65" stroke="#3a414a" stroke-width="5" fill="none"/><path d="M1905.17 1515.5h-2.57v-4.96h2.57z" stroke="#3a414a" stroke-width=".05" fill="#3a414a"/><path d="M2092.5 1513l-14.25 4.65v-9.27z" stroke="#3a414a" stroke-width="5" fill="#3a414a"/><path d="M2222.84 1613.2V1937a6 6 0 0 1-6 6h-289.38" stroke="#3a414a" stroke-width="5" fill="none"/><path d="M2225.3 1613.27h-4.94v-2.57h4.95z" stroke="#3a414a" stroke-width=".05" fill="#3a414a"/><path d="M1910.7 1943l14.26-4.63v9.27z" stroke="#3a414a" stroke-width="5" fill="#3a414a"/><path d="M1638.97 1943H1427.1" stroke="#3a414a" stroke-width="5" fill="none"/><path d="M1641.47 1945.48h-2.57v-4.95h2.57z" stroke="#3a414a" stroke-width=".05" fill="#3a414a"/><path d="M1410.33 1943l14.26-4.63v9.27z" stroke="#3a414a" stroke-width="5" fill="#3a414a"/><path d="M847.92 1641.33v172.8" stroke="#3a414a" stroke-width="5" fill="none"/><path d="M845.67 1638.5l1.1.25 1.15.08 1.13-.08 1.12-.24.22-.07v2.96h-4.96v-2.97z" stroke="#3a414a" stroke-width=".05" fill="#3a414a"/><path d="M847.92 1830.9l-4.64-14.26h9.27z" stroke="#3a414a" stroke-width="5" fill="#3a414a"/><path d="M1638.97 1943h-209.9" stroke="#3a414a" stroke-width="5" fill="none"/><path d="M1641.47 1945.48h-2.57v-4.95h2.57z" stroke="#3a414a" stroke-width=".05" fill="#3a414a"/><path d="M1412.3 1943l14.26-4.63v9.27z" stroke="#3a414a" stroke-width="5" fill="#3a414a"/><path d="M173.36 1312.03a6 6 0 0 1 6-6h2238.7a6 6 0 0 1 6 6V2120a6 6 0 0 1-6 6H179.37a6 6 0 0 1-6-6z" stroke="#3a414a" stroke-width="2" fill="#fff"/><path d="M173.36 1263.77a6 6 0 0 1 6-6H428.7a6 6 0 0 1 6 6v24.26a6 6 0 0 1-6 6H179.37a6 6 0 0 1-6-6z" fill="#3a414a"/><g><use xlink:href="#a" transform="matrix(1,0,0,1,181.36371440431867,1265.7706827767909) translate(0 16.589501953125)"/><use xlink:href="#b" transform="matrix(1,0,0,1,181.36371440431867,1265.7706827767909) translate(118.07094726562501 16.589501953125)"/><use xlink:href="#c" transform="matrix(1,0,0,1,181.36371440431867,1265.7706827767909) translate(207.97488281250003 16.589501953125)"/></g><path d="M292.1 1886.5a6 6 0 0 1 6-6h153a6 6 0 0 1 6 6v113a6 6 0 0 1-6 6h-153a6 6 0 0 1-6-6z" stroke="#ff80df" stroke-width="2" fill="#fff0fb"/><g><use xlink:href="#d" transform="matrix(1,0,0,1,304.09794350013885,1892.506357217635) translate(-4.744140625 26.318142361111114)"/><use xlink:href="#e" transform="matrix(1,0,0,1,304.09794350013885,1892.506357217635) translate(13.951605902777793 58.583767361111114)"/><use xlink:href="#f" transform="matrix(1,0,0,1,304.09794350013885,1892.506357217635) translate(45.6953125 90.84939236111111)"/></g><path d="M253.36 1422.32a6 6 0 0 1 6-6h230.47a6 6 0 0 1 6 6v181.38a6 6 0 0 1-6 6H259.36a6 6 0 0 1-6-6z" stroke="#ff80df" stroke-width="2" fill="#fff0fb"/><g><use xlink:href="#g" transform="matrix(1,0,0,1,265.36371440431867,1428.3201166354067) translate(40.532986111111114 58.71527777777778)"/><use xlink:href="#h" transform="matrix(1,0,0,1,265.36371440431867,1428.3201166354067) translate(96.88064236111111 58.71527777777778)"/><use xlink:href="#i" transform="matrix(1,0,0,1,265.36371440431867,1428.3201166354067) translate(125.35286458333333 58.71527777777778)"/><use xlink:href="#j" transform="matrix(1,0,0,1,265.36371440431867,1428.3201166354067) translate(8.919487847222229 90.98090277777777)"/><use xlink:href="#k" transform="matrix(1,0,0,1,265.36371440431867,1428.3201166354067) translate(104.49240451388889 90.98090277777777)"/><use xlink:href="#l" transform="matrix(1,0,0,1,265.36371440431867,1428.3201166354067) translate(35.395182291666686 123.24652777777777)"/><use xlink:href="#m" transform="matrix(1,0,0,1,265.36371440431867,1428.3201166354067) translate(70.90950520833334 123.24652777777777)"/></g><path d="M843.3 1389.87a7.2 7.2 0 0 1 9.22 0l142.87 119.3a5 5 0 0 1 0 7.7L852.5 1636.14a7.2 7.2 0 0 1-9.2 0l-142.88-119.3a5 5 0 0 1 0-7.68z" stroke="#6db1ff" stroke-width="2" fill="#edf5ff"/><g><use xlink:href="#n" transform="matrix(1,0,0,1,700.832172595959,1391.025428870541) translate(89.89908854166666 81.68532986111111)"/><use xlink:href="#o" transform="matrix(1,0,0,1,700.832172595959,1391.025428870541) translate(192.62261284722223 81.68532986111111)"/><use xlink:href="#p" transform="matrix(1,0,0,1,700.832172595959,1391.025428870541) translate(17.020399305555543 113.95095486111111)"/><use xlink:href="#q" transform="matrix(1,0,0,1,700.832172595959,1391.025428870541) translate(206.5060763888889 113.95095486111111)"/><use xlink:href="#r" transform="matrix(1,0,0,1,700.832172595959,1391.025428870541) translate(24.24696180555557 146.21657986111111)"/><use xlink:href="#s" transform="matrix(1,0,0,1,700.832172595959,1391.025428870541) translate(110.86805555555557 146.21657986111111)"/><use xlink:href="#t" transform="matrix(1,0,0,1,700.832172595959,1391.025428870541) translate(138.41796875 146.21657986111111)"/><use xlink:href="#u" transform="matrix(1,0,0,1,700.832172595959,1391.025428870541) translate(109.14822048611111 178.48220486111111)"/></g><path d="M1200 1422.32a6 6 0 0 1 6-6h230.47a6 6 0 0 1 6 6v181.38a6 6 0 0 1-6 6H1206a6 6 0 0 1-6-6z" stroke="#ff80df" stroke-width="2" fill="#fff0fb"/><g><use xlink:href="#v" transform="matrix(1,0,0,1,1212,1428.3201166354067) translate(66.86219618055556 26.84027777777778)"/><use xlink:href="#w" transform="matrix(1,0,0,1,1212,1428.3201166354067) translate(34.255859375 59.10590277777778)"/><use xlink:href="#x" transform="matrix(1,0,0,1,1212,1428.3201166354067) translate(8.870659722222229 91.37152777777777)"/><use xlink:href="#y" transform="matrix(1,0,0,1,1212,1428.3201166354067) translate(81.26649305555556 91.37152777777777)"/><use xlink:href="#z" transform="matrix(1,0,0,1,1212,1428.3201166354067) translate(144.52604166666666 91.37152777777777)"/><use xlink:href="#A" transform="matrix(1,0,0,1,1212,1428.3201166354067) translate(11.724392361111114 123.63715277777777)"/><use xlink:href="#B" transform="matrix(1,0,0,1,1212,1428.3201166354067) translate(54.68229166666667 123.63715277777777)"/><use xlink:href="#C" transform="matrix(1,0,0,1,1212,1428.3201166354067) translate(100.14670138888889 123.63715277777777)"/><use xlink:href="#D" transform="matrix(1,0,0,1,1212,1428.3201166354067) translate(98.85004340277777 155.90277777777777)"/></g><path d="M1642.47 1416a6 6 0 0 1 6-6h247.13a6 6 0 0 1 6 6v194.02a6 6 0 0 1-6 6h-247.13a6 6 0 0 1-6-6z" stroke="#ff80df" stroke-width="2" fill="#fff0fb"/><g><use xlink:href="#E" transform="matrix(1,0,0,1,1654.4684581916404,1422.0063572176352) translate(29.583116319444457 50.12152777777778)"/><use xlink:href="#F" transform="matrix(1,0,0,1,1654.4684581916404,1422.0063572176352) translate(117.09396701388889 50.12152777777778)"/><use xlink:href="#y" transform="matrix(1,0,0,1,1654.4684581916404,1422.0063572176352) translate(11.126085069444443 82.38715277777777)"/><use xlink:href="#w" transform="matrix(1,0,0,1,1654.4684581916404,1422.0063572176352) translate(74.38563368055554 82.38715277777777)"/><use xlink:href="#x" transform="matrix(1,0,0,1,1654.4684581916404,1422.0063572176352) translate(24.825086805555543 114.65277777777777)"/><use xlink:href="#G" transform="matrix(1,0,0,1,1654.4684581916404,1422.0063572176352) translate(97.22092013888887 114.65277777777777)"/><use xlink:href="#H" transform="matrix(1,0,0,1,1654.4684581916404,1422.0063572176352) translate(123.84852430555554 114.65277777777777)"/><use xlink:href="#I" transform="matrix(1,0,0,1,1654.4684581916404,1422.0063572176352) translate(65.08116319444446 146.91840277777777)"/></g><path d="M2101.6 1422.32a6 6 0 0 1 6-6h230.47a6 6 0 0 1 6 6v181.38a6 6 0 0 1-6 6H2107.6a6 6 0 0 1-6-6z" stroke="#ff80df" stroke-width="2" fill="#fff0fb"/><g><use xlink:href="#J" transform="matrix(1,0,0,1,2113.6052412461977,1428.3201166354067) translate(12.109592013888914 42.77777777777778)"/><use xlink:href="#K" transform="matrix(1,0,0,1,2113.6052412461977,1428.3201166354067) translate(173.52452256944443 42.77777777777778)"/><use xlink:href="#s" transform="matrix(1,0,0,1,2113.6052412461977,1428.3201166354067) translate(44.91666666666666 75.04340277777777)"/><use xlink:href="#L" transform="matrix(1,0,0,1,2113.6052412461977,1428.3201166354067) translate(72.4665798611111 75.04340277777777)"/><use xlink:href="#M" transform="matrix(1,0,0,1,2113.6052412461977,1428.3201166354067) translate(38.824001736111114 107.30902777777777)"/><use xlink:href="#N" transform="matrix(1,0,0,1,2113.6052412461977,1428.3201166354067) translate(150.91167534722223 107.30902777777777)"/><use xlink:href="#O" transform="matrix(1,0,0,1,2113.6052412461977,1428.3201166354067) translate(52.913628472222236 139.57465277777777)"/></g><path d="M1642.47 1846a6 6 0 0 1 6-6h247.13a6 6 0 0 1 6 6v194a6 6 0 0 1-6 6h-247.13a6 6 0 0 1-6-6z" stroke="#ff80df" stroke-width="2" fill="#fff0fb"/><g><use xlink:href="#P" transform="matrix(1,0,0,1,1654.4684581916404,1852) translate(10.078993055555571 50.12152777777778)"/><use xlink:href="#s" transform="matrix(1,0,0,1,1654.4684581916404,1852) translate(71.58072916666669 50.12152777777778)"/><use xlink:href="#Q" transform="matrix(1,0,0,1,1654.4684581916404,1852) translate(99.13064236111111 50.12152777777778)"/><use xlink:href="#R" transform="matrix(1,0,0,1,1654.4684581916404,1852) translate(120.08333333333334 50.12152777777778)"/><use xlink:href="#G" transform="matrix(1,0,0,1,1654.4684581916404,1852) translate(26.056640625 82.38715277777777)"/><use xlink:href="#S" transform="matrix(1,0,0,1,1654.4684581916404,1852) translate(52.684244791666664 82.38715277777777)"/><use xlink:href="#T" transform="matrix(1,0,0,1,1654.4684581916404,1852) translate(130.40776909722223 82.38715277777777)"/><use xlink:href="#U" transform="matrix(1,0,0,1,1654.4684581916404,1852) translate(28.042317708333343 114.65277777777777)"/><use xlink:href="#V" transform="matrix(1,0,0,1,1654.4684581916404,1852) translate(87.93815104166667 114.65277777777777)"/><use xlink:href="#W" transform="matrix(1,0,0,1,1654.4684581916404,1852) translate(126.13259548611111 114.65277777777777)"/><use xlink:href="#X" transform="matrix(1,0,0,1,1654.4684581916404,1852) translate(65.607421875 146.91840277777777)"/></g><path d="M1361.23 1903c22.1 0 40 17.9 40 40s-17.9 40-40 40h-80c-22.1 0-40-17.9-40-40s17.9-40 40-40z" stroke="#e08fff" stroke-width="2" fill="#f4d9ff"/><g><use xlink:href="#Y" transform="matrix(1,0,0,1,1246.2342290958202,1908.006357217635) translate(54.95334201388889 43.40277777777778)"/></g><path d="M718.35 1846a6 6 0 0 1 6-6h247.13a6 6 0 0 1 6 6v194a6 6 0 0 1-6 6H724.35a6 6 0 0 1-6-6z" stroke="#ff80df" stroke-width="2" fill="#fff0fb"/><g><use xlink:href="#Z" transform="matrix(1,0,0,1,730.347694770701,1852) translate(14.657986111111114 50.12152777777778)"/><use xlink:href="#aa" transform="matrix(1,0,0,1,730.347694770701,1852) translate(77.38585069444444 50.12152777777778)"/><use xlink:href="#ab" transform="matrix(1,0,0,1,730.347694770701,1852) translate(124.85763888888889 50.12152777777778)"/><use xlink:href="#ac" transform="matrix(1,0,0,1,730.347694770701,1852) translate(143.5859375 50.12152777777778)"/><use xlink:href="#r" transform="matrix(1,0,0,1,730.347694770701,1852) translate(17.4140625 82.38715277777777)"/><use xlink:href="#s" transform="matrix(1,0,0,1,730.347694770701,1852) translate(104.03515625 82.38715277777777)"/><use xlink:href="#l" transform="matrix(1,0,0,1,730.347694770701,1852) translate(131.58506944444446 82.38715277777777)"/><use xlink:href="#ad" transform="matrix(1,0,0,1,730.347694770701,1852) translate(167.09939236111111 82.38715277777777)"/><use xlink:href="#ae" transform="matrix(1,0,0,1,730.347694770701,1852) translate(9.259765625000028 114.65277777777777)"/><use xlink:href="#G" transform="matrix(1,0,0,1,730.347694770701,1852) translate(128.205078125 114.65277777777777)"/><use xlink:href="#af" transform="matrix(1,0,0,1,730.347694770701,1852) translate(154.83268229166666 114.65277777777777)"/><use xlink:href="#ag" transform="matrix(1,0,0,1,730.347694770701,1852) translate(75.59548611111111 146.91840277777777)"/></g><path d="M374.6 1877v-241.44" stroke="#3a414a" stroke-width="5" fill="none"/><path d="M377.07 1879.5h-4.95v-2.56h4.95z" stroke="#3a414a" stroke-width=".05" fill="#3a414a"/><path d="M374.6 1618.8l4.63 14.26h-9.27z" stroke="#3a414a" stroke-width="5" fill="#3a414a"/><path d="M499.33 1513h173.45" stroke="#3a414a" stroke-width="5" fill="none"/><path d="M499.4 1515.5h-2.57v-4.96h2.57z" stroke="#3a414a" stroke-width=".05" fill="#3a414a"/><path d="M689.54 1513l-14.26 4.65v-9.27z" stroke="#3a414a" stroke-width="5" fill="#3a414a"/><path d="M1000.7 1513h173.44" stroke="#3a414a" stroke-width="5" fill="none"/><path d="M1000.76 1515.5h-3.12l.2-.42.26-1.02.1-1.05-.1-1.03-.27-1.02-.2-.4h3.13z" stroke="#3a414a" stroke-width=".05" fill="#3a414a"/><path d="M1190.9 1513l-14.26 4.65v-9.27z" stroke="#3a414a" stroke-width="5" fill="#3a414a"/><path d="M1445.97 1513h170.64" stroke="#3a414a" stroke-width="5" fill="none"/><path d="M1446.03 1515.5h-2.56v-4.96h2.56z" stroke="#3a414a" stroke-width=".05" fill="#3a414a"/><path d="M1633.38 1513l-14.27 4.65v-9.27z" stroke="#3a414a" stroke-width="5" fill="#3a414a"/><path d="M1905.1 1513h170.65" stroke="#3a414a" stroke-width="5" fill="none"/><path d="M1905.17 1515.5h-2.57v-4.96h2.57z" stroke="#3a414a" stroke-width=".05" fill="#3a414a"/><path d="M2092.5 1513l-14.25 4.65v-9.27z" stroke="#3a414a" stroke-width="5" fill="#3a414a"/><path d="M2222.84 1613.2V1937a6 6 0 0 1-6 6h-289.38" stroke="#3a414a" stroke-width="5" fill="none"/><path d="M2225.3 1613.27h-4.94v-2.57h4.95z" stroke="#3a414a" stroke-width=".05" fill="#3a414a"/><path d="M1910.7 1943l14.26-4.63v9.27z" stroke="#3a414a" stroke-width="5" fill="#3a414a"/><path d="M1638.97 1943H1427.1" stroke="#3a414a" stroke-width="5" fill="none"/><path d="M1641.47 1945.48h-2.57v-4.95h2.57z" stroke="#3a414a" stroke-width=".05" fill="#3a414a"/><path d="M1410.33 1943l14.26-4.63v9.27z" stroke="#3a414a" stroke-width="5" fill="#3a414a"/><path d="M847.92 1641.33v172.8" stroke="#3a414a" stroke-width="5" fill="none"/><path d="M845.67 1638.5l1.1.25 1.15.08 1.13-.08 1.12-.24.22-.07v2.96h-4.96v-2.97z" stroke="#3a414a" stroke-width=".05" fill="#3a414a"/><path d="M847.92 1830.9l-4.64-14.26h9.27z" stroke="#3a414a" stroke-width="5" fill="#3a414a"/><path d="M1638.97 1943h-209.9" stroke="#3a414a" stroke-width="5" fill="none"/><path d="M1641.47 1945.48h-2.57v-4.95h2.57z" stroke="#3a414a" stroke-width=".05" fill="#3a414a"/><path d="M1412.3 1943l14.26-4.63v9.27z" stroke="#3a414a" stroke-width="5" fill="#3a414a"/><defs><path fill="#fff" d="M52 0l541-1490h220L1361 0h-200l-149-416H398L254 0H52zm404-582h497c-103-290-145-390-251-756-108 377-145 460-246 756" id="ah"/><path fill="#fff" d="M180 0v-1490h908v168H370v486h669v168H370v500h727V0H180" id="ai"/><path fill="#fff" d="M657 26c-323 0-524-166-541-416h195c15 169 171 246 346 246 202 0 356-106 356-265 5-203-294-238-475-293-239-73-380-191-380-389 0-252 224-419 512-419 294 0 499 171 508 396H992c-17-145-151-228-328-228-193 0-321 102-321 242 0 156 175 211 284 241l149 41c160 44 422 134 422 412 0 244-197 432-541 432" id="aj"/><path fill="#fff" d="M798-719v166H144v-166h654" id="ak"/><path fill="#fff" d="M154 0v-137l495-537c165-179 249-281 249-418 0-156-121-253-280-253-170 0-278 110-278 278H158c0-264 200-443 465-443 266 0 455 183 455 416 0 161-73 288-336 568L416-179v12h687V0H154" id="al"/><path fill="#fff" d="M626 20c-262 0-458-168-468-396h184c12 133 134 229 284 229 180 0 311-137 311-326 0-192-136-335-323-335-92 0-196 33-255 78l-178-22 88-738h784v167H429l-51 435h8c61-51 160-87 263-87 273 0 474 211 474 499 0 286-210 496-497 496" id="am"/><path fill="#fff" d="M646 20c-249 0-524-159-524-708 0-524 209-822 547-822 250 0 431 161 467 395H950c-33-129-126-227-281-227-229 0-367 208-367 566h12c80-124 212-198 367-198 255 0 467 205 467 493 0 278-198 501-502 501zm0-167c179 0 318-148 318-334 0-182-133-328-313-328-181 0-322 156-322 330 0 176 134 332 317 332" id="an"/><path fill="#fff" d="M783 20c-382 0-661-292-661-764 0-473 279-766 661-766 302 0 548 182 601 489h-190c-42-204-217-313-411-313-268 0-476 208-476 590 0 381 209 588 476 588 195 0 369-110 411-313h190c-52 303-296 489-601 489" id="ao"/><path fill="#fff" d="M180 0v-1490h528c311 0 458 177 458 395 0 191-114 278-244 313v14c139 9 302 137 302 371 0 225-148 397-499 397H180zm190-168h350c232 0 321-102 321-231 0-149-120-277-311-277H370v508zm0-668h328c160 0 286-101 286-255 0-129-87-231-280-231H370v486" id="ap"/><g id="a"><use transform="matrix(0.008173828125000001,0,0,0.008173828125000001,0,0)" xlink:href="#ah"/><use transform="matrix(0.008173828125000001,0,0,0.008173828125000001,11.549619140625001,0)" xlink:href="#ai"/><use transform="matrix(0.008173828125000001,0,0,0.008173828125000001,21.611601562500002,0)" xlink:href="#aj"/><use transform="matrix(0.008173828125000001,0,0,0.008173828125000001,32.352011718750006,0)" xlink:href="#ak"/><use transform="matrix(0.008173828125000001,0,0,0.008173828125000001,39.48776367187501,0)" xlink:href="#al"/><use transform="matrix(0.008173828125000001,0,0,0.008173828125000001,49.696875000000006,0)" xlink:href="#am"/><use transform="matrix(0.008173828125000001,0,0,0.008173828125000001,59.87329101562501,0)" xlink:href="#an"/><use transform="matrix(0.008173828125000001,0,0,0.008173828125000001,70.25405273437501,0)" xlink:href="#ak"/><use transform="matrix(0.008173828125000001,0,0,0.008173828125000001,77.953798828125,0)" xlink:href="#ao"/><use transform="matrix(0.008173828125000001,0,0,0.008173828125000001,90.181845703125,0)" xlink:href="#ap"/><use transform="matrix(0.008173828125000001,0,0,0.008173828125000001,101.13477539062501,0)" xlink:href="#ao"/></g><path fill="#fff" d="M338-670V0H158v-1118h173l1 207c72-158 192-221 342-221 226 0 378 139 378 422V0H872v-695c0-172-96-275-252-275-161 0-282 109-282 300" id="aq"/><path fill="#fff" d="M613 24c-304 0-509-231-509-576 0-350 205-580 509-580 216 0 392 114 453 309l-173 49c-33-115-133-197-280-197-223 0-326 196-326 419 0 220 103 415 326 415 150 0 252-85 285-206l172 49C1010-95 832 24 613 24" id="ar"/><path fill="#fff" d="M158 0v-1118h174v172h12c41-113 157-188 290-188 26 0 70 2 91 3v181c-11-2-60-10-108-10-161 0-279 109-279 260V0H158" id="as"/><path fill="#fff" d="M140 405l46-156c120 36 205 19 263-150l32-93L54-1118h197c107 313 237 620 324 950 87-331 219-637 326-950h196L606 167c-68 178-176 259-334 259-64 0-113-12-132-21" id="at"/><path fill="#fff" d="M158 418v-1536h174v179h20c37-59 106-193 324-193 279 0 474 222 474 576 0 356-194 580-473 580-213 0-288-135-325-197h-14v591H158zm492-555c209 0 317-186 317-421 0-232-105-413-317-413-206 0-314 166-314 413 0 249 111 421 314 421" id="au"/><path fill="#fff" d="M598-1118v154H368v674c0 100 37 144 132 144 23 0 62-6 92-12L629-6c-37 13-88 20-134 20-193 0-307-107-307-290v-688H20v-154h168v-266h180v266h230" id="av"/><path fill="#fff" d="M158 0v-1118h180V0H158zm91-1301c-68 0-125-53-125-119s57-119 125-119c69 0 126 53 126 119s-57 119-126 119" id="aw"/><path fill="#fff" d="M613 24c-304 0-509-231-509-576 0-350 205-580 509-580 305 0 511 230 511 580 0 345-206 576-511 576zm0-161c226 0 329-195 329-415 0-222-103-419-329-419-223 0-326 196-326 419 0 220 103 415 326 415" id="ax"/><g id="b"><use transform="matrix(0.008173828125000001,0,0,0.008173828125000001,0,0)" xlink:href="#ai"/><use transform="matrix(0.008173828125000001,0,0,0.008173828125000001,10.061982421875001,0)" xlink:href="#aq"/><use transform="matrix(0.008173828125000001,0,0,0.008173828125000001,19.952314453125002,0)" xlink:href="#ar"/><use transform="matrix(0.008173828125000001,0,0,0.008173828125000001,29.515693359375003,0)" xlink:href="#as"/><use transform="matrix(0.008173828125000001,0,0,0.008173828125000001,36.07927734375001,0)" xlink:href="#at"/><use transform="matrix(0.008173828125000001,0,0,0.008173828125000001,45.48735351562501,0)" xlink:href="#au"/><use transform="matrix(0.008173828125000001,0,0,0.008173828125000001,55.73733398437501,0)" xlink:href="#av"/><use transform="matrix(0.008173828125000001,0,0,0.008173828125000001,61.213798828125014,0)" xlink:href="#aw"/><use transform="matrix(0.008173828125000001,0,0,0.008173828125000001,65.26801757812501,0)" xlink:href="#ax"/><use transform="matrix(0.008173828125000001,0,0,0.008173828125000001,75.30547851562501,0)" xlink:href="#aq"/></g><path fill="#fff" d="M180 0v-1490h901v168H370v510h643v168H370V0H180" id="ay"/><path fill="#fff" d="M338-1490V0H158v-1490h180" id="az"/><path fill="#fff" d="M409 0L70-1118h191c89 329 165 560 243 925 75-353 154-601 240-925h192c85 325 161 564 235 922 77-354 157-598 244-922h191L1267 0h-179c-86-307-176-590-250-913C763-588 675-308 588 0H409" id="aA"/><g id="c"><use transform="matrix(0.008173828125000001,0,0,0.008173828125000001,0,0)" xlink:href="#ay"/><use transform="matrix(0.008173828125000001,0,0,0.008173828125000001,9.882158203125002,0)" xlink:href="#az"/><use transform="matrix(0.008173828125000001,0,0,0.008173828125000001,13.936376953125002,0)" xlink:href="#ax"/><use transform="matrix(0.008173828125000001,0,0,0.008173828125000001,23.671406250000004,0)" xlink:href="#aA"/></g><path d="M52 0l541-1490h220L1361 0h-200l-149-416H398L254 0H52zm404-582h497c-103-290-145-390-251-756-108 377-145 460-246 756" id="aB"/><path d="M180 0v-1490h908v168H370v486h669v168H370v500h727V0H180" id="aC"/><path d="M657 26c-323 0-524-166-541-416h195c15 169 171 246 346 246 202 0 356-106 356-265 5-203-294-238-475-293-239-73-380-191-380-389 0-252 224-419 512-419 294 0 499 171 508 396H992c-17-145-151-228-328-228-193 0-321 102-321 242 0 156 175 211 284 241l149 41c160 44 422 134 422 412 0 244-197 432-541 432" id="aD"/><path d="M798-719v166H144v-166h654" id="aE"/><path d="M154 0v-137l495-537c165-179 249-281 249-418 0-156-121-253-280-253-170 0-278 110-278 278H158c0-264 200-443 465-443 266 0 455 183 455 416 0 161-73 288-336 568L416-179v12h687V0H154" id="aF"/><path d="M626 20c-262 0-458-168-468-396h184c12 133 134 229 284 229 180 0 311-137 311-326 0-192-136-335-323-335-92 0-196 33-255 78l-178-22 88-738h784v167H429l-51 435h8c61-51 160-87 263-87 273 0 474 211 474 499 0 286-210 496-497 496" id="aG"/><path d="M646 20c-249 0-524-159-524-708 0-524 209-822 547-822 250 0 431 161 467 395H950c-33-129-126-227-281-227-229 0-367 208-367 566h12c80-124 212-198 367-198 255 0 467 205 467 493 0 278-198 501-502 501zm0-167c179 0 318-148 318-334 0-182-133-328-313-328-181 0-322 156-322 330 0 176 134 332 317 332" id="aH"/><path d="M783 20c-382 0-661-292-661-764 0-473 279-766 661-766 302 0 548 182 601 489h-190c-42-204-217-313-411-313-268 0-476 208-476 590 0 381 209 588 476 588 195 0 369-110 411-313h190c-52 303-296 489-601 489" id="aI"/><path d="M180 0v-1490h528c311 0 458 177 458 395 0 191-114 278-244 313v14c139 9 302 137 302 371 0 225-148 397-499 397H180zm190-168h350c232 0 321-102 321-231 0-149-120-277-311-277H370v508zm0-668h328c160 0 286-101 286-255 0-129-87-231-280-231H370v486" id="aJ"/><g id="d"><use transform="matrix(0.010850694444444444,0,0,0.010850694444444444,0,0)" xlink:href="#aB"/><use transform="matrix(0.010850694444444444,0,0,0.010850694444444444,15.33203125,0)" xlink:href="#aC"/><use transform="matrix(0.010850694444444444,0,0,0.010850694444444444,28.68923611111111,0)" xlink:href="#aD"/><use transform="matrix(0.010850694444444444,0,0,0.010850694444444444,42.947048611111114,0)" xlink:href="#aE"/><use transform="matrix(0.010850694444444444,0,0,0.010850694444444444,52.41970486111112,0)" xlink:href="#aF"/><use transform="matrix(0.010850694444444444,0,0,0.010850694444444444,65.97222222222223,0)" xlink:href="#aG"/><use transform="matrix(0.010850694444444444,0,0,0.010850694444444444,79.48133680555556,0)" xlink:href="#aH"/><use transform="matrix(0.010850694444444444,0,0,0.010850694444444444,93.26171875,0)" xlink:href="#aE"/><use transform="matrix(0.010850694444444444,0,0,0.010850694444444444,103.48307291666666,0)" xlink:href="#aI"/><use transform="matrix(0.010850694444444444,0,0,0.010850694444444444,119.71571180555556,0)" xlink:href="#aJ"/><use transform="matrix(0.010850694444444444,0,0,0.010850694444444444,134.25564236111111,0)" xlink:href="#aI"/></g><path d="M338-670V0H158v-1118h173l1 207c72-158 192-221 342-221 226 0 378 139 378 422V0H872v-695c0-172-96-275-252-275-161 0-282 109-282 300" id="aK"/><path d="M613 24c-304 0-509-231-509-576 0-350 205-580 509-580 216 0 392 114 453 309l-173 49c-33-115-133-197-280-197-223 0-326 196-326 419 0 220 103 415 326 415 150 0 252-85 285-206l172 49C1010-95 832 24 613 24" id="aL"/><path d="M158 0v-1118h174v172h12c41-113 157-188 290-188 26 0 70 2 91 3v181c-11-2-60-10-108-10-161 0-279 109-279 260V0H158" id="aM"/><path d="M140 405l46-156c120 36 205 19 263-150l32-93L54-1118h197c107 313 237 620 324 950 87-331 219-637 326-950h196L606 167c-68 178-176 259-334 259-64 0-113-12-132-21" id="aN"/><path d="M158 418v-1536h174v179h20c37-59 106-193 324-193 279 0 474 222 474 576 0 356-194 580-473 580-213 0-288-135-325-197h-14v591H158zm492-555c209 0 317-186 317-421 0-232-105-413-317-413-206 0-314 166-314 413 0 249 111 421 314 421" id="aO"/><path d="M598-1118v154H368v674c0 100 37 144 132 144 23 0 62-6 92-12L629-6c-37 13-88 20-134 20-193 0-307-107-307-290v-688H20v-154h168v-266h180v266h230" id="aP"/><path d="M158 0v-1118h180V0H158zm91-1301c-68 0-125-53-125-119s57-119 125-119c69 0 126 53 126 119s-57 119-126 119" id="aQ"/><path d="M613 24c-304 0-509-231-509-576 0-350 205-580 509-580 305 0 511 230 511 580 0 345-206 576-511 576zm0-161c226 0 329-195 329-415 0-222-103-419-329-419-223 0-326 196-326 419 0 220 103 415 326 415" id="aR"/><g id="e"><use transform="matrix(0.010850694444444444,0,0,0.010850694444444444,0,0)" xlink:href="#aC"/><use transform="matrix(0.010850694444444444,0,0,0.010850694444444444,13.35720486111111,0)" xlink:href="#aK"/><use transform="matrix(0.010850694444444444,0,0,0.010850694444444444,26.48654513888889,0)" xlink:href="#aL"/><use transform="matrix(0.010850694444444444,0,0,0.010850694444444444,39.181857638888886,0)" xlink:href="#aM"/><use transform="matrix(0.010850694444444444,0,0,0.010850694444444444,47.89496527777778,0)" xlink:href="#aN"/><use transform="matrix(0.010850694444444444,0,0,0.010850694444444444,60.38411458333333,0)" xlink:href="#aO"/><use transform="matrix(0.010850694444444444,0,0,0.010850694444444444,73.99088541666666,0)" xlink:href="#aP"/><use transform="matrix(0.010850694444444444,0,0,0.010850694444444444,81.26085069444443,0)" xlink:href="#aQ"/><use transform="matrix(0.010850694444444444,0,0,0.010850694444444444,86.64279513888887,0)" xlink:href="#aR"/><use transform="matrix(0.010850694444444444,0,0,0.010850694444444444,99.96744791666664,0)" xlink:href="#aK"/></g><path d="M180 0v-1490h901v168H370v510h643v168H370V0H180" id="aS"/><path d="M338-1490V0H158v-1490h180" id="aT"/><path d="M409 0L70-1118h191c89 329 165 560 243 925 75-353 154-601 240-925h192c85 325 161 564 235 922 77-354 157-598 244-922h191L1267 0h-179c-86-307-176-590-250-913C763-588 675-308 588 0H409" id="aU"/><g id="f"><use transform="matrix(0.010850694444444444,0,0,0.010850694444444444,0,0)" xlink:href="#aS"/><use transform="matrix(0.010850694444444444,0,0,0.010850694444444444,13.118489583333332,0)" xlink:href="#aT"/><use transform="matrix(0.010850694444444444,0,0,0.010850694444444444,18.50043402777778,0)" xlink:href="#aR"/><use transform="matrix(0.010850694444444444,0,0,0.010850694444444444,31.423611111111114,0)" xlink:href="#aU"/></g><path d="M471 26C259 26 90-98 90-318c0-256 228-303 435-329 202-27 287-16 287-108 0-139-79-219-234-219-161 0-248 86-283 164l-173-57c86-203 278-265 451-265 150 0 419 46 419 395V0H815v-152h-12C765-73 660 26 471 26zm31-159c199 0 310-134 310-271v-155c-30 35-226 55-295 64-131 17-246 59-246 186 0 116 97 176 231 176" id="aV"/><g id="g"><use transform="matrix(0.010850694444444444,0,0,0.010850694444444444,0,0)" xlink:href="#aD"/><use transform="matrix(0.010850694444444444,0,0,0.010850694444444444,14.2578125,0)" xlink:href="#aP"/><use transform="matrix(0.010850694444444444,0,0,0.010850694444444444,21.63628472222222,0)" xlink:href="#aV"/><use transform="matrix(0.010850694444444444,0,0,0.010850694444444444,34.11458333333333,0)" xlink:href="#aM"/><use transform="matrix(0.010850694444444444,0,0,0.010850694444444444,42.827690972222214,0)" xlink:href="#aP"/></g><path d="M2048-719v166H0v-166h2048" id="aW"/><use transform="matrix(0.010850694444444444,0,0,0.010850694444444444,0,0)" xlink:href="#aW" id="h"/><path d="M370-1490V0H180v-1490h190" id="aX"/><path d="M537 14c-226 0-379-139-379-422v-710h180v695c0 172 97 275 253 275 160 0 281-109 281-300v-670h181V0H879v-209C806-46 684 14 537 14" id="aY"/><g id="i"><use transform="matrix(0.010850694444444444,0,0,0.010850694444444444,0,0)" xlink:href="#aX"/><use transform="matrix(0.010850694444444444,0,0,0.010850694444444444,5.967881944444445,0)" xlink:href="#aK"/><use transform="matrix(0.010850694444444444,0,0,0.010850694444444444,19.09722222222222,0)" xlink:href="#aO"/><use transform="matrix(0.010850694444444444,0,0,0.010850694444444444,32.70399305555556,0)" xlink:href="#aY"/><use transform="matrix(0.010850694444444444,0,0,0.010850694444444444,45.84418402777778,0)" xlink:href="#aP"/></g><path d="M628 24c-324 0-524-230-524-574 0-343 198-582 503-582 237 0 487 146 487 559v75H286c9 234 145 362 343 362 132 0 231-58 273-172l174 48C1024-91 857 24 628 24zM287-650h624c-17-190-120-322-304-322-192 0-309 151-320 322" id="aZ"/><path d="M65 0l393-574-370-544h210c88 136 192 297 267 435 67-142 176-302 264-435h206L661-564 1053 0H844c-94-144-206-310-287-458C484-308 366-142 273 0H65" id="ba"/><g id="j"><use transform="matrix(0.010850694444444444,0,0,0.010850694444444444,0,0)" xlink:href="#aO"/><use transform="matrix(0.010850694444444444,0,0,0.010850694444444444,13.606770833333332,0)" xlink:href="#aT"/><use transform="matrix(0.010850694444444444,0,0,0.010850694444444444,18.98871527777778,0)" xlink:href="#aV"/><use transform="matrix(0.010850694444444444,0,0,0.010850694444444444,31.46701388888889,0)" xlink:href="#aQ"/><use transform="matrix(0.010850694444444444,0,0,0.010850694444444444,36.848958333333336,0)" xlink:href="#aK"/><use transform="matrix(0.010850694444444444,0,0,0.010850694444444444,49.97829861111111,0)" xlink:href="#aP"/><use transform="matrix(0.010850694444444444,0,0,0.010850694444444444,57.03125000000001,0)" xlink:href="#aZ"/><use transform="matrix(0.010850694444444444,0,0,0.010850694444444444,69.48784722222223,0)" xlink:href="#ba"/><use transform="matrix(0.010850694444444444,0,0,0.010850694444444444,82.05295138888889,0)" xlink:href="#aP"/></g><path d="M577 24c-279 0-473-224-473-580 0-354 195-576 474-576 218 0 287 134 324 193h14v-551h180V0H922v-173h-20C865-111 790 24 577 24zm27-161c203 0 314-172 314-421 0-247-108-413-314-413-212 0-317 181-317 413 0 235 108 421 317 421" id="bb"/><path d="M158 0v-1118h175l1 205c55-151 181-225 313-225 147 0 245 90 285 228 53-141 190-228 352-228 194 0 352 125 352 384V0h-181v-749c0-161-105-225-225-225-151 0-243 103-243 244V0H807v-767c0-124-93-207-219-207-131 0-250 92-250 270V0H158" id="bc"/><g id="k"><use transform="matrix(0.010850694444444444,0,0,0.010850694444444444,0,0)" xlink:href="#bb"/><use transform="matrix(0.010850694444444444,0,0,0.010850694444444444,13.606770833333332,0)" xlink:href="#aR"/><use transform="matrix(0.010850694444444444,0,0,0.010850694444444444,26.931423611111104,0)" xlink:href="#aL"/><use transform="matrix(0.010850694444444444,0,0,0.010850694444444444,39.62673611111111,0)" xlink:href="#aY"/><use transform="matrix(0.010850694444444444,0,0,0.010850694444444444,52.76692708333333,0)" xlink:href="#bc"/><use transform="matrix(0.010850694444444444,0,0,0.010850694444444444,72.23307291666666,0)" xlink:href="#aZ"/><use transform="matrix(0.010850694444444444,0,0,0.010850694444444444,85.18880208333333,0)" xlink:href="#aK"/><use transform="matrix(0.010850694444444444,0,0,0.010850694444444444,98.31814236111111,0)" xlink:href="#aP"/></g><path d="M678-1118v154H420V0H240v-964H20v-154h220v-149c0-194 155-293 318-293 85 0 141 18 168 30l-50 154c-19-6-47-17-97-17-111 0-159 58-159 166v109h258" id="bd"/><g id="l"><use transform="matrix(0.010850694444444444,0,0,0.010850694444444444,0,0)" xlink:href="#bd"/><use transform="matrix(0.010850694444444444,0,0,0.010850694444444444,7.573784722222222,0)" xlink:href="#aR"/><use transform="matrix(0.010850694444444444,0,0,0.010850694444444444,20.8984375,0)" xlink:href="#aM"/></g><g id="m"><use transform="matrix(0.010850694444444444,0,0,0.010850694444444444,0,0)" xlink:href="#aZ"/><use transform="matrix(0.010850694444444444,0,0,0.010850694444444444,12.955729166666666,0)" xlink:href="#aK"/><use transform="matrix(0.010850694444444444,0,0,0.010850694444444444,26.085069444444443,0)" xlink:href="#aL"/><use transform="matrix(0.010850694444444444,0,0,0.010850694444444444,38.78038194444444,0)" xlink:href="#aM"/><use transform="matrix(0.010850694444444444,0,0,0.010850694444444444,47.49348958333333,0)" xlink:href="#aN"/><use transform="matrix(0.010850694444444444,0,0,0.010850694444444444,59.982638888888886,0)" xlink:href="#aO"/><use transform="matrix(0.010850694444444444,0,0,0.010850694444444444,73.58940972222221,0)" xlink:href="#aP"/><use transform="matrix(0.010850694444444444,0,0,0.010850694444444444,80.85937499999999,0)" xlink:href="#aQ"/><use transform="matrix(0.010850694444444444,0,0,0.010850694444444444,86.24131944444443,0)" xlink:href="#aR"/><use transform="matrix(0.010850694444444444,0,0,0.010850694444444444,99.5659722222222,0)" xlink:href="#aK"/></g><path d="M789 20c-398 0-667-293-667-764 0-473 273-766 655-766 315 0 558 198 612 487h-196c-61-191-204-311-415-311-262 0-471 207-471 590 0 380 208 588 482 588 249 0 420-165 425-427H828v-166h572v163c0 370-256 606-611 606" id="be"/><g id="n"><use transform="matrix(0.010850694444444444,0,0,0.010850694444444444,0,0)" xlink:href="#be"/><use transform="matrix(0.010850694444444444,0,0,0.010850694444444444,16.57986111111111,0)" xlink:href="#aZ"/><use transform="matrix(0.010850694444444444,0,0,0.010850694444444444,29.535590277777775,0)" xlink:href="#aK"/><use transform="matrix(0.010850694444444444,0,0,0.010850694444444444,42.66493055555556,0)" xlink:href="#aZ"/><use transform="matrix(0.010850694444444444,0,0,0.010850694444444444,55.62065972222222,0)" xlink:href="#aM"/><use transform="matrix(0.010850694444444444,0,0,0.010850694444444444,63.986545138888886,0)" xlink:href="#aV"/><use transform="matrix(0.010850694444444444,0,0,0.010850694444444444,76.46484375,0)" xlink:href="#aP"/><use transform="matrix(0.010850694444444444,0,0,0.010850694444444444,83.51779513888889,0)" xlink:href="#aZ"/></g><use transform="matrix(0.010850694444444444,0,0,0.010850694444444444,0,0)" xlink:href="#aV" id="o"/><path d="M611 442c-248 0-391-105-460-228l146-94c47 65 117 165 314 165 178 0 307-82 307-266v-224h-17C863-141 792-18 576-18c-268 0-472-195-472-546 0-346 197-568 476-568 216 0 288 133 326 193h17v-179h175V29c0 289-215 413-487 413zm-5-620c203 0 314-146 314-390 0-237-108-403-314-403-213 0-319 180-319 403 0 230 109 390 319 390" id="bf"/><path d="M338-670V0H158v-1490h180v566c73-149 190-208 336-208 226 0 379 139 379 422V0H872v-695c0-172-96-275-252-275-161 0-282 109-282 300" id="bg"/><g id="p"><use transform="matrix(0.010850694444444444,0,0,0.010850694444444444,0,0)" xlink:href="#aL"/><use transform="matrix(0.010850694444444444,0,0,0.010850694444444444,12.6953125,0)" xlink:href="#aM"/><use transform="matrix(0.010850694444444444,0,0,0.010850694444444444,21.408420138888886,0)" xlink:href="#aN"/><use transform="matrix(0.010850694444444444,0,0,0.010850694444444444,33.89756944444444,0)" xlink:href="#aO"/><use transform="matrix(0.010850694444444444,0,0,0.010850694444444444,47.50434027777778,0)" xlink:href="#aP"/><use transform="matrix(0.010850694444444444,0,0,0.010850694444444444,54.557291666666664,0)" xlink:href="#aR"/><use transform="matrix(0.010850694444444444,0,0,0.010850694444444444,67.88194444444444,0)" xlink:href="#bf"/><use transform="matrix(0.010850694444444444,0,0,0.010850694444444444,81.51041666666666,0)" xlink:href="#aM"/><use transform="matrix(0.010850694444444444,0,0,0.010850694444444444,89.87630208333333,0)" xlink:href="#aV"/><use transform="matrix(0.010850694444444444,0,0,0.010850694444444444,102.35460069444444,0)" xlink:href="#aO"/><use transform="matrix(0.010850694444444444,0,0,0.010850694444444444,115.96137152777777,0)" xlink:href="#bg"/><use transform="matrix(0.010850694444444444,0,0,0.010850694444444444,129.1015625,0)" xlink:href="#aQ"/><use transform="matrix(0.010850694444444444,0,0,0.010850694444444444,134.48350694444446,0)" xlink:href="#aL"/><use transform="matrix(0.010850694444444444,0,0,0.010850694444444444,147.39583333333334,0)" xlink:href="#aV"/><use transform="matrix(0.010850694444444444,0,0,0.010850694444444444,159.87413194444446,0)" xlink:href="#aT"/><use transform="matrix(0.010850694444444444,0,0,0.010850694444444444,165.2560763888889,0)" xlink:href="#aT"/><use transform="matrix(0.010850694444444444,0,0,0.010850694444444444,170.74652777777783,0)" xlink:href="#aN"/></g><path d="M538 24C308 24 148-78 108-271l171-41c32 123 123 178 257 178 156 0 256-77 256-169 0-77-54-128-164-154l-186-44c-203-48-300-148-300-305 0-192 176-326 414-326 230 0 351 112 402 269l-163 42c-31-80-94-158-238-158-133 0-233 69-233 162 0 83 57 129 188 160l169 40c203 48 298 149 298 302 0 196-179 339-441 339" id="bh"/><g id="q"><use transform="matrix(0.010850694444444444,0,0,0.010850694444444444,0,0)" xlink:href="#bh"/><use transform="matrix(0.010850694444444444,0,0,0.010850694444444444,11.729600694444445,0)" xlink:href="#aZ"/><use transform="matrix(0.010850694444444444,0,0,0.010850694444444444,24.68532986111111,0)" xlink:href="#aL"/><use transform="matrix(0.010850694444444444,0,0,0.010850694444444444,37.380642361111114,0)" xlink:href="#aY"/><use transform="matrix(0.010850694444444444,0,0,0.010850694444444444,50.52083333333333,0)" xlink:href="#aM"/><use transform="matrix(0.010850694444444444,0,0,0.010850694444444444,58.517795138888886,0)" xlink:href="#aZ"/></g><g id="r"><use transform="matrix(0.010850694444444444,0,0,0.010850694444444444,0,0)" xlink:href="#aM"/><use transform="matrix(0.010850694444444444,0,0,0.010850694444444444,8.365885416666666,0)" xlink:href="#aV"/><use transform="matrix(0.010850694444444444,0,0,0.010850694444444444,20.84418402777778,0)" xlink:href="#aK"/><use transform="matrix(0.010850694444444444,0,0,0.010850694444444444,33.97352430555556,0)" xlink:href="#bb"/><use transform="matrix(0.010850694444444444,0,0,0.010850694444444444,47.580295138888886,0)" xlink:href="#aR"/><use transform="matrix(0.010850694444444444,0,0,0.010850694444444444,60.904947916666664,0)" xlink:href="#bc"/></g><path d="M600 0L52-1490h200c166 485 304 806 458 1336 156-533 285-846 449-1336h202L819 0H600" id="bi"/><g id="s"><use transform="matrix(0.010850694444444444,0,0,0.010850694444444444,0,0)" xlink:href="#aX"/><use transform="matrix(0.010850694444444444,0,0,0.010850694444444444,5.967881944444445,0)" xlink:href="#bi"/></g><path d="M218-607c0-325 108-727 258-974h175c-155 315-250 682-250 974 0 265 78 531 250 886H476C306-10 218-315 218-607" id="bj"/><path d="M126 0v-134l627-806v-11H146v-167h839v143L376-178v11h629V0H126" id="bk"/><g id="t"><use transform="matrix(0.010850694444444444,0,0,0.010850694444444444,0,0)" xlink:href="#bj"/><use transform="matrix(0.010850694444444444,0,0,0.010850694444444444,8.10546875,0)" xlink:href="#aX"/><use transform="matrix(0.010850694444444444,0,0,0.010850694444444444,14.073350694444445,0)" xlink:href="#aK"/><use transform="matrix(0.010850694444444444,0,0,0.010850694444444444,27.20269097222222,0)" xlink:href="#aQ"/><use transform="matrix(0.010850694444444444,0,0,0.010850694444444444,32.584635416666664,0)" xlink:href="#aP"/><use transform="matrix(0.010850694444444444,0,0,0.010850694444444444,39.85460069444444,0)" xlink:href="#aQ"/><use transform="matrix(0.010850694444444444,0,0,0.010850694444444444,45.236545138888886,0)" xlink:href="#aV"/><use transform="matrix(0.010850694444444444,0,0,0.010850694444444444,57.71484375,0)" xlink:href="#aT"/><use transform="matrix(0.010850694444444444,0,0,0.010850694444444444,63.09678819444444,0)" xlink:href="#aQ"/><use transform="matrix(0.010850694444444444,0,0,0.010850694444444444,68.47873263888889,0)" xlink:href="#bk"/><use transform="matrix(0.010850694444444444,0,0,0.010850694444444444,80.75086805555556,0)" xlink:href="#aV"/><use transform="matrix(0.010850694444444444,0,0,0.010850694444444444,93.22916666666666,0)" xlink:href="#aP"/><use transform="matrix(0.010850694444444444,0,0,0.010850694444444444,100.49913194444444,0)" xlink:href="#aQ"/><use transform="matrix(0.010850694444444444,0,0,0.010850694444444444,105.88107638888889,0)" xlink:href="#aR"/><use transform="matrix(0.010850694444444444,0,0,0.010850694444444444,119.20572916666666,0)" xlink:href="#aK"/></g><path d="M96 279C273-86 346-350 346-607c0-292-95-659-250-974h175c150 246 258 650 258 974 0 297-91 602-258 886H96" id="bl"/><g id="u"><use transform="matrix(0.010850694444444444,0,0,0.010850694444444444,0,0)" xlink:href="#bi"/><use transform="matrix(0.010850694444444444,0,0,0.010850694444444444,14.20355902777778,0)" xlink:href="#aZ"/><use transform="matrix(0.010850694444444444,0,0,0.010850694444444444,27.159288194444443,0)" xlink:href="#aL"/><use transform="matrix(0.010850694444444444,0,0,0.010850694444444444,39.85460069444444,0)" xlink:href="#aP"/><use transform="matrix(0.010850694444444444,0,0,0.010850694444444444,46.90755208333333,0)" xlink:href="#aR"/><use transform="matrix(0.010850694444444444,0,0,0.010850694444444444,60.23220486111112,0)" xlink:href="#aM"/><use transform="matrix(0.010850694444444444,0,0,0.010850694444444444,68.59809027777779,0)" xlink:href="#bl"/></g><g id="v"><use transform="matrix(0.010850694444444444,0,0,0.010850694444444444,0,0)" xlink:href="#aX"/><use transform="matrix(0.010850694444444444,0,0,0.010850694444444444,5.967881944444445,0)" xlink:href="#aK"/><use transform="matrix(0.010850694444444444,0,0,0.010850694444444444,19.09722222222222,0)" xlink:href="#aQ"/><use transform="matrix(0.010850694444444444,0,0,0.010850694444444444,24.479166666666664,0)" xlink:href="#aP"/><use transform="matrix(0.010850694444444444,0,0,0.010850694444444444,31.749131944444443,0)" xlink:href="#aQ"/><use transform="matrix(0.010850694444444444,0,0,0.010850694444444444,37.131076388888886,0)" xlink:href="#aV"/><use transform="matrix(0.010850694444444444,0,0,0.010850694444444444,49.609375,0)" xlink:href="#aT"/><use transform="matrix(0.010850694444444444,0,0,0.010850694444444444,54.99131944444444,0)" xlink:href="#aQ"/><use transform="matrix(0.010850694444444444,0,0,0.010850694444444444,60.373263888888886,0)" xlink:href="#bk"/><use transform="matrix(0.010850694444444444,0,0,0.010850694444444444,72.31987847222221,0)" xlink:href="#aZ"/></g><g id="w"><use transform="matrix(0.010850694444444444,0,0,0.010850694444444444,0,0)" xlink:href="#aB"/><use transform="matrix(0.010850694444444444,0,0,0.010850694444444444,15.33203125,0)" xlink:href="#aC"/><use transform="matrix(0.010850694444444444,0,0,0.010850694444444444,28.68923611111111,0)" xlink:href="#aD"/><use transform="matrix(0.010850694444444444,0,0,0.010850694444444444,42.947048611111114,0)" xlink:href="#aE"/><use transform="matrix(0.010850694444444444,0,0,0.010850694444444444,52.41970486111112,0)" xlink:href="#aF"/><use transform="matrix(0.010850694444444444,0,0,0.010850694444444444,65.97222222222223,0)" xlink:href="#aG"/><use transform="matrix(0.010850694444444444,0,0,0.010850694444444444,79.48133680555556,0)" xlink:href="#aH"/><use transform="matrix(0.010850694444444444,0,0,0.010850694444444444,93.26171875,0)" xlink:href="#aE"/><use transform="matrix(0.010850694444444444,0,0,0.010850694444444444,103.48307291666666,0)" xlink:href="#aI"/><use transform="matrix(0.010850694444444444,0,0,0.010850694444444444,119.71571180555556,0)" xlink:href="#aJ"/><use transform="matrix(0.010850694444444444,0,0,0.010850694444444444,134.25564236111111,0)" xlink:href="#aI"/></g><g id="x"><use transform="matrix(0.010850694444444444,0,0,0.010850694444444444,0,0)" xlink:href="#aL"/><use transform="matrix(0.010850694444444444,0,0,0.010850694444444444,12.6953125,0)" xlink:href="#aQ"/><use transform="matrix(0.010850694444444444,0,0,0.010850694444444444,18.077256944444443,0)" xlink:href="#aO"/><use transform="matrix(0.010850694444444444,0,0,0.010850694444444444,31.684027777777775,0)" xlink:href="#bg"/><use transform="matrix(0.010850694444444444,0,0,0.010850694444444444,44.82421875,0)" xlink:href="#aZ"/><use transform="matrix(0.010850694444444444,0,0,0.010850694444444444,57.779947916666664,0)" xlink:href="#aM"/></g><g id="y"><use transform="matrix(0.010850694444444444,0,0,0.010850694444444444,0,0)" xlink:href="#aY"/><use transform="matrix(0.010850694444444444,0,0,0.010850694444444444,13.140190972222221,0)" xlink:href="#bh"/><use transform="matrix(0.010850694444444444,0,0,0.010850694444444444,24.869791666666664,0)" xlink:href="#aQ"/><use transform="matrix(0.010850694444444444,0,0,0.010850694444444444,30.251736111111104,0)" xlink:href="#aK"/><use transform="matrix(0.010850694444444444,0,0,0.010850694444444444,43.381076388888886,0)" xlink:href="#bf"/></g><g id="z"><use transform="matrix(0.010850694444444444,0,0,0.010850694444444444,0,0)" xlink:href="#bh"/><use transform="matrix(0.010850694444444444,0,0,0.010850694444444444,11.729600694444445,0)" xlink:href="#aZ"/><use transform="matrix(0.010850694444444444,0,0,0.010850694444444444,24.68532986111111,0)" xlink:href="#aL"/><use transform="matrix(0.010850694444444444,0,0,0.010850694444444444,37.380642361111114,0)" xlink:href="#aM"/><use transform="matrix(0.010850694444444444,0,0,0.010850694444444444,45.377604166666664,0)" xlink:href="#aZ"/><use transform="matrix(0.010850694444444444,0,0,0.010850694444444444,58.33333333333333,0)" xlink:href="#aP"/></g><path d="M158 0v-1490h180v865h22l478-493h223L593-638 1096 0H865L456-523 338-412V0H158" id="bm"/><g id="A"><use transform="matrix(0.010850694444444444,0,0,0.010850694444444444,0,0)" xlink:href="#bm"/><use transform="matrix(0.010850694444444444,0,0,0.010850694444444444,11.69704861111111,0)" xlink:href="#aZ"/><use transform="matrix(0.010850694444444444,0,0,0.010850694444444444,24.21875,0)" xlink:href="#aN"/></g><g id="B"><use transform="matrix(0.010850694444444444,0,0,0.010850694444444444,0,0)" xlink:href="#aV"/><use transform="matrix(0.010850694444444444,0,0,0.010850694444444444,12.47829861111111,0)" xlink:href="#aK"/><use transform="matrix(0.010850694444444444,0,0,0.010850694444444444,25.60763888888889,0)" xlink:href="#bb"/></g><g id="C"><use transform="matrix(0.010850694444444444,0,0,0.010850694444444444,0,0)" xlink:href="#bf"/><use transform="matrix(0.010850694444444444,0,0,0.010850694444444444,13.628472222222221,0)" xlink:href="#aZ"/><use transform="matrix(0.010850694444444444,0,0,0.010850694444444444,26.58420138888889,0)" xlink:href="#aK"/><use transform="matrix(0.010850694444444444,0,0,0.010850694444444444,39.713541666666664,0)" xlink:href="#aZ"/><use transform="matrix(0.010850694444444444,0,0,0.010850694444444444,52.66927083333333,0)" xlink:href="#aM"/><use transform="matrix(0.010850694444444444,0,0,0.010850694444444444,61.035156249999986,0)" xlink:href="#aV"/><use transform="matrix(0.010850694444444444,0,0,0.010850694444444444,73.5134548611111,0)" xlink:href="#aP"/><use transform="matrix(0.010850694444444444,0,0,0.010850694444444444,80.56640624999999,0)" xlink:href="#aZ"/><use transform="matrix(0.010850694444444444,0,0,0.010850694444444444,93.52213541666666,0)" xlink:href="#bb"/></g><g id="D"><use transform="matrix(0.010850694444444444,0,0,0.010850694444444444,0,0)" xlink:href="#aX"/><use transform="matrix(0.010850694444444444,0,0,0.010850694444444444,5.967881944444445,0)" xlink:href="#bi"/></g><g id="E"><use transform="matrix(0.010850694444444444,0,0,0.010850694444444444,0,0)" xlink:href="#aC"/><use transform="matrix(0.010850694444444444,0,0,0.010850694444444444,13.35720486111111,0)" xlink:href="#aK"/><use transform="matrix(0.010850694444444444,0,0,0.010850694444444444,26.48654513888889,0)" xlink:href="#aL"/><use transform="matrix(0.010850694444444444,0,0,0.010850694444444444,39.181857638888886,0)" xlink:href="#aM"/><use transform="matrix(0.010850694444444444,0,0,0.010850694444444444,47.89496527777778,0)" xlink:href="#aN"/><use transform="matrix(0.010850694444444444,0,0,0.010850694444444444,60.38411458333333,0)" xlink:href="#aO"/><use transform="matrix(0.010850694444444444,0,0,0.010850694444444444,73.99088541666666,0)" xlink:href="#aP"/></g><g id="F"><use transform="matrix(0.010850694444444444,0,0,0.010850694444444444,0,0)" xlink:href="#aO"/><use transform="matrix(0.010850694444444444,0,0,0.010850694444444444,13.606770833333332,0)" xlink:href="#aT"/><use transform="matrix(0.010850694444444444,0,0,0.010850694444444444,18.98871527777778,0)" xlink:href="#aV"/><use transform="matrix(0.010850694444444444,0,0,0.010850694444444444,31.46701388888889,0)" xlink:href="#aQ"/><use transform="matrix(0.010850694444444444,0,0,0.010850694444444444,36.848958333333336,0)" xlink:href="#aK"/><use transform="matrix(0.010850694444444444,0,0,0.010850694444444444,49.97829861111111,0)" xlink:href="#aP"/><use transform="matrix(0.010850694444444444,0,0,0.010850694444444444,57.03125000000001,0)" xlink:href="#aZ"/><use transform="matrix(0.010850694444444444,0,0,0.010850694444444444,69.48784722222223,0)" xlink:href="#ba"/><use transform="matrix(0.010850694444444444,0,0,0.010850694444444444,82.05295138888889,0)" xlink:href="#aP"/></g><g id="G"><use transform="matrix(0.010850694444444444,0,0,0.010850694444444444,0,0)" xlink:href="#aP"/><use transform="matrix(0.010850694444444444,0,0,0.010850694444444444,7.052951388888888,0)" xlink:href="#aR"/></g><g id="H"><use transform="matrix(0.010850694444444444,0,0,0.010850694444444444,0,0)" xlink:href="#aO"/><use transform="matrix(0.010850694444444444,0,0,0.010850694444444444,13.606770833333332,0)" xlink:href="#aM"/><use transform="matrix(0.010850694444444444,0,0,0.010850694444444444,21.603732638888886,0)" xlink:href="#aR"/><use transform="matrix(0.010850694444444444,0,0,0.010850694444444444,34.928385416666664,0)" xlink:href="#bb"/><use transform="matrix(0.010850694444444444,0,0,0.010850694444444444,48.53515625,0)" xlink:href="#aY"/><use transform="matrix(0.010850694444444444,0,0,0.010850694444444444,61.67534722222222,0)" xlink:href="#aL"/><use transform="matrix(0.010850694444444444,0,0,0.010850694444444444,74.37065972222223,0)" xlink:href="#aZ"/></g><g id="I"><use transform="matrix(0.010850694444444444,0,0,0.010850694444444444,0,0)" xlink:href="#aL"/><use transform="matrix(0.010850694444444444,0,0,0.010850694444444444,12.6953125,0)" xlink:href="#aQ"/><use transform="matrix(0.010850694444444444,0,0,0.010850694444444444,18.077256944444443,0)" xlink:href="#aO"/><use transform="matrix(0.010850694444444444,0,0,0.010850694444444444,31.684027777777775,0)" xlink:href="#bg"/><use transform="matrix(0.010850694444444444,0,0,0.010850694444444444,44.82421875,0)" xlink:href="#aZ"/><use transform="matrix(0.010850694444444444,0,0,0.010850694444444444,57.779947916666664,0)" xlink:href="#aM"/><use transform="matrix(0.010850694444444444,0,0,0.010850694444444444,66.49305555555556,0)" xlink:href="#aP"/><use transform="matrix(0.010850694444444444,0,0,0.010850694444444444,73.54600694444444,0)" xlink:href="#aZ"/><use transform="matrix(0.010850694444444444,0,0,0.010850694444444444,86.00260416666667,0)" xlink:href="#ba"/><use transform="matrix(0.010850694444444444,0,0,0.010850694444444444,98.56770833333333,0)" xlink:href="#aP"/></g><path d="M677 24c-213 0-288-135-325-197h-20V0H158v-1490h180v551h14c37-59 106-193 324-193 279 0 474 222 474 576 0 356-194 580-473 580zm-27-161c209 0 317-186 317-421 0-232-105-413-317-413-206 0-314 166-314 413 0 249 111 421 314 421" id="bn"/><path d="M692-1560L212 224H46l480-1784h166" id="bo"/><g id="J"><use transform="matrix(0.010850694444444444,0,0,0.010850694444444444,0,0)" xlink:href="#aI"/><use transform="matrix(0.010850694444444444,0,0,0.010850694444444444,16.23263888888889,0)" xlink:href="#aR"/><use transform="matrix(0.010850694444444444,0,0,0.010850694444444444,29.557291666666664,0)" xlink:href="#bc"/><use transform="matrix(0.010850694444444444,0,0,0.010850694444444444,49.0234375,0)" xlink:href="#bn"/><use transform="matrix(0.010850694444444444,0,0,0.010850694444444444,62.63020833333333,0)" xlink:href="#aQ"/><use transform="matrix(0.010850694444444444,0,0,0.010850694444444444,68.01215277777777,0)" xlink:href="#aK"/><use transform="matrix(0.010850694444444444,0,0,0.010850694444444444,81.14149305555554,0)" xlink:href="#aZ"/><use transform="matrix(0.010850694444444444,0,0,0.010850694444444444,94.09722222222221,0)" xlink:href="#bo"/><use transform="matrix(0.010850694444444444,0,0,0.010850694444444444,102.10503472222221,0)" xlink:href="#bh"/><use transform="matrix(0.010850694444444444,0,0,0.010850694444444444,113.83463541666666,0)" xlink:href="#aP"/><use transform="matrix(0.010850694444444444,0,0,0.010850694444444444,120.88758680555556,0)" xlink:href="#aR"/><use transform="matrix(0.010850694444444444,0,0,0.010850694444444444,134.21223958333331,0)" xlink:href="#aM"/><use transform="matrix(0.010850694444444444,0,0,0.010850694444444444,142.20920138888886,0)" xlink:href="#aZ"/></g><g id="K"><use transform="matrix(0.010850694444444444,0,0,0.010850694444444444,0,0)" xlink:href="#aP"/><use transform="matrix(0.010850694444444444,0,0,0.010850694444444444,7.269965277777778,0)" xlink:href="#bg"/><use transform="matrix(0.010850694444444444,0,0,0.010850694444444444,20.41015625,0)" xlink:href="#aZ"/></g><g id="L"><use transform="matrix(0.010850694444444444,0,0,0.010850694444444444,0,0)" xlink:href="#aV"/><use transform="matrix(0.010850694444444444,0,0,0.010850694444444444,12.47829861111111,0)" xlink:href="#aT"/><use transform="matrix(0.010850694444444444,0,0,0.010850694444444444,17.860243055555557,0)" xlink:href="#aR"/><use transform="matrix(0.010850694444444444,0,0,0.010850694444444444,31.184895833333336,0)" xlink:href="#aK"/><use transform="matrix(0.010850694444444444,0,0,0.010850694444444444,44.314236111111114,0)" xlink:href="#bf"/><use transform="matrix(0.010850694444444444,0,0,0.010850694444444444,57.94270833333333,0)" xlink:href="#bh"/><use transform="matrix(0.010850694444444444,0,0,0.010850694444444444,69.67230902777779,0)" xlink:href="#aQ"/><use transform="matrix(0.010850694444444444,0,0,0.010850694444444444,75.05425347222223,0)" xlink:href="#bb"/><use transform="matrix(0.010850694444444444,0,0,0.010850694444444444,88.66102430555556,0)" xlink:href="#aZ"/></g><g id="M"><use transform="matrix(0.010850694444444444,0,0,0.010850694444444444,0,0)" xlink:href="#aL"/><use transform="matrix(0.010850694444444444,0,0,0.010850694444444444,12.6953125,0)" xlink:href="#aQ"/><use transform="matrix(0.010850694444444444,0,0,0.010850694444444444,18.077256944444443,0)" xlink:href="#aO"/><use transform="matrix(0.010850694444444444,0,0,0.010850694444444444,31.684027777777775,0)" xlink:href="#bg"/><use transform="matrix(0.010850694444444444,0,0,0.010850694444444444,44.82421875,0)" xlink:href="#aZ"/><use transform="matrix(0.010850694444444444,0,0,0.010850694444444444,57.779947916666664,0)" xlink:href="#aM"/><use transform="matrix(0.010850694444444444,0,0,0.010850694444444444,66.49305555555556,0)" xlink:href="#aP"/><use transform="matrix(0.010850694444444444,0,0,0.010850694444444444,73.54600694444444,0)" xlink:href="#aZ"/><use transform="matrix(0.010850694444444444,0,0,0.010850694444444444,86.00260416666667,0)" xlink:href="#ba"/><use transform="matrix(0.010850694444444444,0,0,0.010850694444444444,98.56770833333333,0)" xlink:href="#aP"/></g><g id="N"><use transform="matrix(0.010850694444444444,0,0,0.010850694444444444,0,0)" xlink:href="#bd"/><use transform="matrix(0.010850694444444444,0,0,0.010850694444444444,7.573784722222222,0)" xlink:href="#aR"/><use transform="matrix(0.010850694444444444,0,0,0.010850694444444444,20.8984375,0)" xlink:href="#aM"/></g><g id="O"><use transform="matrix(0.010850694444444444,0,0,0.010850694444444444,0,0)" xlink:href="#bb"/><use transform="matrix(0.010850694444444444,0,0,0.010850694444444444,13.606770833333332,0)" xlink:href="#aZ"/><use transform="matrix(0.010850694444444444,0,0,0.010850694444444444,26.5625,0)" xlink:href="#aL"/><use transform="matrix(0.010850694444444444,0,0,0.010850694444444444,39.2578125,0)" xlink:href="#aM"/><use transform="matrix(0.010850694444444444,0,0,0.010850694444444444,47.970920138888886,0)" xlink:href="#aN"/><use transform="matrix(0.010850694444444444,0,0,0.010850694444444444,60.46006944444444,0)" xlink:href="#aO"/><use transform="matrix(0.010850694444444444,0,0,0.010850694444444444,74.06684027777777,0)" xlink:href="#aP"/><use transform="matrix(0.010850694444444444,0,0,0.010850694444444444,81.33680555555554,0)" xlink:href="#aQ"/><use transform="matrix(0.010850694444444444,0,0,0.010850694444444444,86.71874999999999,0)" xlink:href="#aR"/><use transform="matrix(0.010850694444444444,0,0,0.010850694444444444,100.04340277777776,0)" xlink:href="#aK"/></g><path d="M458 0L52-1490h194c108 439 233 855 324 1313 92-459 221-873 331-1313h216c110 438 234 854 330 1307 92-455 216-869 323-1307h196L1558 0h-221l-256-944c-26-95-50-200-73-331-22 122-44 223-73 331L680 0H458" id="bp"/><g id="P"><use transform="matrix(0.010850694444444444,0,0,0.010850694444444444,0,0)" xlink:href="#bp"/><use transform="matrix(0.010850694444444444,0,0,0.010850694444444444,21.14800347222222,0)" xlink:href="#aM"/><use transform="matrix(0.010850694444444444,0,0,0.010850694444444444,29.861111111111104,0)" xlink:href="#aQ"/><use transform="matrix(0.010850694444444444,0,0,0.010850694444444444,35.24305555555555,0)" xlink:href="#aP"/><use transform="matrix(0.010850694444444444,0,0,0.010850694444444444,42.29600694444444,0)" xlink:href="#aZ"/></g><path d="M593-100v-404H195v-159h398v-403h169v403h398v159H762v404H593" id="bq"/><use transform="matrix(0.010850694444444444,0,0,0.010850694444444444,0,0)" xlink:href="#bq" id="Q"/><g id="R"><use transform="matrix(0.010850694444444444,0,0,0.010850694444444444,0,0)" xlink:href="#aL"/><use transform="matrix(0.010850694444444444,0,0,0.010850694444444444,12.6953125,0)" xlink:href="#aQ"/><use transform="matrix(0.010850694444444444,0,0,0.010850694444444444,18.077256944444443,0)" xlink:href="#aO"/><use transform="matrix(0.010850694444444444,0,0,0.010850694444444444,31.684027777777775,0)" xlink:href="#bg"/><use transform="matrix(0.010850694444444444,0,0,0.010850694444444444,44.82421875,0)" xlink:href="#aZ"/><use transform="matrix(0.010850694444444444,0,0,0.010850694444444444,57.779947916666664,0)" xlink:href="#aM"/><use transform="matrix(0.010850694444444444,0,0,0.010850694444444444,66.49305555555556,0)" xlink:href="#aP"/><use transform="matrix(0.010850694444444444,0,0,0.010850694444444444,73.54600694444444,0)" xlink:href="#aZ"/><use transform="matrix(0.010850694444444444,0,0,0.010850694444444444,86.00260416666667,0)" xlink:href="#ba"/><use transform="matrix(0.010850694444444444,0,0,0.010850694444444444,98.56770833333333,0)" xlink:href="#aP"/></g><g id="S"><use transform="matrix(0.010850694444444444,0,0,0.010850694444444444,0,0)" xlink:href="#bh"/><use transform="matrix(0.010850694444444444,0,0,0.010850694444444444,11.729600694444445,0)" xlink:href="#aZ"/><use transform="matrix(0.010850694444444444,0,0,0.010850694444444444,24.68532986111111,0)" xlink:href="#aL"/><use transform="matrix(0.010850694444444444,0,0,0.010850694444444444,37.380642361111114,0)" xlink:href="#aY"/><use transform="matrix(0.010850694444444444,0,0,0.010850694444444444,50.52083333333333,0)" xlink:href="#aM"/><use transform="matrix(0.010850694444444444,0,0,0.010850694444444444,58.517795138888886,0)" xlink:href="#aZ"/></g><g id="T"><use transform="matrix(0.010850694444444444,0,0,0.010850694444444444,0,0)" xlink:href="#bh"/><use transform="matrix(0.010850694444444444,0,0,0.010850694444444444,11.729600694444445,0)" xlink:href="#aP"/><use transform="matrix(0.010850694444444444,0,0,0.010850694444444444,18.782552083333332,0)" xlink:href="#aR"/><use transform="matrix(0.010850694444444444,0,0,0.010850694444444444,32.10720486111111,0)" xlink:href="#aM"/><use transform="matrix(0.010850694444444444,0,0,0.010850694444444444,40.47309027777777,0)" xlink:href="#aV"/><use transform="matrix(0.010850694444444444,0,0,0.010850694444444444,52.951388888888886,0)" xlink:href="#bf"/><use transform="matrix(0.010850694444444444,0,0,0.010850694444444444,66.57986111111111,0)" xlink:href="#aZ"/></g><path d="M295 13c-75 0-135-60-135-135s60-135 135-135 135 60 135 135S370 13 295 13" id="br"/><path d="M128 359l88-567h206L266 359H128" id="bs"/><g id="U"><use transform="matrix(0.010850694444444444,0,0,0.010850694444444444,0,0)" xlink:href="#bj"/><use transform="matrix(0.010850694444444444,0,0,0.010850694444444444,7.855902777777778,0)" xlink:href="#aZ"/><use transform="matrix(0.010850694444444444,0,0,0.010850694444444444,20.811631944444443,0)" xlink:href="#br"/><use transform="matrix(0.010850694444444444,0,0,0.010850694444444444,27.213541666666664,0)" xlink:href="#bf"/><use transform="matrix(0.010850694444444444,0,0,0.010850694444444444,40.842013888888886,0)" xlink:href="#br"/><use transform="matrix(0.010850694444444444,0,0,0.010850694444444444,47.24392361111111,0)" xlink:href="#bs"/></g><g id="V"><use transform="matrix(0.010850694444444444,0,0,0.010850694444444444,0,0)" xlink:href="#bd"/><use transform="matrix(0.010850694444444444,0,0,0.010850694444444444,8.22482638888889,0)" xlink:href="#aQ"/><use transform="matrix(0.010850694444444444,0,0,0.010850694444444444,13.606770833333332,0)" xlink:href="#aT"/><use transform="matrix(0.010850694444444444,0,0,0.010850694444444444,18.98871527777778,0)" xlink:href="#aZ"/></g><g id="W"><use transform="matrix(0.010850694444444444,0,0,0.010850694444444444,0,0)" xlink:href="#bh"/><use transform="matrix(0.010850694444444444,0,0,0.010850694444444444,11.729600694444445,0)" xlink:href="#aN"/><use transform="matrix(0.010850694444444444,0,0,0.010850694444444444,24.21875,0)" xlink:href="#bh"/><use transform="matrix(0.010850694444444444,0,0,0.010850694444444444,35.94835069444444,0)" xlink:href="#aP"/><use transform="matrix(0.010850694444444444,0,0,0.010850694444444444,43.001302083333336,0)" xlink:href="#aZ"/><use transform="matrix(0.010850694444444444,0,0,0.010850694444444444,55.95703125,0)" xlink:href="#bc"/><use transform="matrix(0.010850694444444444,0,0,0.010850694444444444,75.42317708333333,0)" xlink:href="#bs"/></g><g id="X"><use transform="matrix(0.010850694444444444,0,0,0.010850694444444444,0,0)" xlink:href="#bb"/><use transform="matrix(0.010850694444444444,0,0,0.010850694444444444,13.606770833333332,0)" xlink:href="#aV"/><use transform="matrix(0.010850694444444444,0,0,0.010850694444444444,26.085069444444443,0)" xlink:href="#aP"/><use transform="matrix(0.010850694444444444,0,0,0.010850694444444444,33.463541666666664,0)" xlink:href="#aV"/><use transform="matrix(0.010850694444444444,0,0,0.010850694444444444,45.94184027777778,0)" xlink:href="#bn"/><use transform="matrix(0.010850694444444444,0,0,0.010850694444444444,59.765624999999986,0)" xlink:href="#aV"/><use transform="matrix(0.010850694444444444,0,0,0.010850694444444444,72.2439236111111,0)" xlink:href="#bh"/><use transform="matrix(0.010850694444444444,0,0,0.010850694444444444,83.97352430555554,0)" xlink:href="#aZ"/><use transform="matrix(0.010850694444444444,0,0,0.010850694444444444,96.67968749999997,0)" xlink:href="#bl"/></g><g id="Y"><use transform="matrix(0.010850694444444444,0,0,0.010850694444444444,0,0)" xlink:href="#aC"/><use transform="matrix(0.010850694444444444,0,0,0.010850694444444444,13.35720486111111,0)" xlink:href="#aK"/><use transform="matrix(0.010850694444444444,0,0,0.010850694444444444,26.48654513888889,0)" xlink:href="#bb"/></g><path d="M180 0v-1490h224l606 953c40 63 108 177 176 312-27-437-7-821-13-1265h190V0h-226C860-448 622-778 356-1262c27 476 11 792 15 1262H180" id="bt"/><path d="M295 13c-75 0-135-60-135-135s60-135 135-135 135 60 135 135S370 13 295 13zm0-809c-75 0-135-60-135-135s60-135 135-135 135 60 135 135-60 135-135 135" id="bu"/><g id="Z"><use transform="matrix(0.010850694444444444,0,0,0.010850694444444444,0,0)" xlink:href="#bt"/><use transform="matrix(0.010850694444444444,0,0,0.010850694444444444,16.74262152777778,0)" xlink:href="#aR"/><use transform="matrix(0.010850694444444444,0,0,0.010850694444444444,30.06727430555556,0)" xlink:href="#aP"/><use transform="matrix(0.010850694444444444,0,0,0.010850694444444444,37.12022569444444,0)" xlink:href="#aZ"/><use transform="matrix(0.010850694444444444,0,0,0.010850694444444444,50.07595486111111,0)" xlink:href="#bu"/></g><path d="M763 24c-353 0-583-224-583-531v-983h190v968c0 214 149 370 393 370 243 0 391-156 391-370v-968h190v983c0 307-230 531-581 531" id="bv"/><g id="aa"><use transform="matrix(0.010850694444444444,0,0,0.010850694444444444,0,0)" xlink:href="#bv"/><use transform="matrix(0.010850694444444444,0,0,0.010850694444444444,16.536458333333332,0)" xlink:href="#bh"/><use transform="matrix(0.010850694444444444,0,0,0.010850694444444444,28.266059027777775,0)" xlink:href="#aZ"/></g><use transform="matrix(0.010850694444444444,0,0,0.010850694444444444,0,0)" xlink:href="#aV" id="ab"/><path d="M1096 418H916v-591h-14C865-111 790 24 577 24c-279 0-473-224-473-580 0-354 195-576 474-576 218 0 287 134 324 193h20v-179h174V418zM604-137c203 0 314-172 314-421 0-247-108-413-314-413-212 0-317 181-317 413 0 235 108 421 317 421" id="bw"/><g id="ac"><use transform="matrix(0.010850694444444444,0,0,0.010850694444444444,0,0)" xlink:href="#aY"/><use transform="matrix(0.010850694444444444,0,0,0.010850694444444444,13.140190972222221,0)" xlink:href="#aK"/><use transform="matrix(0.010850694444444444,0,0,0.010850694444444444,26.26953125,0)" xlink:href="#aQ"/><use transform="matrix(0.010850694444444444,0,0,0.010850694444444444,31.651475694444443,0)" xlink:href="#bw"/><use transform="matrix(0.010850694444444444,0,0,0.010850694444444444,45.25824652777778,0)" xlink:href="#aY"/><use transform="matrix(0.010850694444444444,0,0,0.010850694444444444,58.398437499999986,0)" xlink:href="#aZ"/><use transform="matrix(0.010850694444444444,0,0,0.010850694444444444,71.35416666666666,0)" xlink:href="#bs"/></g><g id="ad"><use transform="matrix(0.010850694444444444,0,0,0.010850694444444444,0,0)" xlink:href="#aZ"/><use transform="matrix(0.010850694444444444,0,0,0.010850694444444444,13.172743055555555,0)" xlink:href="#aV"/><use transform="matrix(0.010850694444444444,0,0,0.010850694444444444,25.651041666666664,0)" xlink:href="#aL"/><use transform="matrix(0.010850694444444444,0,0,0.010850694444444444,38.346354166666664,0)" xlink:href="#bg"/></g><g id="ae"><use transform="matrix(0.010850694444444444,0,0,0.010850694444444444,0,0)" xlink:href="#aZ"/><use transform="matrix(0.010850694444444444,0,0,0.010850694444444444,12.955729166666666,0)" xlink:href="#aK"/><use transform="matrix(0.010850694444444444,0,0,0.010850694444444444,26.085069444444443,0)" xlink:href="#aL"/><use transform="matrix(0.010850694444444444,0,0,0.010850694444444444,38.78038194444444,0)" xlink:href="#aM"/><use transform="matrix(0.010850694444444444,0,0,0.010850694444444444,47.49348958333333,0)" xlink:href="#aN"/><use transform="matrix(0.010850694444444444,0,0,0.010850694444444444,59.982638888888886,0)" xlink:href="#aO"/><use transform="matrix(0.010850694444444444,0,0,0.010850694444444444,73.58940972222221,0)" xlink:href="#aP"/><use transform="matrix(0.010850694444444444,0,0,0.010850694444444444,80.85937499999999,0)" xlink:href="#aQ"/><use transform="matrix(0.010850694444444444,0,0,0.010850694444444444,86.24131944444443,0)" xlink:href="#aR"/><use transform="matrix(0.010850694444444444,0,0,0.010850694444444444,99.5659722222222,0)" xlink:href="#aK"/></g><g id="af"><use transform="matrix(0.010850694444444444,0,0,0.010850694444444444,0,0)" xlink:href="#aZ"/><use transform="matrix(0.010850694444444444,0,0,0.010850694444444444,12.955729166666666,0)" xlink:href="#aK"/><use transform="matrix(0.010850694444444444,0,0,0.010850694444444444,26.085069444444443,0)" xlink:href="#bh"/><use transform="matrix(0.010850694444444444,0,0,0.010850694444444444,37.814670138888886,0)" xlink:href="#aY"/><use transform="matrix(0.010850694444444444,0,0,0.010850694444444444,50.95486111111111,0)" xlink:href="#aM"/><use transform="matrix(0.010850694444444444,0,0,0.010850694444444444,58.95182291666666,0)" xlink:href="#aZ"/></g><g id="ag"><use transform="matrix(0.010850694444444444,0,0,0.010850694444444444,0,0)" xlink:href="#bh"/><use transform="matrix(0.010850694444444444,0,0,0.010850694444444444,11.729600694444445,0)" xlink:href="#aZ"/><use transform="matrix(0.010850694444444444,0,0,0.010850694444444444,24.68532986111111,0)" xlink:href="#aL"/><use transform="matrix(0.010850694444444444,0,0,0.010850694444444444,37.380642361111114,0)" xlink:href="#aY"/><use transform="matrix(0.010850694444444444,0,0,0.010850694444444444,50.52083333333333,0)" xlink:href="#aM"/><use transform="matrix(0.010850694444444444,0,0,0.010850694444444444,59.23394097222222,0)" xlink:href="#aQ"/><use transform="matrix(0.010850694444444444,0,0,0.010850694444444444,64.61588541666667,0)" xlink:href="#aP"/><use transform="matrix(0.010850694444444444,0,0,0.010850694444444444,72.31987847222221,0)" xlink:href="#aN"/></g></defs></g></svg>