<svg xmlns="http://www.w3.org/2000/svg" xmlns:xlink="http://www.w3.org/1999/xlink" xmlns:lucid="lucid" width="1302" height="2738.09"><g transform="translate(-59 3768.25474609375)" lucid:page-tab-id="sC5~9IFXb-AB"><path d="M0-4000h1500v3000H0z" fill="#fff"/><path d="M60-3714a6 6 0 0 1 6-6h1288a6 6 0 0 1 6 6v2676.83a6 6 0 0 1-6 6H66a6 6 0 0 1-6-6z" stroke="#3a414a" stroke-width="2" fill="#fff"/><path d="M60-3762.26a6 6 0 0 1 6-6h187.8a6 6 0 0 1 6 6v24.26a6 6 0 0 1-6 6H66a6 6 0 0 1-6-6z" fill="#3a414a"/><use xlink:href="#a" transform="matrix(1,0,0,1,68,-3760.25474609375) translate(0 16.589501953125)"/><use xlink:href="#b" transform="matrix(1,0,0,1,68,-3760.25474609375) translate(49.63965820312501 16.589501953125)"/><use xlink:href="#c" transform="matrix(1,0,0,1,68,-3760.25474609375) translate(146.417783203125 16.589501953125)"/><path d="M187.47-3599.8a6 6 0 0 1 6-6h153a6 6 0 0 1 6 6v113a6 6 0 0 1-6 6h-153a6 6 0 0 1-6-6z" stroke="#ff80df" stroke-width="2" fill="#fff0fb"/><use xlink:href="#d" transform="matrix(1,0,0,1,199.46845819164037,-3593.8074022001365) translate(40.67686631944444 27.84027777777778)"/><use xlink:href="#e" transform="matrix(1,0,0,1,199.46845819164037,-3593.8074022001365) translate(9.388888888888886 60.10590277777778)"/><use xlink:href="#f" transform="matrix(1,0,0,1,199.46845819164037,-3593.8074022001365) translate(45.6953125 92.37152777777777)"/><path d="M552.47-3634a6 6 0 0 1 6-6h230.47a6 6 0 0 1 6 6v181.4a6 6 0 0 1-6 6H558.47a6 6 0 0 1-6-6z" stroke="#ff80df" stroke-width="2" fill="#fff0fb"/><use xlink:href="#g" transform="matrix(1,0,0,1,564.4684581916404,-3628) translate(18.728515625 58.71527777777778)"/><use xlink:href="#h" transform="matrix(1,0,0,1,564.4684581916404,-3628) translate(75.076171875 58.71527777777778)"/><use xlink:href="#i" transform="matrix(1,0,0,1,564.4684581916404,-3628) translate(103.54839409722221 58.71527777777778)"/><use xlink:href="#j" transform="matrix(1,0,0,1,564.4684581916404,-3628) translate(23.5353732638889 90.98090277777777)"/><use xlink:href="#k" transform="matrix(1,0,0,1,564.4684581916404,-3628) translate(89.18207465277779 90.98090277777777)"/><use xlink:href="#l" transform="matrix(1,0,0,1,564.4684581916404,-3628) translate(175.08702256944446 90.98090277777777)"/><use xlink:href="#m" transform="matrix(1,0,0,1,564.4684581916404,-3628) translate(28.515842013888886 123.24652777777777)"/><use xlink:href="#n" transform="matrix(1,0,0,1,564.4684581916404,-3628) translate(136.013671875 123.24652777777777)"/><path d="M994.94-3627.12a6 6 0 0 1 6-6h212.3a6 6 0 0 1 6 6v167.62a6 6 0 0 1-6 6h-212.3a6 6 0 0 1-6-6z" stroke="#ff80df" stroke-width="2" fill="#fff0fb"/><use xlink:href="#o" transform="matrix(1,0,0,1,1006.9369163832807,-3621.1175288010936) translate(3.706380208333343 36.15277777777778)"/><use xlink:href="#p" transform="matrix(1,0,0,1,1006.9369163832807,-3621.1175288010936) translate(83.95811631944444 36.15277777777778)"/><use xlink:href="#q" transform="matrix(1,0,0,1,1006.9369163832807,-3621.1175288010936) translate(139.13389756944443 36.15277777777778)"/><use xlink:href="#r" transform="matrix(1,0,0,1,1006.9369163832807,-3621.1175288010936) translate(33.041232638888886 68.41840277777777)"/><use xlink:href="#s" transform="matrix(1,0,0,1,1006.9369163832807,-3621.1175288010936) translate(88.30381944444444 68.41840277777777)"/><use xlink:href="#t" transform="matrix(1,0,0,1,1006.9369163832807,-3621.1175288010936) translate(30.420789930555557 100.68402777777777)"/><use xlink:href="#u" transform="matrix(1,0,0,1,1006.9369163832807,-3621.1175288010936) translate(63.64019097222222 132.94965277777777)"/><path d="M265.17-3240.5a8 8 0 0 1 9.6 0l70.4 52.78a4.5 4.5 0 0 1 0 7.2l-70.4 52.8a8 8 0 0 1-9.6 0l-70.4-52.8a4.5 4.5 0 0 1 0-7.2z" stroke="#6db1ff" stroke-width="2" fill="#edf5ff"/><use xlink:href="#v" transform="matrix(1,0,0,1,194.96845819164037,-3239.1148044002725) translate(43.14736111111111 42.15277777777778)"/><use xlink:href="#w" transform="matrix(1,0,0,1,194.96845819164037,-3239.1148044002725) translate(29.209644097222235 74.41840277777777)"/><path d="M591.2-3240.6a6 6 0 0 1 6-6h153a6 6 0 0 1 6 6v113a6 6 0 0 1-6 6h-153a6 6 0 0 1-6-6z" stroke="#ff80df" stroke-width="2" fill="#fff0fb"/><use xlink:href="#x" transform="matrix(1,0,0,1,603.2026872874605,-3234.6148044002725) translate(2.5041232638889 21.52777777777778)"/><use xlink:href="#y" transform="matrix(1,0,0,1,603.2026872874605,-3234.6148044002725) translate(101.08268229166666 21.52777777777778)"/><use xlink:href="#z" transform="matrix(1,0,0,1,603.2026872874605,-3234.6148044002725) translate(-0.31163194444444287 53.79340277777778)"/><use xlink:href="#h" transform="matrix(1,0,0,1,603.2026872874605,-3234.6148044002725) translate(24.40625 86.05902777777777)"/><use xlink:href="#A" transform="matrix(1,0,0,1,603.2026872874605,-3234.6148044002725) translate(52.87847222222222 86.05902777777777)"/><use xlink:href="#B" transform="matrix(1,0,0,1,603.2026872874605,-3234.6148044002725) translate(30.276475694444443 118.32465277777777)"/><path d="M187.47-2915.6a6 6 0 0 1 6-6h153a6 6 0 0 1 6 6v113a6 6 0 0 1-6 6h-153a6 6 0 0 1-6-6z" stroke="#ff80df" stroke-width="2" fill="#fff0fb"/><use xlink:href="#C" transform="matrix(1,0,0,1,199.46845819164037,-2909.6148044002725) translate(11.927951388888893 21.52777777777778)"/><use xlink:href="#D" transform="matrix(1,0,0,1,199.46845819164037,-2909.6148044002725) translate(80.14626736111111 21.52777777777778)"/><use xlink:href="#E" transform="matrix(1,0,0,1,199.46845819164037,-2909.6148044002725) translate(21.644748263888886 53.79340277777778)"/><use xlink:href="#F" transform="matrix(1,0,0,1,199.46845819164037,-2909.6148044002725) translate(50.89279513888889 86.05902777777777)"/><use xlink:href="#G" transform="matrix(1,0,0,1,199.46845819164037,-2909.6148044002725) translate(18.736762152777793 118.32465277777777)"/><path d="M668.9-2915.5a8 8 0 0 1 9.6 0l70.4 52.78a4.5 4.5 0 0 1 0 7.2l-70.4 52.8a8 8 0 0 1-9.6 0l-70.4-52.8a4.5 4.5 0 0 1 0-7.2z" stroke="#6db1ff" stroke-width="2" fill="#edf5ff"/><use xlink:href="#v" transform="matrix(1,0,0,1,598.7026872874605,-2914.1148044002725) translate(43.14736111111111 45.59027777777778)"/><use xlink:href="#H" transform="matrix(1,0,0,1,598.7026872874605,-2914.1148044002725) translate(43.798402777777774 77.85590277777777)"/><path d="M1024.6-2915.6a6 6 0 0 1 6-6h153a6 6 0 0 1 6 6v113a6 6 0 0 1-6 6h-153a6 6 0 0 1-6-6z" stroke="#ff80df" stroke-width="2" fill="#fff0fb"/><use xlink:href="#x" transform="matrix(1,0,0,1,1036.5862834965442,-2909.6148044002725) translate(0.16037326388889994 27.84027777777778)"/><use xlink:href="#I" transform="matrix(1,0,0,1,1036.5862834965442,-2909.6148044002725) translate(98.73893229166666 27.84027777777778)"/><use xlink:href="#J" transform="matrix(1,0,0,1,1036.5862834965442,-2909.6148044002725) translate(2.981553819444457 60.10590277777778)"/><use xlink:href="#K" transform="matrix(1,0,0,1,1036.5862834965442,-2909.6148044002725) translate(115.79622395833333 60.10590277777778)"/><use xlink:href="#L" transform="matrix(1,0,0,1,1036.5862834965442,-2909.6148044002725) translate(4.2944878472222285 92.37152777777777)"/><use xlink:href="#M" transform="matrix(1,0,0,1,1036.5862834965442,-2909.6148044002725) translate(78.54578993055556 92.37152777777777)"/><path d="M552.47-2590.6a6 6 0 0 1 6-6h230.47a6 6 0 0 1 6 6v145.9a6 6 0 0 1-6 6H558.47a6 6 0 0 1-6-6z" stroke="#ff80df" stroke-width="2" fill="#fff0fb"/><use xlink:href="#N" transform="matrix(1,0,0,1,564.4684581916404,-2584.6148044002725) translate(36.507378472222214 42.46527777777778)"/><use xlink:href="#q" transform="matrix(1,0,0,1,564.4684581916404,-2584.6148044002725) translate(124.33289930555556 42.46527777777778)"/><use xlink:href="#O" transform="matrix(1,0,0,1,564.4684581916404,-2584.6148044002725) translate(24.680121527777786 74.73090277777777)"/><use xlink:href="#P" transform="matrix(1,0,0,1,564.4684581916404,-2584.6148044002725) translate(121.21875 74.73090277777777)"/><use xlink:href="#Q" transform="matrix(1,0,0,1,564.4684581916404,-2584.6148044002725) translate(12.462239583333329 106.99652777777777)"/><use xlink:href="#R" transform="matrix(1,0,0,1,564.4684581916404,-2584.6148044002725) translate(64.90364583333331 106.99652777777777)"/><use xlink:href="#S" transform="matrix(1,0,0,1,564.4684581916404,-2584.6148044002725) translate(93.15885416666666 106.99652777777777)"/><use xlink:href="#T" transform="matrix(1,0,0,1,564.4684581916404,-2584.6148044002725) translate(138.62326388888886 106.99652777777777)"/><use xlink:href="#U" transform="matrix(1,0,0,1,564.4684581916404,-2584.6148044002725) translate(184.53255208333331 106.99652777777777)"/><path d="M561.55-2232.7a6 6 0 0 1 6-6h212.3a6 6 0 0 1 6 6v134.66a6 6 0 0 1-6 6h-212.3a6 6 0 0 1-6-6z" stroke="#ff80df" stroke-width="2" fill="#fff0fb"/><use xlink:href="#V" transform="matrix(1,0,0,1,573.5533201741971,-2226.707784500135) translate(4.0698784722222285 36.90277777777778)"/><use xlink:href="#T" transform="matrix(1,0,0,1,573.5533201741971,-2226.707784500135) translate(56.478732638888886 36.90277777777778)"/><use xlink:href="#R" transform="matrix(1,0,0,1,573.5533201741971,-2226.707784500135) translate(102.38802083333333 36.90277777777778)"/><use xlink:href="#W" transform="matrix(1,0,0,1,573.5533201741971,-2226.707784500135) translate(130.64322916666666 36.90277777777778)"/><use xlink:href="#X" transform="matrix(1,0,0,1,573.5533201741971,-2226.707784500135) translate(157.27083333333331 36.90277777777778)"/><use xlink:href="#Y" transform="matrix(1,0,0,1,573.5533201741971,-2226.707784500135) translate(1.7532552083333428 69.16840277777777)"/><use xlink:href="#Z" transform="matrix(1,0,0,1,573.5533201741971,-2226.707784500135) translate(66.03276909722223 69.16840277777777)"/><use xlink:href="#aa" transform="matrix(1,0,0,1,573.5533201741971,-2226.707784500135) translate(125.92860243055556 69.16840277777777)"/><use xlink:href="#ab" transform="matrix(1,0,0,1,573.5533201741971,-2226.707784500135) translate(8.073784722222214 101.43402777777777)"/><use xlink:href="#ac" transform="matrix(1,0,0,1,573.5533201741971,-2226.707784500135) translate(112.44661458333333 101.43402777777777)"/><path d="M668.68-1888.76a9.2 9.2 0 0 1 10.05 0l91.17 59.5a3.92 3.92 0 0 1 0 6.57l-91.17 59.52a9.2 9.2 0 0 1-10.05 0l-91.17-59.5a3.92 3.92 0 0 1 0-6.57z" stroke="#6db1ff" stroke-width="2" fill="#edf5ff"/><use xlink:href="#ad" transform="matrix(1,0,0,1,577.4836761030231,-1887.0404100464593) translate(26.09526909722223 37.318142361111114)"/><use xlink:href="#Q" transform="matrix(1,0,0,1,577.4836761030231,-1887.0404100464593) translate(50.042751736111114 37.318142361111114)"/><use xlink:href="#T" transform="matrix(1,0,0,1,577.4836761030231,-1887.0404100464593) translate(102.48415798611111 37.318142361111114)"/><use xlink:href="#ae" transform="matrix(1,0,0,1,577.4836761030231,-1887.0404100464593) translate(148.39344618055554 37.318142361111114)"/><use xlink:href="#af" transform="matrix(1,0,0,1,577.4836761030231,-1887.0404100464593) translate(17.447265625 69.58376736111111)"/><use xlink:href="#ag" transform="matrix(1,0,0,1,577.4836761030231,-1887.0404100464593) translate(124.1638454861111 69.58376736111111)"/><use xlink:href="#ah" transform="matrix(1,0,0,1,577.4836761030231,-1887.0404100464593) translate(23.94140625 101.84939236111111)"/><use xlink:href="#ai" transform="matrix(1,0,0,1,577.4836761030231,-1887.0404100464593) translate(59.455729166666664 101.84939236111111)"/><use xlink:href="#aj" transform="matrix(1,0,0,1,577.4836761030231,-1887.0404100464593) translate(103.22743055555554 101.84939236111111)"/><path d="M561.55-1553.9a6 6 0 0 1 6-6h212.3a6 6 0 0 1 6 6v134.67a6 6 0 0 1-6 6h-212.3a6 6 0 0 1-6-6z" stroke="#ff80df" stroke-width="2" fill="#fff0fb"/><use xlink:href="#x" transform="matrix(1,0,0,1,573.5533201741971,-1547.900725104117) translate(30.1603732638889 36.90277777777778)"/><use xlink:href="#I" transform="matrix(1,0,0,1,573.5533201741971,-1547.900725104117) translate(128.73893229166666 36.90277777777778)"/><use xlink:href="#J" transform="matrix(1,0,0,1,573.5533201741971,-1547.900725104117) translate(32.98155381944446 69.16840277777777)"/><use xlink:href="#K" transform="matrix(1,0,0,1,573.5533201741971,-1547.900725104117) translate(145.79622395833331 69.16840277777777)"/><use xlink:href="#ak" transform="matrix(1,0,0,1,573.5533201741971,-1547.900725104117) translate(22.988064236111114 101.43402777777777)"/><use xlink:href="#al" transform="matrix(1,0,0,1,573.5533201741971,-1547.900725104117) translate(106.37565104166667 101.43402777777777)"/><path d="M591.2-1207.23a6 6 0 0 1 6-6h153a6 6 0 0 1 6 6v90.06a6 6 0 0 1-6 6h-153a6 6 0 0 1-6-6z" stroke="#ff80df" stroke-width="2" fill="#fff0fb"/><use xlink:href="#am" transform="matrix(1,0,0,1,603.2026872874605,-1201.233350650442) translate(41.89756944444444 21.52777777777778)"/><use xlink:href="#an" transform="matrix(1,0,0,1,603.2026872874605,-1201.233350650442) translate(8.802951388888886 53.79340277777778)"/><use xlink:href="#ao" transform="matrix(1,0,0,1,603.2026872874605,-1201.233350650442) translate(96.04253472222223 53.79340277777778)"/><use xlink:href="#ap" transform="matrix(1,0,0,1,603.2026872874605,-1201.233350650442) translate(5.135416666666657 86.05902777777777)"/><use xlink:href="#aq" transform="matrix(1,0,0,1,603.2026872874605,-1201.233350650442) translate(56.80642361111111 86.05902777777777)"/><path d="M1147.1-3224.1c22.08 0 40 17.9 40 40 0 22.08-17.92 40-40 40h-80c-22.1 0-40-17.92-40-40 0-22.1 17.9-40 40-40z" stroke="#e08fff" stroke-width="2" fill="#f4d9ff"/><use xlink:href="#ar" transform="matrix(1,0,0,1,1032.0862834965442,-3219.1148044002725) translate(54.95334201388889 43.40277777777778)"/><path d="M355.97-3543.3H526.6" stroke="#3a414a" stroke-width="5" fill="none"/><path d="M356.03-3540.83h-2.56v-4.95h2.56z" stroke="#3a414a" stroke-width=".05" fill="#3a414a"/><path d="M543.38-3543.3l-14.27 4.63v-9.27z" stroke="#3a414a" stroke-width="5" fill="#3a414a"/><path d="M798.44-3543.3h170.64" stroke="#3a414a" stroke-width="5" fill="none"/><path d="M798.5-3540.83h-2.56v-4.95h2.56z" stroke="#3a414a" stroke-width=".05" fill="#3a414a"/><path d="M985.85-3543.3l-14.27 4.63v-9.27z" stroke="#3a414a" stroke-width="5" fill="#3a414a"/><path d="M1107.1-3450v97.4a6 6 0 0 1-6 6H275.96a6 6 0 0 0-6 6v72.63" stroke="#3a414a" stroke-width="5" fill="none"/><path d="M1109.56-3449.93h-4.95v-2.57h4.96z" stroke="#3a414a" stroke-width=".05" fill="#3a414a"/><path d="M269.97-3251.2l-4.64-14.27h9.27z" stroke="#3a414a" stroke-width="5" fill="#3a414a"/><path d="M374.35-3181.64h-23.88v-4.95h23.88zm71.62 0h-47.75v-4.95h47.75zm119.38 0h-23.88v-4.95h23.88zm-47.75 0h-36.3v-4.95h36.3z" stroke="#e81313" stroke-width=".05" fill="#e81313"/><path d="M350.54-3181.64h-3.18l.24-.48.28-.98.1-1-.1-1.03-.28-.98-.24-.5h3.18z" fill="#e81313"/><path stroke="#e81313" stroke-width=".05" fill="#e81313"/><path d="M582.1-3184.1l-14.25 4.62v-9.27z" fill="#e81313"/><path d="M590.12-3184.1l-24.75 8.03v-16.1zm-19.8 1.2l3.78-1.2-3.78-1.24z" stroke="#e81313" stroke-width=".05" fill="#e81313"/><use xlink:href="#as" transform="matrix(1,0,0,1,456.86117170668155,-3194.870012733606) translate(0 17.22222222222222)"/><path d="M759.7-3184.1h241.53" stroke="#3a414a" stroke-width="5" fill="none"/><path d="M759.77-3181.64h-2.57v-4.95h2.57z" stroke="#3a414a" stroke-width=".05" fill="#3a414a"/><path d="M1018-3184.1l-14.27 4.62v-9.27z" stroke="#3a414a" stroke-width="5" fill="#3a414a"/><path d="M272.44-2947.47h-4.95v-65.64h4.94zm0-87.15h-4.95v-88h4.94z" stroke="#008a0e" stroke-width=".05" fill="#008a0e"/><path d="M267.68-3125.4l1.13.2 1.17.1 1.15-.1 1.14-.2.18-.07v2.92h-4.95v-2.92z" fill="#008a0e"/><path stroke="#008a0e" stroke-width=".05" fill="#008a0e"/><path d="M269.97-2930.7l-4.64-14.27h9.27z" fill="#008a0e"/><path d="M269.97-2922.7l-8.04-24.75H278zm-1.23-19.8l1.23 3.8 1.23-3.8z" stroke="#008a0e" stroke-width=".05" fill="#008a0e"/><use xlink:href="#at" transform="matrix(1,0,0,1,254.16984708052925,-3034.6189608883997) translate(0 17.22222222222222)"/><path d="M355.97-2859.1h214.87" stroke="#3a414a" stroke-width="5" fill="none"/><path d="M356.03-2856.64h-2.56v-4.95h2.56z" stroke="#3a414a" stroke-width=".05" fill="#3a414a"/><path d="M587.6-2859.1l-14.26 4.62v-9.27z" stroke="#3a414a" stroke-width="5" fill="#3a414a"/><path d="M781.38-2856.64H754.2v-4.95h27.18zm81.5 0h-54.34v-4.95h54.34zm135.85 0h-27.17v-4.95h27.17zm-54.34 0h-44.53v-4.95h44.52z" stroke="#e81313" stroke-width=".05" fill="#e81313"/><path d="M754.27-2856.64h-3.18l.23-.48.28-.98.1-1-.1-1.03-.27-.98-.24-.5h3.17z" fill="#e81313"/><path stroke="#e81313" stroke-width=".05" fill="#e81313"/><path d="M1015.5-2859.1l-14.27 4.62v-9.27z" fill="#e81313"/><path d="M1023.5-2859.1l-24.75 8.03v-16.1zm-19.8 1.2l3.8-1.2-3.8-1.24z" stroke="#e81313" stroke-width=".05" fill="#e81313"/><use xlink:href="#as" transform="matrix(1,0,0,1,875.4200843591334,-2869.870012733606) translate(0 17.22222222222222)"/><path d="M1107.1-2925.1v-193.16" stroke="#3a414a" stroke-width="5" fill="none"/><path d="M1109.56-2922.6h-4.95v-2.58h4.96z" stroke="#3a414a" stroke-width=".05" fill="#3a414a"/><path d="M1107.1-3135.03l4.62 14.27h-9.27z" stroke="#3a414a" stroke-width="5" fill="#3a414a"/><path d="M676.18-2622.47h-4.95v-65.64h4.95zm0-87.15h-4.95v-88h4.95z" stroke="#008a0e" stroke-width=".05" fill="#008a0e"/><path d="M671.4-2800.4l1.15.2 1.15.1 1.16-.1 1.13-.2.18-.07v2.92h-4.95v-2.92z" fill="#008a0e"/><path stroke="#008a0e" stroke-width=".05" fill="#008a0e"/><path d="M673.7-2605.7l-4.63-14.27h9.27z" fill="#008a0e"/><path d="M673.7-2597.7l-8.04-24.75h16.08zm-1.23-19.8l1.23 3.8 1.23-3.8z" stroke="#008a0e" stroke-width=".05" fill="#008a0e"/><use xlink:href="#at" transform="matrix(1,0,0,1,657.9040761763495,-2709.618960888399) translate(0 17.22222222222222)"/><path d="M673.7-2435.2v170.64" stroke="#3a414a" stroke-width="5" fill="none"/><path d="M676.18-2435.14h-4.95v-2.57h4.95z" stroke="#3a414a" stroke-width=".05" fill="#3a414a"/><path d="M673.7-2247.8l-4.63-14.26h9.27z" stroke="#3a414a" stroke-width="5" fill="#3a414a"/><path d="M673.7-2088.54v172.43" stroke="#3a414a" stroke-width="5" fill="none"/><path d="M676.18-2088.48h-4.95v-2.56h4.95z" stroke="#3a414a" stroke-width=".05" fill="#3a414a"/><path d="M673.7-1899.35l-4.63-14.26h9.27z" stroke="#3a414a" stroke-width="5" fill="#3a414a"/><path d="M676.18-1585.76h-4.95v-28.73h4.95zm0-57.47h-4.95v-6.8h4.95zm0-28.32h-4.95v-29.16h4.95zm0-57.9h-4.95v-28.73h4.95z" stroke="#e81313" stroke-width=".05" fill="#e81313"/><path d="M671.37-1760.96l1.16.2 1.17.08 1.18-.07 1.16-.2.14-.05v2.88h-4.95v-2.88z" fill="#e81313"/><path stroke="#e81313" stroke-width=".05" fill="#e81313"/><path d="M673.7-1569l-4.63-14.26h9.27z" fill="#e81313"/><path d="M673.7-1560.98l-8.04-24.75h16.08zm-1.23-19.8l1.23 3.78 1.23-3.78z" stroke="#e81313" stroke-width=".05" fill="#e81313"/><use xlink:href="#as" transform="matrix(1,0,0,1,661.4761247874605,-1671.5475412590997) translate(0 17.22222222222222)"/><path d="M1241.23-3173.16l1.3.3 1.22.52 1.14.7 1 .86.87 1 .7 1.15.5 1.23.3 1.3.1 1.22v1672.4l-.1 1.24-.3 1.3-.5 1.22-.7 1.14-.87 1-1 .88-1.15.7-1.23.5-1.3.3-1.22.1H789.35v-4.94h450.46l.65-.05.54-.12.5-.2.47-.3.42-.36.35-.42.3-.47.2-.5.13-.55.05-.64v-1672.02l-.05-.65-.13-.54-.2-.5-.3-.48-.36-.42-.43-.36-.47-.28-.5-.23-.55-.13-.64-.05h-29.15v-4.96H1240z" stroke="#3a414a" stroke-width=".05" fill="#3a414a"/><path d="M789.42-1484.1h-2.57v-4.94h2.57z" fill="#3a414a"/><path stroke="#3a414a" stroke-width=".05" fill="#3a414a"/><path d="M1208.15-3166.15l-14.27-4.63 14.27-4.64z" fill="#3a414a"/><path d="M1210.63-3162.74l-24.75-8.04 24.75-8.04zm-8.74-8.04l3.78 1.23v-2.46z" stroke="#3a414a" stroke-width=".05" fill="#3a414a"/><path d="M454.94-1168.3l.05.65.12.54.2.5.3.47.36.42.42.35.47.28.5.22.55.13.65.05h106.78v4.95H458.37l-1.23-.1-1.3-.3-1.22-.52-1.14-.7-1-.86-.87-1-.7-1.15-.5-1.23-.3-1.3-.1-1.22v-307.5h4.94zm117.3-655.2H458.56l-.65.06-.54.12-.5.2-.48.3-.42.36-.36.42-.3.47-.2.5-.13.55-.06.65v322.77H450v-322.97l.1-1.23.3-1.3.5-1.22.7-1.14.87-1 1-.87 1.15-.7 1.23-.5 1.3-.32 1.22-.1h113.86z" stroke="#008a0e" stroke-width=".05" fill="#008a0e"/><path d="M575.1-1827.87l-.28.93-.1.97.1.97.3.93.3.57h-3.26v-4.95h3.26z" fill="#008a0e"/><path stroke="#008a0e" stroke-width=".05" fill="#008a0e"/><path d="M582.1-1162.2l-14.25 4.64v-9.28z" fill="#008a0e"/><path d="M590.12-1162.2l-24.75 8.04v-16.08zm-19.8 1.23l3.78-1.23-3.78-1.23z" stroke="#008a0e" stroke-width=".05" fill="#008a0e"/><use xlink:href="#at" transform="matrix(1,0,0,1,436.6698470805293,-1497.1025918535584) translate(0 17.22222222222222)"/><path d="M1267.9-3199.83l1.3.3 1.22.52 1.13.7 1.02.85.86 1.02.7 1.13.5 1.23.32 1.3.1 1.22v2023.45l-.1 1.23-.3 1.3-.52 1.22-.7 1.14-.86 1-1 .86-1.15.7-1.23.5-1.3.32-1.23.1H759.7v-4.95h506.77l.65-.05.54-.13.5-.22.48-.28.42-.36.36-.43.28-.47.2-.5.14-.55.05-.65v-2023.05l-.06-.65-.13-.53-.2-.5-.3-.5-.34-.4-.42-.36-.47-.28-.5-.2-.55-.14-.65-.05h-55.77v-4.95h55.97z" stroke="#3a414a" stroke-width=".05" fill="#3a414a"/><path d="M759.77-1159.72h-2.57v-4.95h2.57z" fill="#3a414a"/><path stroke="#3a414a" stroke-width=".05" fill="#3a414a"/><path d="M1208.2-3192.8l-14.26-4.65 14.26-4.63z" fill="#3a414a"/><path d="M1210.68-3189.4l-24.75-8.05 24.75-8.04zm-8.74-8.05l3.8 1.23v-2.46z" stroke="#3a414a" stroke-width=".05" fill="#3a414a"/><path d="M60-3714a6 6 0 0 1 6-6h1288a6 6 0 0 1 6 6v2676.83a6 6 0 0 1-6 6H66a6 6 0 0 1-6-6z" stroke="#3a414a" stroke-width="2" fill="#fff"/><path d="M60-3762.26a6 6 0 0 1 6-6h187.8a6 6 0 0 1 6 6v24.26a6 6 0 0 1-6 6H66a6 6 0 0 1-6-6z" fill="#3a414a"/><use xlink:href="#a" transform="matrix(1,0,0,1,68,-3760.25474609375) translate(0 16.589501953125)"/><use xlink:href="#b" transform="matrix(1,0,0,1,68,-3760.25474609375) translate(49.63965820312501 16.589501953125)"/><use xlink:href="#c" transform="matrix(1,0,0,1,68,-3760.25474609375) translate(146.417783203125 16.589501953125)"/><path d="M187.47-3599.8a6 6 0 0 1 6-6h153a6 6 0 0 1 6 6v113a6 6 0 0 1-6 6h-153a6 6 0 0 1-6-6z" stroke="#ff80df" stroke-width="2" fill="#fff0fb"/><use xlink:href="#d" transform="matrix(1,0,0,1,199.46845819164037,-3593.8074022001365) translate(40.67686631944444 27.84027777777778)"/><use xlink:href="#e" transform="matrix(1,0,0,1,199.46845819164037,-3593.8074022001365) translate(9.388888888888886 60.10590277777778)"/><use xlink:href="#f" transform="matrix(1,0,0,1,199.46845819164037,-3593.8074022001365) translate(45.6953125 92.37152777777777)"/><path d="M552.47-3634a6 6 0 0 1 6-6h230.47a6 6 0 0 1 6 6v181.4a6 6 0 0 1-6 6H558.47a6 6 0 0 1-6-6z" stroke="#ff80df" stroke-width="2" fill="#fff0fb"/><use xlink:href="#g" transform="matrix(1,0,0,1,564.4684581916404,-3628) translate(18.728515625 58.71527777777778)"/><use xlink:href="#h" transform="matrix(1,0,0,1,564.4684581916404,-3628) translate(75.076171875 58.71527777777778)"/><use xlink:href="#i" transform="matrix(1,0,0,1,564.4684581916404,-3628) translate(103.54839409722221 58.71527777777778)"/><use xlink:href="#j" transform="matrix(1,0,0,1,564.4684581916404,-3628) translate(23.5353732638889 90.98090277777777)"/><use xlink:href="#k" transform="matrix(1,0,0,1,564.4684581916404,-3628) translate(89.18207465277779 90.98090277777777)"/><use xlink:href="#l" transform="matrix(1,0,0,1,564.4684581916404,-3628) translate(175.08702256944446 90.98090277777777)"/><use xlink:href="#m" transform="matrix(1,0,0,1,564.4684581916404,-3628) translate(28.515842013888886 123.24652777777777)"/><use xlink:href="#n" transform="matrix(1,0,0,1,564.4684581916404,-3628) translate(136.013671875 123.24652777777777)"/><path d="M994.94-3627.12a6 6 0 0 1 6-6h212.3a6 6 0 0 1 6 6v167.62a6 6 0 0 1-6 6h-212.3a6 6 0 0 1-6-6z" stroke="#ff80df" stroke-width="2" fill="#fff0fb"/><use xlink:href="#o" transform="matrix(1,0,0,1,1006.9369163832807,-3621.1175288010936) translate(3.706380208333343 36.15277777777778)"/><use xlink:href="#p" transform="matrix(1,0,0,1,1006.9369163832807,-3621.1175288010936) translate(83.95811631944444 36.15277777777778)"/><use xlink:href="#q" transform="matrix(1,0,0,1,1006.9369163832807,-3621.1175288010936) translate(139.13389756944443 36.15277777777778)"/><use xlink:href="#r" transform="matrix(1,0,0,1,1006.9369163832807,-3621.1175288010936) translate(33.041232638888886 68.41840277777777)"/><use xlink:href="#s" transform="matrix(1,0,0,1,1006.9369163832807,-3621.1175288010936) translate(88.30381944444444 68.41840277777777)"/><use xlink:href="#t" transform="matrix(1,0,0,1,1006.9369163832807,-3621.1175288010936) translate(30.420789930555557 100.68402777777777)"/><use xlink:href="#u" transform="matrix(1,0,0,1,1006.9369163832807,-3621.1175288010936) translate(63.64019097222222 132.94965277777777)"/><path d="M265.17-3240.5a8 8 0 0 1 9.6 0l70.4 52.78a4.5 4.5 0 0 1 0 7.2l-70.4 52.8a8 8 0 0 1-9.6 0l-70.4-52.8a4.5 4.5 0 0 1 0-7.2z" stroke="#6db1ff" stroke-width="2" fill="#edf5ff"/><use xlink:href="#v" transform="matrix(1,0,0,1,194.96845819164037,-3239.1148044002725) translate(43.14736111111111 42.15277777777778)"/><use xlink:href="#w" transform="matrix(1,0,0,1,194.96845819164037,-3239.1148044002725) translate(29.209644097222235 74.41840277777777)"/><path d="M591.2-3240.6a6 6 0 0 1 6-6h153a6 6 0 0 1 6 6v113a6 6 0 0 1-6 6h-153a6 6 0 0 1-6-6z" stroke="#ff80df" stroke-width="2" fill="#fff0fb"/><use xlink:href="#x" transform="matrix(1,0,0,1,603.2026872874605,-3234.6148044002725) translate(2.5041232638889 21.52777777777778)"/><use xlink:href="#y" transform="matrix(1,0,0,1,603.2026872874605,-3234.6148044002725) translate(101.08268229166666 21.52777777777778)"/><use xlink:href="#z" transform="matrix(1,0,0,1,603.2026872874605,-3234.6148044002725) translate(-0.31163194444444287 53.79340277777778)"/><use xlink:href="#h" transform="matrix(1,0,0,1,603.2026872874605,-3234.6148044002725) translate(24.40625 86.05902777777777)"/><use xlink:href="#A" transform="matrix(1,0,0,1,603.2026872874605,-3234.6148044002725) translate(52.87847222222222 86.05902777777777)"/><use xlink:href="#B" transform="matrix(1,0,0,1,603.2026872874605,-3234.6148044002725) translate(30.276475694444443 118.32465277777777)"/><path d="M187.47-2915.6a6 6 0 0 1 6-6h153a6 6 0 0 1 6 6v113a6 6 0 0 1-6 6h-153a6 6 0 0 1-6-6z" stroke="#ff80df" stroke-width="2" fill="#fff0fb"/><g><use xlink:href="#C" transform="matrix(1,0,0,1,199.46845819164037,-2909.6148044002725) translate(11.927951388888893 21.52777777777778)"/><use xlink:href="#D" transform="matrix(1,0,0,1,199.46845819164037,-2909.6148044002725) translate(80.14626736111111 21.52777777777778)"/><use xlink:href="#E" transform="matrix(1,0,0,1,199.46845819164037,-2909.6148044002725) translate(21.644748263888886 53.79340277777778)"/><use xlink:href="#F" transform="matrix(1,0,0,1,199.46845819164037,-2909.6148044002725) translate(50.89279513888889 86.05902777777777)"/><use xlink:href="#G" transform="matrix(1,0,0,1,199.46845819164037,-2909.6148044002725) translate(18.736762152777793 118.32465277777777)"/></g><path d="M668.9-2915.5a8 8 0 0 1 9.6 0l70.4 52.78a4.5 4.5 0 0 1 0 7.2l-70.4 52.8a8 8 0 0 1-9.6 0l-70.4-52.8a4.5 4.5 0 0 1 0-7.2z" stroke="#6db1ff" stroke-width="2" fill="#edf5ff"/><g><use xlink:href="#v" transform="matrix(1,0,0,1,598.7026872874605,-2914.1148044002725) translate(43.14736111111111 45.59027777777778)"/><use xlink:href="#H" transform="matrix(1,0,0,1,598.7026872874605,-2914.1148044002725) translate(43.798402777777774 77.85590277777777)"/></g><path d="M1024.6-2915.6a6 6 0 0 1 6-6h153a6 6 0 0 1 6 6v113a6 6 0 0 1-6 6h-153a6 6 0 0 1-6-6z" stroke="#ff80df" stroke-width="2" fill="#fff0fb"/><g><use xlink:href="#x" transform="matrix(1,0,0,1,1036.5862834965442,-2909.6148044002725) translate(0.16037326388889994 27.84027777777778)"/><use xlink:href="#I" transform="matrix(1,0,0,1,1036.5862834965442,-2909.6148044002725) translate(98.73893229166666 27.84027777777778)"/><use xlink:href="#J" transform="matrix(1,0,0,1,1036.5862834965442,-2909.6148044002725) translate(2.981553819444457 60.10590277777778)"/><use xlink:href="#K" transform="matrix(1,0,0,1,1036.5862834965442,-2909.6148044002725) translate(115.79622395833333 60.10590277777778)"/><use xlink:href="#L" transform="matrix(1,0,0,1,1036.5862834965442,-2909.6148044002725) translate(4.2944878472222285 92.37152777777777)"/><use xlink:href="#M" transform="matrix(1,0,0,1,1036.5862834965442,-2909.6148044002725) translate(78.54578993055556 92.37152777777777)"/></g><path d="M552.47-2590.6a6 6 0 0 1 6-6h230.47a6 6 0 0 1 6 6v145.9a6 6 0 0 1-6 6H558.47a6 6 0 0 1-6-6z" stroke="#ff80df" stroke-width="2" fill="#fff0fb"/><g><use xlink:href="#N" transform="matrix(1,0,0,1,564.4684581916404,-2584.6148044002725) translate(36.507378472222214 42.46527777777778)"/><use xlink:href="#q" transform="matrix(1,0,0,1,564.4684581916404,-2584.6148044002725) translate(124.33289930555556 42.46527777777778)"/><use xlink:href="#O" transform="matrix(1,0,0,1,564.4684581916404,-2584.6148044002725) translate(24.680121527777786 74.73090277777777)"/><use xlink:href="#P" transform="matrix(1,0,0,1,564.4684581916404,-2584.6148044002725) translate(121.21875 74.73090277777777)"/><use xlink:href="#Q" transform="matrix(1,0,0,1,564.4684581916404,-2584.6148044002725) translate(12.462239583333329 106.99652777777777)"/><use xlink:href="#R" transform="matrix(1,0,0,1,564.4684581916404,-2584.6148044002725) translate(64.90364583333331 106.99652777777777)"/><use xlink:href="#S" transform="matrix(1,0,0,1,564.4684581916404,-2584.6148044002725) translate(93.15885416666666 106.99652777777777)"/><use xlink:href="#T" transform="matrix(1,0,0,1,564.4684581916404,-2584.6148044002725) translate(138.62326388888886 106.99652777777777)"/><use xlink:href="#U" transform="matrix(1,0,0,1,564.4684581916404,-2584.6148044002725) translate(184.53255208333331 106.99652777777777)"/></g><path d="M561.55-2232.7a6 6 0 0 1 6-6h212.3a6 6 0 0 1 6 6v134.66a6 6 0 0 1-6 6h-212.3a6 6 0 0 1-6-6z" stroke="#ff80df" stroke-width="2" fill="#fff0fb"/><g><use xlink:href="#V" transform="matrix(1,0,0,1,573.5533201741971,-2226.707784500135) translate(4.0698784722222285 36.90277777777778)"/><use xlink:href="#T" transform="matrix(1,0,0,1,573.5533201741971,-2226.707784500135) translate(56.478732638888886 36.90277777777778)"/><use xlink:href="#R" transform="matrix(1,0,0,1,573.5533201741971,-2226.707784500135) translate(102.38802083333333 36.90277777777778)"/><use xlink:href="#W" transform="matrix(1,0,0,1,573.5533201741971,-2226.707784500135) translate(130.64322916666666 36.90277777777778)"/><use xlink:href="#X" transform="matrix(1,0,0,1,573.5533201741971,-2226.707784500135) translate(157.27083333333331 36.90277777777778)"/><use xlink:href="#Y" transform="matrix(1,0,0,1,573.5533201741971,-2226.707784500135) translate(1.7532552083333428 69.16840277777777)"/><use xlink:href="#Z" transform="matrix(1,0,0,1,573.5533201741971,-2226.707784500135) translate(66.03276909722223 69.16840277777777)"/><use xlink:href="#aa" transform="matrix(1,0,0,1,573.5533201741971,-2226.707784500135) translate(125.92860243055556 69.16840277777777)"/><use xlink:href="#ab" transform="matrix(1,0,0,1,573.5533201741971,-2226.707784500135) translate(8.073784722222214 101.43402777777777)"/><use xlink:href="#ac" transform="matrix(1,0,0,1,573.5533201741971,-2226.707784500135) translate(112.44661458333333 101.43402777777777)"/></g><path d="M668.68-1888.76a9.2 9.2 0 0 1 10.05 0l91.17 59.5a3.92 3.92 0 0 1 0 6.57l-91.17 59.52a9.2 9.2 0 0 1-10.05 0l-91.17-59.5a3.92 3.92 0 0 1 0-6.57z" stroke="#6db1ff" stroke-width="2" fill="#edf5ff"/><g><use xlink:href="#ad" transform="matrix(1,0,0,1,577.4836761030231,-1887.0404100464593) translate(26.09526909722223 37.318142361111114)"/><use xlink:href="#Q" transform="matrix(1,0,0,1,577.4836761030231,-1887.0404100464593) translate(50.042751736111114 37.318142361111114)"/><use xlink:href="#T" transform="matrix(1,0,0,1,577.4836761030231,-1887.0404100464593) translate(102.48415798611111 37.318142361111114)"/><use xlink:href="#ae" transform="matrix(1,0,0,1,577.4836761030231,-1887.0404100464593) translate(148.39344618055554 37.318142361111114)"/><use xlink:href="#af" transform="matrix(1,0,0,1,577.4836761030231,-1887.0404100464593) translate(17.447265625 69.58376736111111)"/><use xlink:href="#ag" transform="matrix(1,0,0,1,577.4836761030231,-1887.0404100464593) translate(124.1638454861111 69.58376736111111)"/><use xlink:href="#ah" transform="matrix(1,0,0,1,577.4836761030231,-1887.0404100464593) translate(23.94140625 101.84939236111111)"/><use xlink:href="#ai" transform="matrix(1,0,0,1,577.4836761030231,-1887.0404100464593) translate(59.455729166666664 101.84939236111111)"/><use xlink:href="#aj" transform="matrix(1,0,0,1,577.4836761030231,-1887.0404100464593) translate(103.22743055555554 101.84939236111111)"/></g><path d="M561.55-1553.9a6 6 0 0 1 6-6h212.3a6 6 0 0 1 6 6v134.67a6 6 0 0 1-6 6h-212.3a6 6 0 0 1-6-6z" stroke="#ff80df" stroke-width="2" fill="#fff0fb"/><g><use xlink:href="#x" transform="matrix(1,0,0,1,573.5533201741971,-1547.900725104117) translate(30.1603732638889 36.90277777777778)"/><use xlink:href="#I" transform="matrix(1,0,0,1,573.5533201741971,-1547.900725104117) translate(128.73893229166666 36.90277777777778)"/><use xlink:href="#J" transform="matrix(1,0,0,1,573.5533201741971,-1547.900725104117) translate(32.98155381944446 69.16840277777777)"/><use xlink:href="#K" transform="matrix(1,0,0,1,573.5533201741971,-1547.900725104117) translate(145.79622395833331 69.16840277777777)"/><use xlink:href="#ak" transform="matrix(1,0,0,1,573.5533201741971,-1547.900725104117) translate(22.988064236111114 101.43402777777777)"/><use xlink:href="#al" transform="matrix(1,0,0,1,573.5533201741971,-1547.900725104117) translate(106.37565104166667 101.43402777777777)"/></g><path d="M591.2-1207.23a6 6 0 0 1 6-6h153a6 6 0 0 1 6 6v90.06a6 6 0 0 1-6 6h-153a6 6 0 0 1-6-6z" stroke="#ff80df" stroke-width="2" fill="#fff0fb"/><g><use xlink:href="#am" transform="matrix(1,0,0,1,603.2026872874605,-1201.233350650442) translate(41.89756944444444 21.52777777777778)"/><use xlink:href="#an" transform="matrix(1,0,0,1,603.2026872874605,-1201.233350650442) translate(8.802951388888886 53.79340277777778)"/><use xlink:href="#ao" transform="matrix(1,0,0,1,603.2026872874605,-1201.233350650442) translate(96.04253472222223 53.79340277777778)"/><use xlink:href="#ap" transform="matrix(1,0,0,1,603.2026872874605,-1201.233350650442) translate(5.135416666666657 86.05902777777777)"/><use xlink:href="#aq" transform="matrix(1,0,0,1,603.2026872874605,-1201.233350650442) translate(56.80642361111111 86.05902777777777)"/></g><path d="M1147.1-3224.1c22.08 0 40 17.9 40 40 0 22.08-17.92 40-40 40h-80c-22.1 0-40-17.92-40-40 0-22.1 17.9-40 40-40z" stroke="#e08fff" stroke-width="2" fill="#f4d9ff"/><g><use xlink:href="#ar" transform="matrix(1,0,0,1,1032.0862834965442,-3219.1148044002725) translate(54.95334201388889 43.40277777777778)"/></g><path d="M355.97-3543.3H526.6" stroke="#3a414a" stroke-width="5" fill="none"/><path d="M356.03-3540.83h-2.56v-4.95h2.56z" stroke="#3a414a" stroke-width=".05" fill="#3a414a"/><path d="M543.38-3543.3l-14.27 4.63v-9.27z" stroke="#3a414a" stroke-width="5" fill="#3a414a"/><path d="M798.44-3543.3h170.64" stroke="#3a414a" stroke-width="5" fill="none"/><path d="M798.5-3540.83h-2.56v-4.95h2.56z" stroke="#3a414a" stroke-width=".05" fill="#3a414a"/><path d="M985.85-3543.3l-14.27 4.63v-9.27z" stroke="#3a414a" stroke-width="5" fill="#3a414a"/><path d="M1107.1-3450v97.4a6 6 0 0 1-6 6H275.96a6 6 0 0 0-6 6v72.63" stroke="#3a414a" stroke-width="5" fill="none"/><path d="M1109.56-3449.93h-4.95v-2.57h4.96z" stroke="#3a414a" stroke-width=".05" fill="#3a414a"/><path d="M269.97-3251.2l-4.64-14.27h9.27z" stroke="#3a414a" stroke-width="5" fill="#3a414a"/><path d="M374.35-3181.64h-23.88v-4.95h23.88zm71.62 0h-47.75v-4.95h47.75zm119.38 0h-23.88v-4.95h23.88zm-47.75 0h-36.3v-4.95h36.3z" stroke="#e81313" stroke-width=".05" fill="#e81313"/><path d="M350.54-3181.64h-3.18l.24-.48.28-.98.1-1-.1-1.03-.28-.98-.24-.5h3.18z" fill="#e81313"/><path stroke="#e81313" stroke-width=".05" fill="#e81313"/><path d="M582.1-3184.1l-14.25 4.62v-9.27z" fill="#e81313"/><path d="M590.12-3184.1l-24.75 8.03v-16.1zm-19.8 1.2l3.78-1.2-3.78-1.24z" stroke="#e81313" stroke-width=".05" fill="#e81313"/><g><use xlink:href="#as" transform="matrix(1,0,0,1,456.86117170668155,-3194.870012733606) translate(0 17.22222222222222)"/></g><path d="M759.7-3184.1h241.53" stroke="#3a414a" stroke-width="5" fill="none"/><path d="M759.77-3181.64h-2.57v-4.95h2.57z" stroke="#3a414a" stroke-width=".05" fill="#3a414a"/><path d="M1018-3184.1l-14.27 4.62v-9.27z" stroke="#3a414a" stroke-width="5" fill="#3a414a"/><path d="M272.44-2947.47h-4.95v-65.64h4.94zm0-87.15h-4.95v-88h4.94z" stroke="#008a0e" stroke-width=".05" fill="#008a0e"/><path d="M267.68-3125.4l1.13.2 1.17.1 1.15-.1 1.14-.2.18-.07v2.92h-4.95v-2.92z" fill="#008a0e"/><path stroke="#008a0e" stroke-width=".05" fill="#008a0e"/><path d="M269.97-2930.7l-4.64-14.27h9.27z" fill="#008a0e"/><path d="M269.97-2922.7l-8.04-24.75H278zm-1.23-19.8l1.23 3.8 1.23-3.8z" stroke="#008a0e" stroke-width=".05" fill="#008a0e"/><g><use xlink:href="#at" transform="matrix(1,0,0,1,254.16984708052925,-3034.6189608883997) translate(0 17.22222222222222)"/></g><path d="M355.97-2859.1h214.87" stroke="#3a414a" stroke-width="5" fill="none"/><path d="M356.03-2856.64h-2.56v-4.95h2.56z" stroke="#3a414a" stroke-width=".05" fill="#3a414a"/><path d="M587.6-2859.1l-14.26 4.62v-9.27z" stroke="#3a414a" stroke-width="5" fill="#3a414a"/><path d="M781.38-2856.64H754.2v-4.95h27.18zm81.5 0h-54.34v-4.95h54.34zm135.85 0h-27.17v-4.95h27.17zm-54.34 0h-44.53v-4.95h44.52z" stroke="#e81313" stroke-width=".05" fill="#e81313"/><path d="M754.27-2856.64h-3.18l.23-.48.28-.98.1-1-.1-1.03-.27-.98-.24-.5h3.17z" fill="#e81313"/><path stroke="#e81313" stroke-width=".05" fill="#e81313"/><path d="M1015.5-2859.1l-14.27 4.62v-9.27z" fill="#e81313"/><path d="M1023.5-2859.1l-24.75 8.03v-16.1zm-19.8 1.2l3.8-1.2-3.8-1.24z" stroke="#e81313" stroke-width=".05" fill="#e81313"/><g><use xlink:href="#as" transform="matrix(1,0,0,1,875.4200843591334,-2869.870012733606) translate(0 17.22222222222222)"/></g><path d="M1107.1-2925.1v-193.16" stroke="#3a414a" stroke-width="5" fill="none"/><path d="M1109.56-2922.6h-4.95v-2.58h4.96z" stroke="#3a414a" stroke-width=".05" fill="#3a414a"/><path d="M1107.1-3135.03l4.62 14.27h-9.27z" stroke="#3a414a" stroke-width="5" fill="#3a414a"/><path d="M676.18-2622.47h-4.95v-65.64h4.95zm0-87.15h-4.95v-88h4.95z" stroke="#008a0e" stroke-width=".05" fill="#008a0e"/><path d="M671.4-2800.4l1.15.2 1.15.1 1.16-.1 1.13-.2.18-.07v2.92h-4.95v-2.92z" fill="#008a0e"/><path stroke="#008a0e" stroke-width=".05" fill="#008a0e"/><path d="M673.7-2605.7l-4.63-14.27h9.27z" fill="#008a0e"/><path d="M673.7-2597.7l-8.04-24.75h16.08zm-1.23-19.8l1.23 3.8 1.23-3.8z" stroke="#008a0e" stroke-width=".05" fill="#008a0e"/><g><use xlink:href="#at" transform="matrix(1,0,0,1,657.9040761763495,-2709.618960888399) translate(0 17.22222222222222)"/></g><path d="M673.7-2435.2v170.64" stroke="#3a414a" stroke-width="5" fill="none"/><path d="M676.18-2435.14h-4.95v-2.57h4.95z" stroke="#3a414a" stroke-width=".05" fill="#3a414a"/><path d="M673.7-2247.8l-4.63-14.26h9.27z" stroke="#3a414a" stroke-width="5" fill="#3a414a"/><path d="M673.7-2088.54v172.43" stroke="#3a414a" stroke-width="5" fill="none"/><path d="M676.18-2088.48h-4.95v-2.56h4.95z" stroke="#3a414a" stroke-width=".05" fill="#3a414a"/><path d="M673.7-1899.35l-4.63-14.26h9.27z" stroke="#3a414a" stroke-width="5" fill="#3a414a"/><path d="M676.18-1585.76h-4.95v-28.73h4.95zm0-57.47h-4.95v-6.8h4.95zm0-28.32h-4.95v-29.16h4.95zm0-57.9h-4.95v-28.73h4.95z" stroke="#e81313" stroke-width=".05" fill="#e81313"/><path d="M671.37-1760.96l1.16.2 1.17.08 1.18-.07 1.16-.2.14-.05v2.88h-4.95v-2.88z" fill="#e81313"/><path stroke="#e81313" stroke-width=".05" fill="#e81313"/><path d="M673.7-1569l-4.63-14.26h9.27z" fill="#e81313"/><path d="M673.7-1560.98l-8.04-24.75h16.08zm-1.23-19.8l1.23 3.78 1.23-3.78z" stroke="#e81313" stroke-width=".05" fill="#e81313"/><g><use xlink:href="#as" transform="matrix(1,0,0,1,661.4761247874605,-1671.5475412590997) translate(0 17.22222222222222)"/></g><path d="M1241.23-3173.16l1.3.3 1.22.52 1.14.7 1 .86.87 1 .7 1.15.5 1.23.3 1.3.1 1.22v1672.4l-.1 1.24-.3 1.3-.5 1.22-.7 1.14-.87 1-1 .88-1.15.7-1.23.5-1.3.3-1.22.1H789.35v-4.94h450.46l.65-.05.54-.12.5-.2.47-.3.42-.36.35-.42.3-.47.2-.5.13-.55.05-.64v-1672.02l-.05-.65-.13-.54-.2-.5-.3-.48-.36-.42-.43-.36-.47-.28-.5-.23-.55-.13-.64-.05h-29.15v-4.96H1240z" stroke="#3a414a" stroke-width=".05" fill="#3a414a"/><path d="M789.42-1484.1h-2.57v-4.94h2.57z" fill="#3a414a"/><path stroke="#3a414a" stroke-width=".05" fill="#3a414a"/><path d="M1208.15-3166.15l-14.27-4.63 14.27-4.64z" fill="#3a414a"/><path d="M1210.63-3162.74l-24.75-8.04 24.75-8.04zm-8.74-8.04l3.78 1.23v-2.46z" stroke="#3a414a" stroke-width=".05" fill="#3a414a"/><path d="M454.94-1168.3l.05.65.12.54.2.5.3.47.36.42.42.35.47.28.5.22.55.13.65.05h106.78v4.95H458.37l-1.23-.1-1.3-.3-1.22-.52-1.14-.7-1-.86-.87-1-.7-1.15-.5-1.23-.3-1.3-.1-1.22v-307.5h4.94zm117.3-655.2H458.56l-.65.06-.54.12-.5.2-.48.3-.42.36-.36.42-.3.47-.2.5-.13.55-.06.65v322.77H450v-322.97l.1-1.23.3-1.3.5-1.22.7-1.14.87-1 1-.87 1.15-.7 1.23-.5 1.3-.32 1.22-.1h113.86z" stroke="#008a0e" stroke-width=".05" fill="#008a0e"/><path d="M575.1-1827.87l-.28.93-.1.97.1.97.3.93.3.57h-3.26v-4.95h3.26z" fill="#008a0e"/><path stroke="#008a0e" stroke-width=".05" fill="#008a0e"/><path d="M582.1-1162.2l-14.25 4.64v-9.28z" fill="#008a0e"/><path d="M590.12-1162.2l-24.75 8.04v-16.08zm-19.8 1.23l3.78-1.23-3.78-1.23z" stroke="#008a0e" stroke-width=".05" fill="#008a0e"/><g><use xlink:href="#at" transform="matrix(1,0,0,1,436.6698470805293,-1497.1025918535584) translate(0 17.22222222222222)"/></g><path d="M1267.9-3199.83l1.3.3 1.22.52 1.13.7 1.02.85.86 1.02.7 1.13.5 1.23.32 1.3.1 1.22v2023.45l-.1 1.23-.3 1.3-.52 1.22-.7 1.14-.86 1-1 .86-1.15.7-1.23.5-1.3.32-1.23.1H759.7v-4.95h506.77l.65-.05.54-.13.5-.22.48-.28.42-.36.36-.43.28-.47.2-.5.14-.55.05-.65v-2023.05l-.06-.65-.13-.53-.2-.5-.3-.5-.34-.4-.42-.36-.47-.28-.5-.2-.55-.14-.65-.05h-55.77v-4.95h55.97z" stroke="#3a414a" stroke-width=".05" fill="#3a414a"/><path d="M759.77-1159.72h-2.57v-4.95h2.57z" fill="#3a414a"/><path stroke="#3a414a" stroke-width=".05" fill="#3a414a"/><path d="M1208.2-3192.8l-14.26-4.65 14.26-4.63z" fill="#3a414a"/><path d="M1210.68-3189.4l-24.75-8.05 24.75-8.04zm-8.74-8.05l3.8 1.23v-2.46z" stroke="#3a414a" stroke-width=".05" fill="#3a414a"/><defs><path fill="#fff" d="M180 0v-1490h510c348 0 508 194 508 460 0 198-88 351-276 417L1256 0h-220L726-579c-117 2-238 0-356 1V0H180zm190-747h312c235 0 327-108 327-283 0-177-92-293-329-293H370v576" id="au"/><path fill="#fff" d="M180 0v-1490h528c311 0 458 177 458 395 0 191-114 278-244 313v14c139 9 302 137 302 371 0 225-148 397-499 397H180zm190-168h350c232 0 321-102 321-231 0-149-120-277-311-277H370v508zm0-668h328c160 0 286-101 286-255 0-129-87-231-280-231H370v486" id="av"/><path fill="#fff" d="M52 0l541-1490h220L1361 0h-200l-149-416H398L254 0H52zm404-582h497c-103-290-145-390-251-756-108 377-145 460-246 756" id="aw"/><path fill="#fff" d="M783 20c-382 0-661-292-661-764 0-473 279-766 661-766 302 0 548 182 601 489h-190c-42-204-217-313-411-313-268 0-476 208-476 590 0 381 209 588 476 588 195 0 369-110 411-313h190c-52 303-296 489-601 489" id="ax"/><g id="a"><use transform="matrix(0.008173828125000001,0,0,0.008173828125000001,0,0)" xlink:href="#au"/><use transform="matrix(0.008173828125000001,0,0,0.008173828125000001,10.773105468750002,0)" xlink:href="#av"/><use transform="matrix(0.008173828125000001,0,0,0.008173828125000001,21.726035156250003,0)" xlink:href="#aw"/><use transform="matrix(0.008173828125000001,0,0,0.008173828125000001,32.703486328125,0)" xlink:href="#ax"/></g><path fill="#fff" d="M180 0v-1490h270l367 940c28 72 75 218 110 339 35-117 81-264 110-339l362-940h271V0h-187c2-448-5-837 7-1287-157 497-311 829-483 1287H842C666-458 514-784 354-1284c12 438 5 843 7 1284H180" id="ay"/><path fill="#fff" d="M158 0v-1118h180V0H158zm91-1301c-68 0-125-53-125-119s57-119 125-119c69 0 126 53 126 119s-57 119-126 119" id="az"/><path fill="#fff" d="M577 24c-279 0-473-224-473-580 0-354 195-576 474-576 218 0 287 134 324 193h14v-551h180V0H922v-173h-20C865-111 790 24 577 24zm27-161c203 0 314-172 314-421 0-247-108-413-314-413-212 0-317 181-317 413 0 235 108 421 317 421" id="aA"/><path fill="#fff" d="M338-1490V0H158v-1490h180" id="aB"/><path fill="#fff" d="M628 24c-324 0-524-230-524-574 0-343 198-582 503-582 237 0 487 146 487 559v75H286c9 234 145 362 343 362 132 0 231-58 273-172l174 48C1024-91 857 24 628 24zM287-650h624c-17-190-120-322-304-322-192 0-309 151-320 322" id="aC"/><path fill="#fff" d="M409 0L70-1118h191c89 329 165 560 243 925 75-353 154-601 240-925h192c85 325 161 564 235 922 77-354 157-598 244-922h191L1267 0h-179c-86-307-176-590-250-913C763-588 675-308 588 0H409" id="aD"/><path fill="#fff" d="M471 26C259 26 90-98 90-318c0-256 228-303 435-329 202-27 287-16 287-108 0-139-79-219-234-219-161 0-248 86-283 164l-173-57c86-203 278-265 451-265 150 0 419 46 419 395V0H815v-152h-12C765-73 660 26 471 26zm31-159c199 0 310-134 310-271v-155c-30 35-226 55-295 64-131 17-246 59-246 186 0 116 97 176 231 176" id="aE"/><path fill="#fff" d="M158 0v-1118h174v172h12c41-113 157-188 290-188 26 0 70 2 91 3v181c-11-2-60-10-108-10-161 0-279 109-279 260V0H158" id="aF"/><g id="b"><use transform="matrix(0.008173828125000001,0,0,0.008173828125000001,0,0)" xlink:href="#ay"/><use transform="matrix(0.008173828125000001,0,0,0.008173828125000001,15.121582031250002,0)" xlink:href="#az"/><use transform="matrix(0.008173828125000001,0,0,0.008173828125000001,19.175800781250004,0)" xlink:href="#aA"/><use transform="matrix(0.008173828125000001,0,0,0.008173828125000001,29.425781250000007,0)" xlink:href="#aA"/><use transform="matrix(0.008173828125000001,0,0,0.008173828125000001,39.67576171875001,0)" xlink:href="#aB"/><use transform="matrix(0.008173828125000001,0,0,0.008173828125000001,43.729980468750014,0)" xlink:href="#aC"/><use transform="matrix(0.008173828125000001,0,0,0.008173828125000001,53.18709960937501,0)" xlink:href="#aD"/><use transform="matrix(0.008173828125000001,0,0,0.008173828125000001,66.886435546875,0)" xlink:href="#aE"/><use transform="matrix(0.008173828125000001,0,0,0.008173828125000001,76.286337890625,0)" xlink:href="#aF"/><use transform="matrix(0.008173828125000001,0,0,0.008173828125000001,82.31044921875001,0)" xlink:href="#aC"/></g><path fill="#fff" d="M180 0v-1490h901v168H370v510h643v168H370V0H180" id="aG"/><path fill="#fff" d="M613 24c-304 0-509-231-509-576 0-350 205-580 509-580 305 0 511 230 511 580 0 345-206 576-511 576zm0-161c226 0 329-195 329-415 0-222-103-419-329-419-223 0-326 196-326 419 0 220 103 415 326 415" id="aH"/><g id="c"><use transform="matrix(0.008173828125000001,0,0,0.008173828125000001,0,0)" xlink:href="#aG"/><use transform="matrix(0.008173828125000001,0,0,0.008173828125000001,9.882158203125002,0)" xlink:href="#aB"/><use transform="matrix(0.008173828125000001,0,0,0.008173828125000001,13.936376953125002,0)" xlink:href="#aH"/><use transform="matrix(0.008173828125000001,0,0,0.008173828125000001,23.671406250000004,0)" xlink:href="#aD"/></g><path d="M180 0v-1490h510c348 0 508 194 508 460 0 198-88 351-276 417L1256 0h-220L726-579c-117 2-238 0-356 1V0H180zm190-747h312c235 0 327-108 327-283 0-177-92-293-329-293H370v576" id="aI"/><path d="M180 0v-1490h528c311 0 458 177 458 395 0 191-114 278-244 313v14c139 9 302 137 302 371 0 225-148 397-499 397H180zm190-168h350c232 0 321-102 321-231 0-149-120-277-311-277H370v508zm0-668h328c160 0 286-101 286-255 0-129-87-231-280-231H370v486" id="aJ"/><path d="M52 0l541-1490h220L1361 0h-200l-149-416H398L254 0H52zm404-582h497c-103-290-145-390-251-756-108 377-145 460-246 756" id="aK"/><path d="M783 20c-382 0-661-292-661-764 0-473 279-766 661-766 302 0 548 182 601 489h-190c-42-204-217-313-411-313-268 0-476 208-476 590 0 381 209 588 476 588 195 0 369-110 411-313h190c-52 303-296 489-601 489" id="aL"/><g id="d"><use transform="matrix(0.010850694444444444,0,0,0.010850694444444444,0,0)" xlink:href="#aI"/><use transform="matrix(0.010850694444444444,0,0,0.010850694444444444,14.301215277777777,0)" xlink:href="#aJ"/><use transform="matrix(0.010850694444444444,0,0,0.010850694444444444,28.841145833333332,0)" xlink:href="#aK"/><use transform="matrix(0.010850694444444444,0,0,0.010850694444444444,43.41362847222222,0)" xlink:href="#aL"/></g><path d="M180 0v-1490h270l367 940c28 72 75 218 110 339 35-117 81-264 110-339l362-940h271V0h-187c2-448-5-837 7-1287-157 497-311 829-483 1287H842C666-458 514-784 354-1284c12 438 5 843 7 1284H180" id="aM"/><path d="M158 0v-1118h180V0H158zm91-1301c-68 0-125-53-125-119s57-119 125-119c69 0 126 53 126 119s-57 119-126 119" id="aN"/><path d="M577 24c-279 0-473-224-473-580 0-354 195-576 474-576 218 0 287 134 324 193h14v-551h180V0H922v-173h-20C865-111 790 24 577 24zm27-161c203 0 314-172 314-421 0-247-108-413-314-413-212 0-317 181-317 413 0 235 108 421 317 421" id="aO"/><path d="M338-1490V0H158v-1490h180" id="aP"/><path d="M628 24c-324 0-524-230-524-574 0-343 198-582 503-582 237 0 487 146 487 559v75H286c9 234 145 362 343 362 132 0 231-58 273-172l174 48C1024-91 857 24 628 24zM287-650h624c-17-190-120-322-304-322-192 0-309 151-320 322" id="aQ"/><path d="M409 0L70-1118h191c89 329 165 560 243 925 75-353 154-601 240-925h192c85 325 161 564 235 922 77-354 157-598 244-922h191L1267 0h-179c-86-307-176-590-250-913C763-588 675-308 588 0H409" id="aR"/><path d="M471 26C259 26 90-98 90-318c0-256 228-303 435-329 202-27 287-16 287-108 0-139-79-219-234-219-161 0-248 86-283 164l-173-57c86-203 278-265 451-265 150 0 419 46 419 395V0H815v-152h-12C765-73 660 26 471 26zm31-159c199 0 310-134 310-271v-155c-30 35-226 55-295 64-131 17-246 59-246 186 0 116 97 176 231 176" id="aS"/><path d="M158 0v-1118h174v172h12c41-113 157-188 290-188 26 0 70 2 91 3v181c-11-2-60-10-108-10-161 0-279 109-279 260V0H158" id="aT"/><g id="e"><use transform="matrix(0.010850694444444444,0,0,0.010850694444444444,0,0)" xlink:href="#aM"/><use transform="matrix(0.010850694444444444,0,0,0.010850694444444444,20.07378472222222,0)" xlink:href="#aN"/><use transform="matrix(0.010850694444444444,0,0,0.010850694444444444,25.455729166666664,0)" xlink:href="#aO"/><use transform="matrix(0.010850694444444444,0,0,0.010850694444444444,39.0625,0)" xlink:href="#aO"/><use transform="matrix(0.010850694444444444,0,0,0.010850694444444444,52.66927083333333,0)" xlink:href="#aP"/><use transform="matrix(0.010850694444444444,0,0,0.010850694444444444,58.05121527777778,0)" xlink:href="#aQ"/><use transform="matrix(0.010850694444444444,0,0,0.010850694444444444,70.60546875,0)" xlink:href="#aR"/><use transform="matrix(0.010850694444444444,0,0,0.010850694444444444,88.79123263888889,0)" xlink:href="#aS"/><use transform="matrix(0.010850694444444444,0,0,0.010850694444444444,101.26953125,0)" xlink:href="#aT"/><use transform="matrix(0.010850694444444444,0,0,0.010850694444444444,109.26649305555556,0)" xlink:href="#aQ"/></g><path d="M180 0v-1490h901v168H370v510h643v168H370V0H180" id="aU"/><path d="M613 24c-304 0-509-231-509-576 0-350 205-580 509-580 305 0 511 230 511 580 0 345-206 576-511 576zm0-161c226 0 329-195 329-415 0-222-103-419-329-419-223 0-326 196-326 419 0 220 103 415 326 415" id="aV"/><g id="f"><use transform="matrix(0.010850694444444444,0,0,0.010850694444444444,0,0)" xlink:href="#aU"/><use transform="matrix(0.010850694444444444,0,0,0.010850694444444444,13.118489583333332,0)" xlink:href="#aP"/><use transform="matrix(0.010850694444444444,0,0,0.010850694444444444,18.50043402777778,0)" xlink:href="#aV"/><use transform="matrix(0.010850694444444444,0,0,0.010850694444444444,31.423611111111114,0)" xlink:href="#aR"/></g><path d="M657 26c-323 0-524-166-541-416h195c15 169 171 246 346 246 202 0 356-106 356-265 5-203-294-238-475-293-239-73-380-191-380-389 0-252 224-419 512-419 294 0 499 171 508 396H992c-17-145-151-228-328-228-193 0-321 102-321 242 0 156 175 211 284 241l149 41c160 44 422 134 422 412 0 244-197 432-541 432" id="aW"/><path d="M598-1118v154H368v674c0 100 37 144 132 144 23 0 62-6 92-12L629-6c-37 13-88 20-134 20-193 0-307-107-307-290v-688H20v-154h168v-266h180v266h230" id="aX"/><g id="g"><use transform="matrix(0.010850694444444444,0,0,0.010850694444444444,0,0)" xlink:href="#aW"/><use transform="matrix(0.010850694444444444,0,0,0.010850694444444444,14.2578125,0)" xlink:href="#aX"/><use transform="matrix(0.010850694444444444,0,0,0.010850694444444444,21.63628472222222,0)" xlink:href="#aS"/><use transform="matrix(0.010850694444444444,0,0,0.010850694444444444,34.11458333333333,0)" xlink:href="#aT"/><use transform="matrix(0.010850694444444444,0,0,0.010850694444444444,42.827690972222214,0)" xlink:href="#aX"/></g><path d="M2048-719v166H0v-166h2048" id="aY"/><use transform="matrix(0.010850694444444444,0,0,0.010850694444444444,0,0)" xlink:href="#aY" id="h"/><path d="M370-1490V0H180v-1490h190" id="aZ"/><path d="M338-670V0H158v-1118h173l1 207c72-158 192-221 342-221 226 0 378 139 378 422V0H872v-695c0-172-96-275-252-275-161 0-282 109-282 300" id="ba"/><path d="M613 24c-304 0-509-231-509-576 0-350 205-580 509-580 216 0 392 114 453 309l-173 49c-33-115-133-197-280-197-223 0-326 196-326 419 0 220 103 415 326 415 150 0 252-85 285-206l172 49C1010-95 832 24 613 24" id="bb"/><path d="M158 0v-1118h175l1 205c55-151 181-225 313-225 147 0 245 90 285 228 53-141 190-228 352-228 194 0 352 125 352 384V0h-181v-749c0-161-105-225-225-225-151 0-243 103-243 244V0H807v-767c0-124-93-207-219-207-131 0-250 92-250 270V0H158" id="bc"/><path d="M611 442c-248 0-391-105-460-228l146-94c47 65 117 165 314 165 178 0 307-82 307-266v-224h-17C863-141 792-18 576-18c-268 0-472-195-472-546 0-346 197-568 476-568 216 0 288 133 326 193h17v-179h175V29c0 289-215 413-487 413zm-5-620c203 0 314-146 314-390 0-237-108-403-314-403-213 0-319 180-319 403 0 230 109 390 319 390" id="bd"/><g id="i"><use transform="matrix(0.010850694444444444,0,0,0.010850694444444444,0,0)" xlink:href="#aZ"/><use transform="matrix(0.010850694444444444,0,0,0.010850694444444444,5.967881944444445,0)" xlink:href="#ba"/><use transform="matrix(0.010850694444444444,0,0,0.010850694444444444,19.09722222222222,0)" xlink:href="#bb"/><use transform="matrix(0.010850694444444444,0,0,0.010850694444444444,31.79253472222222,0)" xlink:href="#aV"/><use transform="matrix(0.010850694444444444,0,0,0.010850694444444444,45.1171875,0)" xlink:href="#bc"/><use transform="matrix(0.010850694444444444,0,0,0.010850694444444444,64.58333333333333,0)" xlink:href="#aN"/><use transform="matrix(0.010850694444444444,0,0,0.010850694444444444,69.96527777777777,0)" xlink:href="#ba"/><use transform="matrix(0.010850694444444444,0,0,0.010850694444444444,83.09461805555554,0)" xlink:href="#bd"/></g><path d="M180 0v-1490h190v644h782v-644h190V0h-190v-678H370V0H180" id="be"/><path d="M98-1322v-168h1126v168H757V0H567v-1322H98" id="bf"/><path d="M180 0v-1490h510c348 0 508 209 508 474 0 266-160 477-507 477H370V0H180zm190-706h312c236 0 327-133 327-310 0-176-91-307-329-307H370v617" id="bg"/><g id="j"><use transform="matrix(0.010850694444444444,0,0,0.010850694444444444,0,0)" xlink:href="#be"/><use transform="matrix(0.010850694444444444,0,0,0.010850694444444444,16.514756944444443,0)" xlink:href="#bf"/><use transform="matrix(0.010850694444444444,0,0,0.010850694444444444,30.859375,0)" xlink:href="#bf"/><use transform="matrix(0.010850694444444444,0,0,0.010850694444444444,45.20399305555556,0)" xlink:href="#bg"/></g><path d="M1096 418H916v-591h-14C865-111 790 24 577 24c-279 0-473-224-473-580 0-354 195-576 474-576 218 0 287 134 324 193h20v-179h174V418zM604-137c203 0 314-172 314-421 0-247-108-413-314-413-212 0-317 181-317 413 0 235 108 421 317 421" id="bh"/><path d="M537 14c-226 0-379-139-379-422v-710h180v695c0 172 97 275 253 275 160 0 281-109 281-300v-670h181V0H879v-209C806-46 684 14 537 14" id="bi"/><path d="M538 24C308 24 148-78 108-271l171-41c32 123 123 178 257 178 156 0 256-77 256-169 0-77-54-128-164-154l-186-44c-203-48-300-148-300-305 0-192 176-326 414-326 230 0 351 112 402 269l-163 42c-31-80-94-158-238-158-133 0-233 69-233 162 0 83 57 129 188 160l169 40c203 48 298 149 298 302 0 196-179 339-441 339" id="bj"/><g id="k"><use transform="matrix(0.010850694444444444,0,0,0.010850694444444444,0,0)" xlink:href="#aT"/><use transform="matrix(0.010850694444444444,0,0,0.010850694444444444,7.996961805555555,0)" xlink:href="#aQ"/><use transform="matrix(0.010850694444444444,0,0,0.010850694444444444,20.95269097222222,0)" xlink:href="#bh"/><use transform="matrix(0.010850694444444444,0,0,0.010850694444444444,34.55946180555556,0)" xlink:href="#bi"/><use transform="matrix(0.010850694444444444,0,0,0.010850694444444444,47.69965277777778,0)" xlink:href="#aQ"/><use transform="matrix(0.010850694444444444,0,0,0.010850694444444444,60.65538194444444,0)" xlink:href="#bj"/><use transform="matrix(0.010850694444444444,0,0,0.010850694444444444,72.38498263888889,0)" xlink:href="#aX"/></g><g id="l"><use transform="matrix(0.010850694444444444,0,0,0.010850694444444444,0,0)" xlink:href="#aX"/><use transform="matrix(0.010850694444444444,0,0,0.010850694444444444,7.052951388888888,0)" xlink:href="#aV"/></g><path d="M158 418v-1536h174v179h20c37-59 106-193 324-193 279 0 474 222 474 576 0 356-194 580-473 580-213 0-288-135-325-197h-14v591H158zm492-555c209 0 317-186 317-421 0-232-105-413-317-413-206 0-314 166-314 413 0 249 111 421 314 421" id="bk"/><g id="m"><use transform="matrix(0.010850694444444444,0,0,0.010850694444444444,0,0)" xlink:href="#bk"/><use transform="matrix(0.010850694444444444,0,0,0.010850694444444444,13.606770833333332,0)" xlink:href="#aT"/><use transform="matrix(0.010850694444444444,0,0,0.010850694444444444,21.603732638888886,0)" xlink:href="#aV"/><use transform="matrix(0.010850694444444444,0,0,0.010850694444444444,34.928385416666664,0)" xlink:href="#aX"/><use transform="matrix(0.010850694444444444,0,0,0.010850694444444444,41.98133680555556,0)" xlink:href="#aQ"/><use transform="matrix(0.010850694444444444,0,0,0.010850694444444444,54.93706597222222,0)" xlink:href="#bb"/><use transform="matrix(0.010850694444444444,0,0,0.010850694444444444,67.63237847222223,0)" xlink:href="#aX"/><use transform="matrix(0.010850694444444444,0,0,0.010850694444444444,74.68532986111111,0)" xlink:href="#aQ"/><use transform="matrix(0.010850694444444444,0,0,0.010850694444444444,87.64105902777779,0)" xlink:href="#aO"/></g><g id="n"><use transform="matrix(0.010850694444444444,0,0,0.010850694444444444,0,0)" xlink:href="#aT"/><use transform="matrix(0.010850694444444444,0,0,0.010850694444444444,7.996961805555555,0)" xlink:href="#aV"/><use transform="matrix(0.010850694444444444,0,0,0.010850694444444444,21.321614583333332,0)" xlink:href="#bi"/><use transform="matrix(0.010850694444444444,0,0,0.010850694444444444,34.46180555555556,0)" xlink:href="#aX"/><use transform="matrix(0.010850694444444444,0,0,0.010850694444444444,41.51475694444445,0)" xlink:href="#aQ"/></g><path d="M180 0v-1490h908v168H370v486h669v168H370v500h727V0H180" id="bl"/><path d="M65 0l393-574-370-544h210c88 136 192 297 267 435 67-142 176-302 264-435h206L661-564 1053 0H844c-94-144-206-310-287-458C484-308 366-142 273 0H65" id="bm"/><g id="o"><use transform="matrix(0.010850694444444444,0,0,0.010850694444444444,0,0)" xlink:href="#bl"/><use transform="matrix(0.010850694444444444,0,0,0.010850694444444444,13.35720486111111,0)" xlink:href="#bm"/><use transform="matrix(0.010850694444444444,0,0,0.010850694444444444,25.92230902777778,0)" xlink:href="#aX"/><use transform="matrix(0.010850694444444444,0,0,0.010850694444444444,33.19227430555556,0)" xlink:href="#aT"/><use transform="matrix(0.010850694444444444,0,0,0.010850694444444444,41.55815972222222,0)" xlink:href="#aS"/><use transform="matrix(0.010850694444444444,0,0,0.010850694444444444,54.03645833333333,0)" xlink:href="#bb"/><use transform="matrix(0.010850694444444444,0,0,0.010850694444444444,66.73177083333333,0)" xlink:href="#aX"/></g><path d="M545 20c-263 0-445-160-445-446v-80h190v80c0 182 102 279 255 279 152 0 254-97 254-279v-1064h190v1064c0 286-181 446-444 446" id="bn"/><path d="M458 0L52-1490h194c108 439 233 855 324 1313 92-459 221-873 331-1313h216c110 438 234 854 330 1307 92-455 216-869 323-1307h196L1558 0h-221l-256-944c-26-95-50-200-73-331-22 122-44 223-73 331L680 0H458" id="bo"/><g id="p"><use transform="matrix(0.010850694444444444,0,0,0.010850694444444444,0,0)" xlink:href="#bn"/><use transform="matrix(0.010850694444444444,0,0,0.010850694444444444,12.684461805555555,0)" xlink:href="#bo"/><use transform="matrix(0.010850694444444444,0,0,0.010850694444444444,34.58116319444444,0)" xlink:href="#bf"/></g><path d="M158 0v-1490h180v865h22l478-493h223L593-638 1096 0H865L456-523 338-412V0H158" id="bp"/><g id="q"><use transform="matrix(0.010850694444444444,0,0,0.010850694444444444,0,0)" xlink:href="#aX"/><use transform="matrix(0.010850694444444444,0,0,0.010850694444444444,7.052951388888888,0)" xlink:href="#aV"/><use transform="matrix(0.010850694444444444,0,0,0.010850694444444444,20.377604166666664,0)" xlink:href="#bp"/><use transform="matrix(0.010850694444444444,0,0,0.010850694444444444,32.07465277777778,0)" xlink:href="#aQ"/><use transform="matrix(0.010850694444444444,0,0,0.010850694444444444,45.03038194444444,0)" xlink:href="#ba"/></g><path d="M678-1118v154H420V0H240v-964H20v-154h220v-149c0-194 155-293 318-293 85 0 141 18 168 30l-50 154c-19-6-47-17-97-17-111 0-159 58-159 166v109h258" id="bq"/><g id="r"><use transform="matrix(0.010850694444444444,0,0,0.010850694444444444,0,0)" xlink:href="#bq"/><use transform="matrix(0.010850694444444444,0,0,0.010850694444444444,8.22482638888889,0)" xlink:href="#aT"/><use transform="matrix(0.010850694444444444,0,0,0.010850694444444444,16.221788194444443,0)" xlink:href="#aV"/><use transform="matrix(0.010850694444444444,0,0,0.010850694444444444,29.54644097222222,0)" xlink:href="#bc"/></g><g id="s"><use transform="matrix(0.010850694444444444,0,0,0.010850694444444444,0,0)" xlink:href="#aT"/><use transform="matrix(0.010850694444444444,0,0,0.010850694444444444,7.996961805555555,0)" xlink:href="#aQ"/><use transform="matrix(0.010850694444444444,0,0,0.010850694444444444,20.95269097222222,0)" xlink:href="#bh"/><use transform="matrix(0.010850694444444444,0,0,0.010850694444444444,34.55946180555556,0)" xlink:href="#bi"/><use transform="matrix(0.010850694444444444,0,0,0.010850694444444444,47.69965277777778,0)" xlink:href="#aQ"/><use transform="matrix(0.010850694444444444,0,0,0.010850694444444444,60.65538194444444,0)" xlink:href="#bj"/><use transform="matrix(0.010850694444444444,0,0,0.010850694444444444,72.38498263888889,0)" xlink:href="#aX"/></g><path d="M338-670V0H158v-1490h180v566c73-149 190-208 336-208 226 0 379 139 379 422V0H872v-695c0-172-96-275-252-275-161 0-282 109-282 300" id="br"/><path d="M126 0v-134l627-806v-11H146v-167h839v143L376-178v11h629V0H126" id="bs"/><g id="t"><use transform="matrix(0.010850694444444444,0,0,0.010850694444444444,0,0)" xlink:href="#aK"/><use transform="matrix(0.010850694444444444,0,0,0.010850694444444444,15.33203125,0)" xlink:href="#bi"/><use transform="matrix(0.010850694444444444,0,0,0.010850694444444444,28.47222222222222,0)" xlink:href="#aX"/><use transform="matrix(0.010850694444444444,0,0,0.010850694444444444,35.7421875,0)" xlink:href="#br"/><use transform="matrix(0.010850694444444444,0,0,0.010850694444444444,48.88237847222222,0)" xlink:href="#aV"/><use transform="matrix(0.010850694444444444,0,0,0.010850694444444444,62.20703125,0)" xlink:href="#aT"/><use transform="matrix(0.010850694444444444,0,0,0.010850694444444444,70.92013888888889,0)" xlink:href="#aN"/><use transform="matrix(0.010850694444444444,0,0,0.010850694444444444,76.30208333333333,0)" xlink:href="#bs"/><use transform="matrix(0.010850694444444444,0,0,0.010850694444444444,88.57421875,0)" xlink:href="#aS"/><use transform="matrix(0.010850694444444444,0,0,0.010850694444444444,101.05251736111111,0)" xlink:href="#aX"/><use transform="matrix(0.010850694444444444,0,0,0.010850694444444444,108.32248263888889,0)" xlink:href="#aN"/><use transform="matrix(0.010850694444444444,0,0,0.010850694444444444,113.70442708333333,0)" xlink:href="#aV"/><use transform="matrix(0.010850694444444444,0,0,0.010850694444444444,127.0290798611111,0)" xlink:href="#ba"/></g><g id="u"><use transform="matrix(0.010850694444444444,0,0,0.010850694444444444,0,0)" xlink:href="#br"/><use transform="matrix(0.010850694444444444,0,0,0.010850694444444444,13.140190972222221,0)" xlink:href="#aQ"/><use transform="matrix(0.010850694444444444,0,0,0.010850694444444444,26.31293402777778,0)" xlink:href="#aS"/><use transform="matrix(0.010850694444444444,0,0,0.010850694444444444,38.791232638888886,0)" xlink:href="#aO"/><use transform="matrix(0.010850694444444444,0,0,0.010850694444444444,52.39800347222221,0)" xlink:href="#aQ"/><use transform="matrix(0.010850694444444444,0,0,0.010850694444444444,65.35373263888889,0)" xlink:href="#aT"/></g><g id="v"><use transform="matrix(0.010850694444444444,0,0,0.010850694444444444,0,0)" xlink:href="#bf"/><use transform="matrix(0.010850694444444444,0,0,0.010850694444444444,12.608506944444445,0)" xlink:href="#aV"/><use transform="matrix(0.010850694444444444,0,0,0.010850694444444444,25.93315972222222,0)" xlink:href="#bp"/><use transform="matrix(0.010850694444444444,0,0,0.010850694444444444,37.630208333333336,0)" xlink:href="#aQ"/><use transform="matrix(0.010850694444444444,0,0,0.010850694444444444,50.5859375,0)" xlink:href="#ba"/></g><path d="M383-449c-3-277 82-343 222-425 88-53 156-134 156-250 0-139-108-227-243-227-118 0-235 70-246 236H82c10-251 200-395 436-395 259 0 427 165 427 393 0 161-74 273-203 352-132 80-180 132-178 316H383zm93 462c-75 0-135-60-135-134 0-75 60-135 135-135 74 0 134 60 134 135 0 74-60 134-134 134" id="bt"/><g id="w"><use transform="matrix(0.010850694444444444,0,0,0.010850694444444444,0,0)" xlink:href="#bg"/><use transform="matrix(0.010850694444444444,0,0,0.010850694444444444,14.192708333333332,0)" xlink:href="#aT"/><use transform="matrix(0.010850694444444444,0,0,0.010850694444444444,22.189670138888886,0)" xlink:href="#aQ"/><use transform="matrix(0.010850694444444444,0,0,0.010850694444444444,35.14539930555555,0)" xlink:href="#bj"/><use transform="matrix(0.010850694444444444,0,0,0.010850694444444444,46.874999999999986,0)" xlink:href="#aQ"/><use transform="matrix(0.010850694444444444,0,0,0.010850694444444444,59.83072916666666,0)" xlink:href="#ba"/><use transform="matrix(0.010850694444444444,0,0,0.010850694444444444,72.96006944444443,0)" xlink:href="#aX"/><use transform="matrix(0.010850694444444444,0,0,0.010850694444444444,80.2300347222222,0)" xlink:href="#bt"/></g><g id="x"><use transform="matrix(0.010850694444444444,0,0,0.010850694444444444,0,0)" xlink:href="#aI"/><use transform="matrix(0.010850694444444444,0,0,0.010850694444444444,13.975694444444445,0)" xlink:href="#aQ"/><use transform="matrix(0.010850694444444444,0,0,0.010850694444444444,26.931423611111104,0)" xlink:href="#bj"/><use transform="matrix(0.010850694444444444,0,0,0.010850694444444444,38.66102430555555,0)" xlink:href="#bk"/><use transform="matrix(0.010850694444444444,0,0,0.010850694444444444,52.267795138888886,0)" xlink:href="#aV"/><use transform="matrix(0.010850694444444444,0,0,0.010850694444444444,65.59244791666666,0)" xlink:href="#ba"/><use transform="matrix(0.010850694444444444,0,0,0.010850694444444444,78.72178819444443,0)" xlink:href="#aO"/></g><path d="M120-303v-155l652-1032h231v1020h202v167h-202V0H821v-303H120zm702-167v-782h-12L323-482v12h499" id="bu"/><path d="M646 20c-332 0-524-278-524-764 0-483 194-766 524-766s524 283 524 766c0 485-191 764-524 764zm0-166c218 0 341-220 341-598 0-380-123-601-341-601s-341 222-341 601c0 378 123 598 341 598" id="bv"/><path d="M653-1490V0H466v-1314h-10L96-1047v-204l324-239h233" id="bw"/><g id="y"><use transform="matrix(0.010850694444444444,0,0,0.010850694444444444,0,0)" xlink:href="#bu"/><use transform="matrix(0.010850694444444444,0,0,0.010850694444444444,14.35546875,0)" xlink:href="#bv"/><use transform="matrix(0.010850694444444444,0,0,0.010850694444444444,28.37456597222222,0)" xlink:href="#bw"/></g><path d="M763 24c-353 0-583-224-583-531v-983h190v968c0 214 149 370 393 370 243 0 391-156 391-370v-968h190v983c0 307-230 531-581 531" id="bx"/><g id="z"><use transform="matrix(0.010850694444444444,0,0,0.010850694444444444,0,0)" xlink:href="#bx"/><use transform="matrix(0.010850694444444444,0,0,0.010850694444444444,16.536458333333332,0)" xlink:href="#ba"/><use transform="matrix(0.010850694444444444,0,0,0.010850694444444444,29.665798611111104,0)" xlink:href="#aS"/><use transform="matrix(0.010850694444444444,0,0,0.010850694444444444,42.144097222222214,0)" xlink:href="#bi"/><use transform="matrix(0.010850694444444444,0,0,0.010850694444444444,55.284288194444436,0)" xlink:href="#aX"/><use transform="matrix(0.010850694444444444,0,0,0.010850694444444444,62.55425347222221,0)" xlink:href="#br"/><use transform="matrix(0.010850694444444444,0,0,0.010850694444444444,75.69444444444443,0)" xlink:href="#aV"/><use transform="matrix(0.010850694444444444,0,0,0.010850694444444444,89.0190972222222,0)" xlink:href="#aT"/><use transform="matrix(0.010850694444444444,0,0,0.010850694444444444,97.73220486111111,0)" xlink:href="#aN"/><use transform="matrix(0.010850694444444444,0,0,0.010850694444444444,103.11414930555556,0)" xlink:href="#bs"/><use transform="matrix(0.010850694444444444,0,0,0.010850694444444444,115.06076388888889,0)" xlink:href="#aQ"/><use transform="matrix(0.010850694444444444,0,0,0.010850694444444444,128.01649305555554,0)" xlink:href="#aO"/></g><g id="A"><use transform="matrix(0.010850694444444444,0,0,0.010850694444444444,0,0)" xlink:href="#bf"/><use transform="matrix(0.010850694444444444,0,0,0.010850694444444444,12.608506944444445,0)" xlink:href="#aV"/><use transform="matrix(0.010850694444444444,0,0,0.010850694444444444,25.93315972222222,0)" xlink:href="#bp"/><use transform="matrix(0.010850694444444444,0,0,0.010850694444444444,37.630208333333336,0)" xlink:href="#aQ"/><use transform="matrix(0.010850694444444444,0,0,0.010850694444444444,50.5859375,0)" xlink:href="#ba"/></g><g id="B"><use transform="matrix(0.010850694444444444,0,0,0.010850694444444444,0,0)" xlink:href="#bc"/><use transform="matrix(0.010850694444444444,0,0,0.010850694444444444,19.466145833333332,0)" xlink:href="#aN"/><use transform="matrix(0.010850694444444444,0,0,0.010850694444444444,24.84809027777778,0)" xlink:href="#bj"/><use transform="matrix(0.010850694444444444,0,0,0.010850694444444444,36.57769097222222,0)" xlink:href="#bj"/><use transform="matrix(0.010850694444444444,0,0,0.010850694444444444,48.307291666666664,0)" xlink:href="#aN"/><use transform="matrix(0.010850694444444444,0,0,0.010850694444444444,53.68923611111111,0)" xlink:href="#ba"/><use transform="matrix(0.010850694444444444,0,0,0.010850694444444444,66.81857638888889,0)" xlink:href="#bd"/></g><path d="M600 0L52-1490h200c166 485 304 806 458 1336 156-533 285-846 449-1336h202L819 0H600" id="by"/><path d="M140 405l46-156c120 36 205 19 263-150l32-93L54-1118h197c107 313 237 620 324 950 87-331 219-637 326-950h196L606 167c-68 178-176 259-334 259-64 0-113-12-132-21" id="bz"/><g id="C"><use transform="matrix(0.010850694444444444,0,0,0.010850694444444444,0,0)" xlink:href="#by"/><use transform="matrix(0.010850694444444444,0,0,0.010850694444444444,14.20355902777778,0)" xlink:href="#aQ"/><use transform="matrix(0.010850694444444444,0,0,0.010850694444444444,27.159288194444443,0)" xlink:href="#aT"/><use transform="matrix(0.010850694444444444,0,0,0.010850694444444444,35.87239583333333,0)" xlink:href="#aN"/><use transform="matrix(0.010850694444444444,0,0,0.010850694444444444,41.25434027777777,0)" xlink:href="#bq"/><use transform="matrix(0.010850694444444444,0,0,0.010850694444444444,49.47916666666666,0)" xlink:href="#bz"/></g><g id="D"><use transform="matrix(0.010850694444444444,0,0,0.010850694444444444,0,0)" xlink:href="#bn"/><use transform="matrix(0.010850694444444444,0,0,0.010850694444444444,12.684461805555555,0)" xlink:href="#bo"/><use transform="matrix(0.010850694444444444,0,0,0.010850694444444444,34.58116319444444,0)" xlink:href="#bf"/></g><g id="E"><use transform="matrix(0.010850694444444444,0,0,0.010850694444444444,0,0)" xlink:href="#bj"/><use transform="matrix(0.010850694444444444,0,0,0.010850694444444444,11.729600694444445,0)" xlink:href="#aN"/><use transform="matrix(0.010850694444444444,0,0,0.010850694444444444,17.11154513888889,0)" xlink:href="#bd"/><use transform="matrix(0.010850694444444444,0,0,0.010850694444444444,30.74001736111111,0)" xlink:href="#ba"/><use transform="matrix(0.010850694444444444,0,0,0.010850694444444444,43.869357638888886,0)" xlink:href="#aS"/><use transform="matrix(0.010850694444444444,0,0,0.010850694444444444,56.34765625,0)" xlink:href="#aX"/><use transform="matrix(0.010850694444444444,0,0,0.010850694444444444,63.61762152777778,0)" xlink:href="#bi"/><use transform="matrix(0.010850694444444444,0,0,0.010850694444444444,76.7578125,0)" xlink:href="#aT"/><use transform="matrix(0.010850694444444444,0,0,0.010850694444444444,84.75477430555556,0)" xlink:href="#aQ"/></g><g id="F"><use transform="matrix(0.010850694444444444,0,0,0.010850694444444444,0,0)" xlink:href="#aS"/><use transform="matrix(0.010850694444444444,0,0,0.010850694444444444,12.47829861111111,0)" xlink:href="#ba"/><use transform="matrix(0.010850694444444444,0,0,0.010850694444444444,25.60763888888889,0)" xlink:href="#aO"/></g><g id="G"><use transform="matrix(0.010850694444444444,0,0,0.010850694444444444,0,0)" xlink:href="#aQ"/><use transform="matrix(0.010850694444444444,0,0,0.010850694444444444,12.456597222222221,0)" xlink:href="#bm"/><use transform="matrix(0.010850694444444444,0,0,0.010850694444444444,24.58767361111111,0)" xlink:href="#bk"/><use transform="matrix(0.010850694444444444,0,0,0.010850694444444444,38.19444444444444,0)" xlink:href="#aN"/><use transform="matrix(0.010850694444444444,0,0,0.010850694444444444,43.576388888888886,0)" xlink:href="#aT"/><use transform="matrix(0.010850694444444444,0,0,0.010850694444444444,51.94227430555556,0)" xlink:href="#aS"/><use transform="matrix(0.010850694444444444,0,0,0.010850694444444444,64.42057291666666,0)" xlink:href="#aX"/><use transform="matrix(0.010850694444444444,0,0,0.010850694444444444,71.69053819444443,0)" xlink:href="#aN"/><use transform="matrix(0.010850694444444444,0,0,0.010850694444444444,77.07248263888887,0)" xlink:href="#aV"/><use transform="matrix(0.010850694444444444,0,0,0.010850694444444444,90.39713541666664,0)" xlink:href="#ba"/></g><g id="H"><use transform="matrix(0.010850694444444444,0,0,0.010850694444444444,0,0)" xlink:href="#by"/><use transform="matrix(0.010850694444444444,0,0,0.010850694444444444,14.20355902777778,0)" xlink:href="#aS"/><use transform="matrix(0.010850694444444444,0,0,0.010850694444444444,26.68185763888889,0)" xlink:href="#aP"/><use transform="matrix(0.010850694444444444,0,0,0.010850694444444444,32.063802083333336,0)" xlink:href="#aN"/><use transform="matrix(0.010850694444444444,0,0,0.010850694444444444,37.44574652777778,0)" xlink:href="#aO"/><use transform="matrix(0.010850694444444444,0,0,0.010850694444444444,51.05251736111112,0)" xlink:href="#bt"/></g><path d="M635 20c-292 0-500-160-510-396h192c11 142 145 229 315 229 187 0 323-105 323-260 0-161-125-274-346-274H488v-165h121c174 0 294-100 294-254 0-148-104-245-266-245-152 0-291 85-297 230H157c8-234 222-395 484-395 278 0 448 188 448 400 0 168-95 291-247 336v12c190 31 301 169 301 357 0 244-216 425-508 425" id="bA"/><g id="I"><use transform="matrix(0.010850694444444444,0,0,0.010850694444444444,0,0)" xlink:href="#bu"/><use transform="matrix(0.010850694444444444,0,0,0.010850694444444444,14.35546875,0)" xlink:href="#bv"/><use transform="matrix(0.010850694444444444,0,0,0.010850694444444444,28.37456597222222,0)" xlink:href="#bA"/></g><path d="M677 24c-213 0-288-135-325-197h-20V0H158v-1490h180v551h14c37-59 106-193 324-193 279 0 474 222 474 576 0 356-194 580-473 580zm-27-161c209 0 317-186 317-421 0-232-105-413-317-413-206 0-314 166-314 413 0 249 111 421 314 421" id="bB"/><g id="J"><use transform="matrix(0.010850694444444444,0,0,0.010850694444444444,0,0)" xlink:href="#aU"/><use transform="matrix(0.010850694444444444,0,0,0.010850694444444444,12.239583333333332,0)" xlink:href="#aV"/><use transform="matrix(0.010850694444444444,0,0,0.010850694444444444,25.564236111111104,0)" xlink:href="#aT"/><use transform="matrix(0.010850694444444444,0,0,0.010850694444444444,34.27734374999999,0)" xlink:href="#bB"/><use transform="matrix(0.010850694444444444,0,0,0.010850694444444444,47.88411458333333,0)" xlink:href="#aN"/><use transform="matrix(0.010850694444444444,0,0,0.010850694444444444,53.26605902777778,0)" xlink:href="#aO"/><use transform="matrix(0.010850694444444444,0,0,0.010850694444444444,66.8728298611111,0)" xlink:href="#aO"/><use transform="matrix(0.010850694444444444,0,0,0.010850694444444444,80.47960069444443,0)" xlink:href="#aQ"/><use transform="matrix(0.010850694444444444,0,0,0.010850694444444444,93.43532986111111,0)" xlink:href="#ba"/></g><use transform="matrix(0.010850694444444444,0,0,0.010850694444444444,0,0)" xlink:href="#aY" id="K"/><path d="M481 0L54-1118h197c107 314 236 620 325 951 87-331 217-637 324-951h197L670 0H481" id="bC"/><g id="L"><use transform="matrix(0.010850694444444444,0,0,0.010850694444444444,0,0)" xlink:href="#aZ"/><use transform="matrix(0.010850694444444444,0,0,0.010850694444444444,5.967881944444445,0)" xlink:href="#ba"/><use transform="matrix(0.010850694444444444,0,0,0.010850694444444444,18.77170138888889,0)" xlink:href="#bC"/><use transform="matrix(0.010850694444444444,0,0,0.010850694444444444,31.15234375,0)" xlink:href="#aS"/><use transform="matrix(0.010850694444444444,0,0,0.010850694444444444,43.630642361111114,0)" xlink:href="#aP"/><use transform="matrix(0.010850694444444444,0,0,0.010850694444444444,49.01258680555556,0)" xlink:href="#aN"/><use transform="matrix(0.010850694444444444,0,0,0.010850694444444444,54.39453125,0)" xlink:href="#aO"/></g><g id="M"><use transform="matrix(0.010850694444444444,0,0,0.010850694444444444,0,0)" xlink:href="#aX"/><use transform="matrix(0.010850694444444444,0,0,0.010850694444444444,7.052951388888888,0)" xlink:href="#aV"/><use transform="matrix(0.010850694444444444,0,0,0.010850694444444444,20.377604166666664,0)" xlink:href="#bp"/><use transform="matrix(0.010850694444444444,0,0,0.010850694444444444,32.07465277777778,0)" xlink:href="#aQ"/><use transform="matrix(0.010850694444444444,0,0,0.010850694444444444,45.03038194444444,0)" xlink:href="#ba"/></g><path d="M645 0H180v-1490h484c435 0 692 280 692 742 0 466-257 748-711 748zM370-168h263c363 0 539-218 539-580 0-358-176-574-521-574H370v1154" id="bD"/><g id="N"><use transform="matrix(0.010850694444444444,0,0,0.010850694444444444,0,0)" xlink:href="#bD"/><use transform="matrix(0.010850694444444444,0,0,0.010850694444444444,16.03732638888889,0)" xlink:href="#aQ"/><use transform="matrix(0.010850694444444444,0,0,0.010850694444444444,28.99305555555556,0)" xlink:href="#bb"/><use transform="matrix(0.010850694444444444,0,0,0.010850694444444444,41.68836805555556,0)" xlink:href="#aV"/><use transform="matrix(0.010850694444444444,0,0,0.010850694444444444,55.01302083333333,0)" xlink:href="#aO"/><use transform="matrix(0.010850694444444444,0,0,0.010850694444444444,68.61979166666667,0)" xlink:href="#aQ"/></g><path d="M128 359l88-567h206L266 359H128zM323-796c-75 0-135-60-135-135s60-135 135-135 135 60 135 135-60 135-135 135" id="bE"/><g id="O"><use transform="matrix(0.010850694444444444,0,0,0.010850694444444444,0,0)" xlink:href="#bk"/><use transform="matrix(0.010850694444444444,0,0,0.010850694444444444,13.823784722222221,0)" xlink:href="#aS"/><use transform="matrix(0.010850694444444444,0,0,0.010850694444444444,25.9765625,0)" xlink:href="#bz"/><use transform="matrix(0.010850694444444444,0,0,0.010850694444444444,38.57421875,0)" xlink:href="#aP"/><use transform="matrix(0.010850694444444444,0,0,0.010850694444444444,43.95616319444444,0)" xlink:href="#aV"/><use transform="matrix(0.010850694444444444,0,0,0.010850694444444444,57.49782986111111,0)" xlink:href="#aS"/><use transform="matrix(0.010850694444444444,0,0,0.010850694444444444,69.97612847222221,0)" xlink:href="#aO"/><use transform="matrix(0.010850694444444444,0,0,0.010850694444444444,83.58289930555554,0)" xlink:href="#bE"/></g><g id="P"><use transform="matrix(0.010850694444444444,0,0,0.010850694444444444,0,0)" xlink:href="#aQ"/><use transform="matrix(0.010850694444444444,0,0,0.010850694444444444,12.456597222222221,0)" xlink:href="#bm"/><use transform="matrix(0.010850694444444444,0,0,0.010850694444444444,25.02170138888889,0)" xlink:href="#aX"/><use transform="matrix(0.010850694444444444,0,0,0.010850694444444444,32.291666666666664,0)" xlink:href="#aT"/><use transform="matrix(0.010850694444444444,0,0,0.010850694444444444,40.65755208333333,0)" xlink:href="#aS"/><use transform="matrix(0.010850694444444444,0,0,0.010850694444444444,53.13585069444444,0)" xlink:href="#bb"/><use transform="matrix(0.010850694444444444,0,0,0.010850694444444444,65.83116319444444,0)" xlink:href="#aX"/></g><g id="Q"><use transform="matrix(0.010850694444444444,0,0,0.010850694444444444,0,0)" xlink:href="#bi"/><use transform="matrix(0.010850694444444444,0,0,0.010850694444444444,13.140190972222221,0)" xlink:href="#bj"/><use transform="matrix(0.010850694444444444,0,0,0.010850694444444444,24.869791666666664,0)" xlink:href="#aQ"/><use transform="matrix(0.010850694444444444,0,0,0.010850694444444444,37.82552083333333,0)" xlink:href="#aT"/></g><g id="R"><use transform="matrix(0.010850694444444444,0,0,0.010850694444444444,0,0)" xlink:href="#aZ"/><use transform="matrix(0.010850694444444444,0,0,0.010850694444444444,5.967881944444445,0)" xlink:href="#bD"/></g><g id="S"><use transform="matrix(0.010850694444444444,0,0,0.010850694444444444,0,0)" xlink:href="#aS"/><use transform="matrix(0.010850694444444444,0,0,0.010850694444444444,12.47829861111111,0)" xlink:href="#ba"/><use transform="matrix(0.010850694444444444,0,0,0.010850694444444444,25.60763888888889,0)" xlink:href="#aO"/></g><g id="T"><use transform="matrix(0.010850694444444444,0,0,0.010850694444444444,0,0)" xlink:href="#aT"/><use transform="matrix(0.010850694444444444,0,0,0.010850694444444444,7.996961805555555,0)" xlink:href="#aV"/><use transform="matrix(0.010850694444444444,0,0,0.010850694444444444,21.321614583333332,0)" xlink:href="#aP"/><use transform="matrix(0.010850694444444444,0,0,0.010850694444444444,26.70355902777778,0)" xlink:href="#aQ"/></g><g id="U"><use transform="matrix(0.010850694444444444,0,0,0.010850694444444444,0,0)" xlink:href="#aZ"/><use transform="matrix(0.010850694444444444,0,0,0.010850694444444444,5.967881944444445,0)" xlink:href="#bD"/></g><g id="V"><use transform="matrix(0.010850694444444444,0,0,0.010850694444444444,0,0)" xlink:href="#aM"/><use transform="matrix(0.010850694444444444,0,0,0.010850694444444444,20.07378472222222,0)" xlink:href="#aS"/><use transform="matrix(0.010850694444444444,0,0,0.010850694444444444,32.55208333333333,0)" xlink:href="#bk"/></g><g id="W"><use transform="matrix(0.010850694444444444,0,0,0.010850694444444444,0,0)" xlink:href="#aX"/><use transform="matrix(0.010850694444444444,0,0,0.010850694444444444,7.052951388888888,0)" xlink:href="#aV"/></g><g id="X"><use transform="matrix(0.010850694444444444,0,0,0.010850694444444444,0,0)" xlink:href="#aT"/><use transform="matrix(0.010850694444444444,0,0,0.010850694444444444,7.996961805555555,0)" xlink:href="#aV"/><use transform="matrix(0.010850694444444444,0,0,0.010850694444444444,21.321614583333332,0)" xlink:href="#aP"/><use transform="matrix(0.010850694444444444,0,0,0.010850694444444444,26.70355902777778,0)" xlink:href="#aQ"/></g><g id="Y"><use transform="matrix(0.010850694444444444,0,0,0.010850694444444444,0,0)" xlink:href="#ba"/><use transform="matrix(0.010850694444444444,0,0,0.010850694444444444,13.129340277777777,0)" xlink:href="#aS"/><use transform="matrix(0.010850694444444444,0,0,0.010850694444444444,25.60763888888889,0)" xlink:href="#bc"/><use transform="matrix(0.010850694444444444,0,0,0.010850694444444444,45.07378472222221,0)" xlink:href="#aQ"/></g><path d="M218-607c0-325 108-727 258-974h175c-155 315-250 682-250 974 0 265 78 531 250 886H476C306-10 218-315 218-607" id="bF"/><path d="M295 13c-75 0-135-60-135-135s60-135 135-135 135 60 135 135S370 13 295 13" id="bG"/><path d="M128 359l88-567h206L266 359H128" id="bH"/><g id="Z"><use transform="matrix(0.010850694444444444,0,0,0.010850694444444444,0,0)" xlink:href="#bF"/><use transform="matrix(0.010850694444444444,0,0,0.010850694444444444,7.855902777777778,0)" xlink:href="#aQ"/><use transform="matrix(0.010850694444444444,0,0,0.010850694444444444,20.811631944444443,0)" xlink:href="#bG"/><use transform="matrix(0.010850694444444444,0,0,0.010850694444444444,27.213541666666664,0)" xlink:href="#bd"/><use transform="matrix(0.010850694444444444,0,0,0.010850694444444444,40.842013888888886,0)" xlink:href="#bG"/><use transform="matrix(0.010850694444444444,0,0,0.010850694444444444,47.24392361111111,0)" xlink:href="#bH"/></g><g id="aa"><use transform="matrix(0.010850694444444444,0,0,0.010850694444444444,0,0)" xlink:href="#aK"/><use transform="matrix(0.010850694444444444,0,0,0.010850694444444444,15.33203125,0)" xlink:href="#aO"/><use transform="matrix(0.010850694444444444,0,0,0.010850694444444444,28.938802083333332,0)" xlink:href="#bc"/><use transform="matrix(0.010850694444444444,0,0,0.010850694444444444,48.404947916666664,0)" xlink:href="#aN"/><use transform="matrix(0.010850694444444444,0,0,0.010850694444444444,53.78689236111111,0)" xlink:href="#ba"/><use transform="matrix(0.010850694444444444,0,0,0.010850694444444444,66.91623263888889,0)" xlink:href="#bH"/></g><g id="ab"><use transform="matrix(0.010850694444444444,0,0,0.010850694444444444,0,0)" xlink:href="#aM"/><use transform="matrix(0.010850694444444444,0,0,0.010850694444444444,20.07378472222222,0)" xlink:href="#aS"/><use transform="matrix(0.010850694444444444,0,0,0.010850694444444444,32.55208333333333,0)" xlink:href="#ba"/><use transform="matrix(0.010850694444444444,0,0,0.010850694444444444,45.68142361111111,0)" xlink:href="#aS"/><use transform="matrix(0.010850694444444444,0,0,0.010850694444444444,58.15972222222221,0)" xlink:href="#bd"/><use transform="matrix(0.010850694444444444,0,0,0.010850694444444444,71.78819444444443,0)" xlink:href="#aQ"/><use transform="matrix(0.010850694444444444,0,0,0.010850694444444444,84.7439236111111,0)" xlink:href="#aT"/><use transform="matrix(0.010850694444444444,0,0,0.010850694444444444,91.72092013888889,0)" xlink:href="#bH"/></g><path d="M96 279C273-86 346-350 346-607c0-292-95-659-250-974h175c150 246 258 650 258 974 0 297-91 602-258 886H96" id="bI"/><g id="ac"><use transform="matrix(0.010850694444444444,0,0,0.010850694444444444,0,0)" xlink:href="#by"/><use transform="matrix(0.010850694444444444,0,0,0.010850694444444444,15.33203125,0)" xlink:href="#aN"/><use transform="matrix(0.010850694444444444,0,0,0.010850694444444444,20.713975694444443,0)" xlink:href="#aQ"/><use transform="matrix(0.010850694444444444,0,0,0.010850694444444444,33.268229166666664,0)" xlink:href="#aR"/><use transform="matrix(0.010850694444444444,0,0,0.010850694444444444,51.05251736111112,0)" xlink:href="#aQ"/><use transform="matrix(0.010850694444444444,0,0,0.010850694444444444,64.00824652777779,0)" xlink:href="#aT"/><use transform="matrix(0.010850694444444444,0,0,0.010850694444444444,72.37413194444446,0)" xlink:href="#bI"/></g><g id="ad"><use transform="matrix(0.010850694444444444,0,0,0.010850694444444444,0,0)" xlink:href="#aZ"/><use transform="matrix(0.010850694444444444,0,0,0.010850694444444444,5.967881944444445,0)" xlink:href="#bj"/></g><g id="ae"><use transform="matrix(0.010850694444444444,0,0,0.010850694444444444,0,0)" xlink:href="#aN"/><use transform="matrix(0.010850694444444444,0,0,0.010850694444444444,5.381944444444445,0)" xlink:href="#ba"/></g><g id="af"><use transform="matrix(0.010850694444444444,0,0,0.010850694444444444,0,0)" xlink:href="#bk"/><use transform="matrix(0.010850694444444444,0,0,0.010850694444444444,13.606770833333332,0)" xlink:href="#aQ"/><use transform="matrix(0.010850694444444444,0,0,0.010850694444444444,26.5625,0)" xlink:href="#aT"/><use transform="matrix(0.010850694444444444,0,0,0.010850694444444444,35.275607638888886,0)" xlink:href="#bc"/><use transform="matrix(0.010850694444444444,0,0,0.010850694444444444,54.74175347222221,0)" xlink:href="#aN"/><use transform="matrix(0.010850694444444444,0,0,0.010850694444444444,60.12369791666666,0)" xlink:href="#aX"/><use transform="matrix(0.010850694444444444,0,0,0.010850694444444444,66.85112847222221,0)" xlink:href="#aX"/><use transform="matrix(0.010850694444444444,0,0,0.010850694444444444,73.9040798611111,0)" xlink:href="#aQ"/><use transform="matrix(0.010850694444444444,0,0,0.010850694444444444,86.85980902777777,0)" xlink:href="#aO"/></g><g id="ag"><use transform="matrix(0.010850694444444444,0,0,0.010850694444444444,0,0)" xlink:href="#aT"/><use transform="matrix(0.010850694444444444,0,0,0.010850694444444444,7.996961805555555,0)" xlink:href="#aV"/><use transform="matrix(0.010850694444444444,0,0,0.010850694444444444,21.321614583333332,0)" xlink:href="#aP"/><use transform="matrix(0.010850694444444444,0,0,0.010850694444444444,26.70355902777778,0)" xlink:href="#aQ"/><use transform="matrix(0.010850694444444444,0,0,0.010850694444444444,39.65928819444444,0)" xlink:href="#bj"/></g><g id="ah"><use transform="matrix(0.010850694444444444,0,0,0.010850694444444444,0,0)" xlink:href="#bq"/><use transform="matrix(0.010850694444444444,0,0,0.010850694444444444,7.573784722222222,0)" xlink:href="#aV"/><use transform="matrix(0.010850694444444444,0,0,0.010850694444444444,20.8984375,0)" xlink:href="#aT"/></g><g id="ai"><use transform="matrix(0.010850694444444444,0,0,0.010850694444444444,0,0)" xlink:href="#aX"/><use transform="matrix(0.010850694444444444,0,0,0.010850694444444444,7.269965277777778,0)" xlink:href="#br"/><use transform="matrix(0.010850694444444444,0,0,0.010850694444444444,20.41015625,0)" xlink:href="#aN"/><use transform="matrix(0.010850694444444444,0,0,0.010850694444444444,25.792100694444443,0)" xlink:href="#bj"/></g><g id="aj"><use transform="matrix(0.010850694444444444,0,0,0.010850694444444444,0,0)" xlink:href="#aT"/><use transform="matrix(0.010850694444444444,0,0,0.010850694444444444,7.996961805555555,0)" xlink:href="#aV"/><use transform="matrix(0.010850694444444444,0,0,0.010850694444444444,21.321614583333332,0)" xlink:href="#bi"/><use transform="matrix(0.010850694444444444,0,0,0.010850694444444444,34.46180555555556,0)" xlink:href="#aX"/><use transform="matrix(0.010850694444444444,0,0,0.010850694444444444,41.51475694444445,0)" xlink:href="#aQ"/><use transform="matrix(0.010850694444444444,0,0,0.010850694444444444,54.47048611111112,0)" xlink:href="#bt"/></g><g id="ak"><use transform="matrix(0.010850694444444444,0,0,0.010850694444444444,0,0)" xlink:href="#aK"/><use transform="matrix(0.010850694444444444,0,0,0.010850694444444444,15.33203125,0)" xlink:href="#bb"/><use transform="matrix(0.010850694444444444,0,0,0.010850694444444444,28.02734375,0)" xlink:href="#bb"/><use transform="matrix(0.010850694444444444,0,0,0.010850694444444444,40.72265625,0)" xlink:href="#aQ"/><use transform="matrix(0.010850694444444444,0,0,0.010850694444444444,53.678385416666664,0)" xlink:href="#bj"/><use transform="matrix(0.010850694444444444,0,0,0.010850694444444444,65.40798611111111,0)" xlink:href="#bj"/></g><g id="al"><use transform="matrix(0.010850694444444444,0,0,0.010850694444444444,0,0)" xlink:href="#aO"/><use transform="matrix(0.010850694444444444,0,0,0.010850694444444444,13.606770833333332,0)" xlink:href="#aQ"/><use transform="matrix(0.010850694444444444,0,0,0.010850694444444444,26.5625,0)" xlink:href="#ba"/><use transform="matrix(0.010850694444444444,0,0,0.010850694444444444,39.69184027777778,0)" xlink:href="#aN"/><use transform="matrix(0.010850694444444444,0,0,0.010850694444444444,45.07378472222222,0)" xlink:href="#aQ"/><use transform="matrix(0.010850694444444444,0,0,0.010850694444444444,58.029513888888886,0)" xlink:href="#aO"/></g><g id="am"><use transform="matrix(0.010850694444444444,0,0,0.010850694444444444,0,0)" xlink:href="#aK"/><use transform="matrix(0.010850694444444444,0,0,0.010850694444444444,15.33203125,0)" xlink:href="#aP"/><use transform="matrix(0.010850694444444444,0,0,0.010850694444444444,20.713975694444443,0)" xlink:href="#aP"/><use transform="matrix(0.010850694444444444,0,0,0.010850694444444444,26.09592013888889,0)" xlink:href="#aV"/><use transform="matrix(0.010850694444444444,0,0,0.010850694444444444,39.01909722222222,0)" xlink:href="#aR"/></g><g id="an"><use transform="matrix(0.010850694444444444,0,0,0.010850694444444444,0,0)" xlink:href="#aS"/><use transform="matrix(0.010850694444444444,0,0,0.010850694444444444,12.47829861111111,0)" xlink:href="#bb"/><use transform="matrix(0.010850694444444444,0,0,0.010850694444444444,25.17361111111111,0)" xlink:href="#bb"/><use transform="matrix(0.010850694444444444,0,0,0.010850694444444444,37.868923611111114,0)" xlink:href="#aQ"/><use transform="matrix(0.010850694444444444,0,0,0.010850694444444444,50.82465277777778,0)" xlink:href="#bj"/><use transform="matrix(0.010850694444444444,0,0,0.010850694444444444,62.55425347222222,0)" xlink:href="#bj"/><use transform="matrix(0.010850694444444444,0,0,0.010850694444444444,74.28385416666667,0)" xlink:href="#bE"/></g><g id="ao"><use transform="matrix(0.010850694444444444,0,0,0.010850694444444444,0,0)" xlink:href="#bb"/><use transform="matrix(0.010850694444444444,0,0,0.010850694444444444,12.91232638888889,0)" xlink:href="#aS"/><use transform="matrix(0.010850694444444444,0,0,0.010850694444444444,25.390625,0)" xlink:href="#aP"/><use transform="matrix(0.010850694444444444,0,0,0.010850694444444444,30.772569444444443,0)" xlink:href="#aP"/></g><g id="ap"><use transform="matrix(0.010850694444444444,0,0,0.010850694444444444,0,0)" xlink:href="#ba"/><use transform="matrix(0.010850694444444444,0,0,0.010850694444444444,13.129340277777777,0)" xlink:href="#aQ"/><use transform="matrix(0.010850694444444444,0,0,0.010850694444444444,25.5859375,0)" xlink:href="#bm"/><use transform="matrix(0.010850694444444444,0,0,0.010850694444444444,38.15104166666667,0)" xlink:href="#aX"/></g><g id="aq"><use transform="matrix(0.010850694444444444,0,0,0.010850694444444444,0,0)" xlink:href="#br"/><use transform="matrix(0.010850694444444444,0,0,0.010850694444444444,13.140190972222221,0)" xlink:href="#aS"/><use transform="matrix(0.010850694444444444,0,0,0.010850694444444444,25.618489583333332,0)" xlink:href="#ba"/><use transform="matrix(0.010850694444444444,0,0,0.010850694444444444,38.74782986111111,0)" xlink:href="#aO"/><use transform="matrix(0.010850694444444444,0,0,0.010850694444444444,52.35460069444444,0)" xlink:href="#aP"/><use transform="matrix(0.010850694444444444,0,0,0.010850694444444444,57.736545138888886,0)" xlink:href="#aQ"/><use transform="matrix(0.010850694444444444,0,0,0.010850694444444444,70.69227430555556,0)" xlink:href="#aT"/></g><g id="ar"><use transform="matrix(0.010850694444444444,0,0,0.010850694444444444,0,0)" xlink:href="#bl"/><use transform="matrix(0.010850694444444444,0,0,0.010850694444444444,13.35720486111111,0)" xlink:href="#ba"/><use transform="matrix(0.010850694444444444,0,0,0.010850694444444444,26.48654513888889,0)" xlink:href="#aO"/></g><path fill="#3a414a" d="M135 0v-1490h340l471 754c59 97 122 210 187 365-32-387-14-721-19-1119h312V0h-341C855-382 627-689 427-1113c32 420 16 695 20 1113H135" id="bJ"/><path fill="#3a414a" d="M628 22C291 22 81-210 81-554c0-346 210-578 547-578 336 0 547 232 547 578 0 344-211 576-547 576zm0-236c160 0 242-146 242-341 0-197-82-341-242-341S387-753 387-555c0 195 81 341 241 341" id="bK"/><g id="as"><use transform="matrix(0.008680555555555556,0,0,0.008680555555555556,0,0)" xlink:href="#bJ"/><use transform="matrix(0.008680555555555556,0,0,0.008680555555555556,13.550347222222223,0)" xlink:href="#bK"/></g><path fill="#3a414a" d="M601 0v-560L49-1490h357l252 464c38 68 67 130 97 208 96-243 225-446 337-672h356L905-560V0H601" id="bL"/><path fill="#3a414a" d="M633 22C291 22 81-200 81-553c0-345 210-579 537-579 292 0 525 185 525 567v84H378c7 183 109 277 260 277 105 0 184-46 216-132l272 51C1071-99 893 22 633 22zM380-669h474c-15-146-94-237-233-237-143 0-229 99-241 237" id="bM"/><path fill="#3a414a" d="M572 22C302 22 117-98 78-306l279-48c29 105 101 156 224 156 114 0 185-48 185-115 0-118-228-130-337-155-215-49-322-150-322-317 0-215 187-347 470-347 265 0 424 116 466 298l-266 47c-24-76-87-130-196-130-98 0-174 46-174 113 0 56 38 95 144 117l201 40c216 44 320 143 320 302 0 220-207 367-500 367" id="bN"/><g id="at"><use transform="matrix(0.008680555555555556,0,0,0.008680555555555556,0,0)" xlink:href="#bL"/><use transform="matrix(0.008680555555555556,0,0,0.008680555555555556,11.050347222222223,0)" xlink:href="#bM"/><use transform="matrix(0.008680555555555556,0,0,0.008680555555555556,21.640625,0)" xlink:href="#bN"/></g></defs></g></svg>