<svg xmlns="http://www.w3.org/2000/svg" xmlns:xlink="http://www.w3.org/1999/xlink" xmlns:lucid="lucid" width="3204" height="1896.4"><g transform="translate(1282 474.3984375)" lucid:page-tab-id="9zI~78TvH28L"><path d="M-1500-500h3500v2000h-3500z" fill="#fff"/><path d="M-1280-368a12 12 0 0 1 12-12h3176a12 12 0 0 1 12 12v1776a12 12 0 0 1-12 12h-3176a12 12 0 0 1-12-12z" stroke="#000" stroke-width="4" fill="#fff"/><path d="M-1280-460.4a12 12 0 0 1 12-12h228.16a12 12 0 0 1 12 12v56.4a12 12 0 0 1-12 12H-1268a12 12 0 0 1-12-12z" stroke="#000" stroke-width="4"/><use xlink:href="#a" transform="matrix(1,0,0,1,-1264,-456.3984375) translate(0 39.05078125)"/><use xlink:href="#b" transform="matrix(1,0,0,1,-1264,-456.3984375) translate(89.74609375 39.05078125)"/><path d="M-640 626a6 6 0 0 1 6-6h608a6 6 0 0 1 6 6v428a6 6 0 0 1-6 6h-608a6 6 0 0 1-6-6z" stroke="#333" stroke-width="6" fill="#54c45e"/><path d="M-640 186a6 6 0 0 1 6-6h608a6 6 0 0 1 6 6v428a6 6 0 0 1-6 6h-608a6 6 0 0 1-6-6zM-640-254a6 6 0 0 1 6-6h608a6 6 0 0 1 6 6v428a6 6 0 0 1-6 6h-608a6 6 0 0 1-6-6zM-20 626a6 6 0 0 1 6-6h608a6 6 0 0 1 6 6v428a6 6 0 0 1-6 6H-14a6 6 0 0 1-6-6zM600 626a6 6 0 0 1 6-6h608a6 6 0 0 1 6 6v428a6 6 0 0 1-6 6H606a6 6 0 0 1-6-6z" stroke="#333" stroke-width="6" fill="#ffe342"/><path d="M600 186a6 6 0 0 1 6-6h608a6 6 0 0 1 6 6v428a6 6 0 0 1-6 6H606a6 6 0 0 1-6-6zM600-254a6 6 0 0 1 6-6h608a6 6 0 0 1 6 6v428a6 6 0 0 1-6 6H606a6 6 0 0 1-6-6zM-20-254a6 6 0 0 1 6-6h608a6 6 0 0 1 6 6v428a6 6 0 0 1-6 6H-14a6 6 0 0 1-6-6z" stroke="#333" stroke-width="6" fill="#e81313"/><path d="M-20 186a6 6 0 0 1 6-6h608a6 6 0 0 1 6 6v428a6 6 0 0 1-6 6H-14a6 6 0 0 1-6-6z" stroke="#333" stroke-width="6" fill="#ffe342"/><path d="M-1174 617.05a6 6 0 0 1-6-6V186a6 6 0 0 1 6-6h153.36a6 6 0 0 1 6 6v425.05a6 6 0 0 1-6 6z" fill="none"/><use xlink:href="#c" transform="matrix(6.123233995736766e-17,-1,1,6.123233995736766e-17,-1175,612.049930555555) translate(0 110.33506944444439)"/><path d="M-840-116.68a6 6 0 0 1 6-6h165.05a6 6 0 0 1 6 6V36.68a6 6 0 0 1-6 6H-834a6 6 0 0 1-6-6z" fill="none"/><use xlink:href="#d" transform="matrix(1,0,0,1,-835,-117.68144299906044) translate(11.001953125000213 102.25130208333326)"/><path d="M-920 323.32a6 6 0 0 1 6-6h251.88a6 6 0 0 1 6 6v153.36a6 6 0 0 1-6 6H-914a6 6 0 0 1-6-6z" fill="none"/><use xlink:href="#e" transform="matrix(1,0,0,1,-915,322.31855700093956) translate(0.06315104166704089 102.25130208333326)"/><path d="M-840 760.37a6 6 0 0 1 6-6h165.05a6 6 0 0 1 6 6v153.36a6 6 0 0 1-6 6H-834a6 6 0 0 1-6-6z" fill="none"/><use xlink:href="#f" transform="matrix(1,0,0,1,-835,759.3684875564945) translate(18.488932291666856 102.25130208333326)"/><path d="M200.85 386.08a6 6 0 0 1 6-6h276.33a6 6 0 0 1 6 6v38.34a6 6 0 0 1-6 6H206.85a6 6 0 0 1-6-6z" fill="none"/><use xlink:href="#g" transform="matrix(1,0,0,1,205.85328993055555,385.0759548611108) translate(0 32.625651041666664)"/><use xlink:href="#h" transform="matrix(1,0,0,1,205.85328993055555,385.0759548611108) translate(133.1380208333333 32.625651041666664)"/><path d="M133.18 440.65c0-1.08-4.36-1.08-4.36 0 .58 6.46-4.2 12.14-10.65 12.7-.33.04-.6.05-.94.05h27.54c-6.47-.07-11.7-5.36-11.62-11.82 0-.33 0-.6.03-.93z" stroke="#000" stroke-opacity="0" fill="#999"/><path d="M161.84 344.24c1.58-1.57 4.15-1.57 5.73 0l.2.2c21.27 24.63 18.4 61.67-6.33 82.86-22.36 19.1-54.6 19-76.97-.1-1.7-1.48-1.88-3.94-.4-5.62l.2-.2c1.48-1.47 3.95-1.57 5.54-.2 19.3 16.36 46.9 16.36 66.2 0 21.37-18.12 23.94-50.14 5.64-71.42-1.4-1.58-1.3-4.04.2-5.52zM152.02 460h-41.94c-1.85 0-3.36-1.5-3.36-3.36 0-1.85 1.5-3.36 3.36-3.36h41.94c1.85 0 3.36 1.5 3.36 3.36 0 1.86-1.5 3.35-3.36 3.36z" stroke="#000" stroke-opacity="0" fill="#a3a3a3"/><path d="M166.1 382.78c0 23.62-19.3 42.78-43.06 42.78S80 406.4 80 382.78c0-23.6 19.28-42.78 43.04-42.78 23.76 0 43.05 19.17 43.05 42.78z" stroke="#000" stroke-opacity="0" fill="url(#i)"/><path d="M96.67 403.6h53.67c.4 0 .75-.1 1.04-.3 1.04-.58 1.33-1.85.75-2.83l-26.83-44.85c-.18-.3-.4-.5-.7-.7-.98-.57-2.25-.28-2.9.7l-26.83 44.85c-.17.34-.28.68-.28 1.07 0 1.13.9 2.06 2.07 2.06z" stroke="#000" stroke-opacity="0" fill="#f2f2f2"/><path d="M125.73 389.92h-4.6c-.54.02-1.02-.4-1.07-.95l-.48-20.73c0-.57.48-1.02 1.05-1h5.59c.57-.02 1.05.4 1.08.97v.04l-.5 20.73c-.03.56-.5.97-1.07.95zM127.1 396.08c0 2-1.64 3.64-3.66 3.64-2.02 0-3.66-1.63-3.66-3.64 0-2 1.64-3.64 3.66-3.64 2.02 0 3.66 1.63 3.66 3.64z" stroke="#000" stroke-opacity="0" fill="#f78d1e"/><path d="M84.26 421.4L92.8 413l6.6 4.62 9.07 4.35 9.98 2.45 12.24-.55 13.23-4.7 9.88-7.9L161 400.4l4.44-12.33-.27-12.42-3.8-10.87-5.45-8.33-5.35-5.8 12.15-7.16-.9 2.53v2.72l7.7 10.78 3.8 11.4 1.64 13.88-2.45 12.6-3.18 7.34-3.08 5.52-5.63 7.9-10.14 7.78-11.06 5.52-15.42 2.63-14.33-1.82-10.52-4.35-10.06-6.52-2-.9-1.54.36z" stroke="#000" stroke-opacity="0" fill-opacity="0"/><path d="M960-174a6 6 0 0 1 6-6h199.75a6 6 0 0 1 6 6v35.65a6 6 0 0 1-6 6H966a6 6 0 0 1-6-6z" fill="none"/><use xlink:href="#j" transform="matrix(1,0,0,1,965,-175) translate(0 30.317274305555554)"/><use xlink:href="#k" transform="matrix(1,0,0,1,965,-175) translate(76.47135416666664 30.317274305555554)"/><path d="M911.18-115.52c0-1.1-4.36-1.1-4.36 0 .58 6.45-4.2 12.14-10.65 12.7-.33.03-.6.05-.94.05h27.54c-6.47-.07-11.7-5.36-11.62-11.83 0-.32 0-.6.03-.92z" stroke="#000" stroke-opacity="0" fill="#999"/><path d="M939.84-211.93c1.58-1.58 4.15-1.58 5.74 0l.2.2c21.26 24.63 18.4 61.67-6.34 82.85-22.36 19.1-54.6 19.02-76.97-.1-1.7-1.48-1.88-3.94-.4-5.6l.2-.2c1.48-1.5 3.96-1.6 5.54-.2 19.3 16.35 46.9 16.35 66.2 0 21.37-18.14 23.94-50.15 5.64-71.43-1.4-1.6-1.3-4.05.2-5.53zM930.02-96.17h-41.94c-1.85 0-3.36-1.5-3.36-3.36 0-1.86 1.5-3.36 3.36-3.36h41.94c1.85 0 3.36 1.5 3.36 3.37 0 1.85-1.5 3.35-3.36 3.36z" stroke="#000" stroke-opacity="0" fill="#a3a3a3"/><path d="M944.1-173.4c0 23.62-19.3 42.8-43.06 42.8S858-149.8 858-173.4c0-23.6 19.28-42.77 43.04-42.77 23.76 0 43.05 19.16 43.05 42.78z" stroke="#000" stroke-opacity="0" fill="url(#l)"/><path d="M904.72-162.53h-8.06c-.98.04-1.82-.68-1.9-1.68l-.86-36.42c.03-1 .87-1.8 1.86-1.75H905.57c1-.04 1.84.7 1.9 1.7v.05l-.88 36.4c-.07 1-.9 1.73-1.88 1.7zM907.16-151.6c0 3.5-2.88 6.35-6.42 6.35-3.55 0-6.43-2.85-6.43-6.36 0-3.52 2.9-6.37 6.44-6.37 3.54 0 6.42 2.85 6.42 6.36z" stroke="#000" stroke-opacity="0" fill="#f2f2f2"/><path d="M862.26-134.76l8.53-8.43 6.6 4.63 9.08 4.35 9.97 2.44 12.24-.54 13.23-4.7 9.88-7.9 7.18-10.87 4.44-12.3-.27-12.42-3.8-10.87-5.45-8.33-5.35-5.8 12.15-7.15-.9 2.53v2.72l7.7 10.78 3.8 11.42 1.64 13.86-2.45 12.6-3.18 7.33-3.08 5.53-5.63 7.87-10.14 7.8-11.06 5.52-15.42 2.62-14.33-1.8-10.5-4.36-10.08-6.52-2-.9-1.54.35z" stroke="#000" stroke-opacity="0" fill-opacity="0"/><path d="M840-52.45a6 6 0 0 1 6-6h333.93a6 6 0 0 1 6 6v35.65a6 6 0 0 1-6 6H846a6 6 0 0 1-6-6z" fill="none"/><use xlink:href="#m" transform="matrix(1,0,0,1,845,-53.44901041666668) translate(0 30.317274305555554)"/><use xlink:href="#n" transform="matrix(1,0,0,1,845,-53.44901041666668) translate(111.8511284722222 30.317274305555554)"/><use xlink:href="#o" transform="matrix(1,0,0,1,845,-53.44901041666668) translate(227.92534722222217 30.317274305555554)"/><path d="M773.18-22.03c0-1.08-4.36-1.08-4.36 0 .58 6.46-4.2 12.14-10.65 12.7-.33.04-.6.05-.94.05h27.54c-6.47-.07-11.7-5.36-11.62-11.83 0-.33 0-.6.03-.93z" stroke="#000" stroke-opacity="0" fill="#999"/><path d="M801.84-118.44c1.58-1.58 4.15-1.58 5.74 0l.2.2c21.26 24.63 18.4 61.67-6.34 82.85-22.36 19.13-54.6 19.03-76.97-.1v.02c-1.7-1.48-1.88-3.95-.4-5.62l.2-.2c1.48-1.48 3.96-1.57 5.54-.2 19.3 16.36 46.9 16.36 66.2 0 21.37-18.12 23.94-50.14 5.64-71.42-1.4-1.58-1.3-4.04.2-5.52zM792.02-2.68h-41.94c-1.85 0-3.36-1.5-3.36-3.36 0-1.86 1.5-3.36 3.36-3.36h41.94c1.85 0 3.36 1.5 3.36 3.36 0 1.85-1.5 3.35-3.36 3.36z" stroke="#000" stroke-opacity="0" fill="#a3a3a3"/><path d="M806.1-79.9c0 23.6-19.3 42.78-43.06 42.78S720-56.3 720-79.9c0-23.62 19.28-42.78 43.04-42.78 23.76 0 43.05 19.16 43.05 42.78z" stroke="#000" stroke-opacity="0" fill="url(#p)"/><path d="M766.72-69.04h-8.06c-.98.04-1.82-.68-1.9-1.67l-.86-36.43c.03-1 .87-1.8 1.86-1.75H767.57c1-.04 1.84.72 1.9 1.7v.05l-.88 36.4v.02c-.07.98-.9 1.7-1.88 1.66zM769.16-58.12c0 3.5-2.88 6.36-6.42 6.36-3.55 0-6.43-2.85-6.43-6.36 0-3.5 2.9-6.36 6.44-6.36 3.54 0 6.42 2.85 6.42 6.36z" stroke="#000" stroke-opacity="0" fill="#f2f2f2"/><path d="M724.26-41.27l8.53-8.43 6.6 4.62 9.08 4.35 9.97 2.45 12.24-.55 13.23-4.7 9.88-7.9L801-62.28l4.44-12.3-.27-12.43-3.8-10.87-5.45-8.33-5.35-5.8 12.15-7.16-.9 2.55v2.72l7.7 10.78 3.8 11.4 1.64 13.87-2.45 12.6-3.18 7.34-3.08 5.52-5.63 7.9-10.14 7.78-11.06 5.52-15.42 2.63-14.33-1.8-10.5-4.35-10.08-6.52-2-.9-1.54.35z" stroke="#000" stroke-opacity="0" fill-opacity="0"/><path d="M800 66a6 6 0 0 1 6-6h374.1a6 6 0 0 1 6 6v35.65a6 6 0 0 1-6 6H806a6 6 0 0 1-6-6z" fill="none"/><use xlink:href="#q" transform="matrix(1,0,0,1,805,65) translate(0 30.317274305555554)"/><use xlink:href="#r" transform="matrix(1,0,0,1,805,65) translate(72.70399305555554 30.317274305555554)"/><use xlink:href="#s" transform="matrix(1,0,0,1,805,65) translate(107.36979166666666 30.317274305555554)"/><use xlink:href="#t" transform="matrix(1,0,0,1,805,65) translate(162.83203124999997 30.317274305555554)"/><use xlink:href="#u" transform="matrix(1,0,0,1,805,65) translate(270.1410590277777 30.317274305555554)"/><path d="M180 1066a6 6 0 0 1 6-6h251.88a6 6 0 0 1 6 6v153.36a6 6 0 0 1-6 6H186a6 6 0 0 1-6-6z" fill="none"/><use xlink:href="#e" transform="matrix(1,0,0,1,185,1065) translate(0.06315104166704089 102.25130208333326)"/><path d="M-460 1066a6 6 0 0 1 6-6h165.05a6 6 0 0 1 6 6v153.36a6 6 0 0 1-6 6H-454a6 6 0 0 1-6-6z" fill="none"/><use xlink:href="#f" transform="matrix(1,0,0,1,-455,1065) translate(18.488932291666856 102.25130208333326)"/><path d="M862.95 1066a6 6 0 0 1 6-6H1034a6 6 0 0 1 6 6v153.36a6 6 0 0 1-6 6H868.95a6 6 0 0 1-6-6z" fill="none"/><use xlink:href="#d" transform="matrix(1,0,0,1,867.950069444445,1065) translate(11.001953125000213 102.25130208333326)"/><path d="M101.47 1166a6 6 0 0 1 6-6h425.05a6 6 0 0 1 6 6v153.36a6 6 0 0 1-6 6H107.48a6 6 0 0 1-6-6z" fill="none"/><use xlink:href="#v" transform="matrix(1,0,0,1,106.47503472222257,1165) translate(70.59722222222246 110.33506944444439)"/><path d="M713.18 120.65c0-1.08-4.36-1.08-4.36 0 .58 6.46-4.2 12.14-10.65 12.7-.33.04-.6.05-.94.05h27.54c-6.47-.07-11.7-5.36-11.62-11.82 0-.33 0-.6.03-.93z" stroke="#000" stroke-opacity="0" fill="#999"/><path d="M741.84 24.24c1.58-1.57 4.15-1.57 5.74 0l.2.2c21.26 24.63 18.4 61.67-6.34 82.85-22.36 19.1-54.6 19-76.97-.1-1.7-1.48-1.88-3.95-.4-5.62l.2-.2c1.48-1.47 3.96-1.57 5.54-.2 19.3 16.36 46.9 16.36 66.2 0 21.37-18.12 23.94-50.14 5.64-71.42-1.4-1.58-1.3-4.04.2-5.52zM732.02 140h-41.94c-1.85 0-3.36-1.5-3.36-3.36 0-1.85 1.5-3.36 3.36-3.36h41.94c1.85 0 3.36 1.5 3.36 3.36 0 1.86-1.5 3.35-3.36 3.36z" stroke="#000" stroke-opacity="0" fill="#a3a3a3"/><path d="M746.1 62.78c0 23.6-19.3 42.78-43.06 42.78S660 86.4 660 62.78C660 39.16 679.28 20 703.04 20c23.76 0 43.05 19.16 43.05 42.78z" stroke="#000" stroke-opacity="0" fill="url(#w)"/><path d="M706.72 73.64h-8.06c-.98.04-1.82-.68-1.9-1.67l-.86-36.42c.03-1 .87-1.8 1.86-1.75H707.57c1-.04 1.84.72 1.9 1.7v.05l-.88 36.42c-.07 1-.9 1.7-1.88 1.67zM709.16 84.56c0 3.5-2.88 6.36-6.42 6.36-3.55 0-6.43-2.85-6.43-6.36 0-3.5 2.9-6.36 6.44-6.36 3.54 0 6.42 2.85 6.42 6.36z" stroke="#000" stroke-opacity="0" fill="#f2f2f2"/><path d="M664.26 101.4L672.8 93l6.6 4.62 9.08 4.35 9.97 2.45 12.24-.55 13.23-4.7 9.88-7.9L741 80.4l4.44-12.33-.27-12.4-3.8-10.9-5.45-8.32-5.35-5.8 12.15-7.16-.9 2.53v2.72l7.7 10.78 3.8 11.4 1.64 13.88-2.45 12.6-3.18 7.34-3.08 5.52-5.63 7.9-10.14 7.78-11.06 5.53-15.42 2.62-14.33-1.82-10.5-4.35-10.08-6.52-2-.9-1.54.36z" stroke="#000" stroke-opacity="0" fill-opacity="0"/><path d="M-440 1326a6 6 0 0 1 6-6h70.98a6 6 0 0 1 6 6v48a6 6 0 0 1-6 6H-434a6 6 0 0 1-6-6z" stroke="#333" stroke-width="6" fill="#54c45e"/><path d="M-340 1338.35a6 6 0 0 1 6-6H-7.23a6 6 0 0 1 6 6V1374a6 6 0 0 1-6 6H-334a6 6 0 0 1-6-6z" fill="none"/><use xlink:href="#x" transform="matrix(1,0,0,1,-335,1337.3467708333333) translate(0 30.317274305555554)"/><use xlink:href="#y" transform="matrix(1,0,0,1,-335,1337.3467708333333) translate(69.89366319444443 30.317274305555554)"/><use xlink:href="#z" transform="matrix(1,0,0,1,-335,1337.3467708333333) translate(139.69618055555554 30.317274305555554)"/><path d="M64.1 1325a6 6 0 0 1 6-6h71a6 6 0 0 1 6 6v48a6 6 0 0 1-6 6h-71a6 6 0 0 1-6-6z" stroke="#333" stroke-width="6" fill="#ffe342"/><path d="M164.1 1337.35a6 6 0 0 1 6-6h627.76a6 6 0 0 1 6 6V1373a6 6 0 0 1-6 6H170.12a6 6 0 0 1-6-6z" fill="none"/><use xlink:href="#A" transform="matrix(1,0,0,1,169.11348958333338,1336.3467708333333) translate(0 30.317274305555554)"/><use xlink:href="#y" transform="matrix(1,0,0,1,169.11348958333338,1336.3467708333333) translate(127.22439236111106 30.317274305555554)"/><use xlink:href="#B" transform="matrix(1,0,0,1,169.11348958333338,1336.3467708333333) translate(197.02690972222217 30.317274305555554)"/><use xlink:href="#C" transform="matrix(1,0,0,1,169.11348958333338,1336.3467708333333) translate(361.9704861111111 30.317274305555554)"/><use xlink:href="#D" transform="matrix(1,0,0,1,169.11348958333338,1336.3467708333333) translate(460.8485243055555 30.317274305555554)"/><path d="M846.5 1325a6 6 0 0 1 6-6h70.96a6 6 0 0 1 6 6v48a6 6 0 0 1-6 6H852.5a6 6 0 0 1-6-6z" stroke="#333" stroke-width="6" fill="#e81313"/><path d="M946.5 1337.35a6 6 0 0 1 6-6h771.78a6 6 0 0 1 6 6V1373a6 6 0 0 1-6 6h-771.8a6 6 0 0 1-6-6z" fill="none"/><use xlink:href="#E" transform="matrix(1,0,0,1,951.4865451388889,1336.3467708333333) translate(0 30.317274305555554)"/><use xlink:href="#y" transform="matrix(1,0,0,1,951.4865451388889,1336.3467708333333) translate(76.88151041666666 30.317274305555554)"/><use xlink:href="#F" transform="matrix(1,0,0,1,951.4865451388889,1336.3467708333333) translate(146.68402777777777 30.317274305555554)"/><use xlink:href="#G" transform="matrix(1,0,0,1,951.4865451388889,1336.3467708333333) translate(380.0021701388888 30.317274305555554)"/><use xlink:href="#H" transform="matrix(1,0,0,1,951.4865451388889,1336.3467708333333) translate(540.9960937499998 30.317274305555554)"/><use xlink:href="#I" transform="matrix(1,0,0,1,951.4865451388889,1336.3467708333333) translate(639.7374131944442 30.317274305555554)"/><path d="M345.02 432.92v299.22a6 6 0 0 0 6 6h984.12" stroke="#3a414a" stroke-width="5" fill="none"/><path d="M347.5 432.98h-4.96v-2.56h4.95z" stroke="#3a414a" stroke-width=".05" fill="#3a414a"/><path d="M1351.9 738.14l-14.26 4.64v-9.27z" stroke="#3a414a" stroke-width="5" fill="#3a414a"/><path d="M1360 666a6 6 0 0 1 6-6h528a6 6 0 0 1 6 6v144.28a6 6 0 0 1-6 6h-528a6 6 0 0 1-6-6z" fill="none"/><g><use xlink:href="#J" transform="matrix(1,0,0,1,1365,665) translate(0 34.809027777777786)"/><use xlink:href="#K" transform="matrix(1,0,0,1,1365,665) translate(139.68749999999994 34.809027777777786)"/><use xlink:href="#L" transform="matrix(1,0,0,1,1365,665) translate(0 86.43402777777777)"/><use xlink:href="#M" transform="matrix(1,0,0,1,1365,665) translate(127.46527777777774 86.43402777777777)"/><use xlink:href="#N" transform="matrix(1,0,0,1,1365,665) translate(219.7743055555555 86.43402777777777)"/><use xlink:href="#O" transform="matrix(1,0,0,1,1365,665) translate(372.27430555555543 86.43402777777777)"/><use xlink:href="#P" transform="matrix(1,0,0,1,1365,665) translate(0 138.05902777777774)"/><use xlink:href="#Q" transform="matrix(1,0,0,1,1365,665) translate(86.96180555555553 138.05902777777774)"/><use xlink:href="#R" transform="matrix(1,0,0,1,1365,665) translate(145.5208333333333 138.05902777777774)"/></g><path d="M993.05 110.15v302a6 6 0 0 0 6 6h336.1" stroke="#3a414a" stroke-width="5" fill="none"/><path d="M995.53 110.22h-4.95v-2.57h4.95z" stroke="#3a414a" stroke-width=".05" fill="#3a414a"/><path d="M1351.9 418.14l-14.26 4.64v-9.27z" stroke="#3a414a" stroke-width="5" fill="#3a414a"/><path d="M1360 346a6 6 0 0 1 6-6h528a6 6 0 0 1 6 6v144.28a6 6 0 0 1-6 6h-528a6 6 0 0 1-6-6z" fill="none"/><g><use xlink:href="#S" transform="matrix(1,0,0,1,1365,345) translate(0 34.809027777777786)"/><use xlink:href="#T" transform="matrix(1,0,0,1,1365,345) translate(58.10763888888887 34.809027777777786)"/><use xlink:href="#U" transform="matrix(1,0,0,1,1365,345) translate(185.9548611111111 34.809027777777786)"/><use xlink:href="#V" transform="matrix(1,0,0,1,1365,345) translate(307.9166666666666 34.809027777777786)"/><use xlink:href="#W" transform="matrix(1,0,0,1,1365,345) translate(0 86.43402777777777)"/><use xlink:href="#X" transform="matrix(1,0,0,1,1365,345) translate(72.74305555555553 86.43402777777777)"/><use xlink:href="#Y" transform="matrix(1,0,0,1,1365,345) translate(251.68402777777766 86.43402777777777)"/><use xlink:href="#Z" transform="matrix(1,0,0,1,1365,345) translate(380.53819444444423 86.43402777777777)"/><use xlink:href="#aa" transform="matrix(1,0,0,1,1365,345) translate(0 138.05902777777774)"/></g><path d="M1012.96-8.3v40.44a6 6 0 0 0 6 6h316.18" stroke="#3a414a" stroke-width="5" fill="none"/><path d="M1015.44-8.23h-4.95v-2.57h4.94z" stroke="#3a414a" stroke-width=".05" fill="#3a414a"/><path d="M1351.9 38.14l-14.26 4.64V33.5z" stroke="#3a414a" stroke-width="5" fill="#3a414a"/><path d="M1360-34a6 6 0 0 1 6-6h528a6 6 0 0 1 6 6v144.28a6 6 0 0 1-6 6h-528a6 6 0 0 1-6-6z" fill="none"/><g><use xlink:href="#ab" transform="matrix(1,0,0,1,1365,-35) translate(0 34.809027777777786)"/><use xlink:href="#ac" transform="matrix(1,0,0,1,1365,-35) translate(127.82986111111106 34.809027777777786)"/><use xlink:href="#ad" transform="matrix(1,0,0,1,1365,-35) translate(233.2638888888888 34.809027777777786)"/><use xlink:href="#ae" transform="matrix(1,0,0,1,1365,-35) translate(0 86.43402777777777)"/><use xlink:href="#X" transform="matrix(1,0,0,1,1365,-35) translate(231.16319444444431 86.43402777777777)"/><use xlink:href="#af" transform="matrix(1,0,0,1,1365,-35) translate(410.10416666666646 86.43402777777777)"/><use xlink:href="#ag" transform="matrix(1,0,0,1,1365,-35) translate(0 138.05902777777774)"/><use xlink:href="#ah" transform="matrix(1,0,0,1,1365,-35) translate(44.7048611111111 138.05902777777774)"/></g><path d="M1065.87-182.5v-33.36a6 6 0 0 1 6-6h263.27" stroke="#3a414a" stroke-width="5" fill="none"/><path d="M1068.35-180h-4.95v-2.56h4.95z" stroke="#3a414a" stroke-width=".05" fill="#3a414a"/><path d="M1351.9-221.86l-14.26 4.64v-9.28z" stroke="#3a414a" stroke-width="5" fill="#3a414a"/><path d="M1360-294a6 6 0 0 1 6-6h528a6 6 0 0 1 6 6v144.28a6 6 0 0 1-6 6h-528a6 6 0 0 1-6-6z" fill="none"/><g><use xlink:href="#ai" transform="matrix(1,0,0,1,1365,-295) translate(0 60.621527777777786)"/><use xlink:href="#aj" transform="matrix(1,0,0,1,1365,-295) translate(87.39583333333331 60.621527777777786)"/><use xlink:href="#ak" transform="matrix(1,0,0,1,1365,-295) translate(229.06249999999994 60.621527777777786)"/><use xlink:href="#al" transform="matrix(1,0,0,1,1365,-295) translate(255.4166666666666 60.621527777777786)"/><use xlink:href="#am" transform="matrix(1,0,0,1,1365,-295) translate(353.6979166666666 60.621527777777786)"/><use xlink:href="#an" transform="matrix(1,0,0,1,1365,-295) translate(398.17708333333326 60.621527777777786)"/><use xlink:href="#Z" transform="matrix(1,0,0,1,1365,-295) translate(476.84027777777766 60.621527777777786)"/><use xlink:href="#ao" transform="matrix(1,0,0,1,1365,-295) translate(0 112.24652777777777)"/><use xlink:href="#ap" transform="matrix(1,0,0,1,1365,-295) translate(134.70486111111106 112.24652777777777)"/><use xlink:href="#aq" transform="matrix(1,0,0,1,1365,-295) translate(285.39930555555543 112.24652777777777)"/><use xlink:href="#ar" transform="matrix(1,0,0,1,1365,-295) translate(332.58680555555543 112.24652777777777)"/></g><defs><path fill="#fff" d="M180 0v-1490h510c348 0 508 194 508 460 0 198-88 351-276 417L1256 0h-220L726-579c-117 2-238 0-356 1V0H180zm190-747h312c235 0 327-108 327-283 0-177-92-293-329-293H370v576" id="as"/><path fill="#fff" d="M158 0v-1118h180V0H158zm91-1301c-68 0-125-53-125-119s57-119 125-119c69 0 126 53 126 119s-57 119-126 119" id="at"/><path fill="#fff" d="M538 24C308 24 148-78 108-271l171-41c32 123 123 178 257 178 156 0 256-77 256-169 0-77-54-128-164-154l-186-44c-203-48-300-148-300-305 0-192 176-326 414-326 230 0 351 112 402 269l-163 42c-31-80-94-158-238-158-133 0-233 69-233 162 0 83 57 129 188 160l169 40c203 48 298 149 298 302 0 196-179 339-441 339" id="au"/><path fill="#fff" d="M158 0v-1490h180v865h22l478-493h223L593-638 1096 0H865L456-523 338-412V0H158" id="av"/><g id="a"><use transform="matrix(0.01953125,0,0,0.01953125,0,0)" xlink:href="#as"/><use transform="matrix(0.01953125,0,0,0.01953125,25.7421875,0)" xlink:href="#at"/><use transform="matrix(0.01953125,0,0,0.01953125,35.4296875,0)" xlink:href="#au"/><use transform="matrix(0.01953125,0,0,0.01953125,56.54296875,0)" xlink:href="#av"/></g><path fill="#fff" d="M180 0v-1490h270l367 940c28 72 75 218 110 339 35-117 81-264 110-339l362-940h271V0h-187c2-448-5-837 7-1287-157 497-311 829-483 1287H842C666-458 514-784 354-1284c12 438 5 843 7 1284H180" id="aw"/><path fill="#fff" d="M471 26C259 26 90-98 90-318c0-256 228-303 435-329 202-27 287-16 287-108 0-139-79-219-234-219-161 0-248 86-283 164l-173-57c86-203 278-265 451-265 150 0 419 46 419 395V0H815v-152h-12C765-73 660 26 471 26zm31-159c199 0 310-134 310-271v-155c-30 35-226 55-295 64-131 17-246 59-246 186 0 116 97 176 231 176" id="ax"/><path fill="#fff" d="M598-1118v154H368v674c0 100 37 144 132 144 23 0 62-6 92-12L629-6c-37 13-88 20-134 20-193 0-307-107-307-290v-688H20v-154h168v-266h180v266h230" id="ay"/><path fill="#fff" d="M158 0v-1118h174v172h12c41-113 157-188 290-188 26 0 70 2 91 3v181c-11-2-60-10-108-10-161 0-279 109-279 260V0H158" id="az"/><path fill="#fff" d="M65 0l393-574-370-544h210c88 136 192 297 267 435 67-142 176-302 264-435h206L661-564 1053 0H844c-94-144-206-310-287-458C484-308 366-142 273 0H65" id="aA"/><path fill="#fff" d="M295 13c-75 0-135-60-135-135s60-135 135-135 135 60 135 135S370 13 295 13zm0-809c-75 0-135-60-135-135s60-135 135-135 135 60 135 135-60 135-135 135" id="aB"/><g id="b"><use transform="matrix(0.01953125,0,0,0.01953125,0,0)" xlink:href="#aw"/><use transform="matrix(0.01953125,0,0,0.01953125,36.1328125,0)" xlink:href="#ax"/><use transform="matrix(0.01953125,0,0,0.01953125,58.59375,0)" xlink:href="#ay"/><use transform="matrix(0.01953125,0,0,0.01953125,71.6796875,0)" xlink:href="#az"/><use transform="matrix(0.01953125,0,0,0.01953125,87.36328125,0)" xlink:href="#at"/><use transform="matrix(0.01953125,0,0,0.01953125,97.05078125,0)" xlink:href="#aA"/><use transform="matrix(0.01953125,0,0,0.01953125,118.88671875,0)" xlink:href="#aB"/></g><path fill="#333" d="M180 0v-1490h190v1322h690V0H180" id="aC"/><path fill="#333" d="M158 0v-1118h180V0H158zm91-1301c-68 0-125-53-125-119s57-119 125-119c69 0 126 53 126 119s-57 119-126 119" id="aD"/><path fill="#333" d="M158 0v-1490h180v865h22l478-493h223L593-638 1096 0H865L456-523 338-412V0H158" id="aE"/><path fill="#333" d="M628 24c-324 0-524-230-524-574 0-343 198-582 503-582 237 0 487 146 487 559v75H286c9 234 145 362 343 362 132 0 231-58 273-172l174 48C1024-91 857 24 628 24zM287-650h624c-17-190-120-322-304-322-192 0-309 151-320 322" id="aF"/><path fill="#333" d="M338-1490V0H158v-1490h180" id="aG"/><path fill="#333" d="M338-670V0H158v-1490h180v566c73-149 190-208 336-208 226 0 379 139 379 422V0H872v-695c0-172-96-275-252-275-161 0-282 109-282 300" id="aH"/><path fill="#333" d="M613 24c-304 0-509-231-509-576 0-350 205-580 509-580 305 0 511 230 511 580 0 345-206 576-511 576zm0-161c226 0 329-195 329-415 0-222-103-419-329-419-223 0-326 196-326 419 0 220 103 415 326 415" id="aI"/><path fill="#333" d="M577 24c-279 0-473-224-473-580 0-354 195-576 474-576 218 0 287 134 324 193h14v-551h180V0H922v-173h-20C865-111 790 24 577 24zm27-161c203 0 314-172 314-421 0-247-108-413-314-413-212 0-317 181-317 413 0 235 108 421 317 421" id="aJ"/><g id="c"><use transform="matrix(0.0434027777777777,0,0,0.0434027777777777,0,0)" xlink:href="#aC"/><use transform="matrix(0.0434027777777777,0,0,0.0434027777777777,50.26041666666658,0)" xlink:href="#aD"/><use transform="matrix(0.0434027777777777,0,0,0.0434027777777777,71.78819444444431,0)" xlink:href="#aE"/><use transform="matrix(0.0434027777777777,0,0,0.0434027777777777,118.5763888888887,0)" xlink:href="#aF"/><use transform="matrix(0.0434027777777777,0,0,0.0434027777777777,170.39930555555526,0)" xlink:href="#aG"/><use transform="matrix(0.0434027777777777,0,0,0.0434027777777777,191.927083333333,0)" xlink:href="#aD"/><use transform="matrix(0.0434027777777777,0,0,0.0434027777777777,213.45486111111072,0)" xlink:href="#aH"/><use transform="matrix(0.0434027777777777,0,0,0.0434027777777777,266.01562499999955,0)" xlink:href="#aI"/><use transform="matrix(0.0434027777777777,0,0,0.0434027777777777,319.3142361111106,0)" xlink:href="#aI"/><use transform="matrix(0.0434027777777777,0,0,0.0434027777777777,372.61284722222166,0)" xlink:href="#aJ"/></g><path fill="#333" d="M180 0v-1490h190v644h782v-644h190V0h-190v-678H370V0H180" id="aK"/><path fill="#333" d="M611 442c-248 0-391-105-460-228l146-94c47 65 117 165 314 165 178 0 307-82 307-266v-224h-17C863-141 792-18 576-18c-268 0-472-195-472-546 0-346 197-568 476-568 216 0 288 133 326 193h17v-179h175V29c0 289-215 413-487 413zm-5-620c203 0 314-146 314-390 0-237-108-403-314-403-213 0-319 180-319 403 0 230 109 390 319 390" id="aL"/><g id="d"><use transform="matrix(0.03255208333333324,0,0,0.03255208333333324,0,0)" xlink:href="#aK"/><use transform="matrix(0.03255208333333324,0,0,0.03255208333333324,49.54427083333319,0)" xlink:href="#aD"/><use transform="matrix(0.03255208333333324,0,0,0.03255208333333324,65.69010416666647,0)" xlink:href="#aL"/><use transform="matrix(0.03255208333333324,0,0,0.03255208333333324,106.57552083333302,0)" xlink:href="#aH"/></g><path fill="#333" d="M180 0v-1490h270l367 940c28 72 75 218 110 339 35-117 81-264 110-339l362-940h271V0h-187c2-448-5-837 7-1287-157 497-311 829-483 1287H842C666-458 514-784 354-1284c12 438 5 843 7 1284H180" id="aM"/><path fill="#333" d="M537 14c-226 0-379-139-379-422v-710h180v695c0 172 97 275 253 275 160 0 281-109 281-300v-670h181V0H879v-209C806-46 684 14 537 14" id="aN"/><path fill="#333" d="M158 0v-1118h175l1 205c55-151 181-225 313-225 147 0 245 90 285 228 53-141 190-228 352-228 194 0 352 125 352 384V0h-181v-749c0-161-105-225-225-225-151 0-243 103-243 244V0H807v-767c0-124-93-207-219-207-131 0-250 92-250 270V0H158" id="aO"/><g id="e"><use transform="matrix(0.03255208333333324,0,0,0.03255208333333324,0,0)" xlink:href="#aM"/><use transform="matrix(0.03255208333333324,0,0,0.03255208333333324,60.221354166666494,0)" xlink:href="#aF"/><use transform="matrix(0.03255208333333324,0,0,0.03255208333333324,99.08854166666637,0)" xlink:href="#aJ"/><use transform="matrix(0.03255208333333324,0,0,0.03255208333333324,139.90885416666626,0)" xlink:href="#aD"/><use transform="matrix(0.03255208333333324,0,0,0.03255208333333324,156.05468749999955,0)" xlink:href="#aN"/><use transform="matrix(0.03255208333333324,0,0,0.03255208333333324,195.4752604166661,0)" xlink:href="#aO"/></g><path fill="#333" d="M409 0L70-1118h191c89 329 165 560 243 925 75-353 154-601 240-925h192c85 325 161 564 235 922 77-354 157-598 244-922h191L1267 0h-179c-86-307-176-590-250-913C763-588 675-308 588 0H409" id="aP"/><g id="f"><use transform="matrix(0.03255208333333324,0,0,0.03255208333333324,0,0)" xlink:href="#aC"/><use transform="matrix(0.03255208333333324,0,0,0.03255208333333324,37.69531249999989,0)" xlink:href="#aI"/><use transform="matrix(0.03255208333333324,0,0,0.03255208333333324,76.46484374999977,0)" xlink:href="#aP"/></g><path d="M657 26c-323 0-524-166-541-416h195c15 169 171 246 346 246 202 0 356-106 356-265 5-203-294-238-475-293-239-73-380-191-380-389 0-252 224-419 512-419 294 0 499 171 508 396H992c-17-145-151-228-328-228-193 0-321 102-321 242 0 156 175 211 284 241l149 41c160 44 422 134 422 412 0 244-197 432-541 432" id="aQ"/><path d="M628 24c-324 0-524-230-524-574 0-343 198-582 503-582 237 0 487 146 487 559v75H286c9 234 145 362 343 362 132 0 231-58 273-172l174 48C1024-91 857 24 628 24zM287-650h624c-17-190-120-322-304-322-192 0-309 151-320 322" id="aR"/><path d="M538 24C308 24 148-78 108-271l171-41c32 123 123 178 257 178 156 0 256-77 256-169 0-77-54-128-164-154l-186-44c-203-48-300-148-300-305 0-192 176-326 414-326 230 0 351 112 402 269l-163 42c-31-80-94-158-238-158-133 0-233 69-233 162 0 83 57 129 188 160l169 40c203 48 298 149 298 302 0 196-179 339-441 339" id="aS"/><path d="M158 0v-1118h180V0H158zm91-1301c-68 0-125-53-125-119s57-119 125-119c69 0 126 53 126 119s-57 119-126 119" id="aT"/><path d="M613 24c-304 0-509-231-509-576 0-350 205-580 509-580 305 0 511 230 511 580 0 345-206 576-511 576zm0-161c226 0 329-195 329-415 0-222-103-419-329-419-223 0-326 196-326 419 0 220 103 415 326 415" id="aU"/><path d="M338-670V0H158v-1118h173l1 207c72-158 192-221 342-221 226 0 378 139 378 422V0H872v-695c0-172-96-275-252-275-161 0-282 109-282 300" id="aV"/><g id="g"><use transform="matrix(0.01627604166666666,0,0,0.01627604166666666,0,0)" xlink:href="#aQ"/><use transform="matrix(0.01627604166666666,0,0,0.01627604166666666,21.386718749999993,0)" xlink:href="#aR"/><use transform="matrix(0.01627604166666666,0,0,0.01627604166666666,40.820312499999986,0)" xlink:href="#aS"/><use transform="matrix(0.01627604166666666,0,0,0.01627604166666666,58.41471354166664,0)" xlink:href="#aS"/><use transform="matrix(0.01627604166666666,0,0,0.01627604166666666,76.0091145833333,0)" xlink:href="#aT"/><use transform="matrix(0.01627604166666666,0,0,0.01627604166666666,84.08203124999997,0)" xlink:href="#aU"/><use transform="matrix(0.01627604166666666,0,0,0.01627604166666666,104.06901041666663,0)" xlink:href="#aV"/></g><path d="M180 0v-1490h190v644h782v-644h190V0h-190v-678H370V0H180" id="aW"/><path d="M157-1118h181V80c1 225-123 350-364 338V252c126 9 184-48 183-172v-1198zm91-183c-68 0-125-53-125-119s57-119 125-119c69 0 126 53 126 119s-57 119-126 119" id="aX"/><path d="M471 26C259 26 90-98 90-318c0-256 228-303 435-329 202-27 287-16 287-108 0-139-79-219-234-219-161 0-248 86-283 164l-173-57c86-203 278-265 451-265 150 0 419 46 419 395V0H815v-152h-12C765-73 660 26 471 26zm31-159c199 0 310-134 310-271v-155c-30 35-226 55-295 64-131 17-246 59-246 186 0 116 97 176 231 176" id="aY"/><path d="M613 24c-304 0-509-231-509-576 0-350 205-580 509-580 216 0 392 114 453 309l-173 49c-33-115-133-197-280-197-223 0-326 196-326 419 0 220 103 415 326 415 150 0 252-85 285-206l172 49C1010-95 832 24 613 24" id="aZ"/><path d="M158 0v-1490h180v865h22l478-493h223L593-638 1096 0H865L456-523 338-412V0H158" id="ba"/><path d="M611 442c-248 0-391-105-460-228l146-94c47 65 117 165 314 165 178 0 307-82 307-266v-224h-17C863-141 792-18 576-18c-268 0-472-195-472-546 0-346 197-568 476-568 216 0 288 133 326 193h17v-179h175V29c0 289-215 413-487 413zm-5-620c203 0 314-146 314-390 0-237-108-403-314-403-213 0-319 180-319 403 0 230 109 390 319 390" id="bb"/><g id="h"><use transform="matrix(0.01627604166666666,0,0,0.01627604166666666,0,0)" xlink:href="#aW"/><use transform="matrix(0.01627604166666666,0,0,0.01627604166666666,24.772135416666657,0)" xlink:href="#aT"/><use transform="matrix(0.01627604166666666,0,0,0.01627604166666666,32.84505208333332,0)" xlink:href="#aX"/><use transform="matrix(0.01627604166666666,0,0,0.01627604166666666,40.917968749999986,0)" xlink:href="#aY"/><use transform="matrix(0.01627604166666666,0,0,0.01627604166666666,59.63541666666664,0)" xlink:href="#aZ"/><use transform="matrix(0.01627604166666666,0,0,0.01627604166666666,78.67838541666663,0)" xlink:href="#ba"/><use transform="matrix(0.01627604166666666,0,0,0.01627604166666666,96.97265624999996,0)" xlink:href="#aT"/><use transform="matrix(0.01627604166666666,0,0,0.01627604166666666,105.04557291666663,0)" xlink:href="#aV"/><use transform="matrix(0.01627604166666666,0,0,0.01627604166666666,124.73958333333329,0)" xlink:href="#bb"/></g><linearGradient gradientUnits="userSpaceOnUse" id="i" x1="94.44" y1="443.53" x2="166.55" y2="358.69"><stop offset="0%" stop-color="#ef7100"/><stop offset="82%" stop-color="#f78d1e"/></linearGradient><path d="M645 0H180v-1490h484c435 0 692 280 692 742 0 466-257 748-711 748zM370-168h263c363 0 539-218 539-580 0-358-176-574-521-574H370v1154" id="bc"/><path d="M598-1118v154H368v674c0 100 37 144 132 144 23 0 62-6 92-12L629-6c-37 13-88 20-134 20-193 0-307-107-307-290v-688H20v-154h168v-266h180v266h230" id="bd"/><g id="j"><use transform="matrix(0.015190972222222219,0,0,0.015190972222222219,0,0)" xlink:href="#bc"/><use transform="matrix(0.015190972222222219,0,0,0.015190972222222219,22.45225694444444,0)" xlink:href="#aY"/><use transform="matrix(0.015190972222222219,0,0,0.015190972222222219,39.921874999999986,0)" xlink:href="#bd"/><use transform="matrix(0.015190972222222219,0,0,0.015190972222222219,50.25173611111109,0)" xlink:href="#aY"/></g><path d="M180 0v-1490h190v1322h690V0H180" id="be"/><g id="k"><use transform="matrix(0.015190972222222219,0,0,0.015190972222222219,0,0)" xlink:href="#be"/><use transform="matrix(0.015190972222222219,0,0,0.015190972222222219,17.59114583333333,0)" xlink:href="#aR"/><use transform="matrix(0.015190972222222219,0,0,0.015190972222222219,36.0329861111111,0)" xlink:href="#aY"/><use transform="matrix(0.015190972222222219,0,0,0.015190972222222219,53.50260416666665,0)" xlink:href="#ba"/><use transform="matrix(0.015190972222222219,0,0,0.015190972222222219,70.57725694444443,0)" xlink:href="#aY"/><use transform="matrix(0.015190972222222219,0,0,0.015190972222222219,88.04687499999997,0)" xlink:href="#bb"/><use transform="matrix(0.015190972222222219,0,0,0.015190972222222219,107.12673611111109,0)" xlink:href="#aR"/></g><linearGradient gradientUnits="userSpaceOnUse" id="l" x1="872.46" y1="-112.72" x2="944.58" y2="-197.56"><stop offset="0%" stop-color="#b31b1b"/><stop offset="82%" stop-color="#e62323"/></linearGradient><path d="M180 0v-1490h528c311 0 458 177 458 395 0 191-114 278-244 313v14c139 9 302 137 302 371 0 225-148 397-499 397H180zm190-168h350c232 0 321-102 321-231 0-149-120-277-311-277H370v508zm0-668h328c160 0 286-101 286-255 0-129-87-231-280-231H370v486" id="bf"/><path d="M158 0v-1118h174v172h12c41-113 157-188 290-188 26 0 70 2 91 3v181c-11-2-60-10-108-10-161 0-279 109-279 260V0H158" id="bg"/><g id="m"><use transform="matrix(0.015190972222222219,0,0,0.015190972222222219,0,0)" xlink:href="#bf"/><use transform="matrix(0.015190972222222219,0,0,0.015190972222222219,20.35590277777777,0)" xlink:href="#bg"/><use transform="matrix(0.015190972222222219,0,0,0.015190972222222219,31.55164930555554,0)" xlink:href="#aU"/><use transform="matrix(0.015190972222222219,0,0,0.015190972222222219,50.20616319444443,0)" xlink:href="#ba"/><use transform="matrix(0.015190972222222219,0,0,0.015190972222222219,66.58203124999999,0)" xlink:href="#aR"/><use transform="matrix(0.015190972222222219,0,0,0.015190972222222219,84.72005208333331,0)" xlink:href="#aV"/></g><path d="M783 20c-382 0-661-292-661-764 0-473 279-766 661-766 302 0 548 182 601 489h-190c-42-204-217-313-411-313-268 0-476 208-476 590 0 381 209 588 476 588 195 0 369-110 411-313h190c-52 303-296 489-601 489" id="bh"/><path d="M338-1490V0H158v-1490h180" id="bi"/><g id="n"><use transform="matrix(0.015190972222222219,0,0,0.015190972222222219,0,0)" xlink:href="#bh"/><use transform="matrix(0.015190972222222219,0,0,0.015190972222222219,22.72569444444444,0)" xlink:href="#aU"/><use transform="matrix(0.015190972222222219,0,0,0.015190972222222219,41.38020833333333,0)" xlink:href="#aV"/><use transform="matrix(0.015190972222222219,0,0,0.015190972222222219,59.761284722222214,0)" xlink:href="#bd"/><use transform="matrix(0.015190972222222219,0,0,0.015190972222222219,69.9392361111111,0)" xlink:href="#bg"/><use transform="matrix(0.015190972222222219,0,0,0.015190972222222219,81.13498263888887,0)" xlink:href="#aU"/><use transform="matrix(0.015190972222222219,0,0,0.015190972222222219,99.78949652777776,0)" xlink:href="#bi"/></g><path d="M52 0l541-1490h220L1361 0h-200l-149-416H398L254 0H52zm404-582h497c-103-290-145-390-251-756-108 377-145 460-246 756" id="bj"/><g id="o"><use transform="matrix(0.015190972222222219,0,0,0.015190972222222219,0,0)" xlink:href="#bj"/><use transform="matrix(0.015190972222222219,0,0,0.015190972222222219,21.464843749999996,0)" xlink:href="#aZ"/><use transform="matrix(0.015190972222222219,0,0,0.015190972222222219,39.23828124999999,0)" xlink:href="#aZ"/><use transform="matrix(0.015190972222222219,0,0,0.015190972222222219,57.011718749999986,0)" xlink:href="#aR"/><use transform="matrix(0.015190972222222219,0,0,0.015190972222222219,75.14973958333331,0)" xlink:href="#aS"/><use transform="matrix(0.015190972222222219,0,0,0.015190972222222219,91.57118055555553,0)" xlink:href="#aS"/></g><linearGradient gradientUnits="userSpaceOnUse" id="p" x1="734.46" y1="-19.23" x2="806.58" y2="-104.07"><stop offset="0%" stop-color="#b31b1b"/><stop offset="82%" stop-color="#e62323"/></linearGradient><path d="M180 0v-1490h270l367 940c28 72 75 218 110 339 35-117 81-264 110-339l362-940h271V0h-187c2-448-5-837 7-1287-157 497-311 829-483 1287H842C666-458 514-784 354-1284c12 438 5 843 7 1284H180" id="bk"/><g id="q"><use transform="matrix(0.015190972222222219,0,0,0.015190972222222219,0,0)" xlink:href="#bk"/><use transform="matrix(0.015190972222222219,0,0,0.015190972222222219,28.103298611111104,0)" xlink:href="#aY"/><use transform="matrix(0.015190972222222219,0,0,0.015190972222222219,45.57291666666666,0)" xlink:href="#aV"/></g><g id="r"><use transform="matrix(0.015190972222222219,0,0,0.015190972222222219,0,0)" xlink:href="#aT"/><use transform="matrix(0.015190972222222219,0,0,0.015190972222222219,7.5347222222222205,0)" xlink:href="#aV"/></g><path d="M338-670V0H158v-1490h180v566c73-149 190-208 336-208 226 0 379 139 379 422V0H872v-695c0-172-96-275-252-275-161 0-282 109-282 300" id="bl"/><g id="s"><use transform="matrix(0.015190972222222219,0,0,0.015190972222222219,0,0)" xlink:href="#bd"/><use transform="matrix(0.015190972222222219,0,0,0.015190972222222219,10.177951388888886,0)" xlink:href="#bl"/><use transform="matrix(0.015190972222222219,0,0,0.015190972222222219,28.574218749999993,0)" xlink:href="#aR"/></g><path d="M158 0v-1118h175l1 205c55-151 181-225 313-225 147 0 245 90 285 228 53-141 190-228 352-228 194 0 352 125 352 384V0h-181v-749c0-161-105-225-225-225-151 0-243 103-243 244V0H807v-767c0-124-93-207-219-207-131 0-250 92-250 270V0H158" id="bm"/><path d="M577 24c-279 0-473-224-473-580 0-354 195-576 474-576 218 0 287 134 324 193h14v-551h180V0H922v-173h-20C865-111 790 24 577 24zm27-161c203 0 314-172 314-421 0-247-108-413-314-413-212 0-317 181-317 413 0 235 108 421 317 421" id="bn"/><g id="t"><use transform="matrix(0.015190972222222219,0,0,0.015190972222222219,0,0)" xlink:href="#bm"/><use transform="matrix(0.015190972222222219,0,0,0.015190972222222219,27.25260416666666,0)" xlink:href="#aT"/><use transform="matrix(0.015190972222222219,0,0,0.015190972222222219,34.78732638888888,0)" xlink:href="#bn"/><use transform="matrix(0.015190972222222219,0,0,0.015190972222222219,53.83680555555554,0)" xlink:href="#bn"/><use transform="matrix(0.015190972222222219,0,0,0.015190972222222219,72.8862847222222,0)" xlink:href="#bi"/><use transform="matrix(0.015190972222222219,0,0,0.015190972222222219,80.42100694444441,0)" xlink:href="#aR"/></g><g id="u"><use transform="matrix(0.015190972222222219,0,0,0.015190972222222219,0,0)" xlink:href="#aY"/><use transform="matrix(0.015190972222222219,0,0,0.015190972222222219,17.46961805555555,0)" xlink:href="#bd"/><use transform="matrix(0.015190972222222219,0,0,0.015190972222222219,26.888020833333325,0)" xlink:href="#bd"/><use transform="matrix(0.015190972222222219,0,0,0.015190972222222219,37.21788194444443,0)" xlink:href="#aY"/><use transform="matrix(0.015190972222222219,0,0,0.015190972222222219,54.68749999999998,0)" xlink:href="#aZ"/><use transform="matrix(0.015190972222222219,0,0,0.015190972222222219,72.46093749999997,0)" xlink:href="#ba"/><use transform="matrix(0.015190972222222219,0,0,0.015190972222222219,89.53559027777774,0)" xlink:href="#aS"/></g><path fill="#333" d="M370-1490V0H180v-1490h190" id="bo"/><path fill="#333" d="M158 418v-1536h174v179h20c37-59 106-193 324-193 279 0 474 222 474 576 0 356-194 580-473 580-213 0-288-135-325-197h-14v591H158zm492-555c209 0 317-186 317-421 0-232-105-413-317-413-206 0-314 166-314 413 0 249 111 421 314 421" id="bp"/><path fill="#333" d="M471 26C259 26 90-98 90-318c0-256 228-303 435-329 202-27 287-16 287-108 0-139-79-219-234-219-161 0-248 86-283 164l-173-57c86-203 278-265 451-265 150 0 419 46 419 395V0H815v-152h-12C765-73 660 26 471 26zm31-159c199 0 310-134 310-271v-155c-30 35-226 55-295 64-131 17-246 59-246 186 0 116 97 176 231 176" id="bq"/><path fill="#333" d="M613 24c-304 0-509-231-509-576 0-350 205-580 509-580 216 0 392 114 453 309l-173 49c-33-115-133-197-280-197-223 0-326 196-326 419 0 220 103 415 326 415 150 0 252-85 285-206l172 49C1010-95 832 24 613 24" id="br"/><path fill="#333" d="M598-1118v154H368v674c0 100 37 144 132 144 23 0 62-6 92-12L629-6c-37 13-88 20-134 20-193 0-307-107-307-290v-688H20v-154h168v-266h180v266h230" id="bs"/><g id="v"><use transform="matrix(0.0434027777777777,0,0,0.0434027777777777,0,0)" xlink:href="#bo"/><use transform="matrix(0.0434027777777777,0,0,0.0434027777777777,23.871527777777736,0)" xlink:href="#aO"/><use transform="matrix(0.0434027777777777,0,0,0.0434027777777777,101.73611111111094,0)" xlink:href="#bp"/><use transform="matrix(0.0434027777777777,0,0,0.0434027777777777,157.03124999999974,0)" xlink:href="#bq"/><use transform="matrix(0.0434027777777777,0,0,0.0434027777777777,206.94444444444412,0)" xlink:href="#br"/><use transform="matrix(0.0434027777777777,0,0,0.0434027777777777,257.725694444444,0)" xlink:href="#bs"/></g><linearGradient gradientUnits="userSpaceOnUse" id="w" x1="674.46" y1="123.45" x2="746.58" y2="38.61"><stop offset="0%" stop-color="#b31b1b"/><stop offset="82%" stop-color="#e62323"/></linearGradient><path d="M409 0L70-1118h191c89 329 165 560 243 925 75-353 154-601 240-925h192c85 325 161 564 235 922 77-354 157-598 244-922h191L1267 0h-179c-86-307-176-590-250-913C763-588 675-308 588 0H409" id="bt"/><g id="x"><use transform="matrix(0.015190972222222219,0,0,0.015190972222222219,0,0)" xlink:href="#be"/><use transform="matrix(0.015190972222222219,0,0,0.015190972222222219,17.59114583333333,0)" xlink:href="#aU"/><use transform="matrix(0.015190972222222219,0,0,0.015190972222222219,35.68359374999999,0)" xlink:href="#bt"/></g><path d="M180 0v-1490h510c348 0 508 194 508 460 0 198-88 351-276 417L1256 0h-220L726-579c-117 2-238 0-356 1V0H180zm190-747h312c235 0 327-108 327-283 0-177-92-293-329-293H370v576" id="bu"/><g id="y"><use transform="matrix(0.015190972222222219,0,0,0.015190972222222219,0,0)" xlink:href="#bu"/><use transform="matrix(0.015190972222222219,0,0,0.015190972222222219,20.021701388888886,0)" xlink:href="#aT"/><use transform="matrix(0.015190972222222219,0,0,0.015190972222222219,27.556423611111107,0)" xlink:href="#aS"/><use transform="matrix(0.015190972222222219,0,0,0.015190972222222219,43.97786458333333,0)" xlink:href="#ba"/></g><path d="M218-607c0-325 108-727 258-974h175c-155 315-250 682-250 974 0 265 78 531 250 886H476C306-10 218-315 218-607" id="bv"/><path d="M158 418v-1536h174v179h20c37-59 106-193 324-193 279 0 474 222 474 576 0 356-194 580-473 580-213 0-288-135-325-197h-14v591H158zm492-555c209 0 317-186 317-421 0-232-105-413-317-413-206 0-314 166-314 413 0 249 111 421 314 421" id="bw"/><path d="M677 24c-213 0-288-135-325-197h-20V0H158v-1490h180v551h14c37-59 106-193 324-193 279 0 474 222 474 576 0 356-194 580-473 580zm-27-161c209 0 317-186 317-421 0-232-105-413-317-413-206 0-314 166-314 413 0 249 111 421 314 421" id="bx"/><path d="M96 279C273-86 346-350 346-607c0-292-95-659-250-974h175c150 246 258 650 258 974 0 297-91 602-258 886H96" id="by"/><g id="z"><use transform="matrix(0.015190972222222219,0,0,0.015190972222222219,0,0)" xlink:href="#bv"/><use transform="matrix(0.015190972222222219,0,0,0.015190972222222219,11.347656249999996,0)" xlink:href="#bj"/><use transform="matrix(0.015190972222222219,0,0,0.015190972222222219,32.81249999999999,0)" xlink:href="#aZ"/><use transform="matrix(0.015190972222222219,0,0,0.015190972222222219,50.585937499999986,0)" xlink:href="#aZ"/><use transform="matrix(0.015190972222222219,0,0,0.015190972222222219,68.35937499999999,0)" xlink:href="#aR"/><use transform="matrix(0.015190972222222219,0,0,0.015190972222222219,86.49739583333331,0)" xlink:href="#bw"/><use transform="matrix(0.015190972222222219,0,0,0.015190972222222219,105.54687499999997,0)" xlink:href="#bd"/><use transform="matrix(0.015190972222222219,0,0,0.015190972222222219,115.87673611111109,0)" xlink:href="#aY"/><use transform="matrix(0.015190972222222219,0,0,0.015190972222222219,133.34635416666663,0)" xlink:href="#bx"/><use transform="matrix(0.015190972222222219,0,0,0.015190972222222219,152.3958333333333,0)" xlink:href="#bi"/><use transform="matrix(0.015190972222222219,0,0,0.015190972222222219,159.93055555555551,0)" xlink:href="#aR"/><use transform="matrix(0.015190972222222219,0,0,0.015190972222222219,177.71918402777771,0)" xlink:href="#by"/></g><path d="M537 14c-226 0-379-139-379-422v-710h180v695c0 172 97 275 253 275 160 0 281-109 281-300v-670h181V0H879v-209C806-46 684 14 537 14" id="bz"/><g id="A"><use transform="matrix(0.015190972222222219,0,0,0.015190972222222219,0,0)" xlink:href="#bk"/><use transform="matrix(0.015190972222222219,0,0,0.015190972222222219,28.103298611111104,0)" xlink:href="#aR"/><use transform="matrix(0.015190972222222219,0,0,0.015190972222222219,46.24131944444443,0)" xlink:href="#bn"/><use transform="matrix(0.015190972222222219,0,0,0.015190972222222219,65.29079861111109,0)" xlink:href="#aT"/><use transform="matrix(0.015190972222222219,0,0,0.015190972222222219,72.8255208333333,0)" xlink:href="#bz"/><use transform="matrix(0.015190972222222219,0,0,0.015190972222222219,91.2217881944444,0)" xlink:href="#bm"/></g><path d="M98-1322v-168h1126v168H757V0H567v-1322H98" id="bA"/><path d="M128 359l88-567h206L266 359H128" id="bB"/><g id="B"><use transform="matrix(0.015190972222222219,0,0,0.015190972222222219,0,0)" xlink:href="#bv"/><use transform="matrix(0.015190972222222219,0,0,0.015190972222222219,11.347656249999996,0)" xlink:href="#bA"/><use transform="matrix(0.015190972222222219,0,0,0.015190972222222219,28.999565972222214,0)" xlink:href="#aU"/><use transform="matrix(0.015190972222222219,0,0,0.015190972222222219,47.6540798611111,0)" xlink:href="#bi"/><use transform="matrix(0.015190972222222219,0,0,0.015190972222222219,55.18880208333332,0)" xlink:href="#aR"/><use transform="matrix(0.015190972222222219,0,0,0.015190972222222219,73.32682291666666,0)" xlink:href="#bg"/><use transform="matrix(0.015190972222222219,0,0,0.015190972222222219,85.03906249999999,0)" xlink:href="#aY"/><use transform="matrix(0.015190972222222219,0,0,0.015190972222222219,102.50868055555554,0)" xlink:href="#bx"/><use transform="matrix(0.015190972222222219,0,0,0.015190972222222219,121.5581597222222,0)" xlink:href="#bi"/><use transform="matrix(0.015190972222222219,0,0,0.015190972222222219,129.09288194444443,0)" xlink:href="#aR"/><use transform="matrix(0.015190972222222219,0,0,0.015190972222222219,147.23090277777777,0)" xlink:href="#bB"/></g><g id="C"><use transform="matrix(0.015190972222222219,0,0,0.015190972222222219,0,0)" xlink:href="#aV"/><use transform="matrix(0.015190972222222219,0,0,0.015190972222222219,18.381076388888886,0)" xlink:href="#aR"/><use transform="matrix(0.015190972222222219,0,0,0.015190972222222219,36.519097222222214,0)" xlink:href="#aR"/><use transform="matrix(0.015190972222222219,0,0,0.015190972222222219,54.65711805555554,0)" xlink:href="#bn"/><use transform="matrix(0.015190972222222219,0,0,0.015190972222222219,73.7065972222222,0)" xlink:href="#aS"/></g><g id="D"><use transform="matrix(0.015190972222222219,0,0,0.015190972222222219,0,0)" xlink:href="#bm"/><use transform="matrix(0.015190972222222219,0,0,0.015190972222222219,27.25260416666666,0)" xlink:href="#aU"/><use transform="matrix(0.015190972222222219,0,0,0.015190972222222219,45.90711805555554,0)" xlink:href="#aV"/><use transform="matrix(0.015190972222222219,0,0,0.015190972222222219,64.28819444444443,0)" xlink:href="#aT"/><use transform="matrix(0.015190972222222219,0,0,0.015190972222222219,71.82291666666664,0)" xlink:href="#bd"/><use transform="matrix(0.015190972222222219,0,0,0.015190972222222219,81.69704861111109,0)" xlink:href="#aU"/><use transform="matrix(0.015190972222222219,0,0,0.015190972222222219,100.35156249999997,0)" xlink:href="#bg"/><use transform="matrix(0.015190972222222219,0,0,0.015190972222222219,112.54991319444441,0)" xlink:href="#aT"/><use transform="matrix(0.015190972222222219,0,0,0.015190972222222219,120.08463541666663,0)" xlink:href="#aV"/><use transform="matrix(0.015190972222222219,0,0,0.015190972222222219,138.46571180555551,0)" xlink:href="#bb"/><use transform="matrix(0.015190972222222219,0,0,0.015190972222222219,157.54557291666663,0)" xlink:href="#by"/></g><g id="E"><use transform="matrix(0.015190972222222219,0,0,0.015190972222222219,0,0)" xlink:href="#aW"/><use transform="matrix(0.015190972222222219,0,0,0.015190972222222219,23.120659722222218,0)" xlink:href="#aT"/><use transform="matrix(0.015190972222222219,0,0,0.015190972222222219,30.65538194444444,0)" xlink:href="#bb"/><use transform="matrix(0.015190972222222219,0,0,0.015190972222222219,49.73524305555554,0)" xlink:href="#bl"/></g><path d="M763 24c-353 0-583-224-583-531v-983h190v968c0 214 149 370 393 370 243 0 391-156 391-370v-968h190v983c0 307-230 531-581 531" id="bC"/><g id="F"><use transform="matrix(0.015190972222222219,0,0,0.015190972222222219,0,0)" xlink:href="#bv"/><use transform="matrix(0.015190972222222219,0,0,0.015190972222222219,11.347656249999996,0)" xlink:href="#bC"/><use transform="matrix(0.015190972222222219,0,0,0.015190972222222219,34.49869791666666,0)" xlink:href="#aV"/><use transform="matrix(0.015190972222222219,0,0,0.015190972222222219,52.87977430555554,0)" xlink:href="#aY"/><use transform="matrix(0.015190972222222219,0,0,0.015190972222222219,70.34939236111109,0)" xlink:href="#aZ"/><use transform="matrix(0.015190972222222219,0,0,0.015190972222222219,88.12282986111109,0)" xlink:href="#aZ"/><use transform="matrix(0.015190972222222219,0,0,0.015190972222222219,105.89626736111109,0)" xlink:href="#aR"/><use transform="matrix(0.015190972222222219,0,0,0.015190972222222219,124.03428819444441,0)" xlink:href="#bw"/><use transform="matrix(0.015190972222222219,0,0,0.015190972222222219,143.0837673611111,0)" xlink:href="#bd"/><use transform="matrix(0.015190972222222219,0,0,0.015190972222222219,153.4136284722222,0)" xlink:href="#aY"/><use transform="matrix(0.015190972222222219,0,0,0.015190972222222219,170.88324652777774,0)" xlink:href="#bx"/><use transform="matrix(0.015190972222222219,0,0,0.015190972222222219,189.9327256944444,0)" xlink:href="#bi"/><use transform="matrix(0.015190972222222219,0,0,0.015190972222222219,197.46744791666663,0)" xlink:href="#aR"/><use transform="matrix(0.015190972222222219,0,0,0.015190972222222219,215.60546874999994,0)" xlink:href="#bB"/></g><g id="G"><use transform="matrix(0.015190972222222219,0,0,0.015190972222222219,0,0)" xlink:href="#aT"/><use transform="matrix(0.015190972222222219,0,0,0.015190972222222219,7.5347222222222205,0)" xlink:href="#bm"/><use transform="matrix(0.015190972222222219,0,0,0.015190972222222219,34.78732638888888,0)" xlink:href="#bm"/><use transform="matrix(0.015190972222222219,0,0,0.015190972222222219,62.03993055555554,0)" xlink:href="#aR"/><use transform="matrix(0.015190972222222219,0,0,0.015190972222222219,80.17795138888887,0)" xlink:href="#bn"/><use transform="matrix(0.015190972222222219,0,0,0.015190972222222219,99.22743055555553,0)" xlink:href="#aT"/><use transform="matrix(0.015190972222222219,0,0,0.015190972222222219,106.76215277777774,0)" xlink:href="#aY"/><use transform="matrix(0.015190972222222219,0,0,0.015190972222222219,124.23177083333329,0)" xlink:href="#bd"/><use transform="matrix(0.015190972222222219,0,0,0.015190972222222219,134.10590277777771,0)" xlink:href="#aR"/></g><g id="H"><use transform="matrix(0.015190972222222219,0,0,0.015190972222222219,0,0)" xlink:href="#aY"/><use transform="matrix(0.015190972222222219,0,0,0.015190972222222219,17.46961805555555,0)" xlink:href="#aZ"/><use transform="matrix(0.015190972222222219,0,0,0.015190972222222219,35.24305555555554,0)" xlink:href="#bd"/><use transform="matrix(0.015190972222222219,0,0,0.015190972222222219,45.42100694444443,0)" xlink:href="#aT"/><use transform="matrix(0.015190972222222219,0,0,0.015190972222222219,52.95572916666665,0)" xlink:href="#aU"/><use transform="matrix(0.015190972222222219,0,0,0.015190972222222219,71.61024305555554,0)" xlink:href="#aV"/></g><path d="M1096 418H916v-591h-14C865-111 790 24 577 24c-279 0-473-224-473-580 0-354 195-576 474-576 218 0 287 134 324 193h20v-179h174V418zM604-137c203 0 314-172 314-421 0-247-108-413-314-413-212 0-317 181-317 413 0 235 108 421 317 421" id="bD"/><g id="I"><use transform="matrix(0.015190972222222219,0,0,0.015190972222222219,0,0)" xlink:href="#bg"/><use transform="matrix(0.015190972222222219,0,0,0.015190972222222219,11.195746527777775,0)" xlink:href="#aR"/><use transform="matrix(0.015190972222222219,0,0,0.015190972222222219,29.333767361111104,0)" xlink:href="#bD"/><use transform="matrix(0.015190972222222219,0,0,0.015190972222222219,48.383246527777764,0)" xlink:href="#bz"/><use transform="matrix(0.015190972222222219,0,0,0.015190972222222219,66.77951388888887,0)" xlink:href="#aT"/><use transform="matrix(0.015190972222222219,0,0,0.015190972222222219,74.31423611111109,0)" xlink:href="#bg"/><use transform="matrix(0.015190972222222219,0,0,0.015190972222222219,85.50998263888886,0)" xlink:href="#aR"/><use transform="matrix(0.015190972222222219,0,0,0.015190972222222219,103.64800347222219,0)" xlink:href="#bn"/><use transform="matrix(0.015190972222222219,0,0,0.015190972222222219,122.69748263888884,0)" xlink:href="#by"/></g><g id="J"><use transform="matrix(0.017361111111111105,0,0,0.017361111111111105,0,0)" xlink:href="#bk"/><use transform="matrix(0.017361111111111105,0,0,0.017361111111111105,32.11805555555554,0)" xlink:href="#aT"/><use transform="matrix(0.017361111111111105,0,0,0.017361111111111105,40.72916666666665,0)" xlink:href="#aS"/><use transform="matrix(0.017361111111111105,0,0,0.017361111111111105,59.49652777777776,0)" xlink:href="#aS"/><use transform="matrix(0.017361111111111105,0,0,0.017361111111111105,78.26388888888886,0)" xlink:href="#aT"/><use transform="matrix(0.017361111111111105,0,0,0.017361111111111105,86.87499999999997,0)" xlink:href="#aV"/><use transform="matrix(0.017361111111111105,0,0,0.017361111111111105,107.8819444444444,0)" xlink:href="#bb"/></g><path d="M784 20c-382 0-662-292-662-764 0-473 280-766 662-766s660 293 660 766c0 472-278 764-660 764zm0-176c266 0 475-207 475-588 0-383-209-590-475-590-268 0-477 208-477 590 0 380 209 588 477 588" id="bE"/><path d="M140 405l46-156c120 36 205 19 263-150l32-93L54-1118h197c107 313 237 620 324 950 87-331 219-637 326-950h196L606 167c-68 178-176 259-334 259-64 0-113-12-132-21" id="bF"/><path d="M692-1560L212 224H46l480-1784h166" id="bG"/><g id="K"><use transform="matrix(0.017361111111111105,0,0,0.017361111111111105,0,0)" xlink:href="#aW"/><use transform="matrix(0.017361111111111105,0,0,0.017361111111111105,26.944444444444432,0)" xlink:href="#bd"/><use transform="matrix(0.017361111111111105,0,0,0.017361111111111105,37.70833333333332,0)" xlink:href="#bd"/><use transform="matrix(0.017361111111111105,0,0,0.017361111111111105,49.34027777777777,0)" xlink:href="#bw"/><use transform="matrix(0.017361111111111105,0,0,0.017361111111111105,71.11111111111109,0)" xlink:href="#bE"/><use transform="matrix(0.017361111111111105,0,0,0.017361111111111105,98.29861111111107,0)" xlink:href="#aV"/><use transform="matrix(0.017361111111111105,0,0,0.017361111111111105,119.30555555555551,0)" xlink:href="#bi"/><use transform="matrix(0.017361111111111105,0,0,0.017361111111111105,128.09027777777774,0)" xlink:href="#bF"/><use transform="matrix(0.017361111111111105,0,0,0.017361111111111105,146.05902777777777,0)" xlink:href="#bG"/><use transform="matrix(0.017361111111111105,0,0,0.017361111111111105,158.87152777777774,0)" xlink:href="#aQ"/><use transform="matrix(0.017361111111111105,0,0,0.017361111111111105,181.68402777777774,0)" xlink:href="#aR"/><use transform="matrix(0.017361111111111105,0,0,0.017361111111111105,202.4131944444444,0)" xlink:href="#aZ"/><use transform="matrix(0.017361111111111105,0,0,0.017361111111111105,222.7256944444444,0)" xlink:href="#bz"/><use transform="matrix(0.017361111111111105,0,0,0.017361111111111105,243.74999999999994,0)" xlink:href="#bg"/><use transform="matrix(0.017361111111111105,0,0,0.017361111111111105,256.54513888888886,0)" xlink:href="#aR"/></g><g id="L"><use transform="matrix(0.017361111111111105,0,0,0.017361111111111105,0,0)" xlink:href="#bh"/><use transform="matrix(0.017361111111111105,0,0,0.017361111111111105,25.972222222222214,0)" xlink:href="#aU"/><use transform="matrix(0.017361111111111105,0,0,0.017361111111111105,47.29166666666665,0)" xlink:href="#aU"/><use transform="matrix(0.017361111111111105,0,0,0.017361111111111105,68.61111111111109,0)" xlink:href="#ba"/><use transform="matrix(0.017361111111111105,0,0,0.017361111111111105,88.12499999999997,0)" xlink:href="#aT"/><use transform="matrix(0.017361111111111105,0,0,0.017361111111111105,96.73611111111109,0)" xlink:href="#aR"/></g><path d="M678-1118v154H420V0H240v-964H20v-154h220v-149c0-194 155-293 318-293 85 0 141 18 168 30l-50 154c-19-6-47-17-97-17-111 0-159 58-159 166v109h258" id="bH"/><g id="M"><use transform="matrix(0.017361111111111105,0,0,0.017361111111111105,0,0)" xlink:href="#bH"/><use transform="matrix(0.017361111111111105,0,0,0.017361111111111105,13.159722222222218,0)" xlink:href="#bi"/><use transform="matrix(0.017361111111111105,0,0,0.017361111111111105,21.770833333333325,0)" xlink:href="#aY"/><use transform="matrix(0.017361111111111105,0,0,0.017361111111111105,41.73611111111109,0)" xlink:href="#bb"/><use transform="matrix(0.017361111111111105,0,0,0.017361111111111105,63.54166666666664,0)" xlink:href="#aS"/></g><g id="N"><use transform="matrix(0.017361111111111105,0,0,0.017361111111111105,0,0)" xlink:href="#bH"/><use transform="matrix(0.017361111111111105,0,0,0.017361111111111105,12.604166666666663,0)" xlink:href="#aY"/><use transform="matrix(0.017361111111111105,0,0,0.017361111111111105,32.569444444444436,0)" xlink:href="#aZ"/><use transform="matrix(0.017361111111111105,0,0,0.017361111111111105,52.88194444444443,0)" xlink:href="#aT"/><use transform="matrix(0.017361111111111105,0,0,0.017361111111111105,61.493055555555536,0)" xlink:href="#bi"/><use transform="matrix(0.017361111111111105,0,0,0.017361111111111105,70.10416666666664,0)" xlink:href="#aT"/><use transform="matrix(0.017361111111111105,0,0,0.017361111111111105,78.71527777777774,0)" xlink:href="#bd"/><use transform="matrix(0.017361111111111105,0,0,0.017361111111111105,90.5208333333333,0)" xlink:href="#aY"/><use transform="matrix(0.017361111111111105,0,0,0.017361111111111105,110.48611111111107,0)" xlink:href="#bd"/><use transform="matrix(0.017361111111111105,0,0,0.017361111111111105,121.77083333333329,0)" xlink:href="#aR"/></g><g id="O"><use transform="matrix(0.017361111111111105,0,0,0.017361111111111105,0,0)" xlink:href="#aS"/><use transform="matrix(0.017361111111111105,0,0,0.017361111111111105,18.767361111111104,0)" xlink:href="#aR"/><use transform="matrix(0.017361111111111105,0,0,0.017361111111111105,39.496527777777764,0)" xlink:href="#aS"/><use transform="matrix(0.017361111111111105,0,0,0.017361111111111105,58.26388888888887,0)" xlink:href="#aS"/><use transform="matrix(0.017361111111111105,0,0,0.017361111111111105,77.03124999999997,0)" xlink:href="#aT"/><use transform="matrix(0.017361111111111105,0,0,0.017361111111111105,85.64236111111109,0)" xlink:href="#aU"/><use transform="matrix(0.017361111111111105,0,0,0.017361111111111105,106.96180555555551,0)" xlink:href="#aV"/></g><g id="P"><use transform="matrix(0.017361111111111105,0,0,0.017361111111111105,0,0)" xlink:href="#bd"/><use transform="matrix(0.017361111111111105,0,0,0.017361111111111105,11.631944444444441,0)" xlink:href="#bl"/><use transform="matrix(0.017361111111111105,0,0,0.017361111111111105,32.656249999999986,0)" xlink:href="#aR"/><use transform="matrix(0.017361111111111105,0,0,0.017361111111111105,53.38541666666664,0)" xlink:href="#bH"/><use transform="matrix(0.017361111111111105,0,0,0.017361111111111105,65.32986111111109,0)" xlink:href="#bd"/></g><path d="M481 0L54-1118h197c107 314 236 620 325 951 87-331 217-637 324-951h197L670 0H481" id="bI"/><g id="Q"><use transform="matrix(0.017361111111111105,0,0,0.017361111111111105,0,0)" xlink:href="#bI"/><use transform="matrix(0.017361111111111105,0,0,0.017361111111111105,19.982638888888882,0)" xlink:href="#aT"/><use transform="matrix(0.017361111111111105,0,0,0.017361111111111105,28.59374999999999,0)" xlink:href="#aY"/></g><path d="M57 0l534-763-501-727h220c122 187 296 416 391 605 94-191 272-419 396-605h215L811-770 1340 0h-219C986-204 811-426 699-640 588-430 407-202 273 0H57" id="bJ"/><g id="R"><use transform="matrix(0.017361111111111105,0,0,0.017361111111111105,0,0)" xlink:href="#bJ"/><use transform="matrix(0.017361111111111105,0,0,0.017361111111111105,23.906249999999993,0)" xlink:href="#aQ"/><use transform="matrix(0.017361111111111105,0,0,0.017361111111111105,46.718749999999986,0)" xlink:href="#aQ"/></g><path d="M180 0v-1490h224l606 953c40 63 108 177 176 312-27-437-7-821-13-1265h190V0h-226C860-448 622-778 356-1262c27 476 11 792 15 1262H180" id="bK"/><g id="S"><use transform="matrix(0.017361111111111105,0,0,0.017361111111111105,0,0)" xlink:href="#bK"/><use transform="matrix(0.017361111111111105,0,0,0.017361111111111105,26.788194444444436,0)" xlink:href="#aU"/></g><path d="M180 0v-1490h510c348 0 508 209 508 474 0 266-160 477-507 477H370V0H180zm190-706h312c236 0 327-133 327-310 0-176-91-307-329-307H370v617" id="bL"/><g id="T"><use transform="matrix(0.017361111111111105,0,0,0.017361111111111105,0,0)" xlink:href="#aW"/><use transform="matrix(0.017361111111111105,0,0,0.017361111111111105,26.4236111111111,0)" xlink:href="#bA"/><use transform="matrix(0.017361111111111105,0,0,0.017361111111111105,49.374999999999986,0)" xlink:href="#bA"/><use transform="matrix(0.017361111111111105,0,0,0.017361111111111105,72.32638888888889,0)" xlink:href="#bL"/><use transform="matrix(0.017361111111111105,0,0,0.017361111111111105,95.0347222222222,0)" xlink:href="#aQ"/></g><g id="U"><use transform="matrix(0.017361111111111105,0,0,0.017361111111111105,0,0)" xlink:href="#bm"/><use transform="matrix(0.017361111111111105,0,0,0.017361111111111105,31.14583333333332,0)" xlink:href="#aR"/><use transform="matrix(0.017361111111111105,0,0,0.017361111111111105,52.2222222222222,0)" xlink:href="#aY"/><use transform="matrix(0.017361111111111105,0,0,0.017361111111111105,72.18749999999997,0)" xlink:href="#aV"/><use transform="matrix(0.017361111111111105,0,0,0.017361111111111105,93.1944444444444,0)" xlink:href="#aS"/></g><g id="V"><use transform="matrix(0.017361111111111105,0,0,0.017361111111111105,0,0)" xlink:href="#aZ"/><use transform="matrix(0.017361111111111105,0,0,0.017361111111111105,20.312499999999993,0)" xlink:href="#bg"/><use transform="matrix(0.017361111111111105,0,0,0.017361111111111105,33.10763888888888,0)" xlink:href="#aR"/><use transform="matrix(0.017361111111111105,0,0,0.017361111111111105,53.83680555555554,0)" xlink:href="#bn"/><use transform="matrix(0.017361111111111105,0,0,0.017361111111111105,75.60763888888887,0)" xlink:href="#aR"/><use transform="matrix(0.017361111111111105,0,0,0.017361111111111105,96.33680555555551,0)" xlink:href="#aV"/><use transform="matrix(0.017361111111111105,0,0,0.017361111111111105,117.34374999999997,0)" xlink:href="#bd"/><use transform="matrix(0.017361111111111105,0,0,0.017361111111111105,128.9756944444444,0)" xlink:href="#aT"/><use transform="matrix(0.017361111111111105,0,0,0.017361111111111105,137.58680555555551,0)" xlink:href="#aY"/><use transform="matrix(0.017361111111111105,0,0,0.017361111111111105,157.5520833333333,0)" xlink:href="#bi"/><use transform="matrix(0.017361111111111105,0,0,0.017361111111111105,166.16319444444437,0)" xlink:href="#aS"/></g><g id="W"><use transform="matrix(0.017361111111111105,0,0,0.017361111111111105,0,0)" xlink:href="#aY"/><use transform="matrix(0.017361111111111105,0,0,0.017361111111111105,19.96527777777777,0)" xlink:href="#aV"/><use transform="matrix(0.017361111111111105,0,0,0.017361111111111105,40.97222222222221,0)" xlink:href="#bn"/></g><g id="X"><use transform="matrix(0.017361111111111105,0,0,0.017361111111111105,0,0)" xlink:href="#bn"/><use transform="matrix(0.017361111111111105,0,0,0.017361111111111105,21.770833333333325,0)" xlink:href="#aU"/><use transform="matrix(0.017361111111111105,0,0,0.017361111111111105,43.09027777777776,0)" xlink:href="#aZ"/><use transform="matrix(0.017361111111111105,0,0,0.017361111111111105,63.40277777777775,0)" xlink:href="#bz"/><use transform="matrix(0.017361111111111105,0,0,0.017361111111111105,84.4270833333333,0)" xlink:href="#bm"/><use transform="matrix(0.017361111111111105,0,0,0.017361111111111105,115.57291666666663,0)" xlink:href="#aR"/><use transform="matrix(0.017361111111111105,0,0,0.017361111111111105,136.3020833333333,0)" xlink:href="#aV"/><use transform="matrix(0.017361111111111105,0,0,0.017361111111111105,157.30902777777771,0)" xlink:href="#bd"/></g><g id="Y"><use transform="matrix(0.017361111111111105,0,0,0.017361111111111105,0,0)" xlink:href="#aY"/><use transform="matrix(0.017361111111111105,0,0,0.017361111111111105,19.96527777777777,0)" xlink:href="#aZ"/><use transform="matrix(0.017361111111111105,0,0,0.017361111111111105,40.277777777777764,0)" xlink:href="#aZ"/><use transform="matrix(0.017361111111111105,0,0,0.017361111111111105,60.59027777777776,0)" xlink:href="#aR"/><use transform="matrix(0.017361111111111105,0,0,0.017361111111111105,81.31944444444441,0)" xlink:href="#aS"/><use transform="matrix(0.017361111111111105,0,0,0.017361111111111105,100.08680555555551,0)" xlink:href="#aS"/></g><g id="Z"><use transform="matrix(0.017361111111111105,0,0,0.017361111111111105,0,0)" xlink:href="#aU"/><use transform="matrix(0.017361111111111105,0,0,0.017361111111111105,21.319444444444436,0)" xlink:href="#bg"/></g><g id="aa"><use transform="matrix(0.017361111111111105,0,0,0.017361111111111105,0,0)" xlink:href="#bn"/><use transform="matrix(0.017361111111111105,0,0,0.017361111111111105,21.770833333333325,0)" xlink:href="#aR"/><use transform="matrix(0.017361111111111105,0,0,0.017361111111111105,42.499999999999986,0)" xlink:href="#bi"/><use transform="matrix(0.017361111111111105,0,0,0.017361111111111105,51.11111111111109,0)" xlink:href="#aR"/><use transform="matrix(0.017361111111111105,0,0,0.017361111111111105,71.84027777777776,0)" xlink:href="#bd"/><use transform="matrix(0.017361111111111105,0,0,0.017361111111111105,83.47222222222219,0)" xlink:href="#aT"/><use transform="matrix(0.017361111111111105,0,0,0.017361111111111105,92.08333333333331,0)" xlink:href="#aU"/><use transform="matrix(0.017361111111111105,0,0,0.017361111111111105,113.40277777777774,0)" xlink:href="#aV"/></g><g id="ab"><use transform="matrix(0.017361111111111105,0,0,0.017361111111111105,0,0)" xlink:href="#bf"/><use transform="matrix(0.017361111111111105,0,0,0.017361111111111105,23.263888888888882,0)" xlink:href="#bg"/><use transform="matrix(0.017361111111111105,0,0,0.017361111111111105,36.059027777777764,0)" xlink:href="#aU"/><use transform="matrix(0.017361111111111105,0,0,0.017361111111111105,57.3784722222222,0)" xlink:href="#ba"/><use transform="matrix(0.017361111111111105,0,0,0.017361111111111105,76.09374999999997,0)" xlink:href="#aR"/><use transform="matrix(0.017361111111111105,0,0,0.017361111111111105,96.82291666666663,0)" xlink:href="#aV"/></g><g id="ac"><use transform="matrix(0.017361111111111105,0,0,0.017361111111111105,0,0)" xlink:href="#bu"/><use transform="matrix(0.017361111111111105,0,0,0.017361111111111105,22.881944444444436,0)" xlink:href="#bf"/><use transform="matrix(0.017361111111111105,0,0,0.017361111111111105,46.145833333333314,0)" xlink:href="#bj"/><use transform="matrix(0.017361111111111105,0,0,0.017361111111111105,69.46180555555553,0)" xlink:href="#bh"/></g><g id="ad"><use transform="matrix(0.017361111111111105,0,0,0.017361111111111105,0,0)" xlink:href="#aY"/><use transform="matrix(0.017361111111111105,0,0,0.017361111111111105,19.96527777777777,0)" xlink:href="#bi"/><use transform="matrix(0.017361111111111105,0,0,0.017361111111111105,28.57638888888888,0)" xlink:href="#bi"/><use transform="matrix(0.017361111111111105,0,0,0.017361111111111105,37.187499999999986,0)" xlink:href="#aU"/><use transform="matrix(0.017361111111111105,0,0,0.017361111111111105,57.86458333333331,0)" xlink:href="#bt"/><use transform="matrix(0.017361111111111105,0,0,0.017361111111111105,86.96180555555551,0)" xlink:href="#aS"/></g><path d="M126 0v-134l627-806v-11H146v-167h839v143L376-178v11h629V0H126" id="bM"/><g id="ae"><use transform="matrix(0.017361111111111105,0,0,0.017361111111111105,0,0)" xlink:href="#bz"/><use transform="matrix(0.017361111111111105,0,0,0.017361111111111105,21.024305555555546,0)" xlink:href="#aV"/><use transform="matrix(0.017361111111111105,0,0,0.017361111111111105,42.031249999999986,0)" xlink:href="#aY"/><use transform="matrix(0.017361111111111105,0,0,0.017361111111111105,61.99652777777776,0)" xlink:href="#bz"/><use transform="matrix(0.017361111111111105,0,0,0.017361111111111105,83.0208333333333,0)" xlink:href="#bd"/><use transform="matrix(0.017361111111111105,0,0,0.017361111111111105,94.65277777777774,0)" xlink:href="#bl"/><use transform="matrix(0.017361111111111105,0,0,0.017361111111111105,115.67708333333329,0)" xlink:href="#aU"/><use transform="matrix(0.017361111111111105,0,0,0.017361111111111105,136.99652777777771,0)" xlink:href="#bg"/><use transform="matrix(0.017361111111111105,0,0,0.017361111111111105,150.93749999999991,0)" xlink:href="#aT"/><use transform="matrix(0.017361111111111105,0,0,0.017361111111111105,159.54861111111103,0)" xlink:href="#bM"/><use transform="matrix(0.017361111111111105,0,0,0.017361111111111105,178.66319444444434,0)" xlink:href="#aR"/><use transform="matrix(0.017361111111111105,0,0,0.017361111111111105,199.392361111111,0)" xlink:href="#bn"/></g><g id="af"><use transform="matrix(0.017361111111111105,0,0,0.017361111111111105,0,0)" xlink:href="#aY"/><use transform="matrix(0.017361111111111105,0,0,0.017361111111111105,19.96527777777777,0)" xlink:href="#aZ"/><use transform="matrix(0.017361111111111105,0,0,0.017361111111111105,40.277777777777764,0)" xlink:href="#aZ"/><use transform="matrix(0.017361111111111105,0,0,0.017361111111111105,60.59027777777776,0)" xlink:href="#aR"/><use transform="matrix(0.017361111111111105,0,0,0.017361111111111105,81.31944444444441,0)" xlink:href="#aS"/><use transform="matrix(0.017361111111111105,0,0,0.017361111111111105,100.08680555555551,0)" xlink:href="#aS"/></g><g id="ag"><use transform="matrix(0.017361111111111105,0,0,0.017361111111111105,0,0)" xlink:href="#aU"/><use transform="matrix(0.017361111111111105,0,0,0.017361111111111105,21.319444444444436,0)" xlink:href="#bg"/></g><g id="ah"><use transform="matrix(0.017361111111111105,0,0,0.017361111111111105,0,0)" xlink:href="#bn"/><use transform="matrix(0.017361111111111105,0,0,0.017361111111111105,21.770833333333325,0)" xlink:href="#aR"/><use transform="matrix(0.017361111111111105,0,0,0.017361111111111105,42.499999999999986,0)" xlink:href="#bi"/><use transform="matrix(0.017361111111111105,0,0,0.017361111111111105,51.11111111111109,0)" xlink:href="#aR"/><use transform="matrix(0.017361111111111105,0,0,0.017361111111111105,71.84027777777776,0)" xlink:href="#bd"/><use transform="matrix(0.017361111111111105,0,0,0.017361111111111105,83.47222222222219,0)" xlink:href="#aT"/><use transform="matrix(0.017361111111111105,0,0,0.017361111111111105,92.08333333333331,0)" xlink:href="#aU"/><use transform="matrix(0.017361111111111105,0,0,0.017361111111111105,113.40277777777774,0)" xlink:href="#aV"/></g><g id="ai"><use transform="matrix(0.017361111111111105,0,0,0.017361111111111105,0,0)" xlink:href="#bc"/><use transform="matrix(0.017361111111111105,0,0,0.017361111111111105,25.659722222222214,0)" xlink:href="#aY"/><use transform="matrix(0.017361111111111105,0,0,0.017361111111111105,45.624999999999986,0)" xlink:href="#bd"/><use transform="matrix(0.017361111111111105,0,0,0.017361111111111105,57.43055555555554,0)" xlink:href="#aY"/></g><g id="aj"><use transform="matrix(0.017361111111111105,0,0,0.017361111111111105,0,0)" xlink:href="#bi"/><use transform="matrix(0.017361111111111105,0,0,0.017361111111111105,8.611111111111107,0)" xlink:href="#aR"/><use transform="matrix(0.017361111111111105,0,0,0.017361111111111105,29.68749999999999,0)" xlink:href="#aY"/><use transform="matrix(0.017361111111111105,0,0,0.017361111111111105,49.65277777777776,0)" xlink:href="#ba"/><use transform="matrix(0.017361111111111105,0,0,0.017361111111111105,69.16666666666664,0)" xlink:href="#aY"/><use transform="matrix(0.017361111111111105,0,0,0.017361111111111105,89.13194444444441,0)" xlink:href="#bb"/><use transform="matrix(0.017361111111111105,0,0,0.017361111111111105,110.93749999999996,0)" xlink:href="#aR"/></g><path d="M798-719v166H144v-166h654" id="bN"/><use transform="matrix(0.017361111111111105,0,0,0.017361111111111105,0,0)" xlink:href="#bN" id="ak"/><g id="al"><use transform="matrix(0.017361111111111105,0,0,0.017361111111111105,0,0)" xlink:href="#bA"/><use transform="matrix(0.017361111111111105,0,0,0.017361111111111105,22.951388888888882,0)" xlink:href="#bl"/><use transform="matrix(0.017361111111111105,0,0,0.017361111111111105,43.97569444444443,0)" xlink:href="#aR"/><use transform="matrix(0.017361111111111105,0,0,0.017361111111111105,64.70486111111109,0)" xlink:href="#bH"/><use transform="matrix(0.017361111111111105,0,0,0.017361111111111105,76.64930555555553,0)" xlink:href="#bd"/></g><g id="am"><use transform="matrix(0.017361111111111105,0,0,0.017361111111111105,0,0)" xlink:href="#aU"/><use transform="matrix(0.017361111111111105,0,0,0.017361111111111105,21.319444444444436,0)" xlink:href="#bH"/></g><g id="an"><use transform="matrix(0.017361111111111105,0,0,0.017361111111111105,0,0)" xlink:href="#bn"/><use transform="matrix(0.017361111111111105,0,0,0.017361111111111105,21.770833333333325,0)" xlink:href="#aT"/><use transform="matrix(0.017361111111111105,0,0,0.017361111111111105,30.381944444444432,0)" xlink:href="#aS"/><use transform="matrix(0.017361111111111105,0,0,0.017361111111111105,49.149305555555536,0)" xlink:href="#ba"/></g><g id="ao"><use transform="matrix(0.017361111111111105,0,0,0.017361111111111105,0,0)" xlink:href="#bx"/><use transform="matrix(0.017361111111111105,0,0,0.017361111111111105,22.118055555555546,0)" xlink:href="#aY"/><use transform="matrix(0.017361111111111105,0,0,0.017361111111111105,42.08333333333331,0)" xlink:href="#aZ"/><use transform="matrix(0.017361111111111105,0,0,0.017361111111111105,62.395833333333314,0)" xlink:href="#ba"/><use transform="matrix(0.017361111111111105,0,0,0.017361111111111105,81.9097222222222,0)" xlink:href="#bz"/><use transform="matrix(0.017361111111111105,0,0,0.017361111111111105,102.93402777777773,0)" xlink:href="#bw"/></g><path d="M65 0l393-574-370-544h210c88 136 192 297 267 435 67-142 176-302 264-435h206L661-564 1053 0H844c-94-144-206-310-287-458C484-308 366-142 273 0H65" id="bO"/><g id="ap"><use transform="matrix(0.017361111111111105,0,0,0.017361111111111105,0,0)" xlink:href="#aR"/><use transform="matrix(0.017361111111111105,0,0,0.017361111111111105,19.93055555555555,0)" xlink:href="#bO"/><use transform="matrix(0.017361111111111105,0,0,0.017361111111111105,39.340277777777764,0)" xlink:href="#bw"/><use transform="matrix(0.017361111111111105,0,0,0.017361111111111105,61.111111111111086,0)" xlink:href="#aU"/><use transform="matrix(0.017361111111111105,0,0,0.017361111111111105,82.43055555555551,0)" xlink:href="#aS"/><use transform="matrix(0.017361111111111105,0,0,0.017361111111111105,101.19791666666661,0)" xlink:href="#aR"/><use transform="matrix(0.017361111111111105,0,0,0.017361111111111105,121.92708333333327,0)" xlink:href="#aS"/></g><g id="aq"><use transform="matrix(0.017361111111111105,0,0,0.017361111111111105,0,0)" xlink:href="#aY"/><use transform="matrix(0.017361111111111105,0,0,0.017361111111111105,19.96527777777777,0)" xlink:href="#bi"/><use transform="matrix(0.017361111111111105,0,0,0.017361111111111105,28.57638888888888,0)" xlink:href="#bi"/></g><g id="ar"><use transform="matrix(0.017361111111111105,0,0,0.017361111111111105,0,0)" xlink:href="#bn"/><use transform="matrix(0.017361111111111105,0,0,0.017361111111111105,21.770833333333325,0)" xlink:href="#aU"/><use transform="matrix(0.017361111111111105,0,0,0.017361111111111105,43.09027777777776,0)" xlink:href="#aZ"/><use transform="matrix(0.017361111111111105,0,0,0.017361111111111105,63.40277777777775,0)" xlink:href="#bz"/><use transform="matrix(0.017361111111111105,0,0,0.017361111111111105,84.4270833333333,0)" xlink:href="#bm"/><use transform="matrix(0.017361111111111105,0,0,0.017361111111111105,115.57291666666663,0)" xlink:href="#aR"/><use transform="matrix(0.017361111111111105,0,0,0.017361111111111105,136.3020833333333,0)" xlink:href="#aV"/><use transform="matrix(0.017361111111111105,0,0,0.017361111111111105,157.30902777777771,0)" xlink:href="#bd"/></g></defs></g></svg>